<svg width="61px" height="43px" viewBox="0 0 61 43" version="1.1" xmlns="http://www.w3.org/2000/svg" xmlns:xlink="http://www.w3.org/1999/xlink">
    <title>asian food network</title>
    <g id="Page-1" stroke="none" stroke-width="1" fill="none" fill-rule="evenodd">
        <g id="afn-logo-white" transform="translate(0.000000, -0.000000)" fill="#FFFFFF" fill-rule="nonzero">
            <path d="M56.1660725,30.9957402 C56.3199547,31.195787 56.4854471,31.3865272 56.6618127,31.5670393 C57.9629003,32.7649245 59.2943958,33.0846677 59.8868882,33.1335045 C60.0159834,33.1486163 60.1468293,33.1343338 60.2695665,33.0914864 C60.3923036,33.0487311 60.5037991,32.9787009 60.5954834,32.8865559 C60.6814547,32.8010453 60.7486284,32.6984879 60.7927659,32.5855181 C60.8369033,32.4725483 60.8568988,32.3516541 60.8516465,32.2304834 L60.8516465,21.4292447 C60.8516465,21.4292447 61.1087311,18.0106647 58.7046677,14.7588671 C56.3006042,11.5070695 53.2745619,10.2686405 51.0566314,9.86780967 C48.8387009,9.46697885 45.9600906,9.64205438 43.9614653,10.6768429 C43.1754683,11.0785952 42.7460725,11.2960574 42.4171148,11.4904834 C42.2328248,11.6158006 42.0485347,11.747568 41.868852,11.8820997 L41.7896073,11.7899547 C41.7094411,11.6913595 41.5997885,11.5780211 41.4118127,11.3854381 C40.5755045,10.5556722 39.5179562,9.98428097 38.3654985,9.7397281 C37.7748489,9.61717523 37.5103927,9.97377644 37.5103927,9.97377644 C37.5103927,9.97377644 37.2855589,10.1212085 37.2855589,10.6620997 C37.2855589,10.8952266 37.2855589,14.9800151 37.2791088,19.5172356 C37.2791088,20.7575076 37.2791088,22.033716 37.2791088,23.2767523 C37.2791088,28.0139275 37.2726586,32.2728701 37.2726586,32.2728701 C37.2726586,32.2728701 37.2800302,32.7234592 37.6025378,32.950136 C37.8900302,33.1510121 38.0448338,33.1454834 38.2945468,33.1132326 C38.5894109,33.0745317 39.9531571,32.9151208 41.4201057,31.5615106 C41.6114909,31.3839471 41.7881329,31.1909955 41.9480967,30.9846828 C42.7302236,29.955423 43.1629366,28.7029879 43.1828399,27.4103776 L43.1828399,21.3979154 C43.1827477,21.2797855 43.1885529,21.1616556 43.2003474,21.0440785 C43.2685347,20.2571601 43.6067069,18.3267221 45.2662387,16.9353323 C47.3966314,15.1486405 49.7914804,15.583565 49.7914804,15.583565 C49.7914804,15.583565 52.0517976,15.6535952 53.845861,17.9738066 C54.7802115,19.0703323 54.9709517,20.9113897 54.9709517,21.3979154 L54.9709517,27.5191088 C54.9709517,27.5191088 54.8511631,29.2781571 56.1660725,30.9957402 Z" id="Path"></path>
            <path d="M22.0862387,32.5962991 C22.1968127,32.6303927 22.3092296,32.6608006 22.4216465,32.6884441 C22.4704834,32.6995015 22.5183988,32.7124018 22.5681571,32.7225378 C22.6084245,32.7280665 22.6490604,32.7308308 22.6897885,32.7308308 C22.8028505,32.730923 22.9148066,32.7088082 23.0192991,32.6655921 C23.1237915,32.6223761 23.2187009,32.5589804 23.2985906,32.4789985 C23.3785725,32.3991088 23.4419683,32.3041994 23.4851843,32.1997069 C23.5284003,32.0952145 23.5505151,31.9832583 23.550423,31.8701964 L23.550423,21.9959366 C23.550423,21.9747432 23.550423,21.9535498 23.5550302,21.9323565 C23.5679305,21.7370091 23.5743807,21.5407402 23.5780665,21.3435498 C23.5780665,21.2910272 23.5780665,21.2385045 23.5780665,21.1859819 C23.5768686,19.514287 23.2193459,17.8621269 22.5294562,16.3394305 C21.8394743,14.8168263 20.8329743,13.4587009 19.5768535,12.3556329 C18.3208248,11.2526571 16.8441088,10.4298943 15.2451163,9.94244713 C13.6460317,9.455 11.9615287,9.31392598 10.3037477,9.52871601 C8.64591148,9.7434139 7.05290846,10.3090921 5.63088051,11.1878792 C4.20885257,12.0666662 2.99045589,13.2383822 2.05689789,14.6250725 C1.12333066,16.0117628 0.496047024,17.5815453 0.2168421,19.2297432 C-0.0623633776,20.8779411 0.0129244441,22.5666828 0.437688822,24.1834592 L0.437688822,24.1834592 C0.900094622,25.9355045 1.7608636,27.5570725 2.95289758,28.9218323 C4.14494079,30.2865921 5.63604063,31.3576858 7.30999305,32.0514456 C8.98393625,32.7452976 10.7955257,33.0432024 12.603503,32.9219396 C14.4114804,32.8006767 16.1670272,32.2634713 17.7333082,31.3523414 C17.9261677,31.2399245 18.11571,31.1219789 18.3018429,30.9985045 C18.3340937,30.9736254 18.3700302,30.9551964 18.4050453,30.9312387 L18.3691088,30.9496677 C18.3967523,30.9321601 18.817855,30.6354532 18.946858,30.5405438 C19.039003,30.6428248 19.2232931,30.8427795 19.2666012,30.8934592 L19.2785801,30.9045166 L19.454577,31.0888066 C20.2020574,31.7898459 21.1033278,32.3061344 22.0862387,32.5962991 L22.0862387,32.5962991 Z M17.7342297,21.1859819 C17.733861,22.3573293 17.38629,23.5022311 16.7353776,24.4761118 C16.0844653,25.4499003 15.1594215,26.2089909 14.0772704,26.6571843 C12.9950272,27.1054698 11.8043293,27.2228625 10.6553731,26.9945272 C9.50650906,26.7661918 8.45114456,26.2023565 7.62262266,25.3743414 C6.79410076,24.5463263 6.22964804,23.4912659 6.00059396,22.3425861 C5.77153988,21.1938142 5.88816782,20.0030242 6.33575302,18.9205045 C6.783329,17.838077 7.54176541,16.9125725 8.51519456,16.2611073 C9.48863293,15.6095498 10.6333505,15.2612417 11.8046979,15.260136 L11.8148338,15.260136 C13.3854456,15.2616103 14.8911873,15.8866299 16.0011662,16.9978066 C17.111145,18.1089834 17.734506,19.6153701 17.7342297,21.1859819 L17.7342297,21.1859819 Z" id="Shape"></path>
            <path d="M35.3836858,9.69734139 C35.2153369,9.55700453 35.0070891,9.47324471 34.788429,9.45776435 L32.035136,9.45776435 C32.0508006,9.41629909 32.588006,8.09586103 33.7600906,7.17348943 C34.5464562,6.56399622 35.4627462,6.14399003 36.4378248,5.94611782 C36.7050453,5.88438066 38.2871752,5.57108761 39.4325378,4.31054381 C40.5779003,3.05 40.8091843,2.06220544 40.9842598,1.02741692 C40.9934743,0.764803625 40.9483233,0.495741103 40.7078248,0.265378565 C40.5485982,0.121932734 40.3424698,0.0416390423 40.1282326,0.0396223565 L37.4735347,0.0396223565 C37.4735347,0.0396223565 33.6614955,-0.175074607 30.1562991,2.59203927 C28.0747432,4.18891239 26.8787009,6.21333837 26.1175831,8.79063444 C26.051423,8.98044396 25.9355967,9.14906934 25.7821752,9.27900302 C25.6311495,9.39482931 25.4463066,9.4578565 25.2560272,9.4586858 L22.4990483,9.4586858 C22.3747447,9.4605287 22.2520997,9.48844864 22.1392221,9.54060272 C22.0263444,9.59284894 21.9257221,9.66822356 21.8438973,9.7618429 C21.5766767,10.0769789 21.6596073,10.499003 21.6596073,10.499003 C21.6596073,10.499003 21.7517523,11.7401964 22.6888671,13.0053474 C23.3093716,13.8650604 24.1526828,14.5391934 25.1279456,14.955136 C25.4651964,15.1200755 25.536148,15.2472356 25.5554985,15.2767221 C25.6520665,15.4237855 25.7059713,15.5947145 25.7112236,15.7706193 C25.7112236,16.3234894 25.7112236,19.0878399 25.7112236,22.1092749 L25.7112236,22.6980816 C25.7112236,24.2553323 25.7112236,25.8733988 25.7112236,27.3191541 L25.7112236,27.8277946 C25.7112236,28.7216012 25.7112236,29.5343202 25.7112236,30.2014502 L25.7112236,32.0664653 C25.7112236,32.0664653 25.7268882,32.5188973 26.0309668,32.737281 C26.1387764,32.8253716 26.2664894,32.8859109 26.4029562,32.9135544 C26.539423,32.9411057 26.6805891,32.9350242 26.8141994,32.8957704 C27.0583837,32.8423263 28.8717976,32.6055136 30.3286103,30.7819637 C31.1170952,29.7581405 31.5509139,28.505429 31.5642749,27.2131873 L31.5642749,23.4674924 L31.5642749,22.8952719 L31.5642749,16.2055438 C31.5933006,15.9931495 31.6925408,15.7966042 31.8462387,15.647145 C32.0042674,15.5020166 32.2112251,15.4216662 32.4258308,15.4223112 L34.8216012,15.4223112 C35.0466193,15.4091344 35.258,15.3101707 35.4122508,15.1458761 C35.4927855,15.0565876 35.5547991,14.9522795 35.5946057,14.8388489 C35.6345045,14.7254184 35.6514592,14.6051692 35.6444562,14.4851964 L35.6444562,10.3202417 C35.6462991,10.3128701 35.6453776,9.92862538 35.3836858,9.69734139 Z" id="Path"></path>
            <path d="M3.87009063,41.2699094 C3.82620196,41.1764743 3.8071648,41.073364 3.81480363,40.9704381 L3.81480363,38.6539124 L3.02512085,38.6539124 L3.02512085,39.1339879 C2.95045574,38.962506 2.81763792,38.8228142 2.65009063,38.7396073 C2.43920755,38.6290332 2.20347296,38.5744834 1.96545317,38.5811178 C1.67030347,38.5781692 1.38008353,38.6569532 1.12693353,38.808716 C0.874751979,38.9593731 0.667844033,39.1751767 0.527989094,39.4334592 C0.382803565,39.7047341 0.306839215,40.0076148 0.306839215,40.315287 C0.306839215,40.6229592 0.382803565,40.9258399 0.527989094,41.1971148 C0.668079924,41.4554894 0.874915076,41.6715695 1.12693353,41.8227795 C1.38016647,41.9742659 1.6703864,42.0527734 1.96545317,42.0494562 C2.20894637,42.0587628 2.45116798,42.0101103 2.67220544,41.9075529 C2.84846964,41.821858 2.99933867,41.691565 3.10989426,41.5297583 C3.12516269,41.6113066 3.15688822,41.6889849 3.20315423,41.7579094 C3.24941103,41.8268338 3.30923157,41.8855302 3.3789577,41.9305891 C3.5201423,42.0068852 3.67935045,42.0434668 3.83968278,42.0365559 C3.97147779,42.0426375 4.1032636,42.0244849 4.22853474,41.9831118 L4.22853474,41.3454683 C4.17389275,41.3533927 4.11879924,41.3576314 4.06359517,41.3583686 C4.02635015,41.3626073 3.98865363,41.3566178 3.95456918,41.3409532 C3.92047553,41.3253807 3.89127477,41.3008701 3.87009063,41.2699094 Z M2.94864048,40.8285347 C2.86125015,40.9824169 2.73389653,41.1097613 2.58006042,41.1971148 C2.42359819,41.2854819 2.24646782,41.3306329 2.06681269,41.3279607 C1.89154366,41.3305408 1.71888233,41.2852976 1.56738671,41.1971148 C1.41834215,41.1090242 1.29653565,40.9814955 1.21539275,40.8285347 C1.13069305,40.6695846 1.08638973,40.4922054 1.08638973,40.3120619 C1.08638973,40.1319184 1.13069305,39.9545393 1.21539275,39.7955891 C1.2961855,39.642352 1.41807492,39.5147311 1.56738671,39.4270091 C1.71862432,39.3380891 1.89140544,39.2925695 2.06681269,39.2952417 C2.24659683,39.2924773 2.42381934,39.337997 2.58006042,39.4270091 C2.73418218,39.513994 2.86161873,39.6414305 2.94864048,39.7955891 C3.03684169,39.9534335 3.08315378,40.1312734 3.08315378,40.3120619 C3.08315378,40.4928505 3.03684169,40.6706903 2.94864048,40.8285347 L2.94864048,40.8285347 Z" id="Shape"></path>
            <path d="M6.38933535,40.0158157 L6.09354985,39.9107704 C5.94531616,39.8670937 5.80178187,39.8086737 5.66507553,39.7366163 C5.62936012,39.7155151 5.60009486,39.6850151 5.58044033,39.6485257 C5.5607858,39.6119441 5.5515068,39.5707553 5.55358006,39.52929 C5.55280604,39.4874562 5.56231541,39.4460831 5.58126964,39.4088565 C5.60023308,39.3715378 5.62806088,39.3394713 5.66231118,39.3155136 C5.7480429,39.2560801 5.85115317,39.2268701 5.95533233,39.2325831 C6.27477145,39.2325831 6.5158781,39.3293353 6.67867069,39.5228399 L7.12004532,39.0556647 C6.85651057,38.7220997 6.47256994,38.5553172 5.96823263,38.5553172 C5.66943399,38.546287 5.37662477,38.6403671 5.13892749,38.8216163 C5.0284364,38.9068505 4.9399864,39.0174245 4.88098595,39.1439396 C4.8219855,39.2703625 4.7941577,39.4092251 4.79983384,39.5486405 C4.79038897,39.7595604 4.8649435,39.9656888 5.00716012,40.1217825 C5.1794068,40.2873671 5.38751631,40.4109335 5.61531722,40.4829909 L5.89175227,40.575136 C6.06070937,40.6276586 6.22473671,40.6949245 6.38196375,40.7760121 C6.42525347,40.7976662 6.4615494,40.8312069 6.4866497,40.8725801 C6.51175921,40.9139532 6.52465952,40.9616843 6.52386707,41.0100604 C6.52311148,41.0611088 6.50975967,41.1112356 6.48500952,41.155926 C6.46025937,41.2006163 6.42485725,41.2384879 6.38196375,41.2662236 C6.24628021,41.3471269 6.08883202,41.3838006 5.93137462,41.3712689 C5.74691873,41.3755076 5.56418595,41.3350559 5.39877644,41.2533233 C5.25977568,41.1872553 5.14130483,41.0846979 5.05599698,40.9566163 L4.5491994,41.3850906 C4.6632565,41.5996964 4.84361193,41.771639 5.06336858,41.8753021 C5.32974139,42.0037523 5.62285468,42.0668716 5.91847432,42.0595921 C6.36998489,42.0595921 6.71,41.960997 6.93851964,41.7638066 C7.04878036,41.6710166 7.13669592,41.5545453 7.19572402,41.4231465 C7.25475211,41.2916556 7.28337236,41.1485544 7.27945619,41.0045317 C7.28703051,40.7879909 7.21041193,40.5769789 7.06567976,40.4157251 C6.87538187,40.2303293 6.6434713,40.0932175 6.38933535,40.0158157 Z" id="Path"></path>
            <path d="M8.2644864,38.2659819 C8.32561541,38.266719 8.38624683,38.2551088 8.44277779,38.2317961 C8.49929955,38.2084834 8.5505506,38.1741133 8.59344411,38.1305287 C8.63726828,38.0870363 8.67205302,38.0352508 8.69578036,37.978213 C8.71951692,37.9212674 8.73173535,37.8600831 8.73173535,37.7983459 C8.73173535,37.7366088 8.71951692,37.6754245 8.69578036,37.6183867 C8.67205302,37.5614411 8.63726828,37.5096556 8.59344411,37.4661631 C8.5505506,37.4225785 8.49929955,37.3882085 8.44277779,37.3648958 C8.38624683,37.3415831 8.32561541,37.3299728 8.2644864,37.33071 C8.20233459,37.3295121 8.140579,37.3408459 8.08293308,37.3641586 C8.02528716,37.3873792 7.97295801,37.4221178 7.92907855,37.4661631 C7.88525438,37.5096556 7.85046964,37.5614411 7.8267423,37.6183867 C7.80300574,37.6754245 7.79078731,37.7366088 7.79078731,37.7983459 C7.79078731,37.8600831 7.80300574,37.9212674 7.8267423,37.978213 C7.85046964,38.0352508 7.88525438,38.0870363 7.92907855,38.1305287 C7.97295801,38.174574 8.02528716,38.2093127 8.08293308,38.2325332 C8.140579,38.2558459 8.20233459,38.2671798 8.2644864,38.2659819 L8.2644864,38.2659819 Z" id="Path"></path>
            <path d="M8.70862538,41.2533233 C8.66969411,41.1689184 8.65288686,41.0760363 8.65978852,40.9833384 L8.65978852,38.6539124 L7.87010574,38.6539124 L7.87010574,41.1943505 C7.87010574,41.7552372 8.12442598,42.0359109 8.63306647,42.0365559 C8.76704532,42.0443882 8.90128218,42.0262356 9.02836858,41.9831118 L9.02836858,41.3187462 C8.98305166,41.3290665 8.93661979,41.3336737 8.89015106,41.332568 C8.85559668,41.3365302 8.8206,41.3312779 8.78871782,41.317364 C8.75683565,41.3034502 8.72920136,41.2813353 8.70862538,41.2533233 Z" id="Path"></path>
            <path d="M12.9601964,41.2699094 C12.915506,41.1767508 12.8960634,41.0734562 12.9039879,40.9704381 L12.9039879,38.6539124 L12.1143051,38.6539124 L12.1143051,39.1339879 C12.0399441,38.9622296 11.907071,38.8224456 11.7392749,38.7396073 C11.5292764,38.6294018 11.2944909,38.574852 11.0574018,38.5811178 C10.7622613,38.5781692 10.4720045,38.6569532 10.2188822,38.808716 C9.96668127,38.9593731 9.75981571,39.1751767 9.61993958,39.4334592 C9.4752719,39.7049184 9.39962085,40.0077069 9.39962085,40.315287 C9.39962085,40.6228671 9.4752719,40.9256556 9.61993958,41.1971148 C9.76,41.4554894 9.96686556,41.6715695 10.2188822,41.8227795 C10.4720967,41.9742659 10.7623535,42.0527734 11.0574018,42.0494562 C11.299006,42.0578414 11.5392281,42.009281 11.7586254,41.9075529 C11.9348988,41.821858 12.0857402,41.6916571 12.1963142,41.5297583 C12.2115181,41.6114909 12.2433082,41.6891692 12.2897492,41.7581858 C12.3361903,41.8271103 12.3962689,41.8858066 12.4662991,41.9305891 C12.6073731,42.0070695 12.7666918,42.0436511 12.9270242,42.0365559 C13.0587915,42.0426375 13.1906511,42.0244849 13.3158761,41.9831118 L13.3158761,41.3454683 C13.2612341,41.3533927 13.2061314,41.3577236 13.1509366,41.3583686 C13.1140785,41.3623308 13.076852,41.3562492 13.0433112,41.3406767 C13.0096782,41.3251042 12.980929,41.3005937 12.9601964,41.2699094 L12.9601964,41.2699094 Z M12.0387462,40.8285347 C11.9512085,40.9822326 11.823864,41.109577 11.6701662,41.1971148 C11.5136118,41.2852054 11.3365091,41.3302644 11.1569184,41.3279607 C10.9813822,41.3304486 10.808426,41.2852054 10.656571,41.1971148 C10.5077568,41.1087477 10.3860332,40.9813112 10.304577,40.8285347 C10.2198958,40.6695846 10.175574,40.4922054 10.175574,40.3120619 C10.175574,40.1319184 10.2198958,39.9545393 10.304577,39.7955891 C10.3856647,39.6426284 10.5074804,39.5150076 10.656571,39.4270091 C10.8081495,39.3381813 10.9811979,39.2926616 11.1569184,39.2952417 C11.3366934,39.2928459 11.5137961,39.3383656 11.6701662,39.4270091 C11.8241405,39.5141782 11.951577,39.6416148 12.0387462,39.7955891 C12.126929,39.9534335 12.1732779,40.1312734 12.1732779,40.3120619 C12.1732779,40.4928505 12.126929,40.6706903 12.0387462,40.8285347 Z" id="Shape"></path>
            <path d="M16.9546828,41.2330514 C16.9178248,41.1483701 16.9019758,41.0560408 16.9086103,40.9639879 L16.9086103,39.9172205 C16.9086103,39.5050559 16.7998792,39.1803369 16.5824169,38.9432477 C16.3649547,38.7061586 16.0590332,38.5878444 15.6646526,38.5884894 C15.4513369,38.58379 15.2405091,38.6345619 15.0528097,38.7359215 C14.8882387,38.8238278 14.7549048,38.9606631 14.6713293,39.1275378 L14.6713293,38.6539124 L13.8880967,38.6539124 L13.8880967,41.9711329 L14.6713293,41.9711329 L14.6713293,40.0618882 C14.6675514,39.9602523 14.6843218,39.8589849 14.7205347,39.7639834 C14.7567477,39.6689819 14.8118505,39.5822734 14.8823414,39.5090181 C14.9525559,39.4380665 15.0366843,39.3824109 15.1294743,39.3455529 C15.2222644,39.308787 15.3215967,39.291648 15.4213897,39.2952417 C15.5160227,39.289713 15.6108399,39.3044562 15.6992991,39.3384577 C15.7878505,39.3724592 15.8680166,39.4248897 15.9346375,39.492432 C16.0637326,39.6417069 16.1298006,39.8353036 16.1189275,40.0324018 L16.1189275,41.138142 C16.1189275,41.7180106 16.377855,42.0077145 16.89571,42.0070695 C17.0109834,42.0097417 17.1259804,41.9963807 17.237568,41.9674471 L17.237568,41.2993958 C17.2010785,41.3080574 17.1635755,41.3123882 17.1260725,41.3122961 C17.0929924,41.3157976 17.059636,41.3102689 17.0294124,41.2962628 C16.999281,41.2823489 16.9734804,41.2605106 16.9546828,41.2330514 L16.9546828,41.2330514 Z" id="Path"></path>
            <path d="M20.6404834,37.33071 C20.5043852,37.3572477 20.3774094,37.4185242 20.2719033,37.5085498 C20.1475076,37.6062236 20.0520453,37.7358716 19.9954683,37.8835801 C19.9317039,38.0788353 19.9030468,38.2837659 19.9106949,38.4889728 L19.9106949,38.6539124 L19.3707251,38.6539124 L19.3707251,39.3708006 L19.9106949,39.3708006 L19.9106949,41.9702115 L20.7003776,41.9702115 L20.7003776,39.3708006 L21.3251208,39.3708006 L21.3251208,38.6539124 L20.7003776,38.6539124 L20.7003776,38.43 C20.6883066,38.3014577 20.7259018,38.1731918 20.805423,38.0715559 C20.8500211,38.0320257 20.9021752,38.0019864 20.9587523,37.9833731 C21.0152372,37.9646677 21.0750393,37.9576647 21.1343807,37.9628248 C21.2362009,37.9580332 21.3382054,37.9691828 21.4366163,37.995997 L21.4366163,37.3187311 C21.3236465,37.3000257 21.2092946,37.291364 21.0947583,37.2929305 C20.9424426,37.2911798 20.7904033,37.3038958 20.6404834,37.33071 L20.6404834,37.33071 Z" id="Path"></path>
            <path d="M24.3741994,38.7930514 C24.096935,38.6373263 23.783642,38.5568837 23.4656495,38.5599245 C23.1459063,38.5563308 22.8305861,38.6356677 22.5506495,38.790287 C22.2781767,38.9413127 22.0511314,39.1625529 21.8930106,39.4308792 C21.7349819,39.6992976 21.6515906,40.0051269 21.6515906,40.3166692 C21.6515906,40.6282115 21.7349819,40.9340408 21.8930106,41.2024592 C22.0511314,41.4707855 22.2781767,41.6920257 22.5506495,41.8430514 C22.8305861,41.9976707 23.1459063,42.0770076 23.4656495,42.0734139 C23.783642,42.0764547 24.096935,41.9960121 24.3741994,41.840287 C24.6447372,41.6891692 24.8714139,41.4704169 25.0321148,41.2054079 C25.1913414,40.9363444 25.2753776,40.6293172 25.2753776,40.3166692 C25.2753776,40.0040211 25.1913414,39.696994 25.0321148,39.4279305 C24.8714139,39.1629215 24.6447372,38.9441692 24.3741994,38.7930514 Z M24.3576133,40.8432779 C24.2180136,41.078432 23.9913369,41.2490846 23.7268807,41.3184698 C23.4623323,41.3877628 23.1811057,41.3501677 22.9441088,41.2137009 C22.7904109,41.1233066 22.6632508,40.993935 22.5755287,40.8386707 C22.4872538,40.6771405 22.4410891,40.4960755 22.4410891,40.3120619 C22.4410891,40.1280483 22.4872538,39.9469834 22.5755287,39.7854532 C22.7137462,39.5492855 22.9396858,39.3773429 23.2040498,39.3071284 C23.468506,39.2368218 23.7500091,39.2739562 23.9871903,39.410423 C24.1412568,39.5004486 24.2685091,39.6299124 24.3557704,39.7854532 C24.4440453,39.9469834 24.49021,40.1280483 24.49021,40.3120619 C24.49021,40.4960755 24.4440453,40.6771405 24.3557704,40.8386707 L24.3576133,40.8432779 Z" id="Shape"></path>
            <path d="M28.5059819,38.7930514 C28.228994,38.6373263 27.9160695,38.5568837 27.5983535,38.5599245 C27.2786103,38.5563308 26.96329,38.6356677 26.6833535,38.790287 C26.4108807,38.9413127 26.1838353,39.1625529 26.0257145,39.4308792 C25.8676858,39.6992976 25.7842946,40.0051269 25.7842946,40.3166692 C25.7842946,40.6282115 25.8676858,40.9340408 26.0257145,41.2024592 C26.1838353,41.4707855 26.4108807,41.6920257 26.6833535,41.8430514 C26.96329,41.9976707 27.2786103,42.0770076 27.5983535,42.0734139 C27.9160695,42.0764547 28.228994,41.9960121 28.5059819,41.840287 C28.7769804,41.6897221 29.0037492,41.4708776 29.1638973,41.2054079 C29.3236767,40.9365287 29.4080816,40.6295015 29.4080816,40.3166692 C29.4080816,40.0038369 29.3236767,39.6968097 29.1638973,39.4279305 C29.0037492,39.1624607 28.7769804,38.9436163 28.5059819,38.7930514 L28.5059819,38.7930514 Z M28.4893958,40.8432779 C28.4021344,40.9989109 28.2748822,41.1283746 28.1208157,41.2183082 C28.0037915,41.2876012 27.8741435,41.3328444 27.7395196,41.3515498 C27.6048036,41.3701631 27.467784,41.3617779 27.3362931,41.326855 C27.2048943,41.291932 27.0817885,41.2312085 26.974071,41.1481858 C26.8664456,41.0651631 26.7763278,40.9615 26.7091541,40.8432779 C26.6208792,40.6817477 26.5747145,40.5006828 26.5747145,40.3166692 C26.5747145,40.1326556 26.6208792,39.9515906 26.7091541,39.7900604 C26.8473716,39.5538927 27.0733112,39.3819502 27.3376752,39.3117356 C27.6021314,39.241429 27.8836344,39.2785634 28.1208157,39.4150302 C28.2748822,39.5049637 28.4021344,39.6344275 28.4893958,39.7900604 C28.5783157,39.9513142 28.6249411,40.1324713 28.6249411,40.3166692 C28.6249411,40.5008671 28.5783157,40.6820242 28.4893958,40.8432779 L28.4893958,40.8432779 Z" id="Shape"></path>
            <path d="M33.484577,41.2699094 C33.4398867,41.1767508 33.4204441,41.0734562 33.4283686,40.9704381 L33.4283686,37.3841541 L32.6386858,37.3841541 L32.6386858,39.1349094 C32.5643248,38.9631511 32.4314517,38.8233671 32.2636556,38.7405287 C32.0528278,38.6298625 31.8170287,38.5752205 31.5790181,38.5820393 C31.2838776,38.5790906 30.9936208,38.6578746 30.7404985,38.8096375 C30.4882976,38.9602946 30.281432,39.1760982 30.1415559,39.4343807 C29.9968882,39.7058399 29.9212372,40.0086284 29.9212372,40.3162085 C29.9212372,40.6237885 29.9968882,40.926577 30.1415559,41.1980363 C30.2816163,41.4564109 30.4884819,41.6724909 30.7404985,41.8237009 C30.993713,41.9751873 31.2839698,42.0536949 31.5790181,42.0503776 C31.8206224,42.0587628 32.0608444,42.0102024 32.2802417,41.9084743 C32.4566994,41.8229637 32.6076329,41.6927628 32.7179305,41.5306798 C32.7331344,41.6124124 32.7649245,41.6900906 32.8113656,41.7591073 C32.8578066,41.8280317 32.9178852,41.8867281 32.9879154,41.9315106 C33.1289894,42.0079909 33.2883082,42.0445725 33.4486405,42.0374773 C33.5804079,42.0436511 33.7122674,42.0254985 33.8374924,41.9840332 L33.8374924,41.3454683 C33.7828505,41.3533927 33.7277477,41.3577236 33.6725529,41.3583686 C33.6361556,41.3618701 33.5994819,41.3555121 33.5664018,41.3399396 C33.5333218,41.3243671 33.5051254,41.3001329 33.484577,41.2699094 L33.484577,41.2699094 Z M32.5631269,40.8285347 C32.4755891,40.9822326 32.3482447,41.109577 32.1945468,41.1971148 C32.0379924,41.2852054 31.8608897,41.3302644 31.6812991,41.3279607 C31.5057628,41.3305408 31.3328066,41.2852976 31.1809517,41.1971148 C31.0321375,41.1087477 30.9104139,40.9813112 30.8289577,40.8285347 C30.7442764,40.6695846 30.6999547,40.4922054 30.6999547,40.3120619 C30.6999547,40.1319184 30.7442764,39.9545393 30.8289577,39.7955891 C30.9100453,39.6426284 31.031861,39.5150076 31.1809517,39.4270091 C31.3325302,39.3380891 31.5055785,39.2925695 31.6812991,39.2952417 C31.861074,39.2928459 32.0381767,39.3383656 32.1945468,39.4270091 C32.3485211,39.5141782 32.4759577,39.6416148 32.5631269,39.7955891 C32.6513097,39.9534335 32.6976586,40.1312734 32.6976586,40.3120619 C32.6976586,40.4928505 32.6513097,40.6706903 32.5631269,40.8285347 Z" id="Shape"></path>
            <path d="M39.2648338,41.2330514 C39.2279758,41.1483701 39.2121269,41.0560408 39.2187613,40.9639879 L39.2187613,39.9172205 C39.2187613,39.5050559 39.1103066,39.1803369 38.8934894,38.9432477 C38.6766722,38.7061586 38.3728701,38.5878444 37.9821752,38.5884894 C37.7688595,38.5835136 37.5579396,38.6342855 37.3703323,38.7359215 C37.2053006,38.8235514 37.0715982,38.9604789 36.9879305,39.1275378 L36.9879305,38.6539124 L36.2056193,38.6539124 L36.2056193,41.9711329 L36.9879305,41.9711329 L36.9879305,40.0618882 C36.9841526,39.9602523 37.000923,39.8589849 37.037136,39.7639834 C37.0733489,39.6689819 37.1284517,39.5822734 37.1989426,39.5090181 C37.2692492,39.4379743 37.3535619,39.3823187 37.4465363,39.3454607 C37.5394184,39.3086949 37.6390272,39.2915559 37.7389124,39.2952417 C37.8335453,39.2898051 37.9282704,39.3045483 38.0167296,39.3385498 C38.105281,39.3725514 38.1855393,39.425074 38.2521601,39.492432 C38.3812553,39.6417069 38.4473233,39.8353036 38.4364502,40.0324018 L38.4364502,41.138142 C38.4364502,41.7180106 38.6953776,42.0077145 39.2132326,42.0070695 C39.3287825,42.0097417 39.444148,41.9963807 39.5560121,41.9674471 L39.5560121,41.2993958 C39.5191541,41.3079653 39.4814668,41.3122961 39.4435952,41.3122961 C39.4094094,41.3171798 39.3744864,41.3123882 39.3428807,41.2983822 C39.3111828,41.284284 39.2841843,41.2617085 39.2648338,41.2330514 Z" id="Path"></path>
            <path d="M42.5553323,38.7856798 C42.2962205,38.6340091 42.000435,38.5565151 41.7002266,38.5617674 C41.3892372,38.5574366 41.0823021,38.6322583 40.8082628,38.7792296 C40.5463867,38.9203036 40.3304909,39.1336193 40.186284,39.3938369 C40.0325861,39.6761692 39.9553686,39.9938852 39.9623716,40.315287 L39.9623716,40.3410876 C39.9554607,40.6560393 40.0317568,40.967213 40.1835196,41.2431873 C40.3268051,41.4986133 40.5416873,41.7065846 40.8018127,41.8412085 C41.0866329,41.9869819 41.4033353,42.0595 41.7232628,42.0522205 C41.9785967,42.0543399 42.2319955,42.008636 42.4705589,41.9176888 C42.7174154,41.8143943 42.9378263,41.6569184 43.115574,41.4569637 L42.6419486,40.9962387 C42.5265831,41.1163958 42.3904849,41.2147145 42.2401964,41.2864955 C42.0841949,41.351642 41.9162145,41.3830634 41.7472205,41.3786405 C41.4888459,41.3910801 41.2352628,41.3065831 41.035861,41.1418278 C40.9462961,41.0625831 40.8742387,40.9655544 40.8243882,40.8568233 C40.7745378,40.7481843 40.748,40.6302387 40.7465257,40.5106344 L43.3265861,40.5106344 C43.3348792,40.4267825 43.3394864,40.3346375 43.3394864,40.2341994 C43.3426193,39.9409018 43.2726813,39.6514743 43.1358459,39.391994 C43.0020514,39.1401616 42.8010831,38.9303474 42.5553323,38.7856798 L42.5553323,38.7856798 Z M40.7658761,39.9568429 C40.7755514,39.8551148 40.8069728,39.7566118 40.8580211,39.6680604 C40.9090695,39.5796012 40.9785468,39.5030287 41.0616616,39.4435952 C41.2442931,39.3026133 41.4695876,39.2281601 41.7002266,39.2325831 C41.8452628,39.2317538 41.988364,39.265571 42.1176435,39.3311782 C42.2404728,39.3914411 42.3457946,39.4822039 42.423565,39.594713 C42.497281,39.7010483 42.5365347,39.8274713 42.5359876,39.9568429 L40.7658761,39.9568429 Z" id="Shape"></path>
            <path d="M44.9575529,37.3841541 L44.1678701,37.3841541 L44.1678701,38.6539124 L43.7532175,38.6539124 L43.7532175,39.3708006 L44.1678701,39.3708006 L44.1678701,40.9372659 C44.1678701,41.3807598 44.2707961,41.6790332 44.4765559,41.831994 C44.6989018,41.9907598 44.9674124,42.0717553 45.2404381,42.0623565 C45.3775498,42.0650287 45.5145695,42.0517598 45.6486405,42.0227341 L45.6486405,41.3187462 C45.5576012,41.3366224 45.4649955,41.3456526 45.3722054,41.3454683 C45.3145227,41.3507205 45.2563792,41.3434411 45.2018293,41.3239985 C45.1472795,41.3045559 45.0975211,41.2735952 45.056148,41.2330514 C44.9898036,41.1584139 44.9575529,41.0312538 44.9575529,40.851571 L44.9575529,39.3708006 L45.6873414,39.3708006 L45.6873414,38.6539124 L44.9575529,38.6539124 L44.9575529,37.3841541 Z" id="Path"></path>
            <polygon id="Path" points="49.3528701 40.7198036 48.6820544 38.6539124 48.0831118 38.6539124 47.4113746 40.7198036 46.720287 38.6539124 45.9775982 38.6539124 47.0824169 41.9702115 47.7016314 41.9702115 48.3853474 39.871148 49.0699849 41.9702115 49.6818278 41.9702115 50.7940181 38.6539124 50.0439577 38.6539124"></polygon>
            <path d="M53.6634139,38.7930514 C53.3861495,38.6373263 53.0728565,38.5568837 52.754864,38.5599245 C52.4351208,38.5563308 52.1198006,38.6356677 51.839864,38.790287 C51.5673912,38.9413127 51.3403459,39.1625529 51.1822251,39.4308792 C51.0241964,39.6992976 50.9408051,40.0051269 50.9408051,40.3166692 C50.9408051,40.6282115 51.0241964,40.9340408 51.1822251,41.2024592 C51.3403459,41.4707855 51.5673912,41.6920257 51.839864,41.8430514 C52.1198006,41.9976707 52.4351208,42.0770076 52.754864,42.0734139 C53.0728565,42.0764547 53.3861495,41.9960121 53.6634139,41.840287 C53.9344124,41.6897221 54.1611813,41.4708776 54.3213293,41.2054079 C54.4805559,40.9363444 54.5645921,40.6293172 54.5645921,40.3166692 C54.5645921,40.0040211 54.4805559,39.696994 54.3213293,39.4279305 C54.1611813,39.1624607 53.9344124,38.9436163 53.6634139,38.7930514 L53.6634139,38.7930514 Z M53.6468278,40.8432779 C53.5079653,41.0797221 53.2813807,41.2517568 53.0162795,41.3219713 C52.7512704,41.3921858 52.4692145,41.3549592 52.2314804,41.2183082 C52.0777825,41.1279139 51.9506224,40.9985423 51.8629003,40.8432779 C51.7747175,40.6817477 51.7284607,40.5006828 51.7284607,40.3166692 C51.7284607,40.1326556 51.7747175,39.9515906 51.8629003,39.7900604 C52.0011178,39.5538927 52.2270574,39.3819502 52.4914215,39.3117356 C52.7558776,39.241429 53.0373807,39.2785634 53.2745619,39.4150302 C53.4286284,39.5050559 53.5558807,39.6345196 53.643142,39.7900604 C53.7314169,39.9515906 53.7775816,40.1326556 53.7775816,40.3166692 C53.7775816,40.5006828 53.7314169,40.6817477 53.643142,40.8432779 L53.6468278,40.8432779 Z" id="Shape"></path>
            <path d="M56.3844562,38.7359215 C56.2168444,38.828435 56.0838792,38.9730106 56.0057402,39.1478097 L56.0057402,38.6539124 L55.2225076,38.6539124 L55.2225076,41.9711329 L56.0057402,41.9711329 L56.0057402,40.2268278 C56.0003036,40.1084215 56.0191012,39.9901994 56.060935,39.8792568 C56.1027689,39.7683142 56.1667175,39.667139 56.249003,39.5818127 C56.3359879,39.5002644 56.4385453,39.4370529 56.5504094,39.395864 C56.6623656,39.3547674 56.7814169,39.3365227 56.9004683,39.3422356 C57.0109502,39.3415906 57.1211556,39.3523716 57.229426,39.3744864 L57.229426,38.6087613 C57.151287,38.5947553 57.0719502,38.5883051 56.9926133,38.5894109 C56.7805876,38.5839743 56.5707734,38.6345619 56.3844562,38.7359215 L56.3844562,38.7359215 Z" id="Path"></path>
            <polygon id="Path" points="59.5127795 40.1346828 60.8092598 38.6539124 59.9016314 38.6539124 58.6770242 40.0618882 58.6770242 37.3841541 57.894713 37.3841541 57.894713 41.9702115 58.6770242 41.9702115 58.6770242 41.0026888 59.0069033 40.6350302 60.0527492 41.9702115 60.9474773 41.9702115"></polygon>
        </g>
    </g>
</svg>
