<svg width="44px" height="31px" viewBox="0 0 44 31" version="1.1" xmlns="http://www.w3.org/2000/svg" xmlns:xlink="http://www.w3.org/1999/xlink">
    <title>asian food network</title>
    <g id="Page-1" stroke="none" stroke-width="1" fill="none" fill-rule="evenodd">
        <g id="afn-logo-white" transform="translate(1.000000, 1.000000)" fill="#FFFFFF" fill-rule="nonzero">
            <path d="M38.6797812,21.3457768 C38.7857549,21.4835427 38.8997243,21.6148993 39.0211816,21.7392123 C39.9171991,22.5641575 40.8341575,22.7843545 41.2421882,22.8179869 C41.3310919,22.8283939 41.4212013,22.818558 41.5057265,22.7890503 C41.5902516,22.7596061 41.667035,22.7113786 41.7301751,22.6479212 C41.7893807,22.5890328 41.8356411,22.5184048 41.8660372,22.4406061 C41.8964333,22.3628074 41.9102035,22.2795514 41.9065864,22.196105 L41.9065864,14.7576368 C41.9065864,14.7576368 42.0836324,12.4033698 40.4280306,10.1639606 C38.7724289,7.92455142 36.6884902,7.0716849 35.1610722,6.79564551 C33.6336543,6.51960613 31.6512473,6.64017505 30.2748578,7.35280088 C29.7335667,7.62947484 29.4378556,7.77923414 29.2113129,7.9131291 C29.0843982,7.99943107 28.9574836,8.09017505 28.8337418,8.18282276 L28.7791685,8.11936543 C28.7239606,8.05146608 28.6484464,7.97341357 28.5189934,7.84078775 C27.9430547,7.26935449 27.2147549,6.87585558 26.4210941,6.70743982 C26.0143326,6.62304158 25.8322101,6.86862144 25.8322101,6.86862144 C25.8322101,6.86862144 25.6773742,6.97015317 25.6773742,7.3426477 C25.6773742,7.50319475 25.6773742,10.3162582 25.6729322,13.4408972 C25.6729322,14.2950328 25.6729322,15.1739168 25.6729322,16.0299562 C25.6729322,19.2922976 25.6684902,22.2252954 25.6684902,22.2252954 C25.6684902,22.2252954 25.6735667,22.5356018 25.8956674,22.6917068 C26.0936543,22.8300438 26.2002626,22.8262363 26.3722319,22.8040263 C26.5752954,22.7773742 27.5144639,22.667593 28.5247046,21.7354048 C28.6565055,21.6131225 28.7781532,21.4802429 28.8883151,21.3381619 C29.4269409,20.6293435 29.7249365,19.7668315 29.7386433,18.8766521 L29.7386433,14.7360613 C29.7385799,14.654709 29.7425777,14.5733567 29.7507002,14.4923851 C29.7976586,13.9504595 30.030547,12.6210284 31.1734136,11.6628228 C32.640547,10.4323851 34.2898031,10.7319037 34.2898031,10.7319037 C34.2898031,10.7319037 35.8464114,10.7801313 37.0819256,12.3779869 C37.7253829,13.1331291 37.8567396,14.4010066 37.8567396,14.7360613 L37.8567396,18.9515317 C37.8567396,18.9515317 37.7742451,20.1629322 38.6797812,21.3457768 Z" id="Path"></path>
            <path d="M15.2100875,22.4480306 C15.2862363,22.4715098 15.3636543,22.4924508 15.4410722,22.511488 C15.4747046,22.5191028 15.5077024,22.5279869 15.5419694,22.5349672 C15.5697002,22.5387746 15.5976849,22.5406783 15.625733,22.5406783 C15.7035952,22.5407418 15.7806958,22.525512 15.8526565,22.4957505 C15.9246171,22.4659891 15.9899781,22.4223304 16.0449956,22.3672495 C16.1000766,22.3122319 16.1437352,22.2468709 16.1734967,22.1749103 C16.2032582,22.1029497 16.218488,22.025849 16.2184245,21.9479869 L16.2184245,15.1478993 C16.2184245,15.1333042 16.2184245,15.118709 16.2215974,15.1041138 C16.2304814,14.9695842 16.2349234,14.8344201 16.2374617,14.6986214 C16.2374617,14.6624508 16.2374617,14.6262801 16.2374617,14.5901094 C16.2366368,13.4388665 15.9904223,12.3010766 15.5153173,11.2524442 C15.0401488,10.2038753 14.3470044,9.26857768 13.481954,8.50892998 C12.6169672,7.74934573 11.6,7.18273523 10.4988249,6.84704595 C9.39758643,6.51135667 8.23752298,6.4142035 7.09586214,6.56212254 C5.95416324,6.70997812 4.85711291,7.09954267 3.87780766,7.70473523 C2.89850241,8.30992779 2.05943151,9.1168512 1.41651991,10.0718206 C0.773601969,11.0267899 0.341611751,12.107849 0.149332232,13.2429103 C-0.0429476674,14.3779716 0.00890065208,15.540954 0.301422319,16.6543764 L0.301422319,16.6543764 C0.619866433,17.860954 1.21265055,18.9776761 2.0335663,19.9175427 C2.8544884,20.8574092 3.88136127,21.5950372 5.03415886,22.0728074 C6.18695011,22.5506411 7.43453392,22.7557987 8.6796302,22.6722888 C9.92472648,22.588779 11.1337155,22.2188228 12.2123632,21.5913567 C12.3451794,21.5139387 12.4757112,21.4327133 12.603895,21.3476805 C12.626105,21.330547 12.6508534,21.3178556 12.6749672,21.3013567 L12.6502188,21.3140481 C12.669256,21.3019912 12.959256,21.0976586 13.0480963,21.0322976 C13.1115536,21.1027352 13.2384683,21.2404376 13.2682932,21.2753392 L13.2765427,21.282954 L13.3977462,21.4098687 C13.912512,21.8926521 14.5331882,22.2482035 15.2100875,22.4480306 L15.2100875,22.4480306 Z M12.2129979,14.5901094 C12.212744,15.396779 11.9733829,16.1852363 11.5251204,16.8559168 C11.0768578,17.5265339 10.4398096,18.0492954 9.69456674,18.3579519 C8.94926039,18.6666718 8.12926477,18.7475164 7.33801532,18.5902691 C6.54682932,18.4330219 5.82003348,18.0447265 5.24945689,17.4744989 C4.67888031,16.9042713 4.29015974,16.1776849 4.13241751,15.3866258 C3.97467527,14.5955033 4.05499322,13.7754442 4.36323085,13.0299475 C4.67146214,12.2845142 5.19377309,11.6471488 5.86414267,11.1985055 C6.5345186,10.7497987 7.32284902,10.50993 8.1295186,10.5091685 L8.13649891,10.5091685 C9.2181291,10.5101838 10.2550853,10.9406149 11.0194923,11.7058468 C11.7838993,12.4710788 12.2131882,13.5084792 12.2129979,14.5901094 L12.2129979,14.5901094 Z" id="Shape"></path>
            <path d="M24.3676149,6.67824945 C24.2516783,6.58160394 24.1082648,6.52392123 23.9576805,6.51326039 L22.0615755,6.51326039 C22.0723632,6.4847046 22.4423195,5.57536105 23.2494967,4.94015317 C23.7910416,4.52041466 24.4220613,4.2311698 25.0935667,4.09490153 C25.277593,4.05238512 26.3671554,3.8366302 27.15593,2.96853392 C27.9447046,2.10043764 28.1039825,1.42017505 28.2245514,0.707549234 C28.2308972,0.526695842 28.1998031,0.341401072 28.0341794,0.182757746 C27.9245252,0.0839711816 27.7825711,0.0286754792 27.6350328,0.0272866521 L25.8068271,0.0272866521 C25.8068271,0.0272866521 23.1815974,-0.120568293 20.7676805,1.7850547 C19.3341794,2.88477024 18.5105033,4.27892779 17.9863457,6.05382932 C17.9407834,6.18454508 17.8610175,6.30067199 17.7553611,6.39015317 C17.6513545,6.46991904 17.5240591,6.51332385 17.3930197,6.51389497 L15.4943764,6.51389497 C15.4087724,6.51516411 15.3243107,6.53439168 15.2465755,6.57030853 C15.1688403,6.60628884 15.0995449,6.65819694 15.0431947,6.72266958 C14.8591685,6.93969365 14.9162801,7.23032823 14.9162801,7.23032823 C14.9162801,7.23032823 14.9797374,8.08509847 15.6250985,8.95636761 C16.0524201,9.54842451 16.6331816,10.0126783 17.304814,10.2991247 C17.5370678,10.4127133 17.58593,10.5002845 17.599256,10.5205908 C17.6657593,10.6218687 17.7028818,10.7395821 17.7064989,10.8607221 C17.7064989,11.2414661 17.7064989,13.145186 17.7064989,15.2259519 L17.7064989,15.6314442 C17.7064989,16.7038731 17.7064989,17.8181838 17.7064989,18.8138293 L17.7064989,19.1641138 C17.7064989,19.7796499 17.7064989,20.3393435 17.7064989,20.7987746 L17.7064989,22.083151 C17.7064989,22.083151 17.7172867,22.3947265 17.9266958,22.5451204 C18.0009409,22.6057856 18.0888928,22.647477 18.1828731,22.6665142 C18.2768534,22.685488 18.37407,22.6812998 18.4660832,22.654267 C18.6342451,22.6174617 19.8830853,22.4543764 20.8863457,21.1985558 C21.4293501,20.4934814 21.7281072,19.630779 21.7373085,18.7408534 L21.7373085,16.1613129 L21.7373085,15.7672429 L21.7373085,11.1602407 C21.7572976,11.0139716 21.8256411,10.8786171 21.931488,10.7756893 C22.0403173,10.675744 22.1828425,10.6204092 22.3306346,10.6208534 L23.9805252,10.6208534 C24.135488,10.611779 24.2810591,10.5436258 24.3872867,10.4304814 C24.4427484,10.3689912 24.4854551,10.2971575 24.5128687,10.2190416 C24.5403457,10.1409256 24.5520219,10.0581138 24.5471991,9.97549234 L24.5471991,7.10722101 C24.5484683,7.10214442 24.5478337,6.83752735 24.3676149,6.67824945 Z" id="Path"></path>
            <path d="M2.66520788,28.4212691 C2.63498315,28.3569234 2.62187287,28.2859147 2.62713348,28.2150328 L2.62713348,26.6197155 L2.08330416,26.6197155 L2.08330416,26.9503282 C2.03188468,26.8322341 1.94041729,26.7360328 1.82503282,26.6787309 C1.67980438,26.6025821 1.51746149,26.5650153 1.35354486,26.5695842 C1.15028468,26.5675536 0.950419475,26.6218096 0.776083151,26.7263239 C0.602413764,26.8300766 0.459922867,26.9786937 0.363609234,27.1565646 C0.263624595,27.3433829 0.211310372,27.5519672 0.211310372,27.7638512 C0.211310372,27.9757352 0.263624595,28.1843195 0.363609234,28.3711379 C0.460085317,28.5490722 0.602526083,28.6978796 0.776083151,28.8020131 C0.950476586,28.906337 1.15034179,28.9604026 1.35354486,28.9581182 C1.52123085,28.9645274 1.68804114,28.9310219 1.84026258,28.8603939 C1.96165011,28.8013786 2.0655488,28.7116499 2.1416849,28.6002188 C2.15219978,28.6563786 2.17404814,28.7098731 2.20591007,28.7573392 C2.23776565,28.8048053 2.27896214,28.8452276 2.32698031,28.8762582 C2.42420963,28.9288009 2.5338512,28.9539934 2.64426696,28.9492341 C2.73502998,28.9534223 2.82578665,28.9409212 2.91205689,28.9124289 L2.91205689,28.4733042 C2.8744267,28.4787615 2.83648556,28.4816805 2.79846827,28.4821882 C2.77281882,28.4851072 2.74685842,28.4809825 2.72338556,28.4701947 C2.69990635,28.4594705 2.67979672,28.4425908 2.66520788,28.4212691 Z M2.03063457,28.1173085 C1.97045164,28.2232823 1.88274726,28.3109803 1.77680525,28.3711379 C1.6690547,28.4319934 1.54707068,28.4630875 1.42334792,28.4612473 C1.30264573,28.4630241 1.18373939,28.4318665 1.07940919,28.3711379 C0.976766958,28.3104726 0.892882713,28.2226477 0.837002188,28.1173085 C0.77867221,28.0078446 0.748161926,27.8856893 0.748161926,27.7616302 C0.748161926,27.6375711 0.77867221,27.5154158 0.837002188,27.4059519 C0.892641575,27.3004223 0.976582932,27.2125339 1.07940919,27.1521225 C1.18356171,27.0908862 1.30255055,27.0595383 1.42334792,27.0613786 C1.54715952,27.0594748 1.669207,27.0908228 1.77680525,27.1521225 C1.88294398,27.2120263 1.97070547,27.2997877 2.03063457,27.4059519 C2.09137593,27.5146543 2.12326958,27.6371269 2.12326958,27.7616302 C2.12326958,27.8861335 2.09137593,28.0086061 2.03063457,28.1173085 L2.03063457,28.1173085 Z" id="Shape"></path>
            <path d="M4.40013129,27.5576149 L4.19643326,27.4852735 C4.09434945,27.4551947 3.99550197,27.4149628 3.90135667,27.3653392 C3.87676061,27.3508074 3.85660656,27.3298031 3.84307112,27.304674 C3.82953567,27.2794814 3.82314551,27.251116 3.8245733,27.2225602 C3.82404026,27.1937505 3.83058906,27.1652582 3.84364223,27.1396214 C3.85670175,27.1139212 3.87586586,27.0918381 3.89945295,27.0753392 C3.95849365,27.0344092 4.02950241,27.0142932 4.10124726,27.0182276 C4.32123479,27.0182276 4.48727724,27.0848578 4.59938731,27.2181182 L4.90334792,26.8963895 C4.72185996,26.666674 4.4574523,26.5518162 4.11013129,26.5518162 C3.90435821,26.5455974 3.70270985,26.6103873 3.53901532,26.7352079 C3.46292363,26.7939059 3.40201094,26.8700547 3.36137921,26.9571816 C3.32074748,27.0442451 3.30158337,27.1398753 3.30549234,27.2358862 C3.29898796,27.38114 3.35033129,27.5230941 3.44827133,27.6305908 C3.56689212,27.7446236 3.7102105,27.8297199 3.86708972,27.8793435 L4.05746171,27.9428009 C4.17381707,27.9789716 4.28677746,28.0252954 4.3950547,28.0811379 C4.42486696,28.0960503 4.4498628,28.1191488 4.46714858,28.1476411 C4.4844407,28.1761335 4.49332473,28.2090044 4.49277899,28.2423195 C4.49225864,28.2774748 4.48306368,28.3119956 4.46601904,28.3427724 C4.4489744,28.3735492 4.42459409,28.3996302 4.3950547,28.4187309 C4.30161379,28.4744464 4.19318425,28.4997024 4.08474836,28.4910722 C3.95771947,28.4939912 3.83187724,28.4661335 3.71796499,28.4098468 C3.62223961,28.3643479 3.54065252,28.2937199 3.48190372,28.2055142 L3.1328884,28.5005908 C3.21143589,28.6483829 3.33564092,28.7667943 3.48698031,28.8381838 C3.67042276,28.9266433 3.87228053,28.9701116 4.07586433,28.9650985 C4.38680525,28.9650985 4.6209628,28.8971991 4.77833698,28.7614004 C4.85427002,28.6974989 4.91481466,28.6172888 4.95546543,28.5267987 C4.99611619,28.4362451 5.01582604,28.3376958 5.0131291,28.238512 C5.0183453,28.0893873 4.96558053,27.94407 4.8659081,27.8330197 C4.73485602,27.7053435 4.57514661,27.610919 4.40013129,27.5576149 Z" id="Path"></path>
            <path d="M5.69148796,26.3525602 C5.73358556,26.3530678 5.77534048,26.3450722 5.81427155,26.3290175 C5.85319628,26.3129628 5.88849125,26.2892932 5.91803063,26.2592779 C5.94821094,26.229326 5.97216608,26.193663 5.98850635,26.1543829 C6.00485295,26.1151663 6.0132674,26.0730306 6.0132674,26.0305142 C6.0132674,25.9879978 6.00485295,25.9458621 5.98850635,25.9065821 C5.97216608,25.8673654 5.94821094,25.8317024 5.91803063,25.8017505 C5.88849125,25.7717352 5.85319628,25.7480656 5.81427155,25.7320109 C5.77534048,25.7159562 5.73358556,25.7079606 5.69148796,25.7084683 C5.648686,25.7076433 5.60615689,25.7154486 5.56645799,25.7315033 C5.52675908,25.7474945 5.49072166,25.7714179 5.46050328,25.8017505 C5.43032298,25.8317024 5.40636783,25.8673654 5.39002757,25.9065821 C5.37368096,25.9458621 5.36526652,25.9879978 5.36526652,26.0305142 C5.36526652,26.0730306 5.37368096,26.1151663 5.39002757,26.1543829 C5.40636783,26.193663 5.43032298,26.229326 5.46050328,26.2592779 C5.49072166,26.2896105 5.52675908,26.3135339 5.56645799,26.3295252 C5.60615689,26.3455799 5.648686,26.3533851 5.69148796,26.3525602 L5.69148796,26.3525602 Z" id="Path"></path>
            <path d="M5.9973523,28.4098468 C5.97054158,28.3517199 5.95896696,28.2877549 5.96371991,28.2239168 L5.96371991,26.6197155 L5.41989059,26.6197155 L5.41989059,28.3692341 C5.41989059,28.7554989 5.59503282,28.9487899 5.94531729,28.9492341 C6.03758425,28.954628 6.13002888,28.9421269 6.21754923,28.9124289 L6.21754923,28.4549015 C6.18634092,28.4620088 6.15436477,28.4651816 6.12236324,28.4644201 C6.09856674,28.4671488 6.07446565,28.4635317 6.05250941,28.4539497 C6.03055317,28.4443676 6.01152232,28.4291379 5.9973523,28.4098468 Z" id="Path"></path>
            <path d="M8.92527352,28.4212691 C8.89449672,28.3571138 8.88110722,28.2859781 8.88656455,28.2150328 L8.88656455,26.6197155 L8.34273523,26.6197155 L8.34273523,26.9503282 C8.29152516,26.8320438 8.20001969,26.735779 8.08446389,26.6787309 C7.93984464,26.6028359 7.77815536,26.5652691 7.61487965,26.5695842 C7.41162582,26.5675536 7.21173523,26.6218096 7.03741794,26.7263239 C6.86373523,26.8300766 6.72127352,26.9786937 6.6249453,27.1565646 C6.52531729,27.3435098 6.47321882,27.5520306 6.47321882,27.7638512 C6.47321882,27.9756718 6.52531729,28.1841926 6.6249453,28.3711379 C6.72140044,28.5490722 6.86386214,28.6978796 7.03741794,28.8020131 C7.21179869,28.906337 7.41168928,28.9604026 7.61487965,28.9581182 C7.78126477,28.9638928 7.94669803,28.9304508 8.09778993,28.8603939 C8.21918381,28.8013786 8.32306346,28.7117133 8.39921225,28.6002188 C8.40968271,28.6565055 8.43157549,28.71 8.46355799,28.7575295 C8.49554048,28.8049956 8.53691466,28.8454179 8.58514223,28.8762582 C8.6822954,28.9289278 8.79201313,28.9541204 8.90242888,28.9492341 C8.99317287,28.9534223 9.08398031,28.9409212 9.17021882,28.9124289 L9.17021882,28.4733042 C9.13258862,28.4787615 9.09464114,28.481744 9.0566302,28.4821882 C9.03124726,28.4849168 9.0056105,28.4807287 8.98251204,28.4700044 C8.95935011,28.4592801 8.93955142,28.4424004 8.92527352,28.4212691 L8.92527352,28.4212691 Z M8.29070022,28.1173085 C8.23041575,28.2231554 8.14271772,28.3108534 8.0368709,28.3711379 C7.92905689,28.4318031 7.8070919,28.4628337 7.68341357,28.4612473 C7.56252735,28.4629606 7.44341794,28.4318031 7.33884026,28.3711379 C7.23635667,28.3102823 7.15252954,28.2225208 7.09643326,28.1173085 C7.03811597,28.0078446 7.007593,27.8856893 7.007593,27.7616302 C7.007593,27.6375711 7.03811597,27.5154158 7.09643326,27.4059519 C7.15227571,27.3006127 7.2361663,27.2127243 7.33884026,27.1521225 C7.44322757,27.0909497 7.56240044,27.0596018 7.68341357,27.0613786 C7.80721882,27.0597287 7.92918381,27.0910766 8.0368709,27.1521225 C8.1429081,27.2121532 8.23066958,27.2999147 8.29070022,27.4059519 C8.35142888,27.5146543 8.38334792,27.6371269 8.38334792,27.7616302 C8.38334792,27.8861335 8.35142888,28.0086061 8.29070022,28.1173085 Z" id="Shape"></path>
            <path d="M11.6761488,28.3958862 C11.6507659,28.3375689 11.6398512,28.2739847 11.6444201,28.2105908 L11.6444201,27.4897155 C11.6444201,27.2058709 11.5695405,26.9822473 11.4197812,26.8189716 C11.2700219,26.6556958 11.0593435,26.5742166 10.7877462,26.5746608 C10.6408425,26.5714245 10.4956521,26.6063895 10.3663895,26.6761926 C10.2530547,26.7367309 10.1612319,26.830965 10.1036761,26.9458862 L10.1036761,26.6197155 L9.56428884,26.6197155 L9.56428884,28.9041794 L10.1036761,28.9041794 L10.1036761,27.5893435 C10.1010744,27.5193501 10.1126236,27.4496105 10.1375624,27.384186 C10.1625011,27.3187615 10.2004486,27.2590481 10.2489934,27.2085996 C10.2973479,27.1597374 10.3552845,27.1214092 10.419186,27.0960263 C10.4830875,27.0707068 10.5514945,27.0589037 10.6202188,27.0613786 C10.6853895,27.0575711 10.7506871,27.0677243 10.8116061,27.09114 C10.8725886,27.1145558 10.9277965,27.150663 10.9736761,27.1971772 C11.0625799,27.2999781 11.1080788,27.433302 11.1005908,27.5690372 L11.1005908,28.3305252 C11.1005908,28.7298621 11.2789059,28.929372 11.6355361,28.9289278 C11.7149212,28.9307681 11.794116,28.9215667 11.8709628,28.9016411 L11.8709628,28.4415755 C11.8458337,28.4475405 11.8200066,28.450523 11.7941794,28.4504595 C11.7713982,28.4528709 11.7484267,28.4490635 11.7276127,28.4394179 C11.7068621,28.4298359 11.6890941,28.4147965 11.6761488,28.3958862 L11.6761488,28.3958862 Z" id="Path"></path>
            <path d="M14.214442,25.7084683 C14.1207155,25.726744 14.0332713,25.7689431 13.9606127,25.8309409 C13.8749453,25.8982057 13.8092035,25.9874902 13.7702407,26.0892123 C13.7263282,26.2236783 13.706593,26.3648074 13.71186,26.5061269 L13.71186,26.6197155 L13.34,26.6197155 L13.34,27.1134136 L13.71186,27.1134136 L13.71186,28.9035449 L14.2556893,28.9035449 L14.2556893,27.1134136 L14.68593,27.1134136 L14.68593,26.6197155 L14.2556893,26.6197155 L14.2556893,26.4655142 C14.2473764,26.3769912 14.273267,26.2886586 14.3280306,26.2186652 C14.358744,26.191442 14.3946608,26.1707549 14.4336236,26.1579365 C14.472523,26.1450547 14.5137068,26.1402319 14.5545733,26.1437856 C14.6246937,26.1404858 14.6949409,26.1481641 14.7627133,26.1666302 L14.7627133,25.7002188 C14.6849147,25.687337 14.6061641,25.681372 14.5272867,25.6824508 C14.4223917,25.6812451 14.3176871,25.6900022 14.214442,25.7084683 L14.214442,25.7084683 Z" id="Path"></path>
            <path d="M16.785733,26.7155361 C16.5947899,26.6082932 16.379035,26.552895 16.1600438,26.5549891 C15.9398468,26.5525142 15.7226958,26.607151 15.5299125,26.7136324 C15.3422691,26.8176389 15.1859103,26.97 15.0770175,27.1547877 C14.9681882,27.3396389 14.9107593,27.5502538 14.9107593,27.7648031 C14.9107593,27.9793523 14.9681882,28.1899672 15.0770175,28.3748184 C15.1859103,28.5596061 15.3422691,28.7119672 15.5299125,28.8159737 C15.7226958,28.9224551 15.9398468,28.9770919 16.1600438,28.9746171 C16.379035,28.9767112 16.5947899,28.9213129 16.785733,28.81407 C16.9720438,28.71 17.1281488,28.5593523 17.2388184,28.376849 C17.3484726,28.1915536 17.4063457,27.9801138 17.4063457,27.7648031 C17.4063457,27.5494923 17.3484726,27.3380525 17.2388184,27.1527571 C17.1281488,26.9702538 16.9720438,26.8196061 16.785733,26.7155361 Z M16.7743107,28.1274617 C16.6781729,28.2894048 16.5220678,28.4069278 16.3399453,28.4547112 C16.1577593,28.5024311 15.9640875,28.4765405 15.8008753,28.3825602 C15.6950284,28.3203085 15.6074573,28.2312144 15.547046,28.1242888 C15.4862538,28.0130481 15.4544617,27.8883545 15.4544617,27.7616302 C15.4544617,27.6349059 15.4862538,27.5102123 15.547046,27.3989716 C15.6422319,27.2363304 15.7978293,27.117919 15.9798884,27.0695646 C16.1620109,27.0211466 16.3558731,27.0467199 16.5192123,27.1407002 C16.6253129,27.202698 16.7129475,27.2918556 16.7730416,27.3989716 C16.8338337,27.5102123 16.8656258,27.6349059 16.8656258,27.7616302 C16.8656258,27.8883545 16.8338337,28.0130481 16.7730416,28.1242888 L16.7743107,28.1274617 Z" id="Shape"></path>
            <path d="M19.6311597,26.7155361 C19.440407,26.6082932 19.2249059,26.552895 19.006105,26.5549891 C18.7859081,26.5525142 18.5687571,26.607151 18.3759737,26.7136324 C18.1883304,26.8176389 18.0319716,26.97 17.9230788,27.1547877 C17.8142495,27.3396389 17.7568206,27.5502538 17.7568206,27.7648031 C17.7568206,27.9793523 17.8142495,28.1899672 17.9230788,28.3748184 C18.0319716,28.5596061 18.1883304,28.7119672 18.3759737,28.8159737 C18.5687571,28.9224551 18.7859081,28.9770919 19.006105,28.9746171 C19.2249059,28.9767112 19.440407,28.9213129 19.6311597,28.81407 C19.8177877,28.7103807 19.9739562,28.5596696 20.0842451,28.376849 C20.1942801,28.1916805 20.252407,27.9802407 20.252407,27.7648031 C20.252407,27.5493654 20.1942801,27.3379256 20.0842451,27.1527571 C19.9739562,26.9699365 19.8177877,26.8192254 19.6311597,26.7155361 L19.6311597,26.7155361 Z M19.6197374,28.1274617 C19.5596433,28.2346411 19.4720088,28.3237987 19.3659081,28.385733 C19.2853173,28.433453 19.1960328,28.4646105 19.1033217,28.4774923 C19.010547,28.4903107 18.916186,28.4845361 18.8256324,28.4604858 C18.7351422,28.4364354 18.6503632,28.3946171 18.5761816,28.337442 C18.5020635,28.280267 18.4400022,28.2088775 18.3937418,28.1274617 C18.3329497,28.016221 18.3011575,27.8915274 18.3011575,27.7648031 C18.3011575,27.6380788 18.3329497,27.5133851 18.3937418,27.4021444 C18.4889278,27.2395033 18.6445252,27.1210919 18.8265842,27.0727374 C19.0087068,27.0243195 19.2025689,27.0498928 19.3659081,27.1438731 C19.4720088,27.2058074 19.5596433,27.294965 19.6197374,27.4021444 C19.6809737,27.5131947 19.7130832,27.6379519 19.7130832,27.7648031 C19.7130832,27.8916543 19.6809737,28.0164114 19.6197374,28.1274617 L19.6197374,28.1274617 Z" id="Shape"></path>
            <path d="M23.0597593,28.4212691 C23.0289825,28.3571138 23.015593,28.2859781 23.0210503,28.2150328 L23.0210503,25.7452735 L22.477221,25.7452735 L22.477221,26.9509628 C22.4260109,26.8326783 22.3345055,26.7364136 22.2189497,26.6793654 C22.0737593,26.6031532 21.911372,26.565523 21.7474617,26.5702188 C21.5442079,26.5681882 21.3443173,26.6224442 21.17,26.7269584 C20.9963173,26.8307112 20.8538556,26.9793282 20.7575274,27.1571991 C20.6578993,27.3441444 20.6058009,27.5526652 20.6058009,27.7644858 C20.6058009,27.9763063 20.6578993,28.1848271 20.7575274,28.3717724 C20.8539825,28.5497068 20.9964442,28.6985142 21.17,28.8026477 C21.3443807,28.9069716 21.5442713,28.9610372 21.7474617,28.9587527 C21.9138468,28.9645274 22.0792801,28.9310853 22.230372,28.8610284 C22.3518928,28.80214 22.4558359,28.7124748 22.5317943,28.6008534 C22.5422648,28.65714 22.5641575,28.7106346 22.59614,28.7581641 C22.6281225,28.8056302 22.6694967,28.8460525 22.7177243,28.8768928 C22.8148775,28.9295624 22.9245952,28.9547549 23.0350109,28.9498687 C23.1257549,28.9541204 23.2165624,28.9416193 23.3028009,28.9130635 L23.3028009,28.4733042 C23.2651707,28.4787615 23.2272232,28.481744 23.1892123,28.4821882 C23.1641466,28.4845996 23.1388906,28.480221 23.1161094,28.4694967 C23.0933282,28.4587724 23.0739103,28.4420832 23.0597593,28.4212691 L23.0597593,28.4212691 Z M22.425186,28.1173085 C22.3649015,28.2231554 22.2772035,28.3108534 22.1713567,28.3711379 C22.0635427,28.4318031 21.9415777,28.4628337 21.8178993,28.4612473 C21.6970131,28.4630241 21.5779037,28.4318665 21.473326,28.3711379 C21.3708425,28.3102823 21.2870153,28.2225208 21.230919,28.1173085 C21.1726018,28.0078446 21.1420788,27.8856893 21.1420788,27.7616302 C21.1420788,27.6375711 21.1726018,27.5154158 21.230919,27.4059519 C21.2867615,27.3006127 21.3706521,27.2127243 21.473326,27.1521225 C21.5777133,27.0908862 21.6968862,27.0595383 21.8178993,27.0613786 C21.9417046,27.0597287 22.0636696,27.0910766 22.1713567,27.1521225 C22.2773939,27.2121532 22.3651554,27.2999147 22.425186,27.4059519 C22.4859147,27.5146543 22.5178337,27.6371269 22.5178337,27.7616302 C22.5178337,27.8861335 22.4859147,28.0086061 22.425186,28.1173085 Z" id="Shape"></path>
            <path d="M27.0404376,28.3958862 C27.0150547,28.3375689 27.00414,28.2739847 27.008709,28.2105908 L27.008709,27.4897155 C27.008709,27.2058709 26.9340197,26.9822473 26.7847046,26.8189716 C26.6353895,26.6556958 26.4261707,26.5742166 26.1571116,26.5746608 C26.0102079,26.5712341 25.864954,26.6061991 25.7357549,26.6761926 C25.6221028,26.7365405 25.5300263,26.8308381 25.472407,26.9458862 L25.472407,26.6197155 L24.9336543,26.6197155 L24.9336543,28.9041794 L25.472407,28.9041794 L25.472407,27.5893435 C25.4698053,27.5193501 25.4813545,27.4496105 25.5062932,27.384186 C25.5312319,27.3187615 25.5691794,27.2590481 25.6177243,27.2085996 C25.6661422,27.159674 25.7242057,27.1213457 25.7882341,27.0959628 C25.8521991,27.0706433 25.9207965,27.0588403 25.9895842,27.0613786 C26.0547549,27.0576346 26.1199891,27.0677877 26.1809081,27.0912035 C26.2418906,27.1146193 26.2971619,27.1507899 26.3430416,27.1971772 C26.4319453,27.2999781 26.4774442,27.433302 26.4699562,27.5690372 L26.4699562,28.3305252 C26.4699562,28.7298621 26.6482713,28.929372 27.0049015,28.9289278 C27.084477,28.9307681 27.1639256,28.9215667 27.2409628,28.9016411 L27.2409628,28.4415755 C27.2155799,28.447477 27.1896258,28.4504595 27.1635449,28.4504595 C27.1400022,28.4538228 27.1159519,28.450523 27.094186,28.4408775 C27.0723567,28.4311685 27.0537637,28.4156214 27.0404376,28.3958862 Z" id="Path"></path>
            <path d="M29.3064989,26.7104595 C29.1280569,26.6060088 28.9243589,26.5526411 28.7176149,26.5562582 C28.5034464,26.5532757 28.29207,26.6048031 28.1033479,26.7060175 C27.9230022,26.8031707 27.7743217,26.9500744 27.6750109,27.1292779 C27.5691641,27.3237112 27.5159869,27.542512 27.5208096,27.7638512 L27.5208096,27.7816193 C27.5160503,27.9985164 27.568593,28.2128118 27.6731072,28.4028665 C27.7717834,28.5787702 27.9197659,28.7219934 28.0989059,28.8147046 C28.2950525,28.9150941 28.5131554,28.965035 28.7334792,28.9600219 C28.9093195,28.9614814 29.0838271,28.9300066 29.2481182,28.8673742 C29.4181204,28.7962385 29.5699103,28.6877899 29.6923195,28.5500875 L29.3661488,28.2328009 C29.2867002,28.3155492 29.1929737,28.3832582 29.0894748,28.4326915 C28.9820416,28.4775558 28.8663589,28.4991947 28.7499781,28.4961488 C28.5720438,28.5047155 28.3974092,28.4465252 28.2600875,28.3330635 C28.198407,28.2784902 28.1487834,28.2116696 28.114453,28.1367899 C28.0801225,28.0619737 28.0618468,27.9807484 28.0608315,27.8983807 L29.8376368,27.8983807 C29.8433479,27.8406346 29.8465208,27.7771772 29.8465208,27.7080088 C29.8486783,27.5060241 29.8005142,27.3067046 29.7062801,27.1280088 C29.61414,26.9545799 29.4757396,26.8100875 29.3064989,26.7104595 L29.3064989,26.7104595 Z M28.0741575,27.5170022 C28.0808206,27.4469453 28.1024595,27.3791094 28.1376149,27.3181269 C28.1727702,27.2572079 28.2206171,27.2044748 28.2778556,27.1635449 C28.403628,27.0664551 28.5587812,27.0151816 28.7176149,27.0182276 C28.8174967,27.0176565 28.916046,27.0409453 29.0050766,27.0861269 C29.0896652,27.127628 29.1621969,27.1901335 29.2157549,27.2676149 C29.2665208,27.3408446 29.2935536,27.4279081 29.2931768,27.5170022 L28.0741575,27.5170022 Z" id="Shape"></path>
            <path d="M30.9608315,25.7452735 L30.4170022,25.7452735 L30.4170022,26.6197155 L30.1314442,26.6197155 L30.1314442,27.1134136 L30.4170022,27.1134136 L30.4170022,28.1921882 C30.4170022,28.4976083 30.487884,28.7030197 30.6295842,28.8083589 C30.7827068,28.9176958 30.9676214,28.9734748 31.1556455,28.9670022 C31.25007,28.9688425 31.3444311,28.9597046 31.4367615,28.9397155 L31.4367615,28.4549015 C31.3740656,28.4672123 31.310291,28.4734311 31.2463895,28.4733042 C31.2066652,28.4769212 31.1666236,28.4719081 31.1290569,28.4585186 C31.0914902,28.4451291 31.0572232,28.4238074 31.0287309,28.3958862 C30.9830416,28.3444858 30.9608315,28.2569147 30.9608315,28.1331729 L30.9608315,27.1134136 L31.4634136,27.1134136 L31.4634136,26.6197155 L30.9608315,26.6197155 L30.9608315,25.7452735 Z" id="Path"></path>
            <polygon id="Path" points="33.9877462 28.0424289 33.5257768 26.6197155 33.1133042 26.6197155 32.6507002 28.0424289 32.1747702 26.6197155 31.6633042 26.6197155 32.4241575 28.9035449 32.8505908 28.9035449 33.3214442 27.4579869 33.7929322 28.9035449 34.2142888 28.9035449 34.9802188 26.6197155 34.4636761 26.6197155"></polygon>
            <path d="M36.9562801,26.7155361 C36.765337,26.6082932 36.5495821,26.552895 36.3305908,26.5549891 C36.1103939,26.5525142 35.8932429,26.607151 35.7004595,26.7136324 C35.5128162,26.8176389 35.3564573,26.97 35.2475646,27.1547877 C35.1387352,27.3396389 35.0813063,27.5502538 35.0813063,27.7648031 C35.0813063,27.9793523 35.1387352,28.1899672 35.2475646,28.3748184 C35.3564573,28.5596061 35.5128162,28.7119672 35.7004595,28.8159737 C35.8932429,28.9224551 36.1103939,28.9770919 36.3305908,28.9746171 C36.5495821,28.9767112 36.765337,28.9213129 36.9562801,28.81407 C37.1429081,28.7103807 37.2990766,28.5596696 37.4093654,28.376849 C37.5190197,28.1915536 37.5768928,27.9801138 37.5768928,27.7648031 C37.5768928,27.5494923 37.5190197,27.3380525 37.4093654,27.1527571 C37.2990766,26.9699365 37.1429081,26.8192254 36.9562801,26.7155361 L36.9562801,26.7155361 Z M36.9448578,28.1274617 C36.8492276,28.2902932 36.693186,28.4087681 36.5106193,28.4571225 C36.328116,28.505477 36.1338731,28.4798403 35.9701532,28.385733 C35.8643063,28.3234814 35.7767352,28.2343873 35.7163239,28.1274617 C35.6555952,28.016221 35.6237396,27.8915274 35.6237396,27.7648031 C35.6237396,27.6380788 35.6555952,27.5133851 35.7163239,27.4021444 C35.8115098,27.2395033 35.9671072,27.1210919 36.1491663,27.0727374 C36.3312888,27.0243195 36.525151,27.0498928 36.6884902,27.1438731 C36.7945908,27.2058709 36.8822254,27.2950284 36.9423195,27.4021444 C37.0031116,27.5133851 37.0349037,27.6380788 37.0349037,27.7648031 C37.0349037,27.8915274 37.0031116,28.016221 36.9423195,28.1274617 L36.9448578,28.1274617 Z" id="Shape"></path>
            <path d="M38.8301751,26.6761926 C38.7147462,26.7399037 38.6231772,26.8394683 38.5693654,26.9598468 L38.5693654,26.6197155 L38.0299781,26.6197155 L38.0299781,28.9041794 L38.5693654,28.9041794 L38.5693654,27.7029322 C38.5656214,27.6213895 38.5785667,27.5399737 38.6073764,27.4635711 C38.636186,27.3871685 38.6802254,27.3174923 38.7368928,27.2587309 C38.7967965,27.2025711 38.8674245,27.1590394 38.9444617,27.130674 C39.0215624,27.102372 39.1035492,27.0898074 39.1855361,27.0937418 C39.2616214,27.0932976 39.3375164,27.1007221 39.4120788,27.1159519 L39.4120788,26.5886214 C39.358267,26.5789759 39.3036302,26.5745339 39.2489934,26.5752954 C39.1029781,26.5715514 38.9584858,26.6063895 38.8301751,26.6761926 L38.8301751,26.6761926 Z" id="Path"></path>
            <polygon id="Path" points="40.9845514 27.6394748 41.8773961 26.6197155 41.2523414 26.6197155 40.4089934 27.5893435 40.4089934 25.7452735 39.8702407 25.7452735 39.8702407 28.9035449 40.4089934 28.9035449 40.4089934 28.2372429 40.6361707 27.9840481 41.3564114 28.9035449 41.9725821 28.9035449"></polygon>
        </g>
    </g>
</svg>
