<svg version="1.1" id="Layer_1" xmlns="http://www.w3.org/2000/svg" xmlns:xlink="http://www.w3.org/1999/xlink"
	 height="30" viewBox="0 -2 374.5 190.5">
<style type="text/css">
	.st0{fill:#0073FF;}
</style>
<g>
	<g>
		<path class="st0" d="M247,0.4l-3,5.2c15.9,3.1,25.2,9.9,25.2,17.8c0,5.3-4,10.4-10.8,10.4c-10.4,0-18-16.3-18-16.3
			c-2.2-0.1-6.1-0.2-6.1-0.2S223.1,3.1,206.2-2v23.2c1.5,1.3,3.4,3,5.2,5.3c-7.7-4.6-15.6-8.1-29.6-8.1c-15.3,0-33.9,6.2-44.3,23
			l1.1,2c4.7-5.3,12-8.6,12.3-8.7c-10.2,8.9-16,23.7-18.9,33.3l8.9,8.9c10-11.2,26.7-21.9,49.3-21.9c16.9,0,34.1,7.1,46.1,19.3
			l9.6-9.7c-8.1-13.8-17.9-23.6-18.2-23.9c0.4,0.2,9.1,5.2,24.3,5.2c14.1,0,26.7-7.9,26.7-19.6C278.7,12.4,266.7,3.5,247,0.4z"/>
		<path d="M136.2,108.3v17.4h-9c0,0,0-11.4,0-13.4c0-4.1-0.6-7.6-4.7-7.6c-5,0-5.9,4.9-5.9,8.8v12.2h-9v-12.9c0-3.1,0.2-8.1-4.7-8.1
			c-4.2,0-5.9,3.7-5.9,8.8v12.2h-9V98.6h9v3.6h0.2c2.2-2.9,5.6-4.5,9.2-4.5c7.2,0,8.8,4.5,8.8,4.5s3.1-4.5,10.3-4.5
			C132.9,97.7,136.2,101.6,136.2,108.3z M31.7,98.6v27.1h-9v-3.1h-0.2c-1.5,2.4-5.3,4-8.8,4C6,126.6,0,120.2,0,112.1
			c0-8.2,5.9-14.4,13.6-14.4c6.5,0,9.2,4.5,9.2,4.5v-3.5H31.7z M23.2,112.1c0-3.8-3.1-7-7-7c-3.9,0-7,3.1-7,7c0,3.4,2.7,7,7,7
			C20.6,119.1,23.2,115.4,23.2,112.1z M171.5,98.6v27.1h-9v-3.1h-0.2c-1.5,2.4-5.3,4-8.8,4c-7.7,0-13.7-6.4-13.7-14.5
			c0-8.2,5.9-14.4,13.6-14.4c6.5,0,9.2,4.5,9.2,4.5v-3.5H171.5z M163,112.1c0-3.8-3.1-7-7-7c-3.9,0-7,3.1-7,7c0,3.4,2.7,7,7,7
			C160.4,119.1,163,115.4,163,112.1z M56.7,97.7c-4,0-7.3,1.4-9.3,4.5h-0.2v-3.6h-9v27.1h9v-12.2c0-5.8,2.1-8.8,5.9-8.8
			c3.8,0,4.7,2.9,4.7,7.2c0,1.6,0,13.8,0,13.8h9v-16.8C66.7,101.4,63.3,97.7,56.7,97.7z M77.1,83.5c-2.8,0-5.1,2.3-5.1,5.1
			c0,2.8,2.3,5.1,5.1,5.1s5.1-2.3,5.1-5.1C82.2,85.8,79.9,83.5,77.1,83.5z M72.6,98.6v27.1h9V98.6H72.6z M178,87.8v37.8h9V87.8H178z
			 M214,98.6v3.5c0,0,2.7-4.5,9.2-4.5c7.7,0,13.6,6.2,13.6,14.4c0,8.1-6,14.5-13.7,14.5c-3.5,0-7.3-1.7-8.8-4H214v14.1h-9v-38H214z
			 M220.5,119.1c4.3,0,7-3.6,7-7c0-3.8-3.1-7-7-7c-3.9,0-7,3.2-7,7C213.5,115.4,216.1,119.1,220.5,119.1z M240.6,87.8v37.8h9V87.8
			H240.6z M285.3,98.6v27.1h-9v-3.1h-0.2c-1.5,2.4-5.3,4-8.8,4c-7.7,0-13.7-6.4-13.7-14.5c0-8.2,5.9-14.4,13.6-14.4
			c6.5,0,9.2,4.5,9.2,4.5v-3.5H285.3z M276.7,112.1c0-3.8-3.1-7-7-7c-3.9,0-7,3.1-7,7c0,3.4,2.7,7,7,7
			C274.2,119.1,276.7,115.4,276.7,112.1z M310.2,97.7c-4,0-7.3,1.4-9.3,4.5h-0.2v-3.6h-9v27.1h9v-12.2c0-5.8,2.1-8.8,5.9-8.8
			c3.8,0,4.7,2.9,4.7,7.2c0,1.6,0,13.8,0,13.8h9v-16.8C320.3,101.4,316.9,97.7,310.2,97.7z M348.1,114.7h-15
			c0.9,3.2,3.6,5.1,7.3,5.1c3.7,0,5.3-0.9,7.7-1.7l1.7,6.4c-2.8,1-5.7,2.1-9.8,2.1c-10.1,0-16.2-6-16.2-14.4
			c0-7.6,4.8-14.6,14.4-14.6c11,0,15.4,7.9,14.6,17L348.1,114.7L348.1,114.7z M333,109.1h11.9c-0.5-2.7-2.8-5-5.9-5
			C336.3,104.1,333.8,105.6,333,109.1z M367.9,105.6v10.3c0,2.4,0.7,3.5,2.3,3.8c1.1,0.2,3,0.1,4.2-0.3l0.7,6.5
			c-2.4,0.6-4.2,0.7-5.9,0.7c-7.2,0-10.3-3.6-10.3-10.7v-10.3h-3.9v-7h3.9v-6.4h9v6.4h6.4v7H367.9z"/>
	</g>
	<g>
		<polygon class="st0" points="174.1,165.8 163.1,165.8 163.1,153.1 153.8,153.1 153.8,187.5 163.1,187.5 163.1,174.8 174.1,174.8 
			174.1,187.5 183.4,187.5 183.4,153.1 174.1,153.1 		"/>
		<g>
			<path class="st0" d="M203.7,153.1h-12.3v34.4h12.3c9.6,0,17.5-7.7,17.5-17.2C221.2,160.8,213.3,153.1,203.7,153.1z M203.7,178.9
				h-3.1v-17.1h3.1c4.6,0,8.1,3.7,8.1,8.5C211.9,175.2,208.4,178.9,203.7,178.9z"/>
		</g>
	</g>
</g>
</svg>
