<svg width="61px" height="32px" viewBox="0 0 61 32" version="1.1" xmlns="http://www.w3.org/2000/svg" xmlns:xlink="http://www.w3.org/1999/xlink">
    <title>animal planet HD</title>
    <g id="Page-1" stroke="none" stroke-width="1" fill="none" fill-rule="evenodd">
        <g id="AnimalPlanet_HD_PrimaryLockup2_RGB_Wiki" transform="translate(1.000000, 1.000000)" fill-rule="nonzero">
            <g id="Group">
                <path d="M38.7648937,0.376662935 L38.294065,1.19276596 C40.789457,1.67928892 42.2490258,2.74650057 42.2490258,3.98634939 C42.2490258,4.81814671 41.6212543,5.61855544 40.5540426,5.61855544 C38.9218366,5.61855544 37.7290706,3.06038634 37.7290706,3.06038634 C37.3837963,3.04469206 36.771719,3.02899777 36.771719,3.02899777 C36.771719,3.02899777 35.0139586,0.800408736 32.3616238,0 L32.3616238,3.64107504 C32.5970381,3.84510079 32.8952296,4.1119037 33.1777268,4.47287235 C31.9692666,3.75093506 30.7294178,3.20163495 28.5322173,3.20163495 C26.1309911,3.20163495 23.2118534,4.17468086 21.5796473,6.8113214 L21.7522845,7.12520718 C22.4899161,6.29340987 23.6355992,5.77549833 23.682682,5.75980404 C22.0818645,7.15659576 21.1715958,9.47935052 20.7164614,10.9860023 L22.1132531,12.382794 C23.682682,10.6250336 26.3036283,8.9457447 29.8505376,8.9457447 C32.5028724,8.9457447 35.2022901,10.0600392 37.0856048,11.9747425 L38.5922565,10.4523964 C37.3210191,8.28658456 35.7829788,6.74854425 35.7358959,6.70146138 C35.7986731,6.73284996 37.1640762,7.51756441 39.5496081,7.51756441 C41.7625029,7.51756441 43.7399833,6.27771558 43.7399833,4.44148377 C43.7399833,2.25997761 41.8566686,0.863185892 38.7648937,0.376662935 Z" id="Path" fill="#0073FF"></path>
                <path d="M21.3756215,17.3108007 L21.3756215,20.041607 L19.9631355,20.041607 C19.9631355,20.041607 19.9631355,18.252458 19.9631355,17.9385723 C19.9631355,17.2951064 19.8689698,16.7458063 19.225504,16.7458063 C18.4407895,16.7458063 18.2995409,17.5148265 18.2995409,18.1269037 L18.2995409,20.041607 L16.8870549,20.041607 L16.8870549,18.0170437 C16.8870549,17.5305208 16.9184435,16.7458063 16.1494233,16.7458063 C15.4902632,16.7458063 15.2234603,17.326495 15.2234603,18.1269037 L15.2234603,20.041607 L13.8109743,20.041607 L13.8109743,15.7884547 L15.2234603,15.7884547 L15.2234603,16.3534491 L15.2548489,16.3534491 C15.6001232,15.8983147 16.133729,15.6472061 16.6987234,15.6472061 C17.8287122,15.6472061 18.0798209,16.3534491 18.0798209,16.3534491 C18.0798209,16.3534491 18.5663438,15.6472061 19.6963326,15.6472061 C20.85771,15.6472061 21.3756215,16.2592833 21.3756215,17.3108007 Z M4.9750896,15.7884547 L4.9750896,20.041607 L3.56260359,20.041607 L3.56260359,19.555084 L3.53121501,19.555084 C3.29580068,19.931747 2.6994177,20.1828556 2.15011759,20.1828556 C0.941657337,20.1828556 0,19.1784211 0,17.9071837 C0,16.620252 0.925963048,15.6472061 2.1344233,15.6472061 C3.15455208,15.6472061 3.57829788,16.3534491 3.57829788,16.3534491 L3.57829788,15.804149 L4.9750896,15.804149 L4.9750896,15.7884547 Z M3.64107504,17.9071837 C3.64107504,17.3108007 3.15455208,16.8085835 2.54247481,16.8085835 C1.93039754,16.8085835 1.44387458,17.2951064 1.44387458,17.9071837 C1.44387458,18.4407895 1.86762038,19.0057839 2.54247481,19.0057839 C3.23302352,19.0057839 3.64107504,18.4250952 3.64107504,17.9071837 Z M26.9157055,15.7884547 L26.9157055,20.041607 L25.5032195,20.041607 L25.5032195,19.555084 L25.471831,19.555084 C25.2364166,19.931747 24.6400336,20.1828556 24.0907335,20.1828556 C22.8822733,20.1828556 21.9406159,19.1784211 21.9406159,17.9071837 C21.9406159,16.620252 22.866579,15.6472061 24.0750392,15.6472061 C25.095168,15.6472061 25.5189138,16.3534491 25.5189138,16.3534491 L25.5189138,15.804149 L26.9157055,15.804149 L26.9157055,15.7884547 Z M25.581691,17.9071837 C25.581691,17.3108007 25.095168,16.8085835 24.4830908,16.8085835 C23.8710135,16.8085835 23.3844905,17.2951064 23.3844905,17.9071837 C23.3844905,18.4407895 23.8082363,19.0057839 24.4830908,19.0057839 C25.1736395,19.0057839 25.581691,18.4250952 25.581691,17.9071837 Z M8.89866183,15.6472061 C8.27089028,15.6472061 7.75297874,15.8669261 7.43909296,16.3534491 L7.40770438,16.3534491 L7.40770438,15.7884547 L5.99521838,15.7884547 L5.99521838,20.041607 L7.40770438,20.041607 L7.40770438,18.1269037 C7.40770438,17.216635 7.73728445,16.7458063 8.33366743,16.7458063 C8.93005041,16.7458063 9.07129901,17.2009407 9.07129901,17.8757951 C9.07129901,18.1269037 9.07129901,20.041607 9.07129901,20.041607 L10.483785,20.041607 L10.483785,17.4049664 C10.4680907,16.2278948 9.9344849,15.6472061 8.89866183,15.6472061 Z M12.1002968,13.418617 C11.6608567,13.418617 11.299888,13.7795857 11.299888,14.2190258 C11.299888,14.6584659 11.6608567,15.0194345 12.1002968,15.0194345 C12.5397369,15.0194345 12.9007055,14.6584659 12.9007055,14.2190258 C12.9007055,13.7795857 12.5397369,13.418617 12.1002968,13.418617 Z M11.3940538,15.7884547 L11.3940538,20.041607 L12.8065398,20.041607 L12.8065398,15.7884547 L11.3940538,15.7884547 Z M27.9358343,14.0934715 L27.9358343,20.0259127 L29.3483203,20.0259127 L29.3483203,14.0934715 L27.9358343,14.0934715 Z M33.5857783,15.7884547 L33.5857783,16.3377548 C33.5857783,16.3377548 34.0095241,15.6315118 35.0296529,15.6315118 C36.2381132,15.6315118 37.1640762,16.6045577 37.1640762,17.8914894 C37.1640762,19.1627268 36.2224189,20.1671613 35.0139586,20.1671613 C34.4646585,20.1671613 33.8682755,19.9003584 33.6328612,19.5393897 L33.5857783,19.5393897 L33.5857783,21.7522845 L32.1732923,21.7522845 L32.1732923,15.7884547 L33.5857783,15.7884547 Z M34.6059071,19.0057839 C35.2807616,19.0057839 35.7045074,18.4407895 35.7045074,17.9071837 C35.7045074,17.3108007 35.2179844,16.8085835 34.6059071,16.8085835 C33.9938299,16.8085835 33.5073069,17.3108007 33.5073069,17.9071837 C33.5073069,18.4250952 33.9153584,19.0057839 34.6059071,19.0057839 Z M37.7604592,14.0934715 L37.7604592,20.0259127 L39.1729452,20.0259127 L39.1729452,14.0934715 L37.7604592,14.0934715 Z M44.7758064,15.7884547 L44.7758064,20.041607 L43.3633204,20.041607 L43.3633204,19.555084 L43.3319318,19.555084 C43.0965174,19.931747 42.5001345,20.1828556 41.9508344,20.1828556 C40.7423741,20.1828556 39.8007168,19.1784211 39.8007168,17.9071837 C39.8007168,16.620252 40.7266798,15.6472061 41.9351401,15.6472061 C42.9552688,15.6472061 43.3790147,16.3534491 43.3790147,16.3534491 L43.3790147,15.804149 L44.7758064,15.804149 L44.7758064,15.7884547 Z M43.4260975,17.9071837 C43.4260975,17.3108007 42.9395746,16.8085835 42.3274973,16.8085835 C41.71542,16.8085835 41.2288971,17.2951064 41.2288971,17.9071837 C41.2288971,18.4407895 41.6526429,19.0057839 42.3274973,19.0057839 C43.0337403,19.0057839 43.4260975,18.4250952 43.4260975,17.9071837 Z M48.6836843,15.6472061 C48.0559128,15.6472061 47.5380012,15.8669261 47.2241154,16.3534491 L47.1927269,16.3534491 L47.1927269,15.7884547 L45.7802409,15.7884547 L45.7802409,20.041607 L47.1927269,20.041607 L47.1927269,18.1269037 C47.1927269,17.216635 47.5223069,16.7458063 48.1186899,16.7458063 C48.7150729,16.7458063 48.8563215,17.2009407 48.8563215,17.8757951 C48.8563215,18.1269037 48.8563215,20.041607 48.8563215,20.041607 L50.2688075,20.041607 L50.2688075,17.4049664 C50.2688075,16.2278948 49.7352017,15.6472061 48.6836843,15.6472061 Z M54.6318198,18.3152352 L52.2776765,18.3152352 C52.4189251,18.8174524 52.8426709,19.1156439 53.4233596,19.1156439 C54.0040483,19.1156439 54.2551569,18.9743953 54.6318198,18.848841 L54.8986227,19.8532755 C54.4591826,20.0102184 54.0040483,20.1828556 53.3605824,20.1828556 C51.7754592,20.1828556 50.8181076,19.2411982 50.8181076,17.922878 C50.8181076,16.730112 51.5714335,15.6315118 53.0780852,15.6315118 C54.804457,15.6315118 55.4950057,16.8713606 55.3694514,18.2995409 L54.6318198,18.3152352 L54.6318198,18.3152352 Z M52.2619822,17.436355 L54.1296026,17.436355 C54.0511311,17.0126092 53.6901625,16.6516406 53.2036395,16.6516406 C52.7798937,16.6516406 52.3875365,16.8870549 52.2619822,17.436355 Z M57.739289,16.8870549 L57.739289,18.5035667 C57.739289,18.8802296 57.8491491,19.0528668 58.1002577,19.0999496 C58.2728949,19.1313382 58.5710864,19.1156439 58.7594178,19.0528668 L58.8692778,20.0729956 C58.4926149,20.1671613 58.2101177,20.1828556 57.9433148,20.1828556 C56.813326,20.1828556 56.326803,19.6178612 56.326803,18.5035667 L56.326803,16.8870549 L55.7147258,16.8870549 L55.7147258,15.7884547 L56.326803,15.7884547 L56.326803,14.7840202 L57.739289,14.7840202 L57.739289,15.7884547 L58.7437235,15.7884547 L58.7437235,16.8870549 L57.739289,16.8870549 Z" id="Shape" fill="#000000"></path>
            </g>
            <g id="Group" transform="translate(24.012262, 24.326148)" fill="#0073FF">
                <polygon id="Path" points="3.31149497 2.00886899 1.58512318 2.00886899 1.58512318 0.0156942889 0.125554312 0.0156942889 0.125554312 5.41452969 1.58512318 5.41452969 1.58512318 3.42135499 3.31149497 3.42135499 3.31149497 5.41452969 4.77106384 5.41452969 4.77106384 0.0156942889 3.31149497 0.0156942889"></polygon>
                <path d="M7.9570045,0.0156942889 L6.02660696,0.0156942889 L6.02660696,5.41452969 L7.9570045,5.41452969 C9.46365624,5.41452969 10.7035051,4.20606944 10.7035051,2.71511199 C10.7035051,1.22415454 9.46365624,0.0156942889 7.9570045,0.0156942889 Z M7.9570045,4.06482084 L7.47048154,4.06482084 L7.47048154,1.38109743 L7.9570045,1.38109743 C8.67894179,1.38109743 9.2282419,1.96178612 9.2282419,2.71511199 C9.24393619,3.48413215 8.69463608,4.06482084 7.9570045,4.06482084 Z" id="Shape"></path>
            </g>
        </g>
    </g>
</svg>
