<svg width="160px" height="81px" viewBox="0 0 160 81" version="1.1" xmlns="http://www.w3.org/2000/svg" xmlns:xlink="http://www.w3.org/1999/xlink">
    <title>animalplanetHD</title>
    <g id="Page-1" stroke="none" stroke-width="1" fill="none" fill-rule="evenodd">
        <g id="AnimalPlanet_HD_PrimaryLockup2_RGB_Wiki" fill-rule="nonzero">
            <g id="Group">
                <path d="M105.106383,1.0212766 L103.829787,3.23404255 C110.595745,4.55319149 114.553191,7.44680851 114.553191,10.8085106 C114.553191,13.0638298 112.851064,15.2340426 109.957447,15.2340426 C105.531915,15.2340426 102.297872,8.29787234 102.297872,8.29787234 C101.361702,8.25531915 99.7021277,8.21276596 99.7021277,8.21276596 C99.7021277,8.21276596 94.9361702,2.17021277 87.7446809,0 L87.7446809,9.87234043 C88.3829787,10.4255319 89.1914894,11.1489362 89.9574468,12.1276596 C86.6808511,10.1702128 83.3191489,8.68085106 77.3617021,8.68085106 C70.8510638,8.68085106 62.9361702,11.3191489 58.5106383,18.4680851 L58.9787234,19.3191489 C60.9787234,17.0638298 64.0851064,15.6595745 64.212766,15.6170213 C59.8723404,19.4042553 57.4042553,25.7021277 56.1702128,29.787234 L59.9574468,33.5744681 C64.212766,28.8085106 71.3191489,24.2553191 80.9361702,24.2553191 C88.1276596,24.2553191 95.4468085,27.2765957 100.553191,32.4680851 L104.638298,28.3404255 C101.191489,22.4680851 97.0212766,18.2978723 96.893617,18.1702128 C97.0638298,18.2553191 100.765957,20.3829787 107.234043,20.3829787 C113.234043,20.3829787 118.595745,17.0212766 118.595745,12.0425532 C118.595745,6.12765957 113.489362,2.34042553 105.106383,1.0212766 Z" id="Path" fill="#0073FF"></path>
                <path d="M57.9574468,46.9361702 L57.9574468,54.3404255 L54.1276596,54.3404255 C54.1276596,54.3404255 54.1276596,49.4893617 54.1276596,48.6382979 C54.1276596,46.893617 53.8723404,45.4042553 52.1276596,45.4042553 C50,45.4042553 49.6170213,47.4893617 49.6170213,49.1489362 L49.6170213,54.3404255 L45.787234,54.3404255 L45.787234,48.8510638 C45.787234,47.5319149 45.8723404,45.4042553 43.787234,45.4042553 C42,45.4042553 41.2765957,46.9787234 41.2765957,49.1489362 L41.2765957,54.3404255 L37.4468085,54.3404255 L37.4468085,42.8085106 L41.2765957,42.8085106 L41.2765957,44.3404255 L41.3617021,44.3404255 C42.2978723,43.106383 43.7446809,42.4255319 45.2765957,42.4255319 C48.3404255,42.4255319 49.0212766,44.3404255 49.0212766,44.3404255 C49.0212766,44.3404255 50.3404255,42.4255319 53.4042553,42.4255319 C56.5531915,42.4255319 57.9574468,44.0851064 57.9574468,46.9361702 Z M13.4893617,42.8085106 L13.4893617,54.3404255 L9.65957447,54.3404255 L9.65957447,53.0212766 L9.57446809,53.0212766 C8.93617021,54.0425532 7.31914894,54.7234043 5.82978723,54.7234043 C2.55319149,54.7234043 0,52 0,48.5531915 C0,45.0638298 2.5106383,42.4255319 5.78723404,42.4255319 C8.55319149,42.4255319 9.70212766,44.3404255 9.70212766,44.3404255 L9.70212766,42.8510638 L13.4893617,42.8510638 L13.4893617,42.8085106 Z M9.87234043,48.5531915 C9.87234043,46.9361702 8.55319149,45.5744681 6.89361702,45.5744681 C5.23404255,45.5744681 3.91489362,46.893617 3.91489362,48.5531915 C3.91489362,50 5.06382979,51.5319149 6.89361702,51.5319149 C8.76595745,51.5319149 9.87234043,49.9574468 9.87234043,48.5531915 Z M72.9787234,42.8085106 L72.9787234,54.3404255 L69.1489362,54.3404255 L69.1489362,53.0212766 L69.0638298,53.0212766 C68.4255319,54.0425532 66.8085106,54.7234043 65.3191489,54.7234043 C62.0425532,54.7234043 59.4893617,52 59.4893617,48.5531915 C59.4893617,45.0638298 62,42.4255319 65.2765957,42.4255319 C68.0425532,42.4255319 69.1914894,44.3404255 69.1914894,44.3404255 L69.1914894,42.8510638 L72.9787234,42.8510638 L72.9787234,42.8085106 Z M69.3617021,48.5531915 C69.3617021,46.9361702 68.0425532,45.5744681 66.3829787,45.5744681 C64.7234043,45.5744681 63.4042553,46.893617 63.4042553,48.5531915 C63.4042553,50 64.5531915,51.5319149 66.3829787,51.5319149 C68.2553191,51.5319149 69.3617021,49.9574468 69.3617021,48.5531915 Z M24.1276596,42.4255319 C22.4255319,42.4255319 21.0212766,43.0212766 20.1702128,44.3404255 L20.0851064,44.3404255 L20.0851064,42.8085106 L16.2553191,42.8085106 L16.2553191,54.3404255 L20.0851064,54.3404255 L20.0851064,49.1489362 C20.0851064,46.6808511 20.9787234,45.4042553 22.5957447,45.4042553 C24.212766,45.4042553 24.5957447,46.6382979 24.5957447,48.4680851 C24.5957447,49.1489362 24.5957447,54.3404255 24.5957447,54.3404255 L28.4255319,54.3404255 L28.4255319,47.1914894 C28.3829787,44 26.9361702,42.4255319 24.1276596,42.4255319 Z M32.8085106,36.3829787 C31.6170213,36.3829787 30.6382979,37.3617021 30.6382979,38.5531915 C30.6382979,39.7446809 31.6170213,40.7234043 32.8085106,40.7234043 C34,40.7234043 34.9787234,39.7446809 34.9787234,38.5531915 C34.9787234,37.3617021 34,36.3829787 32.8085106,36.3829787 Z M30.893617,42.8085106 L30.893617,54.3404255 L34.7234043,54.3404255 L34.7234043,42.8085106 L30.893617,42.8085106 Z M75.7446809,38.212766 L75.7446809,54.2978723 L79.5744681,54.2978723 L79.5744681,38.212766 L75.7446809,38.212766 Z M91.0638298,42.8085106 L91.0638298,44.2978723 C91.0638298,44.2978723 92.212766,42.3829787 94.9787234,42.3829787 C98.2553191,42.3829787 100.765957,45.0212766 100.765957,48.5106383 C100.765957,51.9574468 98.212766,54.6808511 94.9361702,54.6808511 C93.4468085,54.6808511 91.8297872,53.9574468 91.1914894,52.9787234 L91.0638298,52.9787234 L91.0638298,58.9787234 L87.2340426,58.9787234 L87.2340426,42.8085106 L91.0638298,42.8085106 Z M93.8297872,51.5319149 C95.6595745,51.5319149 96.8085106,50 96.8085106,48.5531915 C96.8085106,46.9361702 95.4893617,45.5744681 93.8297872,45.5744681 C92.1702128,45.5744681 90.8510638,46.9361702 90.8510638,48.5531915 C90.8510638,49.9574468 91.9574468,51.5319149 93.8297872,51.5319149 Z M102.382979,38.212766 L102.382979,54.2978723 L106.212766,54.2978723 L106.212766,38.212766 L102.382979,38.212766 Z M121.404255,42.8085106 L121.404255,54.3404255 L117.574468,54.3404255 L117.574468,53.0212766 L117.489362,53.0212766 C116.851064,54.0425532 115.234043,54.7234043 113.744681,54.7234043 C110.468085,54.7234043 107.914894,52 107.914894,48.5531915 C107.914894,45.0638298 110.425532,42.4255319 113.702128,42.4255319 C116.468085,42.4255319 117.617021,44.3404255 117.617021,44.3404255 L117.617021,42.8510638 L121.404255,42.8510638 L121.404255,42.8085106 Z M117.744681,48.5531915 C117.744681,46.9361702 116.425532,45.5744681 114.765957,45.5744681 C113.106383,45.5744681 111.787234,46.893617 111.787234,48.5531915 C111.787234,50 112.93617,51.5319149 114.765957,51.5319149 C116.680851,51.5319149 117.744681,49.9574468 117.744681,48.5531915 Z M132,42.4255319 C130.297872,42.4255319 128.893617,43.0212766 128.042553,44.3404255 L127.957447,44.3404255 L127.957447,42.8085106 L124.12766,42.8085106 L124.12766,54.3404255 L127.957447,54.3404255 L127.957447,49.1489362 C127.957447,46.6808511 128.851064,45.4042553 130.468085,45.4042553 C132.085106,45.4042553 132.468085,46.6382979 132.468085,48.4680851 C132.468085,49.1489362 132.468085,54.3404255 132.468085,54.3404255 L136.297872,54.3404255 L136.297872,47.1914894 C136.297872,44 134.851064,42.4255319 132,42.4255319 Z M148.12766,49.6595745 L141.744681,49.6595745 C142.12766,51.0212766 143.276596,51.8297872 144.851064,51.8297872 C146.425532,51.8297872 147.106383,51.4468085 148.12766,51.106383 L148.851064,53.8297872 C147.659574,54.2553191 146.425532,54.7234043 144.680851,54.7234043 C140.382979,54.7234043 137.787234,52.1702128 137.787234,48.5957447 C137.787234,45.3617021 139.829787,42.3829787 143.914894,42.3829787 C148.595745,42.3829787 150.468085,45.7446809 150.12766,49.6170213 L148.12766,49.6595745 L148.12766,49.6595745 Z M141.702128,47.2765957 L146.765957,47.2765957 C146.553191,46.1276596 145.574468,45.1489362 144.255319,45.1489362 C143.106383,45.1489362 142.042553,45.787234 141.702128,47.2765957 Z M156.553191,45.787234 L156.553191,50.1702128 C156.553191,51.1914894 156.851064,51.6595745 157.531915,51.787234 C158,51.8723404 158.808511,51.8297872 159.319149,51.6595745 L159.617021,54.4255319 C158.595745,54.6808511 157.829787,54.7234043 157.106383,54.7234043 C154.042553,54.7234043 152.723404,53.1914894 152.723404,50.1702128 L152.723404,45.787234 L151.06383,45.787234 L151.06383,42.8085106 L152.723404,42.8085106 L152.723404,40.0851064 L156.553191,40.0851064 L156.553191,42.8085106 L159.276596,42.8085106 L159.276596,45.787234 L156.553191,45.787234 Z" id="Shape" fill="#000000"></path>
            </g>
            <g id="Group" transform="translate(65.106383, 65.957447)" fill="#0073FF">
                <polygon id="Path" points="8.9787234 5.44680851 4.29787234 5.44680851 4.29787234 0.0425531915 0.340425532 0.0425531915 0.340425532 14.6808511 4.29787234 14.6808511 4.29787234 9.27659574 8.9787234 9.27659574 8.9787234 14.6808511 12.9361702 14.6808511 12.9361702 0.0425531915 8.9787234 0.0425531915"></polygon>
                <path d="M21.5744681,0.0425531915 L16.3404255,0.0425531915 L16.3404255,14.6808511 L21.5744681,14.6808511 C25.6595745,14.6808511 29.0212766,11.4042553 29.0212766,7.36170213 C29.0212766,3.31914894 25.6595745,0.0425531915 21.5744681,0.0425531915 Z M21.5744681,11.0212766 L20.2553191,11.0212766 L20.2553191,3.74468085 L21.5744681,3.74468085 C23.5319149,3.74468085 25.0212766,5.31914894 25.0212766,7.36170213 C25.0638298,9.44680851 23.5744681,11.0212766 21.5744681,11.0212766 Z" id="Shape"></path>
            </g>
        </g>
    </g>
</svg>
