<?xml version="1.0" encoding="UTF-8"?>
<svg width="132.352941176px" height="30px" viewBox="0 0 600 136" version="1.1" xmlns="http://www.w3.org/2000/svg" xmlns:xlink="http://www.w3.org/1999/xlink">
    <title>BollywooD HD</title>
    <g id="Page-1" stroke="none" stroke-width="1" fill="none" fill-rule="evenodd">
        <g id="BollywoodHD_logo2018_655-1" fill-rule="nonzero">
            <g id="#f2dcadff" fill="#F2DCAD">
                <path d="M528.34,1.41 C529.59,0.27 531.47,0.8 533.02,0.59 C553.69,0.71 574.37,0.59 595.04,0.65 C597.1,0.44 599.55,1.43 599.27,3.9 C599.42,16.93 599.31,29.97 599.29,43 C599.8,45.68 597.25,46.74 595.02,46.52 C575.68,46.61 556.34,46.47 537,46.58 C534.01,46.55 530.94,46.82 528.07,45.9 C526.94,43.44 527.46,40.63 527.36,38.02 C527.62,26.03 527.06,14.02 527.66,2.05 L528.34,1.41 M535.93,8.26 C535.92,18.46 535.92,28.66 535.88,38.87 C538.09,38.84 540.31,38.85 542.53,38.87 C542.49,34.76 542.51,30.65 542.48,26.54 C546.69,26.57 550.9,26.57 555.12,26.55 C555.08,30.66 555.11,34.76 555.05,38.86 C557.27,38.84 559.51,38.84 561.74,38.86 C561.68,28.66 561.68,18.46 561.73,8.26 C559.5,8.27 557.27,8.27 555.05,8.26 C555.11,12.32 555.08,16.39 555.12,20.46 C550.9,20.45 546.68,20.45 542.47,20.48 C542.5,16.4 542.48,12.33 542.51,8.26 C540.31,8.27 538.11,8.27 535.93,8.26 M565.92,8.26 C565.9,18.46 565.9,28.66 565.88,38.87 C573.21,38.31 581.5,40.53 587.9,35.81 C595.78,30.47 596.02,17.3 588.3,11.69 C581.91,6.72 573.38,8.68 565.92,8.26 Z" id="Shape"></path>
                <path d="M572.64,14.19 C576.14,14.38 580.06,13.68 583.16,15.76 C588.36,19.12 588.46,27.84 583.37,31.34 C580.24,33.52 576.24,32.76 572.66,33.03 C572.64,26.75 572.65,20.47 572.64,14.19 Z" id="Path"></path>
                <path d="M136.77,37.8 C142.2,37.78 147.63,37.78 153.06,37.8 C153,64.48 153.06,91.16 152.99,117.84 C147.59,117.8 142.18,117.81 136.78,117.85 C136.84,91.17 136.69,64.49 136.77,37.8 Z" id="Path"></path>
                <path d="M159.07,37.8 C164.41,37.79 169.75,37.79 175.09,37.79 C175.27,64.47 175.1,91.15 175.2,117.82 C169.78,117.82 164.36,117.82 158.95,117.8 C158.91,91.13 158.94,64.47 159.07,37.8 Z" id="Path"></path>
                <path d="M0.97,41.1 C12.64,41.11 24.32,41.11 36,41.09 C42.54,41.09 49.44,42.25 54.76,46.3 C61.95,51.71 63.77,62.64 59.28,70.32 C57.52,73.41 54.58,75.54 51.82,77.68 C56.27,79.76 60.97,82.17 63.53,86.59 C66.82,92.42 66.86,99.89 63.95,105.88 C61.67,110.52 57.18,113.68 52.42,115.39 C45.9,117.71 38.88,117.91 32.03,117.83 C21.66,117.79 11.3,117.8 0.93,117.84 C0.88,92.26 1.02,66.68 0.97,41.1 M17.12,55.55 C17.12,60.98 17.11,66.42 17.13,71.86 C23.11,71.81 29.1,72 35.08,71.81 C38.33,71.68 41.99,70.83 43.99,68.04 C45.24,65.82 45.32,62.97 44.52,60.58 C42.96,56.9 38.61,55.81 35,55.62 C29.04,55.35 23.08,55.65 17.12,55.55 M17.15,86.08 C17.16,91.71 17.17,97.35 17.15,102.98 C24.47,102.93 31.79,103.14 39.1,102.91 C42.77,102.77 47.22,101.58 48.69,97.81 C49.45,94.83 49.51,91.11 47.04,88.89 C44.33,86.53 40.51,86.31 37.09,86.11 C30.45,85.94 23.8,86.1 17.15,86.08 Z" id="Shape"></path>
                <path d="M94.47,58.61 C104.59,56.72 115.8,59.38 123.26,66.69 C134.99,77.49 135.42,97.89 124.17,109.18 C112.59,121.79 90.79,122.34 78.46,110.54 C68.32,101.3 66.27,84.92 73.24,73.22 C77.62,65.45 85.77,60.19 94.47,58.61 M100.48,66.96 C98.42,70.6 95.8,73.88 92.7,76.68 C89.31,80.04 85.06,83.77 85.41,89.03 C85.57,94.35 90.23,97.77 93.68,101.21 C96.66,103.66 98.68,106.95 101.09,109.9 C104.4,103.16 111.23,99.28 115.05,92.97 C117.04,89.09 116.12,84.06 113,81.03 C108.64,76.51 103.67,72.48 100.48,66.96 Z" id="Shape"></path>
                <path d="M179.55,59.06 C185.33,59.04 191.1,59.05 196.88,59.04 C201.39,72.47 205.62,86.01 210.48,99.32 C214.89,85.94 219.19,72.52 223.39,59.07 C229.06,59.03 234.73,59.03 240.4,59.06 C232.53,79.41 225.17,99.94 217.39,120.33 C215.18,125.87 212.22,131.97 206.33,134.32 C199.03,137.35 190.85,135.24 184.08,131.84 C185.84,127.97 187.61,124.1 189.36,120.22 C193.09,121.43 198.2,123.73 201.37,120.25 C203.09,118.71 201.95,116.47 201.34,114.7 C193.97,96.2 187.04,77.52 179.55,59.06 Z" id="Path"></path>
                <path d="M92.8,88.5 C95.37,85.75 98.02,83.09 100.76,80.52 C103.39,83.19 106.04,85.84 108.73,88.45 C106.1,91.14 103.45,93.81 100.8,96.48 C98.12,93.83 95.45,91.17 92.8,88.5 Z" id="Path"></path>
            </g>
            <g id="#010101ff" transform="translate(243.000000, 8.000000)" fill="#010101">
                <path d="M292.93,0.26 C295.11,0.27 297.31,0.27 299.51,0.26 C299.48,4.33 299.5,8.4 299.47,12.48 C303.68,12.45 307.9,12.45 312.12,12.46 C312.08,8.39 312.11,4.32 312.05,0.26 C314.27,0.27 316.5,0.27 318.73,0.26 C318.68,10.46 318.68,20.66 318.74,30.86 C316.51,30.84 314.27,30.84 312.05,30.86 C312.11,26.76 312.08,22.66 312.12,18.55 C307.9,18.57 303.69,18.57 299.48,18.54 C299.51,22.65 299.49,26.76 299.53,30.87 C297.31,30.85 295.09,30.84 292.88,30.87 C292.92,20.66 292.92,10.46 292.93,0.26 Z" id="Path"></path>
                <path d="M322.92,0.26 C330.38,0.68 338.91,-1.28 345.3,3.69 C353.02,9.3 352.78,22.47 344.9,27.81 C338.5,32.53 330.21,30.31 322.88,30.87 C322.9,20.66 322.9,10.46 322.92,0.26 M329.64,6.19 C329.65,12.47 329.64,18.75 329.66,25.03 C333.24,24.76 337.24,25.52 340.37,23.34 C345.46,19.84 345.36,11.12 340.16,7.76 C337.06,5.68 333.14,6.38 329.64,6.19 Z" id="Shape"></path>
                <path d="M219.01,33.07 C229.34,33.08 239.67,33.05 250,33.07 C260.73,33.28 271.57,37.24 279.12,45.01 C291.86,57.97 292.91,80.37 281.65,94.58 C274.32,104.34 262.03,109.41 250.03,109.67 C239.69,109.76 229.36,109.71 219.02,109.69 C218.99,84.15 219.02,58.61 219.01,33.07 M235.65,47.93 C235.62,63.59 235.6,79.25 235.66,94.92 C244.26,94.61 253.59,96.12 261.39,91.56 C275.78,83.55 275.71,59.45 261.49,51.31 C253.72,46.57 244.28,48.23 235.65,47.93 Z" id="Shape"></path>
                <path d="M111.52,50.72 C118.81,49.2 126.56,50.38 133.19,53.72 C141.25,57.88 147.31,65.87 148.87,74.84 C150.86,84.88 147.24,95.83 139.59,102.64 C129.11,112.37 112.12,113.64 100.15,105.91 C92.21,101.02 87.05,92.13 86.34,82.87 C84.89,67.73 96.6,53.13 111.52,50.72 M114.18,64.23 C102.58,66.34 98.83,81.78 105.27,90.62 C110.28,98.31 122.45,99.24 128.89,92.9 C135.65,85.82 135.04,72.79 127.04,66.87 C123.41,64.09 118.59,63.39 114.18,64.23 Z" id="Shape"></path>
                <path d="M178.39,50.62 C184.94,49.32 191.82,50.32 197.92,52.93 C206.88,56.92 213.71,65.51 215.27,75.23 C217.24,85.22 213.34,95.98 205.83,102.75 C193.84,113.77 173.46,113.67 161.8,102.22 C152.48,93.62 150.07,78.91 155.55,67.58 C159.78,58.63 168.66,52.21 178.39,50.62 M181.22,64.12 C169.53,65.55 165.14,80.85 171.13,89.91 C176.05,98.53 189.71,99.56 196.01,92 C201.65,85.06 201.09,73.67 194.35,67.63 C190.82,64.48 185.84,63.38 181.22,64.12 Z" id="Shape"></path>
                <path d="M0.79,51.06 C6.23,51.12 11.67,51.11 17.11,51.07 C20.44,63.09 23.16,75.3 26.89,87.2 C30.89,75.22 34.36,63.07 38.14,51.02 C42.79,51.01 47.43,51.03 52.08,51 C55.97,63.09 59.25,75.39 63.63,87.31 C67.05,75.28 70.11,63.16 73.45,51.11 C78.75,51.08 84.06,51.12 89.36,51.08 C83.25,70.76 77.18,90.45 71.14,110.15 C66.32,110.13 61.49,110.12 56.66,110.16 C52.66,98.01 49.34,85.62 45,73.59 C40.86,85.71 37.19,97.98 33.22,110.16 C28.44,110.12 23.65,110.12 18.87,110.15 C12.84,90.46 6.98,70.71 0.79,51.06 Z" id="Path"></path>
            </g>
        </g>
    </g>
</svg>
