<svg width="73px" height="33px" viewBox="0 0 73 33" version="1.1" xmlns="http://www.w3.org/2000/svg" xmlns:xlink="http://www.w3.org/1999/xlink">
    <title>CGTN Documentary</title>
    <defs>
        <polygon id="path-1" points="0.0547890902 0.0422000253 72.5285801 0.0422000253 72.5285801 19.9010349 0.0547890902 19.9010349"></polygon>
    </defs>
    <g id="Page-1" stroke="none" stroke-width="1" fill="none" fill-rule="evenodd">
        <g id="CGTN_Doc" transform="translate(0.000000, 1.000000)">
            <g id="g4576" transform="translate(2.792338, 22.757318)" fill="#BEAD61" fill-rule="nonzero">
                <path d="M8.45101625,0.101095008 C9.44017489,-0.106346697 10.5785707,0.177244495 11.2199204,1.05165067 C11.7885017,1.77900956 11.8773039,2.76370119 11.8415363,3.67355626 C11.7983686,4.7764109 11.999407,5.96329255 11.4924941,6.98212016 C10.6192717,8.83202752 7.7430648,8.90423824 6.77117326,7.12128991 C6.30249461,6.32565907 6.330862,5.35803542 6.34442901,4.45605789 C6.36786294,3.51469268 6.23465954,2.52081059 6.62070275,1.63721396 C6.93767753,0.838957274 7.6480957,0.248142292 8.45101625,0.101095008 M8.66562174,1.07790911 C8.14760849,1.19344626 7.71346404,1.60307798 7.50749211,2.11774348 C7.22751828,2.77289165 7.33605439,3.50944099 7.31632055,4.20528975 C7.32372074,5.05606332 7.2090178,6.01318359 7.73689798,6.73135203 C8.36591407,7.67534307 9.87061924,7.65564924 10.4725013,6.68933852 C10.9670806,5.96985716 10.840044,5.03899533 10.8536111,4.20397683 C10.8314105,3.45823703 10.9584471,2.65210281 10.5995379,1.97069619 C10.2529624,1.23152101 9.40440731,0.87834494 8.66562174,1.07790911 L8.66562174,1.07790911 Z" id="path10"></path>
                <path d="M13.1205357,1.36412615 C14.0147253,-0.337421001 16.6134251,-0.413570487 17.6617853,1.15011983 C17.7937553,1.34443231 17.8911911,1.5623774 17.9984939,1.77375787 C17.6926194,1.92474392 17.3867449,2.07310413 17.0808704,2.22146433 C16.7120943,1.0949771 15.281391,0.690597068 14.4106354,1.40745258 C13.7544853,1.92605684 13.6373156,2.85954451 13.6817168,3.6696175 C13.7347515,4.64511868 13.5041122,5.72696656 14.0344591,6.59874689 C14.5401387,7.49284689 15.8142047,7.66615262 16.5480568,6.99918815 C16.8008966,6.78649476 16.9513671,6.47795805 17.089504,6.17598594 C17.3941451,6.33353661 17.7000196,6.49240019 18.0046607,6.65126377 C17.3608442,8.67578978 14.4747704,9.01321078 13.2981403,7.37074513 C12.7480595,6.62369241 12.6802245,5.635062 12.7098252,4.72258109 C12.7468262,3.60003262 12.5519545,2.37770207 13.1205357,1.36412615 L13.1205357,1.36412615 Z" id="path12"></path>
                <path d="M0.0308341223,0.0984691636 C0.964491347,0.106346697 1.89691521,0.0827140975 2.82933907,0.108972541 C3.68406094,0.139169751 4.57208366,0.53567225 5.03706222,1.32867725 C5.55137539,2.17682498 5.4736734,3.23241441 5.48970714,4.19741222 C5.46873994,5.10595437 5.52547472,6.07751678 5.11846431,6.90990944 C4.71515399,7.76856055 3.82343117,8.233335 2.95267555,8.30029403 C1.98078402,8.3751306 1.00395902,8.32130079 0.0296007574,8.33574293 C0.0320674872,5.59042265 0.0296007574,2.84378945 0.0308341223,0.0984691636 M1.01752604,1.05821528 L1.01752604,7.36811928 C2.02118683,7.36811928 3.1241261,7.44945875 3.8961997,6.90859652 C4.66458603,6.15497919 4.48698148,4.94052617 4.51041542,3.94139239 C4.52768252,3.05385699 4.50178186,1.9588799 3.73956236,1.39957505 C3.14663082,1.01467615 1.96993583,1.05821528 1.01752604,1.05821528 L1.01752604,1.05821528 Z" id="path14"></path>
                <path d="M18.8396487,0.0984691636 C19.1627903,0.0984691636 19.485932,0.0984691636 19.8103069,0.0984691636 C19.8127736,1.7698191 19.8103069,3.44116904 19.8115403,5.11251898 C19.8029067,5.69545642 19.9200764,6.30727816 20.2777522,6.76680093 C20.9215687,7.63201664 22.3535053,7.62413911 22.9701878,6.72741326 C23.292096,6.26657757 23.3586977,5.67313675 23.356231,5.1138319 C23.3574644,3.44248196 23.3549976,1.7698191 23.3574644,0.0984691636 C23.6830727,0.0984691636 24.0099144,0.0984691636 24.3355227,0.0997820858 C24.3355227,1.86041073 24.3379894,3.62103938 24.3342893,5.38298095 C24.3367561,6.24557082 24.0678825,7.15673881 23.4376331,7.73311165 C22.6063451,8.49066775 21.3581799,8.5825723 20.3677878,8.15455967 C19.3958963,7.72654704 18.8606159,6.59480812 18.8482823,5.51427316 C18.8285485,3.70900516 18.8445822,1.90373716 18.8396487,0.0984691636 L18.8396487,0.0984691636 Z" id="path16"></path>
                <path d="M25.6009551,0.0984691636 C25.9277968,0.0984691636 26.2546385,0.0984691636 26.5814802,0.0971562415 C27.3967344,2.02190016 28.2317224,3.9361407 28.9890085,5.88714306 C29.7561614,3.94533116 30.5738823,2.02846477 31.3706361,0.0997820858 C31.6925443,0.0984691636 32.0144525,0.0971562415 32.3363608,0.0984691636 C32.3375941,2.84510237 32.3375941,5.59042265 32.3363608,8.33705585 C32.0082857,8.33705585 31.6789773,8.33705585 31.3509022,8.33705585 C31.3484355,6.37292427 31.353369,4.40879269 31.3484355,2.4446611 C30.7601204,4.0306711 30.0669694,5.56679005 29.3972522,7.1147253 C29.1086448,7.1147253 28.8200375,7.11341238 28.5326634,7.11209946 C27.8715799,5.56022544 27.2018627,4.01229019 26.5827135,2.44072234 C26.5728466,4.40616684 26.5827135,6.37161135 26.5790135,8.33705585 C26.2521718,8.33705585 25.9265634,8.33705585 25.6009551,8.33705585 C25.5997217,5.59042265 25.5997217,2.84510237 25.6009551,0.0984691636 L25.6009551,0.0984691636 Z" id="path18"></path>
                <path d="M33.8867004,0.0984691636 C35.5159755,0.0984691636 37.1452505,0.0984691636 38.7732922,0.0984691636 C38.7732922,0.418822176 38.7732922,0.737862266 38.7732922,1.05821528 C37.4733256,1.0595282 36.173359,1.05690236 34.8733924,1.05821528 C34.8733924,1.94443775 34.8733924,2.83066022 34.8746257,3.7168827 C35.980954,3.71819562 37.0885157,3.7168827 38.1960774,3.7168827 C38.1960774,4.02279357 38.1960774,4.33001736 38.194844,4.63592822 C37.0872823,4.63724115 35.980954,4.6346153 34.8733924,4.63724115 C34.8733924,5.54709622 34.8733924,6.45695129 34.8746257,7.36811928 C36.173359,7.36943221 37.4733256,7.36811928 38.7732922,7.36943221 C38.7732922,7.69109814 38.7732922,8.014077 38.7732922,8.33705585 C37.1452505,8.33705585 35.5159755,8.33705585 33.8867004,8.33705585 C33.8867004,5.59042265 33.8867004,2.84510237 33.8867004,0.0984691636 Z" id="path20"></path>
                <path d="M39.9067545,0.13260514 C40.2372963,0.127353452 40.5666047,0.128666374 40.8971465,0.143108518 C42.1749125,2.30155258 43.5131134,4.42060899 44.7390781,6.61450195 C44.7427782,4.45343204 44.7390781,2.29236213 44.7403115,0.131292218 C45.0634531,0.131292218 45.3878281,0.131292218 45.712203,0.131292218 C45.7109697,2.87792542 45.712203,5.6232457 45.7109697,8.36987891 C45.3939949,8.36856599 45.0770201,8.36987891 44.7600453,8.3751306 C43.4551453,6.2324416 42.1231112,4.10682058 40.8959131,1.9116147 C40.8897463,4.06349415 40.8959131,6.21668653 40.8934464,8.36987891 C40.564138,8.36987891 40.2360629,8.36987891 39.9067545,8.36987891 C39.9067545,5.6232457 39.9067545,2.87792542 39.9067545,0.13260514 Z" id="path22"></path>
                <path d="M46.2894178,1.01751469 C46.2894178,0.7102909 46.2894178,0.404380032 46.2906512,0.0984691636 C48.081497,0.0984691636 49.8723428,0.0971562415 51.6631887,0.0984691636 C51.6619553,0.404380032 51.6619553,0.711603823 51.6619553,1.01751469 C50.9293365,1.01751469 50.1979512,1.01751469 49.4653324,1.01751469 C49.464099,3.4569241 49.4665658,5.89633352 49.4653324,8.33705585 C49.136024,8.33705585 48.8067156,8.33705585 48.4786405,8.33705585 C48.4774071,5.89764644 48.4798739,3.45823703 48.4786405,1.01882761 C47.7484885,1.01751469 47.0195698,1.01882761 46.2894178,1.01751469 Z" id="path24"></path>
                <path d="M51.0502063,8.33705585 C51.9900303,5.59042265 52.9347879,2.84510237 53.8770786,0.0984691636 C54.1595192,0.0984691636 54.4431931,0.0984691636 54.726867,0.0984691636 C55.6716246,2.84378945 56.6139153,5.59042265 57.5562061,8.33705585 C57.2083972,8.33705585 56.8618217,8.33705585 56.5140128,8.33574293 C56.3080408,7.70422736 56.1008355,7.07271179 55.8936302,6.44119622 C54.828003,6.44119622 53.7636091,6.4398833 52.6992152,6.44250915 C52.4932432,7.07402472 52.2860379,7.70554029 52.0775993,8.33574293 C51.7347238,8.33705585 51.3918484,8.33705585 51.0502063,8.33705585 M52.979189,5.53790576 C53.8573448,5.53921869 54.736734,5.53790576 55.6148898,5.53790576 C55.1770452,4.17771838 54.7416674,2.81621808 54.2976561,1.45734362 C53.8598115,2.81884392 53.421967,4.1790313 52.979189,5.53790576 Z" id="path26"></path>
                <path d="M58.4540958,0.0984691636 C59.5246565,0.0997820858 60.5952172,0.0945303971 61.6670113,0.101095008 C62.2836938,0.106346697 62.9114765,0.364992367 63.3246537,0.863902796 C63.9956042,1.65559487 64.0054711,2.96982998 63.3702882,3.78909342 C63.0693472,4.19478637 62.6302693,4.44424159 62.1813245,4.61886024 C62.7005711,5.85825878 63.2222844,7.09634439 63.7402977,8.33705585 C63.3739883,8.33705585 63.0089123,8.33705585 62.6450697,8.33705585 C62.1517237,7.13179329 61.6633112,5.92390488 61.1699653,4.71864232 C60.5927505,4.71864232 60.0167691,4.71864232 59.4407877,4.71864232 C59.4395543,5.92521781 59.442021,7.13048037 59.4407877,8.33705585 C59.1114792,8.33705585 58.7821708,8.33705585 58.4540958,8.33705585 C58.4540958,5.59042265 58.4528624,2.84510237 58.4540958,0.0984691636 M59.442021,1.01882761 C59.4395543,1.94443775 59.4407877,2.87136081 59.4407877,3.79959679 C60.2202743,3.77596419 61.0059277,3.85080076 61.7817142,3.75495744 C62.4464979,3.64861074 62.9275102,2.95013614 62.8510416,2.24378401 C62.8621419,1.61883305 62.3663292,1.09891587 61.7952813,1.04902482 C61.0133279,0.979439948 60.2252077,1.0358956 59.442021,1.01882761 L59.442021,1.01882761 Z" id="path28"></path>
                <path d="M64.1362078,0.0984691636 C64.48155,0.0984691636 64.8281255,0.0984691636 65.1747011,0.0971562415 C65.7815166,1.36806491 66.3833987,2.64159943 66.9334794,3.94139239 C67.489727,2.6455382 68.0879089,1.37069076 68.6910244,0.0984691636 C69.0301997,0.0984691636 69.3693751,0.0984691636 69.7097838,0.0997820858 C68.950031,1.75537696 68.1569774,3.39521676 67.4107916,5.05737624 C67.3713239,6.14841458 67.4083249,7.24339168 67.3947579,8.33705585 C67.0814832,8.33705585 66.7682085,8.33705585 66.4549338,8.33574293 C66.4561672,7.3510513 66.4537005,6.36504674 66.4574005,5.3803551 C66.4598673,5.20442353 66.4500004,5.02324027 66.3636648,4.86962837 C65.6162457,3.28230545 64.8786935,1.68973085 64.1362078,0.0984691636 L64.1362078,0.0984691636 Z" id="path30"></path>
            </g>
            <g id="g81304-Clipped" transform="translate(36.300396, 9.956327) scale(-1, 1) rotate(-180.000000) translate(-36.300396, -9.956327) ">
                <mask id="mask-2" fill="white">
                    <use xlink:href="#path-1"></use>
                </mask>
                <g id="path-1"></g>
                <g id="g81304" mask="url(#mask-2)">
                    <g transform="translate(0.371676, 0.368753)" id="Group">
                        <g transform="translate(0.053465, 0.053044)">
                            <g id="g81310" transform="translate(53.915398, 0.329043)" fill="#BEAD61" fill-rule="nonzero">
                                <path d="M13.4847018,18.4350832 L13.4847018,7.01383726 L3.8692165,18.2206707 C3.7505068,18.3565659 3.58005185,18.4350832 3.39742155,18.4350832 L0.0735500898,18.4350832 L0.0735500898,0.00465908144 L4.27709083,0.00465908144 L4.27709083,11.6161585 L13.9564968,0.219071683 C14.0721626,0.0831763811 14.2426175,0.00465908144 14.4191602,0.00465908144 L17.6973741,0.00465908144 L17.6973741,18.4350832 L13.4847018,18.4350832 Z" id="path81312"></path>
                            </g>
                            <g id="g81314" transform="translate(0.006001, 0.026085)" fill="#BEAD61" fill-rule="nonzero">
                                <path d="M13.1130254,4.31894506 C12.2972767,4.05923402 11.426739,3.9263586 10.5257628,3.9263586 C9.35997274,3.9263586 8.30071699,4.16493037 7.37539014,4.63603412 C6.46832631,5.09807818 5.7530243,5.76245526 5.25383482,6.60802608 C4.75160149,7.4596367 4.4989629,8.43808294 4.4989629,9.51618576 C4.4989629,10.5701294 4.75464533,11.5425358 5.25992249,12.4001863 C5.76519966,13.2548167 6.48050168,13.9282536 7.39060933,14.3993573 C8.31593619,14.8765009 9.36910425,15.1180925 10.5257628,15.1180925 C11.4602212,15.1180925 12.3703289,14.9852171 13.2317351,14.725506 C13.7887575,14.553372 14.3609992,14.32084 14.9941175,14.0128107 C15.0336874,13.9916713 15.021512,13.9977111 15.0641258,13.9765719 L16.7838945,17.2984573 L16.5282121,17.4252929 C15.4080795,17.9809537 14.3488238,18.3795799 13.3747955,18.612112 C12.4007673,18.844644 11.3902129,18.9624198 10.3766148,18.9624198 C8.44986507,18.9624198 6.68748268,18.5637936 5.14425664,17.7725809 C3.5858114,16.9783483 2.34392536,15.827768 1.45512456,14.3570787 C0.566323772,12.8863895 0.115835702,11.2073274 0.115835702,9.36519096 C0.115835702,7.64385035 0.554148421,6.03424587 1.41555466,4.58469589 C2.28304859,3.1351459 3.48840858,2.00570487 5.00119623,1.23563143 C6.4987647,0.468577903 8.21853337,0.0820312315 10.1148446,0.0820312315 C11.4084759,0.0820312315 12.5590468,0.214906657 13.5361189,0.474617693 C14.5071033,0.73130884 15.5846221,1.16919372 16.7382369,1.77619279 L16.942174,1.88490904 L15.6546304,5.43328661 C14.6592953,4.91688443 13.8009329,4.53637756 13.1130254,4.31894506" id="path81316"></path>
                            </g>
                            <g id="g81318" transform="translate(17.436470, 0.071128)" fill="#BEAD61" fill-rule="nonzero">
                                <path d="M17.271893,9.62123101 L14.4532987,9.61821111 L14.4532987,9.62123101 L13.4610073,9.62123101 L13.4610073,8.94175445 L13.4610073,8.94175445 L13.4610073,4.56290553 C12.809626,4.25185626 12.206946,4.08576199 11.8234224,4.01026459 C11.3729343,3.92570751 10.888964,3.88342897 10.3867306,3.88342897 C8.58477834,3.88342897 7.12069211,4.39077146 6.03404181,5.39639678 C4.94130385,6.40504197 4.41167598,7.70359717 4.41167598,9.37057965 C4.41167598,10.460762 4.66431456,11.4603475 5.16350405,12.3421571 C5.6596497,13.214907 6.36582019,13.8943836 7.26679634,14.3594476 C8.18299169,14.8335711 9.25137895,15.0721429 10.4384759,15.0721429 C12.0486664,15.0721429 13.7014706,14.7097555 15.3694941,14.0030998 L17.083175,17.3249853 L16.8366241,17.4367214 C14.6846304,18.4181875 12.4808914,18.9194902 10.2893278,18.9194902 C8.37779734,18.9194902 6.61845878,18.5148242 5.05696971,17.7145517 C3.48330528,16.9112595 2.23837541,15.766719 1.35566228,14.3111293 C0.475993,12.8585593 0.0285487645,11.2127161 0.0285487645,9.42191789 C0.0285487645,7.65527884 0.469905325,6.03057489 1.34348693,4.59310448 C2.21706854,3.15563407 3.44982306,2.02317315 5.00522446,1.22894056 C6.55149433,0.437727844 8.2956137,0.0360817028 10.1888812,0.0360817028 C11.5190385,0.0360817028 12.8157137,0.214255562 14.0454244,0.561543578 C15.2873103,0.911851494 16.367873,1.41013431 17.2597176,2.03827263 L17.4545232,2.17718783 L17.4545232,9.43701736 C17.4545232,9.53969382 17.3723396,9.62123101 17.271893,9.62123101" id="path81320"></path>
                            </g>
                            <g id="g81322" transform="translate(35.730796, 0.329043)" fill="#BEAD61" fill-rule="nonzero">
                                <polygon id="path81324" points="15.0952996 18.4350832 0.116571093 18.4350832 0.116571093 14.8655663 6.16467788 14.8655663 6.16467788 0.00465908144 10.5051914 0.00465908144 10.5051914 14.8655663 16.4285007 14.8655663 16.4285007 17.2573239 16.4285007 18.2508695 16.4285007 18.4350832 16.2428267 18.4350832"></polygon>
                            </g>
                        </g>
                    </g>
                </g>
            </g>
        </g>
    </g>
</svg>
