<svg width="69px" height="31px" viewBox="0 0 69 31" version="1.1" xmlns="http://www.w3.org/2000/svg" xmlns:xlink="http://www.w3.org/1999/xlink">
    <title>CGTN DOCUMENTARY</title>
    <defs>
        <polygon id="path-1" points="0.0506906463 0.0393528395 67.1031511 0.0393528395 67.1031511 18.5583357 0.0506906463 18.5583357"></polygon>
    </defs>
    <g id="Page-1" stroke="none" stroke-width="1" fill="none" fill-rule="evenodd">
        <g id="CGTN_Doc" transform="translate(1.000000, 1.000000)">
            <g id="g4576" transform="translate(1.838744, 21.447916)" fill="#BEAD61" fill-rule="nonzero">
                <path d="M7.85407115,0.0882608696 C8.77335968,-0.0928458498 9.83134387,0.154743083 10.4273913,0.918142292 C10.9558103,1.55316206 11.0383399,2.41284585 11.0050988,3.20719368 C10.9649802,4.17003953 11.1518182,5.20624506 10.6807115,6.09573123 C9.86916996,7.71079051 7.19612648,7.77383399 6.29288538,6.2172332 C5.85731225,5.5226087 5.88367589,4.67782609 5.89628458,3.89035573 C5.91806324,3.06849802 5.79426877,2.20079051 6.15304348,1.42936759 C6.44762846,0.732450593 7.10786561,0.216640316 7.85407115,0.0882608696 M8.05351779,0.941067194 C7.57209486,1.04193676 7.1686166,1.39956522 6.97719368,1.84889328 C6.71699605,2.42086957 6.81786561,3.06391304 6.79952569,3.67142292 C6.80640316,4.41418972 6.69980237,5.24980237 7.19039526,5.87679842 C7.77498024,6.70094862 9.17339921,6.68375494 9.7327668,5.84011858 C10.1924111,5.21197628 10.0743478,4.39928854 10.0869565,3.67027668 C10.0663241,3.01920949 10.1843874,2.31541502 9.85083004,1.72051383 C9.52873518,1.07517787 8.74011858,0.766837945 8.05351779,0.941067194 L8.05351779,0.941067194 Z" id="path10"></path>
                <path d="M12.1937549,1.19094862 C13.0247826,-0.29458498 15.4399209,-0.361067194 16.4142292,1.00411067 C16.5368775,1.17375494 16.6274308,1.36403162 16.7271542,1.54857708 C16.4428854,1.68039526 16.1586166,1.80992095 15.8743478,1.93944664 C15.5316206,0.955968379 14.2019763,0.602924901 13.3927273,1.2287747 C12.7829249,1.6815415 12.6740316,2.49652174 12.7152964,3.20375494 C12.764585,4.05541502 12.5502372,4.99992095 13.0431225,5.76102767 C13.513083,6.54162055 14.6971542,6.6929249 15.37917,6.11063241 C15.6141502,5.92494071 15.7539921,5.65557312 15.8823715,5.39193676 C16.1654941,5.52948617 16.4497628,5.66818182 16.7328854,5.80687747 C16.1345455,7.57438735 13.452332,7.86897233 12.3588142,6.43501976 C11.8475889,5.78280632 11.7845455,4.91968379 11.8120553,4.12304348 C11.8464427,3.14300395 11.665336,2.0758498 12.1937549,1.19094862 L12.1937549,1.19094862 Z" id="path12"></path>
                <path d="M0.0286561265,0.0859683794 C0.896363636,0.0928458498 1.7629249,0.0722134387 2.62948617,0.0951383399 C3.42383399,0.121501976 4.24913043,0.467667984 4.68126482,1.16 C5.15924901,1.90047431 5.08703557,2.82205534 5.10193676,3.66454545 C5.08245059,4.45774704 5.13517787,5.30596838 4.756917,6.03268775 C4.38209486,6.78233202 3.55335968,7.18810277 2.74411067,7.24656126 C1.84086957,7.31189723 0.933043478,7.26490119 0.0275098814,7.27750988 C0.0298023715,4.88071146 0.0275098814,2.4827668 0.0286561265,0.0859683794 M0.945652174,0.923873518 L0.945652174,6.43272727 C1.87841849,6.43272727 2.90345066,6.50374059 3.62098814,6.0315415 C4.33509881,5.37359684 4.17003953,4.31332016 4.19181818,3.44102767 C4.20786561,2.66616601 4.18379447,1.71019763 3.47541502,1.22189723 C2.92436573,0.885861739 1.83078765,0.923873518 0.945652174,0.923873518 L0.945652174,0.923873518 Z" id="path14"></path>
                <path d="M17.5088933,0.0859683794 C17.8092095,0.0859683794 18.1095257,0.0859683794 18.4109881,0.0859683794 C18.4132806,1.54513834 18.4109881,3.0043083 18.4121344,4.46347826 C18.4041107,4.97241107 18.513004,5.50656126 18.845415,5.90774704 C19.4437549,6.66312253 20.7745455,6.65624506 21.347668,5.87335968 C21.6468379,5.47102767 21.7087352,4.9529249 21.7064427,4.46462451 C21.7075889,3.00545455 21.7052964,1.54513834 21.7075889,0.0859683794 C22.0101976,0.0859683794 22.3139526,0.0859683794 22.6165613,0.0871146245 C22.6165613,1.62422925 22.6188538,3.16134387 22.615415,4.69960474 C22.6177075,5.45268775 22.3678261,6.24818182 21.7820949,6.7513834 C21.0095257,7.4127668 19.8495257,7.49300395 18.9290909,7.11932806 C18.0258498,6.74565217 17.5283794,5.75758893 17.516917,4.81422925 C17.4985771,3.23814229 17.5134783,1.66205534 17.5088933,0.0859683794 L17.5088933,0.0859683794 Z" id="path16"></path>
                <path d="M23.7926087,0.0859683794 C24.0963636,0.0859683794 24.4001186,0.0859683794 24.7038735,0.0848221344 C25.4615415,1.76521739 26.2375494,3.43644269 26.9413439,5.13976285 C27.6543083,3.4444664 28.4142688,1.77094862 29.1547431,0.0871146245 C29.453913,0.0859683794 29.753083,0.0848221344 30.052253,0.0859683794 C30.0533992,2.48391304 30.0533992,4.88071146 30.052253,7.27865613 C29.7473518,7.27865613 29.4413043,7.27865613 29.1364032,7.27865613 C29.1341107,5.56387352 29.1386957,3.84909091 29.1341107,2.1343083 C28.5873518,3.51897233 27.9431621,4.86007905 27.320751,6.21150198 C27.0525296,6.21150198 26.7843083,6.21035573 26.5172332,6.20920949 C25.9028458,4.85434783 25.2804348,3.5029249 24.7050198,2.13086957 C24.6958498,3.84679842 24.7050198,5.56272727 24.701581,7.27865613 C24.3978261,7.27865613 24.0952174,7.27865613 23.7926087,7.27865613 C23.7914625,4.88071146 23.7914625,2.48391304 23.7926087,0.0859683794 L23.7926087,0.0859683794 Z" id="path18"></path>
                <path d="M31.493083,0.0859683794 C33.0072727,0.0859683794 34.5214625,0.0859683794 36.0345059,0.0859683794 C36.0345059,0.365652174 36.0345059,0.644189723 36.0345059,0.923873518 C34.8263636,0.925019763 33.6182213,0.922727273 32.4100791,0.923873518 C32.4100791,1.69758893 32.4100791,2.47130435 32.4112253,3.24501976 C33.4394071,3.24616601 34.4687352,3.24501976 35.4980632,3.24501976 C35.4980632,3.51209486 35.4980632,3.78031621 35.496917,4.0473913 C34.4675889,4.04853755 33.4394071,4.04624506 32.4100791,4.04853755 C32.4100791,4.84288538 32.4100791,5.6372332 32.4112253,6.43272727 C33.6182213,6.43387352 34.8263636,6.43272727 36.0345059,6.43387352 C36.0345059,6.71470356 36.0345059,6.99667984 36.0345059,7.27865613 C34.5214625,7.27865613 33.0072727,7.27865613 31.493083,7.27865613 C31.493083,4.88071146 31.493083,2.48391304 31.493083,0.0859683794 Z" id="path20"></path>
                <path d="M37.0879051,0.115770751 C37.3950988,0.111185771 37.7011462,0.112332016 38.0083399,0.124940711 C39.1958498,2.00936759 40.4395257,3.85940711 41.5788933,5.77478261 C41.582332,3.88806324 41.5788933,2.00134387 41.5800395,0.114624506 C41.8803557,0.114624506 42.1818182,0.114624506 42.4832806,0.114624506 C42.4821344,2.51256917 42.4832806,4.90936759 42.4821344,7.30731225 C42.1875494,7.30616601 41.8929644,7.30731225 41.5983794,7.31189723 C40.3856522,5.4412253 39.1477075,3.58545455 38.0071937,1.66893281 C38.0014625,3.54762846 38.0071937,5.42747036 38.0049012,7.30731225 C37.6988538,7.30731225 37.3939526,7.30731225 37.0879051,7.30731225 C37.0879051,4.90936759 37.0879051,2.51256917 37.0879051,0.115770751 Z" id="path22"></path>
                <path d="M43.0197233,0.888339921 C43.0197233,0.620118577 43.0197233,0.353043478 43.0208696,0.0859683794 C44.6852174,0.0859683794 46.3495652,0.0848221344 48.013913,0.0859683794 C48.0127668,0.353043478 48.0127668,0.621264822 48.0127668,0.888339921 C47.3318972,0.888339921 46.6521739,0.888339921 45.9713043,0.888339921 C45.9701581,3.01806324 45.9724506,5.14778656 45.9713043,7.27865613 C45.6652569,7.27865613 45.3592095,7.27865613 45.0543083,7.27865613 C45.0531621,5.14893281 45.0554545,3.01920949 45.0543083,0.889486166 C44.3757312,0.888339921 43.6983004,0.889486166 43.0197233,0.888339921 Z" id="path24"></path>
                <path d="M47.4442292,7.27865613 C48.317668,4.88071146 49.1956917,2.48391304 50.0714229,0.0859683794 C50.333913,0.0859683794 50.5975494,0.0859683794 50.8611858,0.0859683794 C51.7392095,2.4827668 52.6149407,4.88071146 53.4906719,7.27865613 C53.1674308,7.27865613 52.845336,7.27865613 52.5220949,7.27750988 C52.3306719,6.72616601 52.1381028,6.17482213 51.9455336,5.62347826 C50.9551779,5.62347826 49.9659684,5.62233202 48.9767589,5.62462451 C48.785336,6.17596838 48.5927668,6.72731225 48.3990514,7.27750988 C48.0803953,7.27865613 47.7617391,7.27865613 47.4442292,7.27865613 M49.2369565,4.83486166 C50.053083,4.83600791 50.8703557,4.83486166 51.6864822,4.83486166 C51.2795652,3.64735178 50.8749407,2.45869565 50.4622925,1.27233202 C50.0553755,2.46098814 49.6484585,3.64849802 49.2369565,4.83486166 Z" id="path26"></path>
                <path d="M54.3251383,0.0859683794 C55.3200791,0.0871146245 56.3150198,0.0825296443 57.3111067,0.0882608696 C57.8842292,0.0928458498 58.467668,0.318656126 58.8516601,0.754229249 C59.4752174,1.44541502 59.4843874,2.59280632 58.8940711,3.30806324 C58.6143874,3.66225296 58.2063241,3.88003953 57.7890909,4.03249012 C58.2716601,5.11454545 58.7565217,6.19545455 59.2379447,7.27865613 C58.8975099,7.27865613 58.5582213,7.27865613 58.2200791,7.27865613 C57.761581,6.22640316 57.307668,5.17185771 56.84917,4.11960474 C56.3127273,4.11960474 55.7774308,4.11960474 55.2421344,4.11960474 C55.2409881,5.17300395 55.2432806,6.22525692 55.2421344,7.27865613 C54.936087,7.27865613 54.6300395,7.27865613 54.3251383,7.27865613 C54.3251383,4.88071146 54.3239921,2.48391304 54.3251383,0.0859683794 M55.2432806,0.889486166 C55.2409881,1.69758893 55.2421344,2.50683794 55.2421344,3.3172332 C55.9665613,3.29660079 56.6967194,3.36193676 57.4177075,3.27826087 C58.0355336,3.18541502 58.4825692,2.57561265 58.411502,1.95893281 C58.4218182,1.41332016 57.9610277,0.959407115 57.4303162,0.915849802 C56.7035968,0.855098814 55.9711462,0.904387352 55.2432806,0.889486166 L55.2432806,0.889486166 Z" id="path28"></path>
                <path d="M59.6058893,0.0859683794 C59.9268379,0.0859683794 60.2489328,0.0859683794 60.5710277,0.0848221344 C61.1349802,1.19438735 61.6943478,2.30624506 62.2055731,3.44102767 C62.7225296,2.30968379 63.2784585,1.19667984 63.8389723,0.0859683794 C64.1541897,0.0859683794 64.4694071,0.0859683794 64.7857708,0.0871146245 C64.0796838,1.53252964 63.3426482,2.96418972 62.64917,4.41533597 C62.6124901,5.36786561 62.6468775,6.32383399 62.6342688,7.27865613 C62.3431225,7.27865613 62.0519763,7.27865613 61.76083,7.27750988 C61.7619763,6.41782609 61.7596838,5.55699605 61.7631225,4.69731225 C61.765415,4.54371542 61.7562451,4.3855336 61.6760079,4.25142292 C60.9813834,2.86561265 60.2959289,1.47521739 59.6058893,0.0859683794 L59.6058893,0.0859683794 Z" id="path30"></path>
            </g>
            <g id="g81304-Clipped" transform="translate(33.651989, 9.333911) scale(-1, 1) rotate(-180.000000) translate(-33.651989, -9.333911) translate(0.067008, 0.049326)">
                <mask id="mask-2" fill="white">
                    <use xlink:href="#path-1"></use>
                </mask>
                <g id="path-1"></g>
                <g id="g81304" mask="url(#mask-2)">
                    <g transform="translate(0.343874, 0.343874)" id="Group">
                        <g transform="translate(0.049466, 0.049466)">
                            <g id="g81310" transform="translate(49.882310, 0.306843)" fill="#BEAD61" fill-rule="nonzero">
                                <path d="M12.475992,17.19129 L12.475992,6.54062197 L3.57978358,16.9913436 C3.46995384,17.1180701 3.3122496,17.19129 3.14328078,17.19129 L0.0680482478,17.19129 L0.0680482478,0.00434473874 L3.95714727,0.00434473874 L3.95714727,10.8324301 L12.9124948,0.204291176 C13.0195084,0.0775645692 13.1772126,0.00434473874 13.3405492,0.00434473874 L16.3735395,0.00434473874 L16.3735395,17.19129 L12.475992,17.19129 Z" id="path81312"></path>
                            </g>
                            <g id="g81314" transform="translate(0.005552, 0.024325)" fill="#BEAD61" fill-rule="nonzero">
                                <path d="M12.1321185,4.02755095 C11.3773911,3.78536231 10.571973,3.66145183 9.73839349,3.66145183 C8.65980921,3.66145183 7.67979004,3.88392745 6.82368135,4.32324639 C5.98446954,4.75411688 5.32267499,5.37366922 4.86082688,6.16219039 C4.39616262,6.95634385 4.16242242,7.86877548 4.16242242,8.87413997 C4.16242242,9.85697527 4.39897878,10.7637746 4.86645918,11.5635604 C5.33393958,12.3605299 5.99573414,12.9885308 6.83776209,13.4278497 C7.69387078,13.872801 8.66825764,14.0980927 9.73839349,14.0980927 C10.6029507,14.0980927 11.4449786,13.9741822 12.2419482,13.7319936 C12.7573031,13.5714732 13.2867388,13.3546299 13.8724973,13.0673829 C13.9091072,13.0476698 13.8978426,13.0533021 13.9372688,13.0335891 L15.5283918,16.1313509 L15.2918355,16.249629 C14.2554933,16.7678 13.2754742,17.1395314 12.3743071,17.3563748 C11.4731401,17.5732181 10.5381792,17.6830478 9.60040232,17.6830478 C7.81778125,17.6830478 6.18723213,17.3113164 4.75944559,16.5734859 C3.31757831,15.8328392 2.16859034,14.7598872 1.3462754,13.3884236 C0.52396048,12.0169601 0.107170726,10.4511823 0.107170726,8.73333261 C0.107170726,7.12812882 0.512695894,5.62712245 1.30966549,4.27537188 C2.11226739,2.92362131 3.22746162,1.87038234 4.62708668,1.15226484 C6.01263101,0.436963506 7.60375408,0.0764966814 9.35821366,0.0764966814 C10.5550761,0.0764966814 11.6195797,0.200407159 12.5235629,0.442595799 C13.4219138,0.681968298 14.4188298,1.09030961 15.4861496,1.65635516 L15.6748314,1.75773646 L14.4836012,5.0667092 C13.5627211,4.58514806 12.7685677,4.23031354 12.1321185,4.02755095" id="path81316"></path>
                            </g>
                            <g id="g81318" transform="translate(16.132152, 0.066329)" fill="#BEAD61" fill-rule="nonzero">
                                <path d="M15.979886,8.97209794 L13.3721339,8.96928179 L13.3721339,8.97209794 L12.4540699,8.97209794 L12.4540699,8.33846486 L12.4540699,8.33846486 L12.4540699,4.2550517 C11.8514145,3.96498855 11.2938174,3.81010047 10.9389829,3.73969679 C10.5221931,3.66084468 10.0744258,3.62141861 9.6097615,3.62141861 C7.94260246,3.62141861 6.58803575,4.09453131 5.58267126,5.03230827 C4.57167449,5.97290137 4.0816649,7.18384459 4.0816649,8.73835774 C4.0816649,9.75498676 4.31540511,10.6871315 4.77725322,11.5094464 C5.23628518,12.3233128 5.88963129,12.956946 6.7232108,13.3906326 C7.57087106,13.8327677 8.55933866,14.0552433 9.65763599,14.0552433 C11.1473777,14.0552433 12.6765456,13.7173057 14.2197942,13.0583272 L15.805285,16.156089 L15.577177,16.2602865 C13.5861611,17.1755342 11.5472707,17.6430146 9.51964479,17.6430146 C7.75110447,17.6430146 6.12337149,17.2656509 4.67868807,16.5193719 C3.22274006,15.7702768 2.07093594,14.7029571 1.2542533,13.3455743 C0.440386813,11.9910076 0.0264132023,10.4562074 0.0264132023,8.78623225 C0.0264132023,7.13878624 0.43475452,5.62369914 1.24298872,4.28321316 C2.05122291,2.94272718 3.19176244,1.88667205 4.63081358,1.14602539 C6.06141626,0.408194864 7.6750685,0.033647313 9.42671194,0.033647313 C10.6573682,0.033647313 11.8570468,0.199799993 12.9947702,0.523656897 C14.1437582,0.850329953 15.1434904,1.31499421 15.9686214,1.90075279 L16.1488548,2.03029555 L16.1488548,8.80031297 C16.1488548,8.89606197 16.0728189,8.97209794 15.979886,8.97209794" id="path81320"></path>
                            </g>
                            <g id="g81322" transform="translate(33.057989, 0.306843)" fill="#BEAD61" fill-rule="nonzero">
                                <polygon id="path81324" points="13.9661106 17.19129 0.107851108 17.19129 0.107851108 13.8626042 5.70353523 13.8626042 5.70353523 0.00434473874 9.71936088 0.00434473874 9.71936088 13.8626042 15.1995829 13.8626042 15.1995829 16.0929927 15.1995829 17.019505 15.1995829 17.19129 15.0277981 17.19129"></polygon>
                            </g>
                        </g>
                    </g>
                </g>
            </g>
        </g>
    </g>
</svg>
