<svg
   xmlns:dc="http://purl.org/dc/elements/1.1/"
   xmlns:cc="http://creativecommons.org/ns#"
   xmlns:rdf="http://www.w3.org/1999/02/22-rdf-syntax-ns#"
   xmlns:svg="http://www.w3.org/2000/svg"
   xmlns="http://www.w3.org/2000/svg"
   xmlns:sodipodi="http://sodipodi.sourceforge.net/DTD/sodipodi-0.dtd"
   xmlns:inkscape="http://www.inkscape.org/namespaces/inkscape"
   width="34.8811676601"
   height="30"
   viewBox="0 0 101.18945 87.029297" 
   id="svg2"
   sodipodi:version="0.32"
   inkscape:version="0.48.1 "
   version="1.0"
   sodipodi:docname="AJAX.svg"
   inkscape:output_extension="org.inkscape.output.svg.inkscape">
  <defs
     id="defs4">
    <inkscape:perspective
       sodipodi:type="inkscape:persp3d"
       inkscape:vp_x="0 : 526.18109 : 1"
       inkscape:vp_y="0 : 1000 : 0"
       inkscape:vp_z="744.09448 : 526.18109 : 1"
       inkscape:persp3d-origin="372.04724 : 350.78739 : 1"
       id="perspective10" />
    <inkscape:perspective
       id="perspective2447"
       inkscape:persp3d-origin="372.04724 : 350.78739 : 1"
       inkscape:vp_z="744.09448 : 526.18109 : 1"
       inkscape:vp_y="0 : 1000 : 0"
       inkscape:vp_x="0 : 526.18109 : 1"
       sodipodi:type="inkscape:persp3d" />
  </defs>
  <sodipodi:namedview
     id="base"
     pagecolor="#ffffff"
     bordercolor="#666666"
     borderopacity="1.0"
     gridtolerance="10000"
     guidetolerance="10"
     objecttolerance="10"
     inkscape:pageopacity="0.0"
     inkscape:pageshadow="2"
     inkscape:zoom="4.9462366"
     inkscape:cx="42.411486"
     inkscape:cy="31.061831"
     inkscape:document-units="px"
     inkscape:current-layer="layer1"
     showgrid="false"
     inkscape:window-width="1280"
     inkscape:window-height="1004"
     inkscape:window-x="-8"
     inkscape:window-y="-8"
     fit-margin-top="0"
     fit-margin-left="0"
     fit-margin-right="0"
     fit-margin-bottom="0"
     inkscape:window-maximized="1" />
  <metadata
     id="metadata7">
    <rdf:RDF>
      <cc:Work
         rdf:about="">
        <dc:format>image/svg+xml</dc:format>
        <dc:type
           rdf:resource="http://purl.org/dc/dcmitype/StillImage" />
      </cc:Work>
    </rdf:RDF>
  </metadata>
  <g
     inkscape:label="Layer 1"
     inkscape:groupmode="layer"
     id="layer1"
     transform="translate(-19.310548,-12.220703)">
    <path
       style="fill:#000000;fill-rule:evenodd;stroke:#000000;stroke-width:1px;stroke-linecap:butt;stroke-linejoin:miter;stroke-opacity:1"
       d="m 41.25,32.5 0,-4.25 -21.25,0 0,70.5 21,0 0,-4.5 -10,0 c -2.375,0 -2.375,-2.375 -2.375,-2.375 l 0,-55.75 c 0,-3.375 3.1875,-3.1875 3.1875,-3.1875 L 41.25,32.5 z"
       id="path2457"
       inkscape:connector-curvature="0" />
    <path
       id="path3229"
       d="m 98.75,32.5 0,-4.25 21.25,0 0,70.5 -21,0 0,-4.5 10,0 c 2.375,0 2.375,-2.375 2.375,-2.375 l 0,-55.75 c 0,-3.375 -3.1875,-3.1875 -3.1875,-3.1875 L 98.75,32.5 z"
       style="fill:#000000;fill-rule:evenodd;stroke:#000000;stroke-width:1px;stroke-linecap:butt;stroke-linejoin:miter;stroke-opacity:1"
       inkscape:connector-curvature="0" />
    <path
       transform="scale(1.0265513,0.9741355)"
       style="font-size:108.81124115px;font-style:normal;font-variant:normal;font-weight:900;font-stretch:normal;text-align:start;line-height:100%;writing-mode:lr-tb;text-anchor:start;fill:#80aa00;fill-opacity:1;stroke:none;font-family:Arial Black;-inkscape-font-specification:Arial Black Heavy"
       d="m 34.633193,39.942921 22.527327,0 10.944881,35.756819 11.316794,-35.756819 21.836635,0 -23.961855,56.424579 -19.180106,0 -23.483676,-56.424579 z"
       id="text3235"
       inkscape:connector-curvature="0" />
    <path
       transform="scale(0.956544,1.0454302)"
       style="font-size:13.39161682px;font-style:normal;font-variant:normal;font-weight:bold;font-stretch:normal;text-align:start;line-height:100%;writing-mode:lr-tb;text-anchor:start;fill:#000000;fill-opacity:1;stroke:none;font-family:Aharoni;-inkscape-font-specification:Aharoni Bold"
       d="m 27.014416,20.595588 c -0.758517,0.300789 -1.460355,0.451183 -2.105518,0.451183 -1.124691,0 -2.131677,-0.359638 -3.020961,-1.078915 -1.133406,-0.9198 -1.700108,-2.118592 -1.700107,-3.596381 -1e-6,-1.482139 0.566701,-2.683111 1.700107,-3.60292 0.889284,-0.719268 1.902809,-1.078906 3.040577,-1.078915 0.619008,9e-6 1.314308,0.150403 2.085902,0.451183 l 0,2.779022 c -0.21797,-0.265909 -0.440292,-0.466434 -0.666966,-0.601577 -0.414135,-0.24847 -0.858778,-0.372709 -1.33393,-0.372716 -0.601582,7e-6 -1.124691,0.180916 -1.56933,0.542727 -0.562347,0.457727 -0.843518,1.085458 -0.843515,1.883196 -3e-6,0.793387 0.281168,1.418939 0.843515,1.876657 0.444639,0.36182 0.967748,0.542729 1.56933,0.542727 0.475152,2e-6 0.919795,-0.124237 1.33393,-0.372716 0.222315,-0.130775 0.444637,-0.3313 0.666966,-0.601577 l 0,2.779022 z m 16.889914,0.209244 -2.3213,0 0,-3.714081 -3.347905,0 0,3.714081 -2.3213,0 0,-8.925564 2.3213,0 0,3.445987 3.347905,0 0,-3.445987 2.3213,0 0,8.925564 z m 17.779202,0 -2.478234,0 -0.575421,-1.556252 -3.204049,0 -0.614654,1.556252 -2.452078,0 3.432909,-8.925564 2.530545,0 3.360982,8.925564 z m -3.681387,-3.321748 -0.961215,-2.844411 -0.974292,2.844411 1.935507,0 z m 21.061718,3.321748 -2.321301,0 -4.269886,-5.466499 0,5.466499 -2.321301,0 0,-8.925564 2.321301,0 4.269886,5.45996 0,-5.45996 2.321301,0 0,8.925564 z m 18.204231,0 -2.321301,0 -4.269886,-5.466499 0,5.466499 -2.3213,0 0,-8.925564 2.3213,0 4.269886,5.45996 0,-5.45996 2.321301,0 0,8.925564 z m 14.372446,0 -5.0807,0 0,-8.925564 5.0807,0 0,1.942046 -2.7594,0 0,1.51048 2.60901,0 0,1.942046 -2.60901,0 0,1.588946 2.7594,0 0,1.942046 z m 14.01935,0 -5.10686,0 0,-8.925564 2.3213,0 0,6.983518 2.78556,0 0,1.942046 z"
       id="text3260"
       inkscape:connector-curvature="0" />
  </g>
</svg>
