<svg id="Layer_1" xmlns="http://www.w3.org/2000/svg" x="0px" y="0px"
	 width="100px" height="18px" viewBox="0 0 150 26" enable-background="new 0 0 150 26"><style>.st0{fill:#FFFFFF;} .st1{filter:url(#Adobe_OpacityMaskFilter);} .st2{fill:#FFFFFF;} .st3{mask:url(#mask-2);fill:#FFFFFF;} .st4{filter:url(#Adobe_OpacityMaskFilter_1_);} .st5{mask:url(#mask-4);fill:#FFFFFF;} .st6{filter:url(#Adobe_OpacityMaskFilter_2_);} .st7{mask:url(#mask-6);fill:#FFFFFF;} .st8{fill:#F6A827;} .st9{fill:#F7B32B;} .st10{fill:#F8C23D;} .st11{fill:#FCC640;} .st12{fill:#FFCD45;} .st13{fill:#FCD73F;} .st14{fill:#FFDB4B;} .st15{fill:#FFE94E;} .st16{fill:#F8EB58;}</style><path id="Fill-1" class="st0" d="M4.8 21.5H8c4.1 0 6-3.1 6-6.9 0-4.1-1.9-7.1-6.3-7.1H4.8v14zM0 5.5C0 4 1 3 2.5 3h5.3C14.9 3 19 7.7 19 14.8 19 21.6 14.7 26 8.1 26H2.5c-1 0-2.5-.6-2.5-2.4V5.5z"/><path id="Fill-3" class="st0" d="M31.1 21.7c2.6 0 3.9-2.5 3.9-4.7s-1.2-4.8-3.9-4.8c-2.8 0-4 2.5-4 4.8s1.2 4.7 4 4.7zm8.9 1.1c0 1.2 0 3-2.4 3-1.5 0-2.1-.7-2.4-2-1.3 1.4-2.9 2.2-4.8 2.2-4.7 0-8.4-3.7-8.4-9 0-5.1 3.7-9 8.4-9 1.9 0 3.7.7 4.8 2.1.1-1.1 1.2-1.9 2.4-1.9 2.4 0 2.4 1.8 2.4 3v11.6z"/><path id="Fill-5" class="st0" d="M47.2 4.6c-.1-.4-.2-.8-.2-1.2C47 2 48.2 1 49.4 1c1.1 0 1.7.7 2.2 1.6l4.9 13.8 4.9-13.8c.4-.9 1.1-1.6 2.2-1.6C64.8 1 66 2 66 3.4c0 .5-.1.8-.2 1.2l-6.9 18.5c-.4 1.1-.9 1.9-2.3 1.9s-1.9-.9-2.3-1.9L47.2 4.6z"/><defs><filter id="Adobe_OpacityMaskFilter" filterUnits="userSpaceOnUse" x="68.2" y=".1" width="4.7" height="25.7"><feColorMatrix values="1 0 0 0 0 0 1 0 0 0 0 0 1 0 0 0 0 0 1 0"/></filter></defs><mask maskUnits="userSpaceOnUse" x="68.2" y=".1" width="4.7" height="25.7" id="mask-2"><g class="st1"><path id="path-1" class="st2" d="M72.9.1h-4.7v25.7h4.7z"/></g></mask><path id="Fill-7" class="st3" d="M68.4 10.1c0-1.6.9-2.7 2.1-2.7 1.2 0 2.1 1.1 2.1 2.7v13c0 1.6-.9 2.7-2.1 2.7-1.2 0-2.1-1.1-2.1-2.7v-13zm4.5-7.3c0 1.5-1 2.8-2.4 2.8-1.2 0-2.4-1.3-2.4-2.8 0-1.4 1.1-2.7 2.4-2.7 1.3 0 2.4 1.2 2.4 2.7z"/><path id="Fill-10" class="st0" d="M76 10.8c0-1.6 1-2.6 2.4-2.6 1.2 0 2.1.7 2.2 1.7 1-1.2 2.5-1.9 4.8-1.9 3.8 0 6.6 2.4 6.6 6.3v9c0 1.6-1 2.6-2.4 2.6s-2.4-1-2.4-2.6v-8.2c0-2.2-1.4-3.2-3.2-3.2-2 0-3.1 1.4-3.1 3.2v8.2c0 1.6-1 2.6-2.4 2.6C77 26 76 25 76 23.4V10.8z"/><path id="Fill-12" class="st0" d="M105.2 13.2c-1.2 0-2.2-.9-3.7-.9-2.6 0-3.9 2.4-3.9 4.8 0 2.3 1.4 4.7 3.9 4.7 1.2 0 2.9-1 3.5-1 1.1 0 2 .9 2 2 0 2.4-4 3.2-5.7 3.2-5 0-8.3-4.1-8.3-9 0-4.7 3.4-9 8.3-9 1.8 0 5.7.7 5.7 2.9 0 1-.7 2.3-1.8 2.3"/><defs><filter id="Adobe_OpacityMaskFilter_1_" filterUnits="userSpaceOnUse" x="109.1" y=".1" width="4.9" height="25.7"><feColorMatrix values="1 0 0 0 0 0 1 0 0 0 0 0 1 0 0 0 0 0 1 0"/></filter></defs><mask maskUnits="userSpaceOnUse" x="109.1" y=".1" width="4.9" height="25.7" id="mask-4"><g class="st4"><path id="path-3" class="st2" d="M114 .1h-4.9v25.7h4.9z"/></g></mask><path id="Fill-14" class="st5" d="M109.4 10.1c0-1.6.9-2.7 2.2-2.7 1.3 0 2.2 1.1 2.2 2.7v13c0 1.6-.9 2.7-2.2 2.7-1.3 0-2.2-1.1-2.2-2.7v-13zm4.6-7.3c0 1.5-1.1 2.8-2.4 2.8-1.3 0-2.4-1.3-2.4-2.8 0-1.4 1.1-2.7 2.4-2.7 1.2 0 2.4 1.2 2.4 2.7z"/><defs><filter id="Adobe_OpacityMaskFilter_2_" filterUnits="userSpaceOnUse" x="122.2" y=".1" width="27.7" height="25.6"><feColorMatrix values="1 0 0 0 0 0 1 0 0 0 0 0 1 0 0 0 0 0 1 0"/></filter></defs><mask maskUnits="userSpaceOnUse" x="122.2" y=".1" width="27.7" height="25.6" id="mask-6"><g class="st6"><path id="path-5" class="st2" d="M149.9 25.6V.1h-27.7v25.5z"/></g></mask><path id="Fill-17" fill-opacity="0.2" class="st7" d="M149.5 9c-.8-2.7-1.9-4.3-3.4-5.8-1.2-1.2-3-2.3-4.5-2.7-1.7-.5-4-.5-5.7-.1-2.5.7-5.4 2.6-6 5.7-.2 1.2-.3 2.2-.2 3.6.1 1.3.2 1.8.2 2.3-.1 3.3-8.6 2.5-7.6 5.7 1 3.4 5.5 6.9 10.4 7.6 6.1.8 10-.1 13.3-3.1 4.5-4.1 4.2-11 3.5-13.2zm-5.7-5.7s.3.2 1 .6c.2.2.6.5.9.9.6.8.8 1.8.3 2.4-.7.8-1.4 1.2-3.2 1.7-1.1.3-1-.2-1.4-1-.5-.7-.5-.8-.6-1-.3-.4 0-.7.3-1.1.6-.8.7-1 1.4-2 .4-.5.5-1 1.3-.5zm-9 9c.2-.7 1.1-1.3 1.9-1 1 .3 1.4.1 1.8-.1.9-.5.8-1.5.4-2.1-.5-.7-1.2-.1-.7.4.7.8-.1 1.6-1 1-.4-.3-.5-.8-.5-1.3.1-.7.3-1.3 1.1-1.5 1-.4 1.9-.1 2.4.7.5.7.7 1.3.7 2.3-.1 1.5-1.1 2.3-2 2.9-.9.6-1.9.8-3.1.6-1.1-.3-1.3-1.1-1-1.9zm-1-.1c-.2.4-1 .4-1.4-.2-.4-.5-.8-1.4-1-2.3-.2-1.1.2-1.5 1.3-1.6h.4c1.1.1 1 .2 1.8.4.6.2.6.5.8 1.1.2.8-.1.9-.5 1.1-.6.3-.9.6-1.4 1.5zm2-10.2c2.1-.8 4.1-.5 5.6-.1.6.2.8.5.1 1.6-.4.6-.5.7-.8 1.3 0 0-1 1.6-2 1.6-.8 0-1 0-1.4-.9-.4-.9-1.2-2.2-1.3-2.4-.3-.4-.8-.8-.2-1.1zm-4.1 3.5s.1-.3.2-.5c.2-.4.3-.5.4-.7.2-.4.6-.8.8-.9.6-.5.8-.5 1.2-.5.4 0 .6.3 1.6 2 .3.5.9 1.4.5 2.1-.1.2-.2.3-.4.5-.3.2-.8.2-1.1.1-.9-.2-1.2-.3-2-.3-1.3-.1-1.9.3-1.2-1.8zm2.5 16.8c-.4.9-2 1.5-3.5.9s-3.6-1.7-5.7-4.2c-.9-1-1.4-1.7.5-2.2 2.7-.8 3.9-1.3 5.1-2.2.9-.7 1-1 1.7-.7.9.3 1 .4 1.8.7 1.3.5 2 .8 2 1.8-.4 2.4-.8 3.5-1.9 5.9zm7.7.5l-.2.1c-1.2.5-1.7.7-2.9.9-1.4.2-2.9.4-2.6-1 .4-2.2.9-4 1-5.2.1-1-.2-2.1.3-2.3.4-.2.6-.2.8-.2.8-.1.7-.2 1.2.8.7 1.7 1.5 2.9 2.8 4.4.6 1 .7 1.9-.4 2.5zm6-6.8l-.1.4c-.3 1.3-.6 1.9-1.6 3.1-.7.8-1.1 1-1.6.8-2.1-.9-3.7-3.6-4.5-4.9-.3-.6-.2-.8 0-1.1.2-.2.5-.4.7-.6.4-.3.7-.5 1.2-.2 1.1.6 2.6 1 4.5.7 1.4-.4 1.8.3 1.4 1.8zm.3-4.2c-.1.5-.2.9-.9 1-1.2.2-2.6.5-4.3-.2-.6-.2-1-.3-1-1.1 0-.3 0-.6.1-1 .1-.7.2-.7 1.4-.9.9-.1 1.6-.4 2.6-.9.3-.2.8-.5 1.3-.2.3.2.5.5.8 1.4 0 .6.1 1.3 0 1.9z"/><path class="st8" d="M140.8 10.7c-.1 1.5-1.1 2.3-2 2.9-.9.6-1.9.8-3.1.6-1.1-.2-1.3-1-1-1.8.2-.7 1.1-1.3 1.9-1 1 .3 1.4.1 1.8-.1.9-.5.8-1.5.4-2.1-.5-.7-1.2-.1-.7.4.7.8-.1 1.6-1 1-.4-.3-.5-.8-.5-1.3.1-.7.3-1.3 1.1-1.5 1-.4 1.9-.1 2.4.7.5.5.7 1.1.7 2.2z"/><path class="st9" d="M135.1 10.7c-.5.3-.8.6-1.3 1.5-.2.4-1 .4-1.4-.2-.4-.5-.8-1.4-1-2.3-.2-1.1.2-1.5 1.3-1.6h.4c1.1.1 1 .2 1.8.4.6.2.6.5.8 1.1.1.8-.1.9-.6 1.1z"/><path class="st10" d="M136.4 7c-.1.2-.2.3-.4.5-.3.2-.8.2-1.1.1-.9-.2-1.2-.3-2-.3-1.3-.1-2 .3-1.2-1.8 0 0 .1-.3.2-.5.2-.4.3-.5.4-.7.2-.4.6-.8.8-.9.6-.5.8-.5 1.2-.5.4 0 .6.3 1.6 2 .2.4.9 1.4.5 2.1z"/><path class="st11" d="M141.5 3.5c-.4.6-.5.7-.8 1.3 0 0-1 1.6-2 1.6-.8 0-1 0-1.4-.9-.4-.9-1.2-2.2-1.3-2.4-.3-.5-.8-.9-.2-1.2 2-.8 4.1-.5 5.5 0 .7.3.8.5.2 1.6z"/><path class="st12" d="M146 7.2c-.7.8-1.4 1.2-3.2 1.7-1.1.3-1-.2-1.4-1-.5-.7-.5-.8-.6-1-.3-.4 0-.7.3-1.1.6-.8.7-1 1.4-2 .5-.6.5-1 1.3-.6 0 0 .3.2 1 .6.2.2.6.5.9.9.6 1 .7 2 .3 2.5z"/><path class="st13" d="M148.2 11.8c-.1.5-.2.9-.9 1-1.2.2-2.6.5-4.3-.2-.6-.2-1-.3-1-1.1 0-.3 0-.6.1-1 .1-.7.2-.7 1.4-.9.9-.1 1.6-.4 2.6-.9.3-.2.8-.5 1.3-.2.3.2.5.5.8 1.4 0 .6.1 1.3 0 1.9z"/><path class="st14" d="M147.9 16l-.1.4c-.3 1.3-.6 1.9-1.6 3.1-.7.8-1.1 1-1.6.8-2.1-.9-3.7-3.6-4.5-4.9-.3-.6-.2-.8 0-1.1.2-.2.5-.4.7-.6.4-.3.7-.5 1.2-.2 1.1.6 2.6 1 4.5.7 1.4-.4 1.8.3 1.4 1.8z"/><path class="st15" d="M141.9 22.8l-.2.1c-1.2.5-1.7.7-2.9.9-1.4.2-2.9.4-2.6-1 .4-2.2.9-4 1-5.2.1-1-.2-2.1.3-2.3.4-.2.6-.2.8-.2.8-.1.7-.2 1.2.8.7 1.7 1.5 2.9 2.8 4.4.6 1 .7 1.9-.4 2.5z"/><path class="st16" d="M135.9 16.4c-.2 2.4-.6 3.5-1.8 5.9-.4.9-2 1.5-3.5.9s-3.6-1.7-5.7-4.2c-.9-1-1.4-1.7.5-2.2 2.7-.8 3.9-1.3 5.1-2.2.9-.7 1-1 1.7-.7.9.3 1 .4 1.8.7 1.2.6 2 .8 1.9 1.8z"/></svg>
