<svg width="62px" height="11px" viewBox="0 0 62 11" version="1.1" xmlns="http://www.w3.org/2000/svg" xmlns:xlink="http://www.w3.org/1999/xlink">
    <title>Da Vinci Kids</title>
    <g id="Page-1" stroke="none" stroke-width="1" fill="none" fill-rule="evenodd">
        <g id="logo" fill-rule="nonzero">
            <path d="M1.95555556,8.75925926 L3.25925926,8.75925926 C4.92962963,8.75925926 5.7037037,7.4962963 5.7037037,5.94814815 C5.7037037,4.27777778 4.92962963,3.05555556 3.13703704,3.05555556 L1.95555556,3.05555556 L1.95555556,8.75925926 Z M0,2.24074074 C0,1.62962963 0.407407407,1.22222222 1.01851852,1.22222222 L3.17777778,1.22222222 C6.07037037,1.22222222 7.74074074,3.13703704 7.74074074,6.02962963 C7.74074074,8.8 5.98888889,10.5925926 3.3,10.5925926 L1.01851852,10.5925926 C0.611111111,10.5925926 0,10.3481481 0,9.61481481 L0,2.24074074 Z" id="Fill-1" fill="#FFFFFF"></path>
            <path d="M12.6703704,8.84074074 C13.7296296,8.84074074 14.2592593,7.82222222 14.2592593,6.92592593 C14.2592593,6.02962963 13.7703704,4.97037037 12.6703704,4.97037037 C11.5296296,4.97037037 11.0407407,5.98888889 11.0407407,6.92592593 C11.0407407,7.86296296 11.5296296,8.84074074 12.6703704,8.84074074 Z M16.2962963,9.28888889 C16.2962963,9.77777778 16.2962963,10.5111111 15.3185185,10.5111111 C14.7074074,10.5111111 14.462963,10.2259259 14.3407407,9.6962963 C13.8111111,10.2666667 13.1592593,10.5925926 12.3851852,10.5925926 C10.4703704,10.5925926 8.96296296,9.08518519 8.96296296,6.92592593 C8.96296296,4.84814815 10.4703704,3.25925926 12.3851852,3.25925926 C13.1592593,3.25925926 13.8925926,3.54444444 14.3407407,4.11481481 C14.3814815,3.66666667 14.8296296,3.34074074 15.3185185,3.34074074 C16.2962963,3.34074074 16.2962963,4.07407407 16.2962963,4.56296296 L16.2962963,9.28888889 L16.2962963,9.28888889 Z" id="Fill-3" fill="#FFFFFF"></path>
            <path d="M19.2296296,1.87407407 C19.1888889,1.71111111 19.1481481,1.54814815 19.1481481,1.38518519 C19.1481481,0.814814815 19.637037,0.407407407 20.1259259,0.407407407 C20.5740741,0.407407407 20.8185185,0.692592593 21.0222222,1.05925926 L23.0185185,6.68148148 L25.0148148,1.05925926 C25.1777778,0.692592593 25.462963,0.407407407 25.9111111,0.407407407 C26.4,0.407407407 26.8888889,0.814814815 26.8888889,1.38518519 C26.8888889,1.58888889 26.8481481,1.71111111 26.8074074,1.87407407 L23.9962963,9.41111111 C23.8333333,9.85925926 23.6296296,10.1851852 23.0592593,10.1851852 C22.4888889,10.1851852 22.2851852,9.81851852 22.1222222,9.41111111 L19.2296296,1.87407407 Z" id="Fill-5" fill="#FFFFFF"></path>
            <path d="M27.8666667,4.11481481 C27.8666667,3.46296296 28.2333333,3.01481481 28.7222222,3.01481481 C29.2111111,3.01481481 29.5777778,3.46296296 29.5777778,4.11481481 L29.5777778,9.41111111 C29.5777778,10.062963 29.2111111,10.5111111 28.7222222,10.5111111 C28.2333333,10.5111111 27.8666667,10.062963 27.8666667,9.41111111 L27.8666667,4.11481481 Z M29.7,1.14074074 C29.7,1.75185185 29.2925926,2.28148148 28.7222222,2.28148148 C28.2333333,2.28148148 27.7444444,1.75185185 27.7444444,1.14074074 C27.7444444,0.57037037 28.1925926,0.0407407407 28.7222222,0.0407407407 C29.2518519,0.0407407407 29.7,0.52962963 29.7,1.14074074 Z" id="Fill-7" fill="#FFFFFF"></path>
            <path d="M30.962963,4.4 C30.962963,3.74814815 31.3703704,3.34074074 31.9407407,3.34074074 C32.4296296,3.34074074 32.7962963,3.62592593 32.837037,4.03333333 C33.2444444,3.54444444 33.8555556,3.25925926 34.7925926,3.25925926 C36.3407407,3.25925926 37.4814815,4.23703704 37.4814815,5.82592593 L37.4814815,9.49259259 C37.4814815,10.1444444 37.0740741,10.5518519 36.5037037,10.5518519 C35.9333333,10.5518519 35.5259259,10.1444444 35.5259259,9.49259259 L35.5259259,6.15185185 C35.5259259,5.25555556 34.9555556,4.84814815 34.2222222,4.84814815 C33.4074074,4.84814815 32.9592593,5.41851852 32.9592593,6.15185185 L32.9592593,9.49259259 C32.9592593,10.1444444 32.5518519,10.5518519 31.9814815,10.5518519 C31.3703704,10.5925926 30.962963,10.1851852 30.962963,9.53333333 L30.962963,4.4 Z" id="Fill-10" fill="#FFFFFF"></path>
            <path d="M42.8592593,5.37777778 C42.3703704,5.37777778 41.962963,5.01111111 41.3518519,5.01111111 C40.2925926,5.01111111 39.762963,5.98888889 39.762963,6.96666667 C39.762963,7.9037037 40.3333333,8.88148148 41.3518519,8.88148148 C41.8407407,8.88148148 42.5333333,8.47407407 42.7777778,8.47407407 C43.2259259,8.47407407 43.5925926,8.84074074 43.5925926,9.28888889 C43.5925926,10.2666667 41.962963,10.5925926 41.2703704,10.5925926 C39.2333333,10.5925926 37.8888889,8.92222222 37.8888889,6.92592593 C37.8888889,5.01111111 39.2740741,3.25925926 41.2703704,3.25925926 C42.0037037,3.25925926 43.5925926,3.54444444 43.5925926,4.44074074 C43.5925926,4.84814815 43.3074074,5.37777778 42.8592593,5.37777778" id="Fill-12" fill="#FFFFFF"></path>
            <path d="M44.5703704,4.11481481 C44.5703704,3.46296296 44.937037,3.01481481 45.4666667,3.01481481 C45.9962963,3.01481481 46.362963,3.46296296 46.362963,4.11481481 L46.362963,9.41111111 C46.362963,10.062963 45.9962963,10.5111111 45.4666667,10.5111111 C44.937037,10.5111111 44.5703704,10.062963 44.5703704,9.41111111 L44.5703704,4.11481481 Z M46.4444444,1.14074074 C46.4444444,1.75185185 45.9962963,2.28148148 45.4666667,2.28148148 C44.937037,2.28148148 44.4888889,1.75185185 44.4888889,1.14074074 C44.4888889,0.57037037 44.937037,0.0407407407 45.4666667,0.0407407407 C45.9555556,0.0407407407 46.4444444,0.52962963 46.4444444,1.14074074 Z" id="Fill-14" fill="#FFFFFF"></path>
            <path d="M60.9074074,3.66666667 C60.5814815,2.56666667 60.1333333,1.91481481 59.5222222,1.3037037 C59.0333333,0.814814815 58.3,0.366666667 57.6888889,0.203703704 C56.9962963,4.23272528e-16 56.0592593,4.23272528e-16 55.3666667,0.162962963 C54.3481481,0.448148148 53.1666667,1.22222222 52.9222222,2.48518519 C52.8407407,2.97407407 52.8,3.38148148 52.8407407,3.95185185 C52.8814815,4.48148148 52.9222222,4.68518519 52.9222222,4.88888889 C52.8814815,6.23333333 49.4185185,5.90740741 49.8259259,7.21111111 C50.2333333,8.5962963 52.0666667,10.0222222 54.062963,10.3074074 C56.5481481,10.6333333 58.137037,10.2666667 59.4814815,9.04444444 C61.3148148,7.37407407 61.1925926,4.56296296 60.9074074,3.66666667 L60.9074074,3.66666667 Z M58.5851852,1.34444444 C58.5851852,1.34444444 58.7074074,1.42592593 58.9925926,1.58888889 C59.0740741,1.67037037 59.237037,1.79259259 59.3592593,1.95555556 C59.6037037,2.28148148 59.6851852,2.68888889 59.4814815,2.93333333 C59.1962963,3.25925926 58.9111111,3.42222222 58.1777778,3.62592593 C57.7296296,3.74814815 57.7703704,3.54444444 57.6074074,3.21851852 C57.4037037,2.93333333 57.4037037,2.89259259 57.362963,2.81111111 C57.2407407,2.64814815 57.362963,2.52592593 57.4851852,2.36296296 C57.7296296,2.03703704 57.7703704,1.95555556 58.0555556,1.54814815 C58.2185185,1.34444444 58.2592593,1.14074074 58.5851852,1.34444444 L58.5851852,1.34444444 Z M54.9185185,5.01111111 C55,4.72592593 55.3666667,4.48148148 55.6925926,4.6037037 C56.1,4.72592593 56.262963,4.64444444 56.4259259,4.56296296 C56.7925926,4.35925926 56.7518519,3.95185185 56.5888889,3.70740741 C56.3851852,3.42222222 56.1,3.66666667 56.3037037,3.87037037 C56.5888889,4.1962963 56.262963,4.52222222 55.8962963,4.27777778 C55.7333333,4.15555556 55.6925926,3.95185185 55.6925926,3.74814815 C55.7333333,3.46296296 55.8148148,3.21851852 56.1407407,3.13703704 C56.5481481,2.97407407 56.9148148,3.0962963 57.1185185,3.42222222 C57.3222222,3.70740741 57.4037037,3.95185185 57.4037037,4.35925926 C57.362963,4.97037037 56.9555556,5.2962963 56.5888889,5.54074074 C56.2222222,5.78518519 55.8148148,5.86666667 55.3259259,5.78518519 C54.8777778,5.66296296 54.7962963,5.33703704 54.9185185,5.01111111 L54.9185185,5.01111111 Z M54.5111111,4.97037037 C54.4296296,5.13333333 54.1037037,5.13333333 53.9407407,4.88888889 C53.7777778,4.68518519 53.6148148,4.31851852 53.5333333,3.95185185 C53.4518519,3.5037037 53.6148148,3.34074074 54.062963,3.3 L54.2259259,3.3 C54.6740741,3.34074074 54.6333333,3.38148148 54.9592593,3.46296296 C55.2037037,3.54444444 55.2037037,3.66666667 55.2851852,3.91111111 C55.3666667,4.23703704 55.2444444,4.27777778 55.0814815,4.35925926 C54.837037,4.48148148 54.7148148,4.6037037 54.5111111,4.97037037 L54.5111111,4.97037037 Z M55.3259259,0.814814815 C56.1814815,0.488888889 56.9962963,0.611111111 57.6074074,0.774074074 C57.8518519,0.855555556 57.9333333,0.977777778 57.6481481,1.42592593 C57.4851852,1.67037037 57.4444444,1.71111111 57.3222222,1.95555556 C57.3222222,1.95555556 56.9148148,2.60740741 56.5074074,2.60740741 C56.1814815,2.60740741 56.1,2.60740741 55.937037,2.24074074 C55.7740741,1.87407407 55.4481481,1.34444444 55.4074074,1.26296296 C55.2851852,1.1 55.0814815,0.937037037 55.3259259,0.814814815 L55.3259259,0.814814815 Z M53.6555556,2.24074074 C53.6555556,2.24074074 53.6962963,2.11851852 53.737037,2.03703704 C53.8185185,1.87407407 53.8592593,1.83333333 53.9,1.75185185 C53.9814815,1.58888889 54.1444444,1.42592593 54.2259259,1.38518519 C54.4703704,1.18148148 54.5518519,1.18148148 54.7148148,1.18148148 C54.8777778,1.18148148 54.9592593,1.3037037 55.3666667,1.9962963 C55.4888889,2.2 55.7333333,2.56666667 55.5703704,2.85185185 C55.5296296,2.93333333 55.4888889,2.97407407 55.4074074,3.05555556 C55.2851852,3.13703704 55.0814815,3.13703704 54.9592593,3.0962963 C54.5925926,3.01481481 54.4703704,2.97407407 54.1444444,2.97407407 C53.6148148,2.93333333 53.3703704,3.0962963 53.6555556,2.24074074 Z M54.6740741,9.08518519 C54.5111111,9.45185185 53.8592593,9.6962963 53.2481481,9.45185185 C52.637037,9.20740741 51.7814815,8.75925926 50.9259259,7.74074074 C50.5592593,7.33333333 50.3555556,7.04814815 51.1296296,6.84444444 C52.2296296,6.51851852 52.7185185,6.31481481 53.2074074,5.94814815 C53.5740741,5.66296296 53.6148148,5.54074074 53.9,5.66296296 C54.2666667,5.78518519 54.3074074,5.82592593 54.6333333,5.94814815 C55.162963,6.15185185 55.4481481,6.27407407 55.4481481,6.68148148 C55.2851852,7.65925926 55.1222222,8.10740741 54.6740741,9.08518519 Z M57.8111111,9.28888889 L57.7296296,9.32962963 C57.2407407,9.53333333 57.037037,9.61481481 56.5481481,9.6962963 C55.9777778,9.77777778 55.3666667,9.85925926 55.4888889,9.28888889 C55.6518519,8.39259259 55.8555556,7.65925926 55.8962963,7.17037037 C55.937037,6.76296296 55.8148148,6.31481481 56.0185185,6.23333333 C56.1814815,6.15185185 56.262963,6.15185185 56.3444444,6.15185185 C56.6703704,6.11111111 56.6296296,6.07037037 56.8333333,6.47777778 C57.1185185,7.17037037 57.4444444,7.65925926 57.9740741,8.27037037 C58.2185185,8.67777778 58.2592593,9.04444444 57.8111111,9.28888889 L57.8111111,9.28888889 Z M60.2555556,6.51851852 L60.2148148,6.68148148 C60.0925926,7.21111111 59.9703704,7.45555556 59.562963,7.94444444 C59.2777778,8.27037037 59.1148148,8.35185185 58.9111111,8.27037037 C58.0555556,7.9037037 57.4037037,6.8037037 57.0777778,6.27407407 C56.9555556,6.02962963 56.9962963,5.94814815 57.0777778,5.82592593 C57.1592593,5.74444444 57.2814815,5.66296296 57.362963,5.58148148 C57.5259259,5.45925926 57.6481481,5.37777778 57.8518519,5.5 C58.3,5.74444444 58.9111111,5.90740741 59.6851852,5.78518519 C60.2555556,5.62222222 60.4185185,5.90740741 60.2555556,6.51851852 Z M60.3777778,4.80740741 C60.337037,5.01111111 60.2962963,5.17407407 60.0111111,5.21481481 C59.5222222,5.2962963 58.9518519,5.41851852 58.2592593,5.13333333 C58.0148148,5.05185185 57.8518519,5.01111111 57.8518519,4.68518519 C57.8518519,4.56296296 57.8518519,4.44074074 57.8925926,4.27777778 C57.9333333,3.99259259 57.9740741,3.99259259 58.462963,3.91111111 C58.8296296,3.87037037 59.1148148,3.74814815 59.5222222,3.54444444 C59.6444444,3.46296296 59.8481481,3.34074074 60.0518519,3.46296296 C60.1740741,3.54444444 60.2555556,3.66666667 60.3777778,4.03333333 C60.3777778,4.27777778 60.4185185,4.56296296 60.3777778,4.80740741 Z" id="Fill-17" fill-opacity="0.4" fill="#FFFFFF"></path>
            <path d="M57.362963,4.35925926 C57.3222222,4.97037037 56.9148148,5.2962963 56.5481481,5.54074074 C56.1814815,5.78518519 55.7740741,5.86666667 55.2851852,5.78518519 C54.837037,5.7037037 54.7555556,5.37777778 54.8777778,5.05185185 C54.9592593,4.76666667 55.3259259,4.52222222 55.6518519,4.64444444 C56.0592593,4.76666667 56.2222222,4.68518519 56.3851852,4.6037037 C56.7518519,4.4 56.7111111,3.99259259 56.5481481,3.74814815 C56.3444444,3.46296296 56.0592593,3.70740741 56.262963,3.91111111 C56.5481481,4.23703704 56.2222222,4.56296296 55.8555556,4.31851852 C55.6925926,4.1962963 55.6518519,3.99259259 55.6518519,3.78888889 C55.6925926,3.5037037 55.7740741,3.25925926 56.1,3.17777778 C56.5074074,3.01481481 56.8740741,3.13703704 57.0777778,3.46296296 C57.2814815,3.66666667 57.362963,3.91111111 57.362963,4.35925926 L57.362963,4.35925926 Z" id="Path" fill="#F6A827"></path>
            <path d="M55.0407407,4.35925926 C54.837037,4.48148148 54.7148148,4.6037037 54.5111111,4.97037037 C54.4296296,5.13333333 54.1037037,5.13333333 53.9407407,4.88888889 C53.7777778,4.68518519 53.6148148,4.31851852 53.5333333,3.95185185 C53.4518519,3.5037037 53.6148148,3.34074074 54.062963,3.3 L54.2259259,3.3 C54.6740741,3.34074074 54.6333333,3.38148148 54.9592593,3.46296296 C55.2037037,3.54444444 55.2037037,3.66666667 55.2851852,3.91111111 C55.3259259,4.23703704 55.2444444,4.27777778 55.0407407,4.35925926 L55.0407407,4.35925926 Z" id="Path" fill="#F7B32B"></path>
            <path d="M55.5703704,2.85185185 C55.5296296,2.93333333 55.4888889,2.97407407 55.4074074,3.05555556 C55.2851852,3.13703704 55.0814815,3.13703704 54.9592593,3.0962963 C54.5925926,3.01481481 54.4703704,2.97407407 54.1444444,2.97407407 C53.6148148,2.93333333 53.3296296,3.0962963 53.6555556,2.24074074 C53.6555556,2.24074074 53.6962963,2.11851852 53.737037,2.03703704 C53.8185185,1.87407407 53.8592593,1.83333333 53.9,1.75185185 C53.9814815,1.58888889 54.1444444,1.42592593 54.2259259,1.38518519 C54.4703704,1.18148148 54.5518519,1.18148148 54.7148148,1.18148148 C54.8777778,1.18148148 54.9592593,1.3037037 55.3666667,1.9962963 C55.4481481,2.15925926 55.7333333,2.56666667 55.5703704,2.85185185 Z" id="Path" fill="#F8C23D"></path>
            <path d="M57.6481481,1.42592593 C57.4851852,1.67037037 57.4444444,1.71111111 57.3222222,1.95555556 C57.3222222,1.95555556 56.9148148,2.60740741 56.5074074,2.60740741 C56.1814815,2.60740741 56.1,2.60740741 55.937037,2.24074074 C55.7740741,1.87407407 55.4481481,1.34444444 55.4074074,1.26296296 C55.2851852,1.05925926 55.0814815,0.896296296 55.3259259,0.774074074 C56.1407407,0.448148148 56.9962963,0.57037037 57.5666667,0.774074074 C57.8518519,0.896296296 57.8925926,0.977777778 57.6481481,1.42592593 L57.6481481,1.42592593 Z" id="Path" fill="#FCC640"></path>
            <path d="M59.4814815,2.93333333 C59.1962963,3.25925926 58.9111111,3.42222222 58.1777778,3.62592593 C57.7296296,3.74814815 57.7703704,3.54444444 57.6074074,3.21851852 C57.4037037,2.93333333 57.4037037,2.89259259 57.362963,2.81111111 C57.2407407,2.64814815 57.362963,2.52592593 57.4851852,2.36296296 C57.7296296,2.03703704 57.7703704,1.95555556 58.0555556,1.54814815 C58.2592593,1.3037037 58.2592593,1.14074074 58.5851852,1.3037037 C58.5851852,1.3037037 58.7074074,1.38518519 58.9925926,1.54814815 C59.0740741,1.62962963 59.237037,1.75185185 59.3592593,1.91481481 C59.6037037,2.32222222 59.6444444,2.72962963 59.4814815,2.93333333 L59.4814815,2.93333333 Z" id="Path" fill="#FFCD45"></path>
            <path d="M60.3777778,4.80740741 C60.337037,5.01111111 60.2962963,5.17407407 60.0111111,5.21481481 C59.5222222,5.2962963 58.9518519,5.41851852 58.2592593,5.13333333 C58.0148148,5.05185185 57.8518519,5.01111111 57.8518519,4.68518519 C57.8518519,4.56296296 57.8518519,4.44074074 57.8925926,4.27777778 C57.9333333,3.99259259 57.9740741,3.99259259 58.462963,3.91111111 C58.8296296,3.87037037 59.1148148,3.74814815 59.5222222,3.54444444 C59.6444444,3.46296296 59.8481481,3.34074074 60.0518519,3.46296296 C60.1740741,3.54444444 60.2555556,3.66666667 60.3777778,4.03333333 C60.3777778,4.27777778 60.4185185,4.56296296 60.3777778,4.80740741 L60.3777778,4.80740741 Z" id="Path" fill="#FCD73F"></path>
            <path d="M60.2555556,6.51851852 L60.2148148,6.68148148 C60.0925926,7.21111111 59.9703704,7.45555556 59.562963,7.94444444 C59.2777778,8.27037037 59.1148148,8.35185185 58.9111111,8.27037037 C58.0555556,7.9037037 57.4037037,6.8037037 57.0777778,6.27407407 C56.9555556,6.02962963 56.9962963,5.94814815 57.0777778,5.82592593 C57.1592593,5.74444444 57.2814815,5.66296296 57.362963,5.58148148 C57.5259259,5.45925926 57.6481481,5.37777778 57.8518519,5.5 C58.3,5.74444444 58.9111111,5.90740741 59.6851852,5.78518519 C60.2555556,5.62222222 60.4185185,5.90740741 60.2555556,6.51851852 Z" id="Path" fill="#FFDB4B"></path>
            <path d="M57.8111111,9.28888889 L57.7296296,9.32962963 C57.2407407,9.53333333 57.037037,9.61481481 56.5481481,9.6962963 C55.9777778,9.77777778 55.3666667,9.85925926 55.4888889,9.28888889 C55.6518519,8.39259259 55.8555556,7.65925926 55.8962963,7.17037037 C55.937037,6.76296296 55.8148148,6.31481481 56.0185185,6.23333333 C56.1814815,6.15185185 56.262963,6.15185185 56.3444444,6.15185185 C56.6703704,6.11111111 56.6296296,6.07037037 56.8333333,6.47777778 C57.1185185,7.17037037 57.4444444,7.65925926 57.9740741,8.27037037 C58.2185185,8.67777778 58.2592593,9.04444444 57.8111111,9.28888889 L57.8111111,9.28888889 Z" id="Path" fill="#FFE94E"></path>
            <path d="M55.3666667,6.68148148 C55.2851852,7.65925926 55.1222222,8.10740741 54.6333333,9.08518519 C54.4703704,9.45185185 53.8185185,9.6962963 53.2074074,9.45185185 C52.5962963,9.20740741 51.7407407,8.75925926 50.8851852,7.74074074 C50.5185185,7.33333333 50.3148148,7.04814815 51.0888889,6.84444444 C52.1888889,6.51851852 52.6777778,6.31481481 53.1666667,5.94814815 C53.5333333,5.66296296 53.5740741,5.54074074 53.8592593,5.66296296 C54.2259259,5.78518519 54.2666667,5.82592593 54.5925926,5.94814815 C55.0814815,6.19259259 55.4074074,6.27407407 55.3666667,6.68148148 Z" id="Path" fill="#F8EB58"></path>
        </g>
    </g>
</svg>
