<svg width="47px" height="30px" viewBox="0 0 47 30" version="1.1" xmlns="http://www.w3.org/2000/svg" xmlns:xlink="http://www.w3.org/1999/xlink">
    <title>Disney XD</title>
    <g id="Page-1" stroke="none" stroke-width="1" fill="none" fill-rule="evenodd">
        <g id="Disney_XD_-_2015" fill="#08EE59" fill-rule="nonzero">
            <g id="g14226" transform="translate(0.043136, 0.025999)">
                <path d="M23.9553165,29.5392405 L23.9553165,23.035443 C23.9527215,22.9500633 23.9358228,22.8677848 23.905,22.7864557 C23.8701266,22.7010127 23.8168354,22.623038 23.7559494,22.5639241 L19.728038,18.4605063 C19.5891139,18.3175949 19.5891139,18.0863291 19.728038,17.9456962 L23.7559494,13.8417722 C23.8168987,13.7798101 23.8701899,13.7063291 23.905,13.6189241 C23.9358228,13.5379114 23.9544304,13.4518987 23.9553165,13.369557 L23.9553165,6.86765823 C23.9553165,6.77449367 23.9212658,6.68113924 23.851519,6.61113924 C23.7806329,6.53949367 23.6881646,6.50740506 23.5996203,6.50740506 L17.461962,6.50740506 C17.3801899,6.50740506 17.2989873,6.5214557 17.2189873,6.55810127 C17.1331013,6.59044304 17.0603165,6.64481013 16.9992405,6.70575949 L12.7216456,11.063038 C12.5823418,11.2053797 12.358038,11.2053797 12.2167722,11.0617089 L7.93829114,6.70575949 C7.87879747,6.64481013 7.80474684,6.59037975 7.72107595,6.55810127 C7.64,6.5214557 7.55879747,6.50740506 7.47582278,6.50740506 L1.34113924,6.50740506 C1.25183544,6.50740506 1.15886076,6.53949367 1.08993671,6.61113924 C1.01860759,6.68113924 0.986202532,6.77455696 0.986202532,6.86639241 L0.986202532,13.3696203 C0.986518987,13.451962 1.00291139,13.5379747 1.03525316,13.6189873 C1.07018987,13.7064557 1.12164557,13.7798734 1.18151899,13.8418354 L5.20968354,17.9457595 C5.35132911,18.0863924 5.35132911,18.3176582 5.20968354,18.4605696 L1.18151899,22.5639873 C1.12170886,22.6239873 1.07025316,22.7010759 1.03525316,22.786519 C1.00291139,22.8677848 0.986455696,22.9512025 0.986202532,23.0355063 L0.986202532,29.5393038 C0.986202532,29.6310127 1.01955696,29.7243671 1.08993671,29.793481 C1.15886076,29.8643038 1.25189873,29.899557 1.34113924,29.899557 L7.72367089,29.899557 C7.80734177,29.8977215 7.88867089,29.8810759 7.9706962,29.8493038 C8.05424051,29.8152532 8.12765823,29.763481 8.18968354,29.6998734 L12.2167089,25.5964557 C12.3579747,25.4536709 12.5822785,25.4536709 12.7236709,25.5951899 L16.7501266,29.6998734 C16.8099367,29.763481 16.8839873,29.8152532 16.9693038,29.8493038 C17.0512658,29.8810759 17.133038,29.8977215 17.2153797,29.899557 L23.5996203,29.899557 C23.6881646,29.899557 23.7806329,29.8643038 23.851519,29.793481 C23.9212658,29.7243038 23.9553165,29.6309494 23.9553165,29.5392405" id="path14244"></path>
                <path d="M40.8774051,29.8994937 C40.9577215,29.8975949 41.0396203,29.8809494 41.1206962,29.8491772 C41.2070253,29.8151266 41.279557,29.7633544 41.3387975,29.6997468 L45.7413291,25.2162658 C45.798038,25.1568987 45.8447468,25.0842405 45.878481,25.0028481 C45.9129747,24.9173418 45.9290506,24.829557 45.9290506,24.7408861 L45.9290506,11.6633544 C45.9290506,11.5756329 45.9129747,11.4884177 45.878481,11.4017089 C45.8447468,11.3196835 45.798038,11.2474051 45.7413291,11.1891139 L41.3387975,6.70582278 C41.2794937,6.64487342 41.2070253,6.59107595 41.1206962,6.55816456 C41.0396835,6.52151899 40.9577215,6.50746835 40.8774051,6.50746835 L25.4511392,6.50746835 C25.3598101,6.50746835 25.2698101,6.53955696 25.2006329,6.61120253 C25.1298734,6.68177215 25.0948101,6.77462025 25.093038,6.8664557 L25.093038,29.5392405 C25.0948101,29.6309494 25.1298734,29.7243038 25.2006329,29.7934177 C25.2698101,29.8642405 25.3598101,29.8994937 25.4511392,29.8994937 L40.8774051,29.8994937 L40.8774051,29.8994937 Z" id="path14246"></path>
            </g>
            <g id="g14248" transform="translate(0.043136, 0.025999)">
                <path d="M3.18253165,3.89189873 C3.19006329,4.1214557 3.19721519,4.35120253 3.20487342,4.58088608 C3.20689873,4.64208861 3.20879747,4.64373418 3.26670886,4.65455696 C3.5571519,4.70911392 3.85025316,4.72683544 4.14493671,4.71329114 C4.50943038,4.69670886 4.86594937,4.63696203 5.20860759,4.5043038 C5.38227848,4.43708861 5.54563291,4.35094937 5.68993671,4.23050633 C5.87493671,4.07639241 6.00240506,3.88417722 6.05278481,3.64310127 C6.0964557,3.43443038 6.07449367,3.23094937 6.00721519,3.03075949 C5.94259494,2.83867089 5.84373418,2.66550633 5.72512658,2.50379747 C5.52708861,2.23303797 5.28772152,2.00462025 5.02658228,1.79905063 C4.55759494,1.42987342 4.04037975,1.14810127 3.49170886,0.924810127 C3.04329114,0.742088608 2.58101266,0.607531646 2.10474684,0.524240506 C1.70259494,0.453481013 1.29734177,0.426898734 0.889746835,0.447025316 C0.77443038,0.45278481 0.658670886,0.459873418 0.54443038,0.480949367 C0.491898734,0.490759494 0.439303797,0.499620253 0.39221519,0.526518987 C0.354873418,0.547594937 0.350822785,0.583987342 0.38335443,0.611518987 C0.4,0.625506329 0.420316456,0.635 0.438607595,0.647088608 C0.451582278,0.655696203 0.465886076,0.663481013 0.476265823,0.674810127 C0.504113924,0.705822785 0.495379747,0.753860759 0.458101266,0.771012658 C0.438481013,0.779936709 0.416329114,0.787088608 0.395316456,0.787658228 C0.32664557,0.789367089 0.25721519,0.792974684 0.189050633,0.786392405 C0.0439873418,0.772468354 -0.0127848101,0.675379747 0.0389240506,0.536835443 C0.0570253165,0.488417722 0.0865822785,0.446898734 0.120696203,0.409367089 C0.165506329,0.360253165 0.212088608,0.312974684 0.258164557,0.265126582 C0.291772152,0.23 0.334936709,0.210949367 0.378544304,0.193291139 C0.469177215,0.156455696 0.563924051,0.134556962 0.65943038,0.118544304 C1.07126582,0.0493037975 1.48626582,0.0239873418 1.90303797,0.0438607595 C2.29462025,0.062721519 2.67949367,0.132405063 3.05727848,0.239556962 C3.91689873,0.483164557 4.70291139,0.879810127 5.41373418,1.42968354 C5.73651899,1.67936709 6.03183544,1.95911392 6.28177215,2.28582278 C6.41708861,2.46259494 6.53518987,2.65012658 6.62183544,2.85696203 C6.70677215,3.05911392 6.75196203,3.26848101 6.73835443,3.49037975 C6.72575949,3.70126582 6.66879747,3.89797468 6.56962025,4.08253165 C6.44044304,4.32183544 6.25924051,4.51329114 6.04335443,4.67221519 C5.76822785,4.87424051 5.46202532,5.00734177 5.13588608,5.09607595 C4.73892405,5.20386076 4.33449367,5.23158228 3.92626582,5.20607595 C3.70753165,5.19246835 3.49107595,5.15797468 3.27772152,5.10632911 C3.26246835,5.10259494 3.24727848,5.0985443 3.23196203,5.09639241 C3.21829114,5.09468354 3.20810127,5.10063291 3.20436709,5.11537975 C3.19797468,5.14018987 3.19272152,5.16518987 3.18481013,5.18924051 C3.13734177,5.33291139 3.05113924,5.39962025 2.89468354,5.39386076 C2.74632911,5.38867089 2.65626582,5.31905063 2.60974684,5.17455696 C2.5843038,5.09563291 2.5685443,5.0135443 2.56810127,4.93018987 C2.56778481,4.88246835 2.55012658,4.85689873 2.50651899,4.83702532 C2.26867089,4.72905063 2.0428481,4.59873418 1.83037975,4.44563291 C1.60468354,4.28259494 1.39493671,4.10170886 1.21822785,3.88341772 C1.16037975,3.81196203 1.10639241,3.73759494 1.06443038,3.65518987 C1.04443038,3.6156962 1.02594937,3.57462025 1.01246835,3.53234177 C0.985696203,3.44848101 1.00012658,3.36860759 1.04601266,3.29436709 C1.07955696,3.23987342 1.12202532,3.19341772 1.17075949,3.15246835 C1.28,3.06006329 1.4028481,2.99031646 1.53126582,2.93101266 C1.80620253,2.80386076 2.09462025,2.72132911 2.39025316,2.66329114 C2.43297468,2.65506329 2.47639241,2.64835443 2.51943038,2.64056962 C2.56987342,2.63126582 2.57208861,2.62911392 2.5778481,2.57183544 C2.58177215,2.53398734 2.58348101,2.49556962 2.58550633,2.45740506 C2.59677215,2.24050633 2.61765823,2.02481013 2.66246835,1.8121519 C2.67620253,1.74658228 2.69449367,1.68227848 2.72113924,1.6206962 C2.72879747,1.60322785 2.73740506,1.58601266 2.74746835,1.56993671 C2.80189873,1.48367089 2.87917722,1.47696203 2.95006329,1.55221519 C2.98094937,1.58462025 3.00113924,1.62455696 3.01860759,1.66563291 C3.05455696,1.75113924 3.07683544,1.84094937 3.09291139,1.93196203 C3.12531646,2.1143038 3.14367089,2.29822785 3.15101266,2.48341772 C3.15183544,2.50575949 3.15196203,2.52822785 3.15392405,2.55031646 C3.15575949,2.5678481 3.16626582,2.57949367 3.18392405,2.58082278 C3.20272152,2.58259494 3.22139241,2.58278481 3.24006329,2.58259494 C3.43727848,2.58126582 3.6343038,2.58563291 3.83056962,2.60639241 C4.07702532,2.63234177 4.32012658,2.67322785 4.55481013,2.75759494 C4.67613924,2.80126582 4.7921519,2.85588608 4.89746835,2.93253165 C4.96164557,2.97911392 5.01955696,3.03246835 5.06620253,3.09746835 C5.11316456,3.16259494 5.14772152,3.23360759 5.15981013,3.31424051 C5.1785443,3.44056962 5.15088608,3.555 5.07303797,3.65594937 C5.02031646,3.72468354 4.9571519,3.78113924 4.88392405,3.82588608 C4.86259494,3.83905063 4.84120253,3.85221519 4.81436709,3.85113924 C4.73310127,3.84765823 4.65151899,3.85088608 4.57120253,3.83436709 C4.55601266,3.83126582 4.54050633,3.82810127 4.52613924,3.82208861 C4.49386076,3.80829114 4.48177215,3.77759494 4.49272152,3.74348101 C4.50360759,3.70879747 4.52537975,3.68189873 4.54949367,3.65658228 C4.57348101,3.6314557 4.59905063,3.60778481 4.62278481,3.58253165 C4.63563291,3.56867089 4.64727848,3.55341772 4.65727848,3.53727848 C4.68917722,3.48512658 4.68316456,3.45208861 4.63417722,3.41398734 C4.59405063,3.38259494 4.54797468,3.36246835 4.50132911,3.34367089 C4.36151899,3.28708861 4.21601266,3.24968354 4.06886076,3.2193038 C3.79810127,3.16303797 3.52455696,3.13803797 3.24822785,3.14550633 C3.22949367,3.14594937 3.21075949,3.14639241 3.1921519,3.14848101 C3.17848101,3.15 3.16981013,3.16012658 3.16924051,3.17379747 C3.16791139,3.20253165 3.16746835,3.23113924 3.16822785,3.26 C3.17303797,3.47063291 3.17829114,3.68107595 3.18329114,3.89170886 C3.18322785,3.89189873 3.18297468,3.89189873 3.18253165,3.89189873 L3.18253165,3.89189873 Z M2.55367089,3.81202532 C2.55493671,3.81202532 2.55594937,3.81202532 2.55696203,3.81202532 C2.55955696,3.62708861 2.56234177,3.44208861 2.56474684,3.25702532 C2.56506329,3.23468354 2.56474684,3.21234177 2.56291139,3.19018987 C2.56170886,3.17575949 2.55088608,3.16791139 2.53759494,3.16721519 C2.5221519,3.16626582 2.50651899,3.16765823 2.49088608,3.16905063 C2.37246835,3.17867089 2.25411392,3.18835443 2.13563291,3.19841772 C1.95164557,3.21411392 1.76917722,3.23962025 1.58873418,3.27974684 C1.50329114,3.29879747 1.41911392,3.32329114 1.33848101,3.35911392 C1.28949367,3.38107595 1.2428481,3.4071519 1.20613924,3.44791139 C1.16265823,3.49632911 1.15607595,3.53955696 1.1878481,3.59531646 C1.20670886,3.62816456 1.22911392,3.65981013 1.25487342,3.6871519 C1.30031646,3.73525316 1.34702532,3.78297468 1.39772152,3.82506329 C1.72658228,4.09759494 2.10006329,4.28803797 2.49373418,4.44037975 C2.50531646,4.44487342 2.51791139,4.44778481 2.53018987,4.4485443 C2.53879747,4.44898734 2.5493038,4.44563291 2.55018987,4.43367089 C2.55196203,4.41151899 2.5535443,4.38917722 2.5535443,4.36708861 C2.55379747,4.18208861 2.55367089,3.9971519 2.55367089,3.81202532 L2.55367089,3.81202532 Z" id="path14250"></path>
                <path d="M14.7232278,3.94227848 C14.7577848,3.92563291 14.771962,3.89575949 14.7910127,3.87183544 C14.9779747,3.63594937 15.1734177,3.40772152 15.3870253,3.19658228 C15.5060759,3.07867089 15.6301899,2.96651899 15.7693038,2.87303797 C15.8293671,2.83240506 15.8917722,2.7971519 15.9606329,2.77322785 C16.0323418,2.74848101 16.1017722,2.75082278 16.1708228,2.78170886 C16.2651266,2.82386076 16.3386709,2.89120253 16.3967722,2.97708861 C16.4807595,3.10120253 16.5181646,3.24183544 16.535,3.38911392 C16.561962,3.62443038 16.5208228,3.84721519 16.4055696,4.05348101 C16.1863924,4.4456962 15.871519,4.72329114 15.4520253,4.87348101 C15.3237342,4.91955696 15.1911392,4.93753165 15.0555063,4.9356962 C15.0071519,4.93493671 15.0058228,4.9356962 14.9931646,4.98588608 C14.9090506,5.31613924 14.8153165,5.64335443 14.7170253,5.96943038 C14.6986076,6.03037975 14.6820253,6.09183544 14.6605696,6.15183544 C14.5965823,6.33246835 14.5596203,6.51968354 14.5281013,6.70848101 C14.5185443,6.765 14.5032911,6.82031646 14.4891772,6.87582278 C14.4809494,6.90803797 14.4579747,6.91911392 14.4256329,6.92037975 C14.3625316,6.92253165 14.3090506,6.89810127 14.2596835,6.86310127 C14.1287975,6.77031646 14.0424684,6.64506329 14.0017722,6.48746835 C13.9775316,6.39310127 13.9852532,6.29759494 13.9933544,6.20196203 C14.0208861,5.8764557 14.094557,5.56018987 14.1813924,5.24683544 C14.2467089,5.0106962 14.3187342,4.7764557 14.3890506,4.54170886 C14.400443,4.50360759 14.401962,4.46993671 14.3853797,4.43126582 C14.263038,4.1478481 14.2713924,3.86158228 14.3708228,3.5735443 C14.4448734,3.35797468 14.5531646,3.16126582 14.6818354,2.97537975 C14.7702532,2.84740506 14.8663924,2.72575949 14.9774051,2.6171519 C14.995443,2.59936709 15.0139873,2.58183544 15.034557,2.56791139 C15.0639873,2.54803797 15.0946203,2.55506329 15.1177848,2.58348101 C15.1338608,2.6035443 15.1433544,2.62677215 15.1498734,2.65183544 C15.1701266,2.72943038 15.1624051,2.80424051 15.1281646,2.87531646 C15.1005696,2.93246835 15.069557,2.98803797 15.0392405,3.04386076 C14.9517089,3.20575949 14.8608861,3.36607595 14.784557,3.53405063 C14.7543038,3.6006962 14.7257595,3.6678481 14.7058228,3.73848101 C14.6861392,3.80702532 14.6852532,3.87443038 14.7232278,3.94227848 L14.7232278,3.94227848 Z M16.2227848,3.46316456 C16.2196835,3.42436709 16.2214557,3.37341772 16.2044937,3.32398734 C16.1652532,3.21044304 16.0868987,3.18670886 15.9963291,3.26386076 C15.9361392,3.31518987 15.8853797,3.37601266 15.8374684,3.43943038 C15.6326582,3.71018987 15.4601266,4.00240506 15.2912658,4.29696203 C15.2898101,4.29974684 15.2877848,4.30234177 15.2863924,4.30512658 C15.2755063,4.32727848 15.2855063,4.34113924 15.3116456,4.33873418 C15.3993038,4.33107595 15.4846835,4.31265823 15.5667089,4.27974684 C15.7939873,4.18873418 15.9824684,4.04708861 16.1158861,3.83594937 C16.185,3.72683544 16.2253797,3.6071519 16.2227848,3.46316456 L16.2227848,3.46316456 Z" id="path14252"></path>
                <path d="M9.29974684,2.57050633 C9.4193038,2.56537975 9.55658228,2.57575949 9.69379747,2.58772152 C9.76550633,2.59417722 9.83639241,2.60753165 9.90550633,2.62810127 C9.94443038,2.63987342 9.98253165,2.65481013 10.0161392,2.6793038 C10.1033544,2.74259494 10.105,2.83664557 10.0191139,2.90037975 C9.98860759,2.92297468 9.95392405,2.93753165 9.9185443,2.9506962 C9.84772152,2.97721519 9.77398734,2.99341772 9.69974684,3.00373418 C9.57291139,3.02113924 9.44531646,3.03506329 9.31759494,3.04607595 C9.07772152,3.06651899 8.83670886,3.07405063 8.59740506,3.10291139 C8.52905063,3.11132911 8.4614557,3.12341772 8.395,3.14151899 C8.36151899,3.15063291 8.32905063,3.16234177 8.30063291,3.18278481 C8.28,3.19740506 8.25841772,3.21468354 8.26303797,3.24386076 C8.26683544,3.26848101 8.28917722,3.27943038 8.30987342,3.28620253 C8.34253165,3.29677215 8.37575949,3.30829114 8.40936709,3.31278481 C8.52405063,3.32772152 8.63886076,3.34196203 8.75405063,3.35246835 C8.94708861,3.37025316 9.14075949,3.3806962 9.33278481,3.40962025 C9.43202532,3.42443038 9.53018987,3.44392405 9.62468354,3.47829114 C9.66879747,3.49417722 9.71259494,3.51202532 9.75443038,3.53348101 C9.96107595,3.63911392 10.0638608,3.8143038 10.0755696,4.04658228 C10.0861392,4.25139241 10.0062658,4.41955696 9.86335443,4.55810127 C9.735,4.68265823 9.57765823,4.75088608 9.40708861,4.78949367 C9.19721519,4.83677215 8.98556962,4.83892405 8.77272152,4.81506329 C8.64759494,4.80101266 8.52575949,4.77525316 8.40778481,4.73088608 C8.26240506,4.67620253 8.12981013,4.59993671 8.02183544,4.48405063 C7.98936709,4.44911392 7.96056962,4.4114557 7.93658228,4.37012658 C7.84278481,4.20917722 7.87398734,4.00759494 8.01164557,3.88297468 C8.0664557,3.83341772 8.13012658,3.80025316 8.19911392,3.77708861 C8.30455696,3.74196203 8.41310127,3.73101266 8.52329114,3.73759494 C8.73297468,3.75012658 8.94037975,3.77822785 9.14360759,3.83341772 C9.19474684,3.84740506 9.24436709,3.86753165 9.29348101,3.88791139 C9.31917722,3.8985443 9.34392405,3.91405063 9.36601266,3.9314557 C9.42259494,3.97639241 9.42613924,4.03373418 9.37683544,4.08778481 C9.34658228,4.12094937 9.30867089,4.14341772 9.26765823,4.16018987 C9.12962025,4.21702532 8.98943038,4.22835443 8.84544304,4.18525316 C8.75518987,4.15835443 8.66816456,4.12329114 8.58044304,4.0893038 C8.525,4.06772152 8.46936709,4.04632911 8.41253165,4.02867089 C8.35506329,4.01132911 8.29613924,4.00436709 8.23702532,4.02341772 C8.18120253,4.04183544 8.13544304,4.07297468 8.10860759,4.12772152 C8.08120253,4.18417722 8.09379747,4.24227848 8.14113924,4.28272152 C8.17063291,4.3078481 8.20588608,4.32075949 8.24221519,4.33088608 C8.34322785,4.35943038 8.44658228,4.36196203 8.54968354,4.35708861 C8.8128481,4.34487342 9.07202532,4.30253165 9.32588608,4.23025316 C9.40702532,4.20721519 9.48670886,4.17753165 9.56031646,4.1343038 C9.60113924,4.11037975 9.64006329,4.08367089 9.66601266,4.04177215 C9.69670886,3.99202532 9.69202532,3.95278481 9.64924051,3.91455696 C9.61588608,3.88455696 9.57620253,3.8656962 9.53582278,3.84803797 C9.41462025,3.79481013 9.28708861,3.76316456 9.15829114,3.73721519 C8.96443038,3.69816456 8.7685443,3.67892405 8.57082278,3.67835443 C8.40810127,3.67797468 8.24563291,3.67253165 8.085,3.64151899 C8.03265823,3.6314557 7.98177215,3.61626582 7.93310127,3.59411392 C7.80126582,3.53449367 7.7378481,3.42924051 7.73968354,3.28367089 C7.74158228,3.15424051 7.78518987,3.04056962 7.87240506,2.94506329 C7.9371519,2.87405063 8.01474684,2.82088608 8.09905063,2.77740506 C8.22278481,2.71373418 8.35417722,2.67316456 8.48905063,2.64386076 C8.75018987,2.58721519 9.01468354,2.56689873 9.29974684,2.57050633 L9.29974684,2.57050633 Z" id="path14254"></path>
                <path d="M10.1928481,4.28196203 C10.191962,4.06436709 10.2212658,3.84955696 10.2555063,3.63544304 C10.2810759,3.47487342 10.3136076,3.31563291 10.3594937,3.15949367 C10.3809494,3.08620253 10.4055063,3.01386076 10.4373418,2.9443038 C10.4598101,2.89512658 10.4855696,2.84746835 10.5235443,2.80848101 C10.5772152,2.75303797 10.6255696,2.74512658 10.6928481,2.78183544 C10.7542405,2.81525316 10.8037342,2.86436709 10.8509494,2.91544304 C10.9410127,3.0135443 11.0225316,3.11879747 11.0982278,3.22835443 C11.2097468,3.39012658 11.3185443,3.55367089 11.4293671,3.71613924 C11.4848734,3.79721519 11.5414557,3.87740506 11.5993671,3.95664557 C11.6135443,3.97626582 11.6286076,4.00443038 11.6570253,3.99841772 C11.6897468,3.9914557 11.6918987,3.9571519 11.6983544,3.92987342 C11.7151266,3.86063291 11.7125949,3.79075949 11.7025316,3.72088608 C11.6789241,3.55613924 11.6337975,3.39683544 11.5890506,3.23746835 C11.5337975,3.04132911 11.4775949,2.84563291 11.4231013,2.64936709 C11.4010127,2.56943038 11.3872785,2.48822785 11.3885443,2.40411392 C11.3901899,2.29037975 11.4477215,2.24981013 11.5548734,2.30335443 C11.5917722,2.32183544 11.6234177,2.3478481 11.6531013,2.3764557 C11.7308861,2.45177215 11.7941772,2.53860759 11.8489873,2.63208861 C12.0381013,2.95360759 12.1570886,3.29968354 12.2053797,3.67196203 C12.2326582,3.88170886 12.2194937,4.08556962 12.1432911,4.28348101 C12.1088608,4.37316456 12.0651899,4.45727848 12.0051899,4.53208861 C11.9506329,4.60012658 11.8855696,4.65316456 11.8026582,4.6814557 C11.7199367,4.70917722 11.6428481,4.70208861 11.5717089,4.64734177 C11.4987342,4.59132911 11.4370253,4.52367089 11.3797468,4.45189873 C11.2928481,4.34291139 11.214557,4.22734177 11.1391772,4.10987342 C11.0501266,3.97094937 10.9620886,3.83151899 10.8732278,3.69265823 C10.8476582,3.65259494 10.8208228,3.61310127 10.7860127,3.58025316 C10.7625316,3.5578481 10.7405696,3.5635443 10.7301899,3.59632911 C10.7226582,3.62044304 10.7182911,3.64563291 10.7141772,3.67075949 C10.6956329,3.78126582 10.6999367,3.89335443 10.6958228,4.00506329 C10.6898734,4.16443038 10.6836709,4.32373418 10.6608228,4.48189873 C10.6508861,4.5514557 10.6365823,4.62018987 10.6086076,4.68474684 C10.5822152,4.74493671 10.5491772,4.79993671 10.4770253,4.80689873 C10.4012658,4.81443038 10.3348734,4.79101266 10.2831013,4.73183544 C10.2578481,4.7028481 10.2412658,4.6685443 10.2287342,4.63196203 C10.2078481,4.57139241 10.1964557,4.50860759 10.1933544,4.44468354 C10.1906962,4.39050633 10.1928481,4.33632911 10.1928481,4.28196203 L10.1928481,4.28196203 Z" id="path14256"></path>
                <path d="M13.7502532,2.58594937 C13.9513291,2.58936709 14.1098101,2.67892405 14.2353797,2.83525316 C14.2451899,2.84727848 14.2531013,2.8614557 14.2610759,2.87512658 C14.2842405,2.91537975 14.2791139,2.95455696 14.2528481,2.99113924 C14.2116456,3.04829114 14.1541772,3.07835443 14.0862658,3.08696203 C14.0367722,3.09310127 13.9867722,3.09639241 13.9368987,3.09943038 C13.7963924,3.10803797 13.6557595,3.11481013 13.515443,3.12455696 C13.4468987,3.12898734 13.378481,3.13822785 13.3102532,3.14582278 C13.2543671,3.15202532 13.2190506,3.18189873 13.2053797,3.2385443 C13.1934177,3.28816456 13.1816456,3.33772152 13.1811392,3.38905063 C13.1807595,3.4306962 13.1937342,3.44822785 13.2318987,3.45765823 C13.2559494,3.46379747 13.2811392,3.46639241 13.3059494,3.46892405 C13.4212025,3.48018987 13.5366456,3.48727848 13.6522152,3.48721519 C13.6742405,3.48721519 13.6961392,3.48759494 13.7181013,3.48892405 C13.8070886,3.49462025 13.8584177,3.54582278 13.869557,3.63936709 C13.8808228,3.73392405 13.8372152,3.80816456 13.7556962,3.83493671 C13.7193671,3.84689873 13.6818354,3.84759494 13.6444304,3.84797468 C13.5068354,3.84917722 13.3692405,3.84968354 13.2315823,3.85208861 C13.1817089,3.85297468 13.1318354,3.85987342 13.0820253,3.86120253 C13.0272152,3.86253165 12.9963924,3.89487342 12.9758228,3.94139241 C12.9461392,4.00848101 12.9255063,4.0785443 12.9139241,4.15132911 C12.908038,4.18905063 12.9021519,4.22708861 12.9008861,4.26506329 C12.8994937,4.30525316 12.92,4.32481013 12.9591139,4.3221519 C13.0121519,4.31841772 13.0652532,4.31379747 13.1177215,4.30512658 C13.2749367,4.27892405 13.4318987,4.25037975 13.5888608,4.22341772 C13.6229114,4.21772152 13.6570886,4.21411392 13.6913924,4.21132911 C13.8094304,4.20227848 13.8953165,4.26012658 13.9610127,4.35322785 C13.9991772,4.40696203 14.0020253,4.46841772 13.9455696,4.51481013 C13.9068354,4.54677215 13.8705063,4.58265823 13.83,4.61202532 C13.5920253,4.78405063 13.3303165,4.90088608 13.0429747,4.95449367 C12.978481,4.96639241 12.9125949,4.97379747 12.8472785,4.97626582 C12.6932911,4.98221519 12.5663924,4.92259494 12.4710759,4.7985443 C12.3796203,4.67968354 12.3327215,4.54246835 12.3225949,4.39246835 C12.3194304,4.34462025 12.3282278,4.29689873 12.3415823,4.25082278 C12.3662025,4.16537975 12.3925316,4.08018987 12.4184177,3.995 C12.4332911,3.94632911 12.4468354,3.8971519 12.4648734,3.84955696 C12.4798101,3.81031646 12.4758228,3.77563291 12.4567722,3.74006329 C12.4387342,3.70670886 12.4187975,3.67411392 12.4329114,3.6321519 C12.4477215,3.5878481 12.4736076,3.55221519 12.5117722,3.52860759 C12.551519,3.50373418 12.5937975,3.48196203 12.6366456,3.46341772 C12.6836076,3.44272152 12.7124684,3.41012658 12.7237342,3.3593038 C12.7367722,3.30025316 12.7544937,3.24227848 12.7646203,3.18265823 C12.7744304,3.12601266 12.7674051,3.11632911 12.7196203,3.0914557 C12.6863291,3.07417722 12.6513924,3.05974684 12.6177215,3.04291139 C12.57,3.01898734 12.5231646,2.99303797 12.4831646,2.95651899 C12.4522785,2.92816456 12.4287975,2.89525316 12.4237975,2.85126582 C12.4197468,2.81677215 12.43,2.78841772 12.4577215,2.76746835 C12.488481,2.74443038 12.5229114,2.73012658 12.5589873,2.71886076 C12.6521519,2.68981013 12.7479747,2.67531646 12.8442405,2.6643038 C12.9560127,2.65170886 13.068038,2.6414557 13.1801899,2.63139241 C13.3513924,2.6164557 13.5229114,2.60259494 13.6942405,2.58835443 C13.7127215,2.58721519 13.7314557,2.58677215 13.7502532,2.58594937 L13.7502532,2.58594937 Z" id="path14258"></path>
                <path d="M7.28253165,2.29481013 C7.21556962,2.2921519 7.10341772,2.28234177 6.99411392,2.2535443 C6.95949367,2.24455696 6.93677215,2.24563291 6.915,2.27943038 C6.88487342,2.32620253 6.83993671,2.35468354 6.78537975,2.36677215 C6.70329114,2.38537975 6.6435443,2.3564557 6.6106962,2.27753165 C6.58341772,2.2121519 6.57455696,2.14189873 6.57221519,2.07177215 C6.57075949,2.02816456 6.55740506,1.99379747 6.53272152,1.95860759 C6.45253165,1.84392405 6.41183544,1.71556962 6.41310127,1.57322785 C6.41373418,1.49177215 6.43379747,1.41582278 6.46594937,1.34240506 C6.55234177,1.14544304 6.68917722,0.989683544 6.85468354,0.859367089 C7.10759494,0.660379747 7.39556962,0.559050633 7.71411392,0.545189873 C7.92044304,0.536139241 8.10246835,0.59943038 8.25867089,0.736455696 C8.30253165,0.774936709 8.34696203,0.803101266 8.40651899,0.810379747 C8.46202532,0.816898734 8.51518987,0.839113924 8.56462025,0.867468354 C8.6428481,0.911962025 8.69082278,0.978227848 8.71151899,1.06759494 C8.73626582,1.1743038 8.72265823,1.27696203 8.68582278,1.3771519 C8.64132911,1.49829114 8.57044304,1.60322785 8.48512658,1.69772152 C8.24898734,1.95879747 7.96696203,2.14613924 7.63310127,2.25056962 C7.53405063,2.28151899 7.43246835,2.29829114 7.28253165,2.29481013 L7.28253165,2.29481013 Z M7.13139241,1.8371519 C7.13822785,1.84246835 7.14468354,1.85101266 7.1528481,1.85310127 C7.2814557,1.88588608 7.41253165,1.89626582 7.54272152,1.87208861 C7.74405063,1.83481013 7.93253165,1.75974684 8.10632911,1.64860759 C8.17791139,1.60272152 8.24379747,1.54987342 8.29968354,1.48417722 C8.33917722,1.43772152 8.36917722,1.38588608 8.38278481,1.32575949 C8.41240506,1.1956962 8.32683544,1.08075949 8.19670886,1.07329114 C8.14550633,1.07031646 8.09759494,1.08278481 8.05044304,1.10018987 C7.95291139,1.13613924 7.86436709,1.18993671 7.77911392,1.24886076 C7.55879747,1.40158228 7.36012658,1.58050633 7.17449367,1.77455696 C7.15753165,1.79240506 7.13683544,1.8085443 7.13139241,1.8371519 L7.13139241,1.8371519 Z M7.4171519,1.00544304 C7.37626582,0.996202532 7.34759494,1.01227848 7.31924051,1.02 C7.16348101,1.06227848 7.01848101,1.12746835 6.8978481,1.24018987 C6.85151899,1.28348101 6.81018987,1.33158228 6.78613924,1.39170886 C6.76759494,1.43835443 6.75278481,1.48664557 6.78493671,1.5435443 C6.88037975,1.43993671 6.97544304,1.34360759 7.07879747,1.25626582 C7.18436709,1.1671519 7.29879747,1.08987342 7.4171519,1.00544304 L7.4171519,1.00544304 Z" id="path14260"></path>
                <path d="M7.54487342,4.05348101 C7.54487342,4.16031646 7.54487342,4.30386076 7.54487342,4.44740506 C7.54468354,4.52405063 7.54,4.60044304 7.52537975,4.67594937 C7.52056962,4.70094937 7.51449367,4.7256962 7.50620253,4.74968354 C7.48582278,4.80873418 7.44740506,4.84493671 7.38411392,4.85329114 C7.33082278,4.86012658 7.27860759,4.86037975 7.22563291,4.85151899 C7.15886076,4.84025316 7.1106962,4.80417722 7.07765823,4.74563291 C7.04613924,4.68962025 7.03025316,4.62810127 7.01835443,4.56506329 C6.99651899,4.44886076 6.98974684,4.33050633 6.9885443,4.21291139 C6.98506329,3.87474684 6.99341772,3.53651899 7.02170886,3.19955696 C7.03139241,3.08518987 7.0478481,2.9714557 7.07556962,2.86 C7.08924051,2.80417722 7.10575949,2.74917722 7.13386076,2.69879747 C7.19348101,2.59075949 7.30493671,2.58594937 7.37449367,2.68848101 C7.4014557,2.72816456 7.41778481,2.77322785 7.43158228,2.81917722 C7.45955696,2.91405063 7.4743038,3.01177215 7.48613924,3.11 C7.52259494,3.41113924 7.52867089,3.71417722 7.54487342,4.05348101 L7.54487342,4.05348101 Z" id="path14262"></path>
            </g>
        </g>
    </g>
</svg>
