<svg width="33px" height="21px" viewBox="0 0 33 21" version="1.1" xmlns="http://www.w3.org/2000/svg" xmlns:xlink="http://www.w3.org/1999/xlink">
    <title>Disney XD</title>
    <g id="Page-1" stroke="none" stroke-width="1" fill="none" fill-rule="evenodd">
        <g id="SVG-Layer" fill="#08EE59" fill-rule="nonzero">
            <g id="g14226" transform="translate(0.030195, 0.018199)">
                <path d="M16.7687215,20.6774684 L16.7687215,16.1248101 C16.7669051,16.0650443 16.7550759,16.0074494 16.7335,15.950519 C16.7090886,15.8907089 16.6717848,15.8361266 16.6291646,15.7947468 L13.8096266,12.9223544 C13.7123797,12.8223165 13.7123797,12.6604304 13.8096266,12.5619873 L16.6291646,9.68924051 C16.6718291,9.64586709 16.7091329,9.59443038 16.7335,9.53324684 C16.7550759,9.47653797 16.7681013,9.41632911 16.7687215,9.35868987 L16.7687215,4.80736076 C16.7687215,4.74214557 16.7448861,4.67679747 16.6960633,4.62779747 C16.646443,4.57764557 16.5817152,4.55518354 16.5197342,4.55518354 L12.2233734,4.55518354 C12.1661329,4.55518354 12.1092911,4.56501899 12.0532911,4.59067089 C11.9931709,4.61331013 11.9422215,4.65136709 11.8994684,4.69403165 L8.9051519,7.74412658 C8.80763924,7.84376582 8.65062658,7.84376582 8.55174051,7.7431962 L5.5568038,4.69403165 C5.51515823,4.65136709 5.46332278,4.61326582 5.40475316,4.59067089 C5.348,4.56501899 5.29115823,4.55518354 5.23307595,4.55518354 L0.938797468,4.55518354 C0.87628481,4.55518354 0.811202532,4.57764557 0.762955696,4.62779747 C0.713025316,4.67679747 0.690341772,4.74218987 0.690341772,4.80647468 L0.690341772,9.35873418 C0.690563291,9.41637342 0.702037975,9.47658228 0.724677215,9.53329114 C0.749132911,9.59451899 0.785151899,9.64591139 0.827063291,9.68928481 L3.64677848,12.5620316 C3.74593038,12.6604747 3.74593038,12.8223608 3.64677848,12.9223987 L0.827063291,15.7947911 C0.785196203,15.8367911 0.749177215,15.8907532 0.724677215,15.9505633 C0.702037975,16.0074494 0.690518987,16.0658418 0.690341772,16.1248544 L0.690341772,20.6775127 C0.690341772,20.7417089 0.713689873,20.807057 0.762955696,20.8554367 C0.811202532,20.9050127 0.876329114,20.9296899 0.938797468,20.9296899 L5.40656962,20.9296899 C5.46513924,20.9284051 5.52206962,20.9167532 5.57948734,20.8945127 C5.63796835,20.8706772 5.68936076,20.8344367 5.73277848,20.7899114 L8.5516962,17.917519 C8.65058228,17.8175696 8.80759494,17.8175696 8.90656962,17.9166329 L11.7250886,20.7899114 C11.7669557,20.8344367 11.8187911,20.8706772 11.8785127,20.8945127 C11.9358861,20.9167532 11.9931266,20.9284051 12.0507658,20.9296899 L16.5197342,20.9296899 C16.5817152,20.9296899 16.646443,20.9050127 16.6960633,20.8554367 C16.7448861,20.8070127 16.7687215,20.7416646 16.7687215,20.6774684" id="path14244"></path>
                <path d="M28.6141835,20.9296456 C28.6704051,20.9283165 28.7277342,20.9166646 28.7844873,20.8944241 C28.8449177,20.8705886 28.8956899,20.8343481 28.9371582,20.7898228 L32.0189304,17.6513861 C32.0586266,17.6098291 32.0913228,17.5589684 32.1149367,17.5019937 C32.1390823,17.4421392 32.1503354,17.3806899 32.1503354,17.3186203 L32.1503354,8.1643481 C32.1503354,8.10294304 32.1390823,8.04189241 32.1149367,7.9811962 C32.0913228,7.92377848 32.0586266,7.87318354 32.0189304,7.83237975 L28.9371582,4.69407595 C28.8956456,4.65141139 28.8449177,4.61375316 28.7844873,4.59071519 C28.7277785,4.56506329 28.6704051,4.55522785 28.6141835,4.55522785 L17.8157975,4.55522785 C17.7518671,4.55522785 17.6888671,4.57768987 17.640443,4.62784177 C17.5909114,4.67724051 17.5663671,4.74223418 17.5651266,4.80651899 L17.5651266,20.6774684 C17.5663671,20.7416646 17.5909114,20.8070127 17.640443,20.8553924 C17.6888671,20.9049684 17.7518671,20.9296456 17.8157975,20.9296456 L28.6141835,20.9296456 L28.6141835,20.9296456 Z" id="path14246"></path>
            </g>
            <g id="g14248" transform="translate(0.030195, 0.018199)">
                <path d="M2.22777215,2.72432911 C2.2330443,2.88501899 2.23805063,3.04584177 2.24341139,3.20662025 C2.24482911,3.24946203 2.24615823,3.25061392 2.2866962,3.25818987 C2.49000633,3.29637975 2.69517722,3.30878481 2.9014557,3.2993038 C3.15660127,3.2876962 3.40616456,3.24587342 3.64602532,3.15301266 C3.76759494,3.10596203 3.88194304,3.04566456 3.9829557,2.96135443 C4.1124557,2.85347468 4.20168354,2.71892405 4.23694937,2.55017089 C4.26751899,2.40410127 4.25214557,2.26166456 4.20505063,2.12153165 C4.15981646,1.98706962 4.09061392,1.86585443 4.00758861,1.75265823 C3.86896203,1.56312658 3.70140506,1.40323418 3.51860759,1.25933544 C3.19031646,1.00091139 2.82826582,0.803670886 2.4441962,0.647367089 C2.1303038,0.519462025 1.80670886,0.425272152 1.47332278,0.366968354 C1.19181646,0.317436709 0.908139241,0.298829114 0.622822785,0.312917722 C0.542101266,0.316949367 0.46106962,0.321911392 0.381101266,0.336664557 C0.344329114,0.343531646 0.307512658,0.349734177 0.274550633,0.368563291 C0.248411392,0.383316456 0.245575949,0.408791139 0.268348101,0.428063291 C0.28,0.43785443 0.294221519,0.4445 0.307025316,0.452962025 C0.316107595,0.458987342 0.326120253,0.464436709 0.333386076,0.472367089 C0.352879747,0.494075949 0.346765823,0.527702532 0.320670886,0.539708861 C0.306936709,0.545955696 0.29143038,0.550962025 0.276721519,0.551360759 C0.228651899,0.552556962 0.180050633,0.555082278 0.132335443,0.550474684 C0.0307911392,0.540727848 -0.00894936709,0.472765823 0.0272468354,0.37578481 C0.0399177215,0.341892405 0.0606075949,0.312829114 0.0844873418,0.286556962 C0.11585443,0.252177215 0.148462025,0.219082278 0.18071519,0.185588608 C0.204240506,0.161 0.234455696,0.147664557 0.264981013,0.135303797 C0.328424051,0.109518987 0.394746835,0.0941898734 0.461601266,0.0829810127 C0.749886076,0.0345126582 1.04038608,0.0167911392 1.33212658,0.0307025316 C1.60623418,0.0439050633 1.87564557,0.0926835443 2.14009494,0.167689873 C2.74182911,0.33821519 3.29203797,0.615867089 3.78961392,1.00077848 C4.01556329,1.17555696 4.22228481,1.37137975 4.39724051,1.60007595 C4.49196203,1.72381646 4.57463291,1.85508861 4.63528481,1.99987342 C4.69474051,2.14137975 4.72637342,2.28793671 4.7168481,2.44326582 C4.70803165,2.59088608 4.66815823,2.72858228 4.59873418,2.85777215 C4.50831013,3.02528481 4.38146835,3.1593038 4.2303481,3.27055063 C4.03775949,3.41196835 3.82341772,3.50513924 3.59512025,3.56725316 C3.31724684,3.64270253 3.03414557,3.66210759 2.74838608,3.64425316 C2.59527215,3.63472785 2.44375316,3.61058228 2.29440506,3.57443038 C2.28372785,3.57181646 2.27309494,3.56898101 2.26237342,3.56747468 C2.2528038,3.56627848 2.24567089,3.57044304 2.24305696,3.58076582 C2.23858228,3.59813291 2.23490506,3.61563291 2.22936709,3.63246835 C2.19613924,3.73303797 2.13579747,3.77973418 2.02627848,3.77570253 C1.92243038,3.77206962 1.85938608,3.72333544 1.82682278,3.62218987 C1.80901266,3.56694304 1.79798101,3.50948101 1.79767089,3.45113291 C1.79744937,3.41772785 1.78508861,3.39982911 1.75456329,3.38591772 C1.58806962,3.31033544 1.42999367,3.21911392 1.28126582,3.11194304 C1.12327848,2.99781646 0.976455696,2.8711962 0.852759494,2.71839241 C0.812265823,2.66837342 0.774474684,2.61631646 0.745101266,2.55863291 C0.731101266,2.53098734 0.718164557,2.50223418 0.708727848,2.47263924 C0.689987342,2.41393671 0.700088608,2.35802532 0.732208861,2.30605696 C0.755689873,2.26791139 0.785417722,2.23539241 0.819531646,2.20672785 C0.896,2.1420443 0.981993671,2.09322152 1.07188608,2.05170886 C1.26434177,1.96270253 1.46623418,1.90493038 1.67317722,1.8643038 C1.70308228,1.8585443 1.73347468,1.8538481 1.76360127,1.84839873 C1.79891139,1.84188608 1.80046203,1.84037975 1.80449367,1.80028481 C1.80724051,1.77379114 1.80843671,1.74689873 1.80985443,1.72018354 C1.81774051,1.56835443 1.83236076,1.41736709 1.86372785,1.26850633 C1.87334177,1.22260759 1.88614557,1.17759494 1.90479747,1.13448734 C1.91015823,1.12225949 1.91618354,1.11020886 1.92322785,1.0989557 C1.96132911,1.03856962 2.01542405,1.03387342 2.0650443,1.08655063 C2.08666456,1.10923418 2.10079747,1.13718987 2.11302532,1.16594304 C2.13818987,1.22579747 2.15378481,1.28866456 2.16503797,1.35237342 C2.18772152,1.48001266 2.20056962,1.60875949 2.20570886,1.73839241 C2.20628481,1.75403165 2.20637342,1.76975949 2.20774684,1.78522152 C2.20903165,1.79749367 2.21638608,1.80564557 2.22874684,1.80657595 C2.24190506,1.80781646 2.25497468,1.80794937 2.2680443,1.80781646 C2.40609494,1.80688608 2.54401266,1.80994304 2.68139873,1.82447468 C2.85391772,1.84263924 3.02408861,1.87125949 3.18836709,1.93031646 C3.27329747,1.96088608 3.35450633,1.99912025 3.42822785,2.05277215 C3.4731519,2.08537975 3.51368987,2.12272785 3.54634177,2.16822785 C3.57921519,2.21381646 3.60340506,2.26352532 3.61186709,2.31996835 C3.62498101,2.40839873 3.60562025,2.4885 3.55112658,2.55916456 C3.51422152,2.60727848 3.47000633,2.64679747 3.41874684,2.67812025 C3.40381646,2.68733544 3.38884177,2.69655063 3.37005696,2.69579747 C3.31317089,2.69336076 3.25606329,2.69562025 3.19984177,2.68405696 C3.18920886,2.68188608 3.17835443,2.67967089 3.16829747,2.67546203 C3.14570253,2.6658038 3.13724051,2.64431646 3.14490506,2.62043671 C3.15252532,2.59615823 3.16776582,2.57732911 3.18464557,2.55960759 C3.20143671,2.54201899 3.21933544,2.52544937 3.23594937,2.50777215 C3.24494304,2.49806962 3.25309494,2.48739241 3.26009494,2.47609494 C3.28242405,2.43958861 3.27821519,2.41646203 3.24392405,2.38979114 C3.21583544,2.36781646 3.18358228,2.35372785 3.15093038,2.34056962 C3.05306329,2.30096203 2.95120886,2.27477848 2.84820253,2.25351266 C2.65867089,2.21412658 2.46718987,2.19662658 2.27375949,2.20185443 C2.26064557,2.20216456 2.24753165,2.20247468 2.23450633,2.20393671 C2.22493671,2.205 2.21886709,2.21208861 2.21846835,2.22165823 C2.21753797,2.24177215 2.21722785,2.26179747 2.21775949,2.282 C2.22112658,2.42944304 2.2248038,2.57675316 2.2283038,2.7241962 C2.22825949,2.72432911 2.22808228,2.72432911 2.22777215,2.72432911 L2.22777215,2.72432911 Z M1.78756962,2.66841772 C1.7884557,2.66841772 1.78916456,2.66841772 1.78987342,2.66841772 C1.79168987,2.53896203 1.79363924,2.40946203 1.79532278,2.27991772 C1.7955443,2.26427848 1.79532278,2.24863924 1.79403797,2.23313291 C1.7931962,2.22303165 1.78562025,2.21753797 1.77631646,2.21705063 C1.76550633,2.21638608 1.75456329,2.21736076 1.74362025,2.21833544 C1.66072785,2.22506962 1.57787975,2.2318481 1.49494304,2.23889241 C1.3661519,2.24987975 1.23842405,2.26773418 1.11211392,2.29582278 C1.0523038,2.30915823 0.993379747,2.3263038 0.936936709,2.35137975 C0.90264557,2.36675316 0.869993671,2.38500633 0.844297468,2.41353797 C0.813860759,2.44743038 0.809253165,2.47768987 0.831493671,2.51672152 C0.844696203,2.53971519 0.860379747,2.56186709 0.878411392,2.58100633 C0.910221519,2.61467722 0.942917722,2.64808228 0.978405063,2.6775443 C1.20860759,2.86831646 1.4700443,3.00162658 1.74561392,3.10826582 C1.75372152,3.11141139 1.76253797,3.11344937 1.77113291,3.11398101 C1.77715823,3.11429114 1.78451266,3.11194304 1.78513291,3.10356962 C1.78637342,3.08806329 1.78748101,3.07242405 1.78748101,3.05696203 C1.78765823,2.92746203 1.78756962,2.79800633 1.78756962,2.66841772 L1.78756962,2.66841772 Z" id="path14250"></path>
                <path d="M10.3062595,2.75959494 C10.3304494,2.74794304 10.3403734,2.72703165 10.3537089,2.71028481 C10.4845823,2.54516456 10.6213924,2.38540506 10.7709177,2.23760759 C10.8542532,2.15506962 10.9411329,2.07656329 11.0385127,2.01112658 C11.080557,1.98268354 11.1242405,1.95800633 11.172443,1.94125949 C11.2226392,1.92393671 11.2712405,1.92557595 11.3195759,1.9471962 C11.3855886,1.97670253 11.4370696,2.02384177 11.4777405,2.08396203 C11.5365316,2.17084177 11.5627152,2.26928481 11.5745,2.37237975 C11.5933734,2.53710127 11.5645759,2.69305063 11.4838987,2.83743671 C11.3304747,3.11198734 11.1100633,3.3063038 10.8164177,3.41143671 C10.7266139,3.44368987 10.6337975,3.45627215 10.5388544,3.45498734 C10.5050063,3.4544557 10.5040759,3.45498734 10.4952152,3.49012025 C10.4363354,3.72129747 10.3707215,3.9503481 10.3019177,4.17860127 C10.2890253,4.22126582 10.2774177,4.26428481 10.2623987,4.30628481 C10.2176076,4.43272785 10.1917342,4.56377848 10.1696709,4.69593671 C10.162981,4.7355 10.1523038,4.77422152 10.1424241,4.81307595 C10.1366646,4.83562658 10.1205823,4.84337975 10.097943,4.84426582 C10.0537722,4.84577215 10.0163354,4.82867089 9.98177848,4.80417089 C9.89015823,4.73922152 9.82972785,4.6515443 9.80124051,4.54122785 C9.78427215,4.47517089 9.78967722,4.40831646 9.7953481,4.34137342 C9.81462025,4.11351899 9.86618987,3.89213291 9.92697468,3.67278481 C9.9726962,3.50748734 10.0231139,3.34351899 10.0723354,3.1791962 C10.0803101,3.15252532 10.0813734,3.1289557 10.0697658,3.10188608 C9.98412658,2.90349367 9.98997468,2.70310759 10.0595759,2.50148101 C10.1114114,2.35058228 10.1872152,2.21288608 10.2772848,2.08276582 C10.3391772,1.99318354 10.4064747,1.90803165 10.4841835,1.83200633 C10.4968101,1.81955696 10.5097911,1.80728481 10.5241899,1.79753797 C10.5447911,1.78362658 10.5662342,1.7885443 10.5824494,1.80843671 C10.5937025,1.82248101 10.6003481,1.83874051 10.6049114,1.85628481 C10.6190886,1.91060127 10.6136835,1.96296835 10.5897152,2.01272152 C10.5703987,2.05272785 10.5486899,2.09162658 10.5274684,2.13070253 C10.4661962,2.24403165 10.4026203,2.35625316 10.3491899,2.47383544 C10.3280127,2.52048734 10.3080316,2.56749367 10.2940759,2.61693671 C10.2802975,2.66491772 10.2796772,2.71210127 10.3062595,2.75959494 L10.3062595,2.75959494 Z M11.3559494,2.42421519 C11.3537785,2.39705696 11.355019,2.36139241 11.3431456,2.32679114 C11.3156772,2.24731013 11.2608291,2.2306962 11.1974343,2.28470253 C11.1552975,2.32063291 11.1197658,2.36320886 11.0862278,2.40760127 C10.9428608,2.59713291 10.8220886,2.80168354 10.7038861,3.00787342 C10.7028671,3.00982278 10.7014494,3.01163924 10.7004747,3.01358861 C10.6928544,3.02909494 10.6998544,3.03879747 10.7181519,3.03711392 C10.7795127,3.03175316 10.8392785,3.01886076 10.8966962,2.99582278 C11.0557911,2.93211392 11.1877278,2.83296203 11.2811203,2.68516456 C11.3295,2.60878481 11.3577658,2.52500633 11.3559494,2.42421519 L11.3559494,2.42421519 Z" id="path14252"></path>
                <path d="M6.50982278,1.79935443 C6.59351266,1.79576582 6.68960759,1.80303165 6.78565823,1.81140506 C6.83585443,1.81592405 6.88547468,1.82527215 6.93385443,1.83967089 C6.96110127,1.84791139 6.98777215,1.85836709 7.01129747,1.87551266 C7.0723481,1.91981646 7.0735,1.9856519 7.01337975,2.03026582 C6.99202532,2.04608228 6.96774684,2.05627215 6.94298101,2.06548734 C6.89340506,2.08405063 6.84179114,2.09539241 6.78982278,2.10261392 C6.70103797,2.11479747 6.61172152,2.1245443 6.52231646,2.13225316 C6.35440506,2.14656329 6.1856962,2.15183544 6.01818354,2.17203797 C5.97033544,2.17793038 5.92301899,2.18639241 5.8765,2.19906329 C5.85306329,2.20544304 5.83033544,2.21363924 5.81044304,2.22794937 C5.796,2.23818354 5.78089241,2.25027848 5.78412658,2.27070253 C5.78678481,2.28793671 5.80242405,2.29560127 5.81691139,2.30034177 C5.83977215,2.30774051 5.86303165,2.3158038 5.88655696,2.31894937 C5.96683544,2.32940506 6.04720253,2.33937342 6.12783544,2.34672785 C6.26296203,2.35917722 6.39853165,2.36648734 6.53294937,2.38673418 C6.60241772,2.39710127 6.67113291,2.41074684 6.73727848,2.4348038 C6.76815823,2.44592405 6.79881646,2.45841772 6.82810127,2.47343671 C6.97275316,2.54737975 7.04470253,2.67001266 7.05289873,2.83260759 C7.06029747,2.97597468 7.00438608,3.09368987 6.9043481,3.19067089 C6.8145,3.27786076 6.70436076,3.32562025 6.58496203,3.35264557 C6.43805063,3.38574051 6.28989873,3.38724684 6.14090506,3.3705443 C6.05331646,3.36070886 5.96803165,3.34267722 5.88544937,3.31162025 C5.78368354,3.27334177 5.69086709,3.2199557 5.61528481,3.13883544 C5.59255696,3.11437975 5.57239873,3.08801899 5.55560759,3.05908861 C5.48994937,2.94642405 5.51179114,2.80531646 5.6081519,2.71808228 C5.64651899,2.68339241 5.69108861,2.66017722 5.73937975,2.64396203 C5.81318987,2.61937342 5.88917089,2.61170886 5.9663038,2.61631646 C6.11308228,2.62508861 6.25826582,2.64475949 6.40052532,2.68339241 C6.43632278,2.69318354 6.47105696,2.70727215 6.50543671,2.72153797 C6.52342405,2.72898101 6.54074684,2.73983544 6.55620886,2.75201899 C6.59581646,2.78347468 6.59829747,2.82361392 6.56378481,2.86144937 C6.54260759,2.88466456 6.51606962,2.90039241 6.48736076,2.91213291 C6.39073418,2.95191772 6.29260127,2.9598481 6.19181013,2.92967722 C6.12863291,2.9108481 6.06771519,2.8863038 6.00631013,2.86251266 C5.9675,2.84740506 5.92855696,2.83243038 5.88877215,2.82006962 C5.8485443,2.80793038 5.80729747,2.80305696 5.76591772,2.81639241 C5.72684177,2.82928481 5.69481013,2.85108228 5.67602532,2.88940506 C5.65684177,2.92892405 5.66565823,2.96959494 5.69879747,2.99790506 C5.71944304,3.01549367 5.74412025,3.02453165 5.76955063,3.03162025 C5.84025949,3.05160127 5.91260759,3.05337342 5.98477848,3.04996203 C6.16899367,3.04141139 6.35041772,3.01177215 6.52812025,2.96117722 C6.58491772,2.94505063 6.6406962,2.92427215 6.69222152,2.89401266 C6.72079747,2.87726582 6.7480443,2.85856962 6.76620886,2.82924051 C6.7876962,2.79441772 6.78441772,2.76694937 6.75446835,2.74018987 C6.73112025,2.71918987 6.70334177,2.70598734 6.67507595,2.69362658 C6.59023418,2.65636709 6.50096203,2.63421519 6.4108038,2.61605063 C6.27510127,2.58871519 6.13798101,2.57524684 5.99957595,2.5748481 C5.88567089,2.57458228 5.77194304,2.57077215 5.6595,2.54906329 C5.62286076,2.54201899 5.58724051,2.53138608 5.55317089,2.51587975 C5.46088608,2.47414557 5.41649367,2.40046835 5.41777848,2.29856962 C5.41910759,2.20796835 5.44963291,2.12839873 5.51068354,2.0615443 C5.55600633,2.01183544 5.61032278,1.97462025 5.66933544,1.94418354 C5.75594937,1.89961392 5.84792405,1.87121519 5.94233544,1.85070253 C6.12513291,1.81105063 6.31027848,1.79682911 6.50982278,1.79935443 L6.50982278,1.79935443 Z" id="path14254"></path>
                <path d="M7.13499367,2.99737342 C7.13437342,2.84505696 7.15488608,2.69468987 7.17885443,2.54481013 C7.19675316,2.43241139 7.21952532,2.32094304 7.25164557,2.21164557 C7.26666456,2.16034177 7.28385443,2.10970253 7.30613924,2.06101266 C7.32186709,2.02658861 7.33989873,1.99322785 7.36648101,1.96593671 C7.40405063,1.92712658 7.43789873,1.92158861 7.48499367,1.94728481 C7.52796835,1.97067722 7.56261392,2.00505696 7.59566456,2.04081013 C7.65870886,2.10948101 7.71577215,2.18315823 7.76875949,2.2598481 C7.84682278,2.37308861 7.92298101,2.48756962 8.00055696,2.60129747 C8.03941139,2.65805063 8.07901899,2.71418354 8.11955696,2.7696519 C8.12948101,2.78338608 8.14002532,2.80310127 8.15991772,2.79889241 C8.18282278,2.79401899 8.18432911,2.77000633 8.1888481,2.75091139 C8.20058861,2.70244304 8.19881646,2.65353165 8.19177215,2.60462025 C8.17524684,2.48929747 8.14365823,2.37778481 8.11233544,2.26622785 C8.07365823,2.12893038 8.03431646,1.99194304 7.99617089,1.85455696 C7.98070886,1.79860127 7.97109494,1.74175949 7.97198101,1.68287975 C7.97313291,1.60326582 8.01340506,1.57486709 8.08841139,1.6123481 C8.11424051,1.62528481 8.13639241,1.64349367 8.15717089,1.66351899 C8.21162025,1.71624051 8.25592405,1.77702532 8.29429114,1.84246203 C8.42667089,2.06752532 8.50996203,2.30977848 8.54376582,2.57037342 C8.56286076,2.7171962 8.55364557,2.85989873 8.5003038,2.99843671 C8.47620253,3.06121519 8.44563291,3.12009494 8.40363291,3.17246203 C8.36544304,3.22008861 8.31989873,3.25721519 8.26186076,3.27701899 C8.2039557,3.29642405 8.14999367,3.29146203 8.1001962,3.25313924 C8.04911392,3.21393038 8.00591772,3.16656962 7.96582278,3.11632911 C7.90499367,3.04003797 7.85018987,2.95913924 7.79742405,2.87691139 C7.73508861,2.77966456 7.67346203,2.68206329 7.61125949,2.58486076 C7.59336076,2.55681646 7.57457595,2.52917089 7.55020886,2.50617722 C7.53377215,2.49049367 7.51839873,2.49448101 7.51113291,2.51743038 C7.50586076,2.53431013 7.5028038,2.55194304 7.49992405,2.56953165 C7.48694304,2.64688608 7.4899557,2.7253481 7.48707595,2.8035443 C7.48291139,2.91510127 7.47856962,3.02661392 7.46257595,3.13732911 C7.45562025,3.18601899 7.44560759,3.23413291 7.42602532,3.27932278 C7.40755063,3.3214557 7.38442405,3.3599557 7.33391772,3.36482911 C7.28088608,3.37010127 7.23441139,3.35370886 7.19817089,3.31228481 C7.18049367,3.29199367 7.16888608,3.26798101 7.16011392,3.24237342 C7.14549367,3.19997468 7.13751899,3.15602532 7.1353481,3.11127848 C7.13348734,3.07335443 7.13499367,3.03543038 7.13499367,2.99737342 L7.13499367,2.99737342 Z" id="path14256"></path>
                <path d="M9.62517722,1.81016456 C9.76593038,1.81255696 9.87686709,1.87524684 9.96476582,1.98467722 C9.97163291,1.99309494 9.97717089,2.00301899 9.98275316,2.01258861 C9.99896835,2.04076582 9.99537975,2.06818987 9.97699367,2.09379747 C9.9481519,2.1338038 9.90792405,2.1548481 9.86038608,2.16087342 C9.82574051,2.16517089 9.79074051,2.16747468 9.75582911,2.16960127 C9.65747468,2.17562658 9.55903165,2.18036709 9.46081013,2.18718987 C9.41282911,2.19029114 9.36493671,2.19675949 9.31717722,2.20207595 C9.27805696,2.20641772 9.25333544,2.22732911 9.24376582,2.26698101 C9.23539241,2.30171519 9.2271519,2.33640506 9.22679747,2.37233544 C9.22653165,2.40148734 9.23561392,2.41375949 9.26232911,2.42036076 C9.27916456,2.42465823 9.29679747,2.42647468 9.31416456,2.42824684 C9.39484177,2.43613291 9.4756519,2.44109494 9.55655063,2.44105063 C9.57196835,2.44105063 9.58729747,2.44131646 9.60267089,2.44224684 C9.66496203,2.44623418 9.70089241,2.48207595 9.70868987,2.54755696 C9.71657595,2.61374684 9.68605063,2.66571519 9.62898734,2.6844557 C9.60355696,2.69282911 9.57728481,2.69331646 9.55110127,2.69358228 C9.45478481,2.69442405 9.35846835,2.69477848 9.26210759,2.69646203 C9.2271962,2.69708228 9.19228481,2.70191139 9.15741772,2.70284177 C9.11905063,2.70377215 9.09747468,2.72641139 9.08307595,2.75897468 C9.06229747,2.80593671 9.04785443,2.85498101 9.03974684,2.90593038 C9.03562658,2.93233544 9.03150633,2.95896203 9.03062025,2.9855443 C9.02964557,3.01367722 9.044,3.02736709 9.07137975,3.02550633 C9.10850633,3.02289241 9.14567722,3.01965823 9.18240506,3.01358861 C9.2924557,2.99524684 9.40232911,2.97526582 9.51220253,2.95639241 C9.53603797,2.95240506 9.55996203,2.94987975 9.58397468,2.94793038 C9.66660127,2.94159494 9.72672152,2.98208861 9.77270886,3.04725949 C9.79942405,3.08487342 9.80141772,3.12789241 9.76189873,3.16036709 C9.73478481,3.18274051 9.70935443,3.20786076 9.681,3.22841772 C9.51441772,3.34883544 9.33122152,3.43062025 9.13008228,3.46814557 C9.08493671,3.47647468 9.03881646,3.48165823 8.99309494,3.48338608 C8.8853038,3.48755063 8.79647468,3.44581646 8.72975316,3.35898101 C8.66573418,3.27577848 8.63290506,3.17972785 8.62581646,3.07472785 C8.62360127,3.04123418 8.62975949,3.00782911 8.63910759,2.97557595 C8.65634177,2.91576582 8.67477215,2.85613291 8.69289241,2.7965 C8.7033038,2.76243038 8.71278481,2.72800633 8.72541139,2.69468987 C8.73586709,2.66722152 8.73307595,2.64294304 8.71974051,2.6180443 C8.70711392,2.5946962 8.69315823,2.57187975 8.70303797,2.54250633 C8.71340506,2.51149367 8.73152532,2.48655063 8.75824051,2.47002532 C8.78606329,2.45261392 8.81565823,2.43737342 8.8456519,2.42439241 C8.87852532,2.40990506 8.89872785,2.38708861 8.90661392,2.35151266 C8.91574051,2.31017722 8.92814557,2.26959494 8.93523418,2.22786076 C8.94210127,2.18820886 8.93718354,2.18143038 8.90373418,2.16401899 C8.88043038,2.15192405 8.85597468,2.14182278 8.83240506,2.13003797 C8.799,2.11329114 8.76621519,2.09512658 8.73821519,2.06956329 C8.71659494,2.04971519 8.70015823,2.02667722 8.69665823,1.99588608 C8.69382278,1.97174051 8.701,1.95189241 8.72040506,1.93722785 C8.74193671,1.92110127 8.76603797,1.91108861 8.79129114,1.90320253 C8.85650633,1.88286709 8.92358228,1.87272152 8.99096835,1.86501266 C9.06920886,1.8561962 9.14762658,1.84901899 9.22613291,1.84197468 C9.34597468,1.83151899 9.46603797,1.82181646 9.58596835,1.8118481 C9.59890506,1.81105063 9.61201899,1.81074051 9.62517722,1.81016456 L9.62517722,1.81016456 Z" id="path14258"></path>
                <path d="M5.09777215,1.63795686 C5.05089873,1.63604813 4.97239241,1.629004 4.89587975,1.60832608 C4.87164557,1.60187275 4.85574051,1.60264533 4.8405,1.62691349 C4.81941139,1.66049806 4.7879557,1.68094875 4.74976582,1.68962894 C4.6923038,1.70299005 4.65048101,1.68222124 4.62748734,1.62555011 C4.60839241,1.57860441 4.60218987,1.52815937 4.60055063,1.47780523 C4.59953165,1.44649295 4.59018354,1.42181579 4.57290506,1.39654782 C4.51677215,1.31419971 4.48828481,1.22203526 4.48917089,1.11982726 C4.48961392,1.06133828 4.50365823,1.00680311 4.52616456,0.954085775 C4.58663924,0.81265789 4.68242405,0.700815337 4.79827848,0.607242068 C4.97531646,0.464359912 5.17689873,0.3916009 5.39987975,0.381648231 C5.54431013,0.375149456 5.67172785,0.420595435 5.78106962,0.518985978 C5.81177215,0.546617133 5.84287342,0.566840593 5.88456329,0.572066881 C5.92341772,0.576747816 5.96063291,0.592699355 5.99523418,0.613059153 C6.04999367,0.645007676 6.08357595,0.692589615 6.09806329,0.756759337 C6.11538608,0.833381257 6.10586076,0.907094634 6.08007595,0.979035617 C6.04893038,1.06601922 5.99931013,1.14136865 5.93958861,1.2092195 C5.77429114,1.39668416 5.57687342,1.53120426 5.34317089,1.60619012 C5.27383544,1.6284132 5.20272785,1.64045639 5.09777215,1.63795686 L5.09777215,1.63795686 Z M4.99197468,1.30933699 C4.99675949,1.31315445 5.00127848,1.31928966 5.00699367,1.32078938 C5.09701899,1.34433039 5.18877215,1.35178353 5.27990506,1.33442317 C5.42083544,1.30765549 5.55277215,1.25375656 5.67443038,1.17395342 C5.72453797,1.14100508 5.77065823,1.10305769 5.80977848,1.05588477 C5.83742405,1.02252742 5.85842405,0.985307162 5.86794937,0.942133483 C5.88868354,0.848741997 5.82878481,0.7662121 5.7376962,0.760849475 C5.70185443,0.758713514 5.66831646,0.767666372 5.63531013,0.780164016 C5.56703797,0.805977332 5.50505696,0.844606413 5.44537975,0.886916619 C5.29115823,0.996577765 5.15208861,1.12505355 5.02214557,1.26439092 C5.01027215,1.27720668 4.99578481,1.28879541 4.99197468,1.30933699 L4.99197468,1.30933699 Z M5.19200633,0.712131386 C5.16338608,0.705496273 5.14331646,0.717039552 5.12346835,0.722583961 C5.01443671,0.752941875 4.91293671,0.799751233 4.82849367,0.88069052 C4.79606329,0.911775569 4.76713291,0.946314513 4.75029747,0.989488192 C4.73731646,1.02298188 4.72694937,1.05765716 4.7494557,1.09851309 C4.81626582,1.02411803 4.88281013,0.954949249 4.95515823,0.892233799 C5.02905696,0.828245861 5.10915823,0.772756321 5.19200633,0.712131386 L5.19200633,0.712131386 Z" id="path14260"></path>
                <path d="M5.28141139,2.83743671 C5.28141139,2.91222152 5.28141139,3.01270253 5.28141139,3.11318354 C5.28127848,3.16683544 5.278,3.22031013 5.26776582,3.27316456 C5.26439873,3.29066456 5.26014557,3.30798734 5.25434177,3.32477848 C5.24007595,3.36611392 5.21318354,3.3914557 5.16887975,3.3973038 C5.13157595,3.40208861 5.09502532,3.40226582 5.05794304,3.39606329 C5.01120253,3.38817722 4.97748734,3.36292405 4.95436076,3.32194304 C4.93229747,3.28273418 4.92117722,3.23967089 4.9128481,3.1955443 C4.89756329,3.11420253 4.89282278,3.03135443 4.89198101,2.94903797 C4.8895443,2.71232278 4.89539241,2.47556329 4.9151962,2.23968987 C4.92197468,2.15963291 4.93349367,2.08001899 4.95289873,2.002 C4.96246835,1.96292405 4.97403165,1.92442405 4.99370253,1.88915823 C5.03543671,1.81353165 5.1134557,1.81016456 5.16214557,1.88193671 C5.18101899,1.90971519 5.19244937,1.94125949 5.20210759,1.97342405 C5.22168987,2.03983544 5.23201266,2.10824051 5.24029747,2.177 C5.26581646,2.38779747 5.27006962,2.59992405 5.28141139,2.83743671 L5.28141139,2.83743671 Z" id="path14262"></path>
            </g>
        </g>
    </g>
</svg>
