<?xml version="1.0" encoding="UTF-8"?>
<svg width="72.22px" height="30px" viewBox="0 0 73 31" version="1.1" xmlns="http://www.w3.org/2000/svg" xmlns:xlink="http://www.w3.org/1999/xlink">
    <title>dubaione</title>
    <defs>
        <linearGradient x1="50%" y1="0%" x2="50%" y2="100%" id="linearGradient-1">
            <stop stop-color="#FFFFFF" stop-opacity="0.200078364" offset="0%"></stop>
            <stop stop-color="#FFFFFF" offset="49.0549873%"></stop>
            <stop stop-color="#FDFDFD" stop-opacity="0.200192752" offset="100%"></stop>
        </linearGradient>
    </defs>
    <g id="Page-1" stroke="none" stroke-width="1" fill="none" fill-rule="evenodd">
        <g id="dubaione" fill-rule="nonzero">
            <g id="#f30018ff" fill="#F30018">
                <path d="M0.00907944515,0.0302648172 C3.0851198,0.0696090794 6.16078184,0.00151324086 9.23644388,0.0302648172 C9.26027743,2.4408575 9.24892812,4.85220681 9.24363178,7.26317781 C9.17742749,8.70983607 9.01324086,10.1867591 8.42156368,11.5240858 C7.85258512,12.8239596 6.85498108,13.8919294 5.72194199,14.7245902 C5.46733922,14.9145019 5.20214376,15.0889029 4.93430013,15.2595208 C3.9998739,15.8216898 3.04464061,16.369483 2.00466583,16.7145019 C1.34678436,15.5031526 0.692686003,14.2895334 0.00453972257,13.0948298 C0.675283733,12.7997478 1.34489281,12.4940731 1.9668348,12.1040353 C2.85435057,11.5702396 3.64691047,10.8196721 4.06607818,9.85800757 C4.27868852,9.3813367 4.39066835,8.85813367 4.37137453,8.33568726 C2.91752837,8.34287516 1.46330391,8.35308953 0.00907944515,8.33076923 C0.00907944515,5.56380832 0.00226986129,2.79684741 0.00907944515,0.0302648172 Z" id="Path"></path>
            </g>
            <g id="#fdfdfdff" transform="translate(7.187894, 1.361917)">
                <path d="M11.4805801,0.0268600252 C12.5364439,0.0779319042 13.5968474,-0.0544766709 14.6496847,0.0703656999 C15.0344262,0.124464061 15.4297604,0.189155107 15.7728878,0.382471627 C16.2885246,0.665069357 16.6611602,1.16633039 16.8480454,1.71790668 C17.0186633,2.21046658 17.0440101,2.74880202 16.9327869,3.25762926 C16.7564943,4.3112232 15.8303909,5.20441362 14.7563682,5.2887768 C13.6679697,5.42194199 12.5701135,5.33455233 11.4775536,5.35725095 C11.4820933,3.58032787 11.4839849,1.8037831 11.4805801,0.0268600252 M12.3143758,4.70428752 C13.1515763,4.66343001 14.0050441,4.79356873 14.8274905,4.58284994 C15.2765448,4.48070618 15.6495586,4.15006305 15.8583859,3.74640605 C16.162169,3.16002522 16.184111,2.44237074 15.9431274,1.83026482 C15.7566204,1.34375788 15.3620429,0.919672131 14.8490542,0.782723834 C14.0152585,0.583732661 13.1534678,0.702522068 12.3064313,0.673392182 C12.3087011,2.01715006 12.3030265,3.36052963 12.3143758,4.70428752 Z" id="Shape" fill="#FDFDFD"></path>
                <path d="M22.0857503,0.0238335435 C22.3494325,0.0253467844 22.6131148,0.026481715 22.8771753,0.0287515763 C22.8896595,1.16784363 22.8363178,2.30807062 22.9017654,3.44640605 C22.9138714,3.71084489 23.0005044,3.97339218 23.1624212,4.18411097 C23.4200504,4.52421185 23.8290038,4.72017654 24.2424968,4.79054224 C24.7301387,4.87225725 25.2567465,4.79848676 25.6774275,4.52912989 C25.9982346,4.32370744 26.2464061,3.97944515 26.2778058,3.59319042 C26.4404792,2.410971 26.324338,1.21626734 26.3598991,0.0283732661 C26.6152585,0.0276166456 26.8706179,0.0272383354 27.1263556,0.0268600252 C27.1172762,1.20416141 27.1411097,2.38184111 27.1119798,3.5591425 C27.1157629,4.19659521 26.7359395,4.81778058 26.1612863,5.09697352 C25.3649433,5.51462799 24.4021438,5.57288777 23.5490542,5.30428752 C23.1540984,5.18284994 22.7674653,4.98537201 22.5041614,4.65851198 C22.2639344,4.37213115 22.1152585,4.00706179 22.1008827,3.63291299 C22.0706179,2.42988651 22.096343,1.22686003 22.0857503,0.0238335435 Z" id="Path" fill="#FDFDFD"></path>
                <path d="M32.6443884,0.0298865069 C33.7293821,0.0279949559 34.8143758,0.0226986129 35.8993695,0.0329129887 C36.3083228,0.0469104666 36.752459,0.138839849 37.0433796,0.449810845 C37.3868852,0.787263556 37.4266078,1.33013871 37.2919294,1.77011349 C37.1553594,2.15069357 36.7649433,2.33757881 36.4233291,2.49722573 C36.8284994,2.63266078 37.2540984,2.85094578 37.4447667,3.25535939 C37.5435057,3.52509458 37.5972257,3.82244641 37.5382093,4.107314 C37.4349306,4.62068096 37.0392182,5.06179067 36.5413619,5.22257251 C36.2837327,5.3035309 36.0094578,5.30088272 35.7431274,5.32887768 C34.6970996,5.40189155 33.6476671,5.3591425 32.601261,5.32358134 C32.7045397,3.56065574 32.6213115,1.79432535 32.6443884,0.0298865069 M33.4252207,0.61740227 C33.4286255,1.14930643 33.4301387,1.68083228 33.4301387,2.21273644 C34.2662043,2.18701135 35.1117276,2.28839849 35.9387137,2.1223203 C36.4989912,2.04741488 36.698739,1.24955864 36.3196721,0.868221942 C36.1728878,0.713493064 35.9496847,0.697225725 35.7522068,0.660529634 C34.9808323,0.545523329 34.2007566,0.642749054 33.4252207,0.61740227 M33.4237074,2.84489281 C33.4301387,3.46910467 33.4290038,4.09293821 33.4221942,4.71715006 C34.3081967,4.6887768 35.2044136,4.79848676 36.0820933,4.62938209 C36.2470366,4.60290038 36.4021438,4.51740227 36.5084489,4.38764187 C36.7702396,4.06343001 36.7770492,3.56141236 36.5383354,3.22320303 C36.2988651,2.92017654 35.8819672,2.87477932 35.5240858,2.84754098 C34.8242119,2.82257251 34.1235813,2.84262295 33.4237074,2.84489281 Z" id="Shape" fill="#FDFDFD"></path>
                <path d="M41.8778058,5.35422446 C42.8443884,3.58373266 43.8045397,1.80983607 44.7590164,0.0329129887 C45.087768,0.0287515763 45.4165195,0.0245901639 45.7456494,0.0200504414 C46.701261,1.79394704 47.6216898,3.58600252 48.5784363,5.35876419 C48.2659521,5.35725095 47.9538462,5.35535939 47.6421185,5.35384615 C47.3984868,4.88247163 47.1575032,4.40958386 46.9203026,3.93442623 C45.7736444,3.93064313 44.6266078,3.91551072 43.4799496,3.94577554 C43.2385876,4.42509458 42.9854981,4.89798235 42.7218159,5.36519546 C42.4403531,5.36179067 42.1588903,5.35762926 41.8778058,5.35422446 M43.8306431,3.28335435 C44.7503153,3.28713745 45.6703657,3.28638083 46.5904161,3.28032787 C46.1424968,2.41134931 45.6968474,1.54123581 45.2564943,0.668852459 C44.7711223,1.53518285 44.3190416,2.41929382 43.8306431,3.28335435 Z" id="Shape" fill="#FDFDFD"></path>
                <path d="M53.2350567,0.0283732661 C53.4934426,0.0276166456 53.7522068,0.0272383354 54.0113493,0.0268600252 C54.0075662,1.80340479 54.0068096,3.58032787 54.0079445,5.35725095 C53.7416141,5.35611602 53.475662,5.35498108 53.20971,5.35422446 C53.2233291,3.57881463 53.1794451,1.80302648 53.2350567,0.0283732661 Z" id="Path" fill="#FDFDFD"></path>
                <path d="M10.7356873,8.06595208 C11.7582598,8.00390921 12.7849937,8.02244641 13.8064313,8.09773014 C15.4184111,8.20781841 17.0216898,8.56759142 18.4978562,9.23190416 C19.6430013,9.74337957 20.7037831,10.4493064 21.5973518,11.3307692 C21.5337957,10.3955864 21.4728878,9.46002522 21.4150063,8.52446406 C24.5394704,8.52711223 27.6639344,8.52711223 30.7880202,8.5259773 C30.7876419,9.51941992 30.7842371,10.5128625 30.7800757,11.5063052 C31.8208071,10.0554855 33.3211854,8.92017654 35.0360656,8.4 C35.4904161,8.26153846 35.9576293,8.16544767 36.430517,8.12005044 C37.4909206,7.98915511 38.574401,7.98461538 39.62686,8.18398487 C40.4697352,8.34854981 41.2955864,8.6519546 42.0052963,9.14148802 C42.938966,9.80239596 43.5771753,10.8071879 43.96343,11.8698613 C44.9788146,10.6766709 46.2964691,9.75851198 47.7344262,9.14678436 C49.4300126,8.42005044 51.2757881,8.08184111 53.1151324,8.04136192 C54.9102144,7.97591425 56.7325347,8.11210593 58.4549811,8.64854981 C59.9455233,9.10895334 61.3528373,9.89735183 62.4431274,11.023203 C63.4445145,12.0590164 64.1538462,13.3604035 64.5427491,14.7442623 C65.0216898,16.4201765 65.0776797,18.1883985 64.9331652,19.9165195 C60.3522068,19.9191677 55.7712484,19.920681 51.19029,19.9214376 C51.1880202,20.7393443 51.1967213,21.582976 51.4974779,22.3562421 C51.6699874,22.7860025 51.9302648,23.1964691 52.314628,23.4665826 C53.1083228,24.0298865 54.1933165,24.075662 55.0812106,23.7181589 C55.4598991,23.5778058 55.7693569,23.2831021 55.958512,22.9297604 C56.197604,22.506053 56.3114754,22.0278689 56.4162673,21.5572509 C59.1416141,21.5568726 61.8669609,21.5568726 64.5923077,21.5572509 C64.5643127,22.3827238 64.4818411,23.2229508 64.1633039,23.9935687 C63.6196721,25.418285 62.4431274,26.5218159 61.1110971,27.2175284 C59.8112232,27.8822194 58.3800757,28.2578815 56.9379571,28.4496847 C56.0220681,28.5711223 55.0978562,28.6203026 54.1740227,28.6252207 C53.0735183,28.6248424 51.9680958,28.5968474 50.8808323,28.4126103 C49.4027743,28.1738966 47.9515763,27.7134931 46.6441362,26.9776797 C45.8674653,26.5441362 45.1509458,26.0058008 44.5138714,25.385372 C44.5168979,26.3016393 44.5168979,27.2179067 44.5153846,28.134174 C41.2997478,28.1288777 38.084111,28.1303909 34.8688525,28.1322825 C34.8680958,24.3544767 34.8654477,20.5766709 34.8677175,16.7984868 C34.8624212,16.2786885 34.8915511,15.7554855 34.8098361,15.2398487 C34.7443884,14.8267339 34.5938209,14.4041614 34.2824716,14.1117276 C33.7070618,13.6267339 32.842623,13.5775536 32.1798235,13.9063052 C31.713367,14.1593947 31.4296343,14.6549811 31.3157629,15.1604035 C31.2272383,15.5103405 31.248802,15.8735183 31.2465322,16.2310214 C31.2465322,20.1983607 31.2465322,24.1653216 31.2465322,28.1322825 C28.0240858,28.1322825 24.8020177,28.1322825 21.5799496,28.1322825 C21.5784363,27.1736444 21.5791929,26.214628 21.582976,25.2556116 C20.8017654,26.0266078 19.9021438,26.6769231 18.9196721,27.1668348 C17.9163934,27.6737705 16.8325347,28.0044136 15.7339218,28.2306431 C13.795082,28.6203026 11.7979823,28.6433796 9.83530895,28.4485498 C8.18549811,28.2718789 6.54854981,27.8477932 5.07124842,27.0805801 C3.80239596,26.4310214 2.67919294,25.4973518 1.81929382,24.359773 C0.932912989,23.1662043 0.38776797,21.7399748 0.153215637,20.2774275 C0.00340479193,19.4031526 -0.00302648172,18.513367 0.021185372,17.629256 C0.0881462799,15.9264817 0.554602774,14.2248424 1.45989912,12.7740227 C1.92332913,12.0261034 2.51387137,11.3606557 3.18688525,10.795082 C3.98474149,10.1137453 4.88474149,9.54968474 5.85510719,9.14791929 C7.39747793,8.49003783 9.0665826,8.16771753 10.7356873,8.06595208 M52.2102144,13.0921816 C51.927995,13.2854981 51.6991173,13.5506936 51.5319042,13.8480454 C51.1955864,14.4469105 51.0820933,15.1464061 51.0938209,15.8262295 C52.7958386,15.8228247 54.4982346,15.8239596 56.2002522,15.8311475 C56.247541,15.2152585 56.2430013,14.5740227 56.0107188,13.9921816 C55.8408575,13.5745271 55.5344262,13.2121059 55.1432535,12.9858764 C54.5909206,12.664691 53.9216898,12.5943253 53.2978562,12.6915511 C52.9157629,12.7558638 52.5310214,12.8678436 52.2102144,13.0921816 M11.7843632,13.2332913 C11.2600252,13.3089533 10.8382093,13.701261 10.6127364,14.1654477 C10.2669609,14.8645649 10.1863808,15.654855 10.1054224,16.4201765 C10.0119798,17.5025221 10.0384615,18.5897856 10.0679697,19.6740227 C10.1175284,20.4919294 10.1519546,21.327995 10.4334174,22.1061791 C10.5136192,22.3361917 10.6119798,22.5631778 10.7553594,22.7614124 C11.3224464,23.5131148 12.5807062,23.6058008 13.2291299,22.9119798 C13.6978562,22.4163934 13.8397226,21.7203026 13.93657,21.0680958 C14.1401009,19.5404792 14.1295082,17.9920555 14.0334174,16.4564943 C13.9691047,15.8648172 13.9221942,15.2655738 13.7485498,14.6935687 C13.620681,14.2865069 13.4360656,13.8764187 13.1145019,13.5854981 C12.7554855,13.2726356 12.2496847,13.1519546 11.7843632,13.2332913 Z" id="Shape" fill="url(#linearGradient-1)"></path>
            </g>
        </g>
    </g>
</svg>
