<svg width="58px" height="30px" viewBox="0 0 58 30" version="1.1" xmlns="http://www.w3.org/2000/svg" xmlns:xlink="http://www.w3.org/1999/xlink">
    <title>dubaitv</title>
    <g id="Page-1" stroke="none" stroke-width="1" fill="none" fill-rule="evenodd">
        <g id="dubaitv" fill="#000000" fill-rule="nonzero">
            <path d="M0.674482759,0.0186206897 C2.5862069,0.12 4.73793103,-0.353793103 6.41586207,0.817241379 C7.66344828,1.68206897 7.87241379,3.34965517 7.74206897,4.75034483 C7.66551724,5.97931034 6.91448276,7.12965517 5.8137931,7.68413793 C4.23310345,8.54068966 2.37724138,8.17655172 0.66,8.25103448 C0.684827586,5.50758621 0.66,2.76206897 0.674482759,0.0186206897 M2.16827586,7.08827586 C2.97310345,7.03034483 3.79034483,7.03655172 4.57862069,6.85034483 C5.44758621,6.64758621 6.07862069,5.84896552 6.18827586,4.98206897 C6.36827586,3.9062069 6.28344828,2.60896552 5.42482759,1.82689655 C4.51034483,1.09241379 3.25241379,1.28689655 2.16,1.19586207 C2.14548531,3.15931034 2.13310345,5.12275862 2.16827586,7.08827586 Z" id="Shape"></path>
            <path d="M13.7193103,0.0227586207 C14.2096552,0.0186206897 14.7,0.0186206897 15.1903448,0.0165517241 C15.1862069,1.59931034 15.18,3.18206897 15.1862069,4.76482759 C15.1903448,5.50137931 15.357931,6.32275862 15.9517241,6.81724138 C16.5744828,7.25793103 17.4062069,7.2662069 18.122069,7.09655172 C18.9496552,6.85862069 19.3758621,5.97310345 19.382069,5.16206897 C19.4110345,3.45103448 19.3903448,1.73793103 19.3841379,0.0268965517 C19.8765517,0.0206896552 20.3668966,0.0186206897 20.8593103,0.0144827586 C20.8593103,1.73793103 20.8737931,3.46344828 20.8572414,5.18689655 C20.8593103,6.04344828 20.5634483,6.92068966 19.9324138,7.51862069 C18.837931,8.53655172 17.157931,8.62551724 15.7862069,8.2262069 C14.5882759,7.83103448 13.7648276,6.64137931 13.7337931,5.3937931 C13.6944828,3.60413793 13.7255172,1.81241379 13.7193103,0.0227586207 Z" id="Path"></path>
            <path d="M27.2317241,0.0248275862 C28.6344828,0.0724137931 30.06,-0.113793103 31.4441379,0.148965517 C32.5634483,0.364137931 33.4675862,1.52689655 33.0951724,2.67310345 C32.94,3.30206897 32.3668966,3.66206897 31.8268966,3.92896552 C32.2013793,4.09241379 32.6213793,4.20827586 32.9131034,4.51448276 C33.7696552,5.34827586 33.6372414,6.94758621 32.6689655,7.64482759 C32.1434483,8.03172414 31.4937931,8.23034483 30.842069,8.23862069 C29.637931,8.26137931 28.4337931,8.24689655 27.2317241,8.25103448 C27.2462069,5.50758621 27.237931,2.7662069 27.2317241,0.0248275862 M28.7151724,1.17517241 C28.7213793,1.93862069 28.7172414,2.70206897 28.7151724,3.46551724 C29.5241379,3.40965517 30.4096552,3.61862069 31.1586207,3.23172414 C31.8372414,2.89241379 31.9034483,1.83931034 31.2517241,1.43586207 C30.4882759,0.993103448 29.5531034,1.23103448 28.7151724,1.17517241 M28.7172414,4.60758621 C28.7234483,5.43724138 28.7234483,6.26482759 28.7151724,7.09448276 C29.6006897,7.05103448 30.54,7.23931034 31.377931,6.88137931 C32.2241379,6.44482759 32.1351724,5.06482759 31.2310345,4.75034483 C30.422069,4.49172414 29.5510345,4.63862069 28.7172414,4.60758621 Z" id="Shape"></path>
            <path d="M42.5193103,0.0206896552 C43.1317241,0.0165517241 43.7441379,0.0206896552 44.3586207,0.0289655172 C45.3951724,2.76827586 46.4048276,5.51793103 47.4662069,8.24896552 C46.9282759,8.24689655 46.3944828,8.24689655 45.8586207,8.24689655 C45.602069,7.52896552 45.3434483,6.81103448 45.1013793,6.08689655 C43.98,6.07655172 42.8586207,6.08689655 41.7372414,6.08482759 C41.4806897,6.79862069 41.2303448,7.51655172 40.9965517,8.23862069 C40.4668966,8.24689655 39.9372414,8.24896552 39.4075862,8.24896552 C40.4834483,5.52206897 41.4682759,2.75793103 42.5193103,0.0206896552 M42.1365517,4.89724138 C42.9827586,4.89103448 43.8289655,4.88689655 44.6772414,4.89103448 C44.2262069,3.72827586 43.8206897,2.55103448 43.4193103,1.37172414 C42.96,2.53448276 42.5813793,3.72827586 42.1365517,4.89724138 Z" id="Shape"></path>
            <path d="M55.7668966,0.0248275862 C56.2572414,0.0206896552 56.7496552,0.0186206897 57.2441379,0.0165517241 C57.2524138,2.75586207 57.2296552,5.49724138 57.2565517,8.23655172 C56.762069,8.25103448 56.2675862,8.27172414 55.7751724,8.30068966 C55.7627586,5.54068966 55.7793103,2.78275862 55.7668966,0.0248275862 Z" id="Path"></path>
            <path d="M1.54758621,16.0489655 C2.32344828,15.002069 3.48413793,14.2013793 4.78137931,13.9882759 C6.08068966,13.8268966 7.39034483,13.8186207 8.69586207,13.8268966 C16.38,13.8227586 24.0641379,13.8434483 31.7482759,13.8227586 C31.7710345,15.3455172 31.7193103,16.8682759 31.7668966,18.3910345 C31.8206897,19.3075862 32.1206897,20.337931 32.9834483,20.8075862 C33.8110345,21.2172414 34.857931,21.2193103 35.6772414,20.7848276 C36.5751724,20.2696552 36.8524138,19.1627586 36.8896552,18.2006897 C36.9165517,16.74 36.8813793,15.2793103 36.9062069,13.8186207 C38.762069,13.8393103 40.617931,13.8310345 42.4739432,13.8227586 C42.4634483,15.7013793 42.4882759,17.577931 42.4593103,19.4544828 C42.4241379,20.5965517 42.2813793,21.8027586 41.5593103,22.7358621 C40.74,23.9896552 39.3786207,24.7324138 37.9862069,25.1834483 C37.142069,23.6234483 35.2924138,22.56 33.5110345,22.9986207 C32.2696552,23.2365517 31.26,24.1158621 30.6351724,25.1875862 C29.2158621,24.7158621 27.8089655,23.9503448 27.0103448,22.6365517 C26.3255172,21.6951724 26.1993103,20.5075862 26.1765517,19.382069 C20.0027586,19.4006897 13.8289655,19.38 7.65724138,19.3903448 C6.76965517,19.4255172 5.77034483,19.5393103 5.13517241,20.2365517 C4.48758621,20.8903448 4.51241379,21.9 4.64689655,22.7462069 C4.8537931,23.6544828 5.73517241,24.2462069 6.61862069,24.3765517 C7.88482759,24.5875862 9.17586207,24.4489655 10.4544828,24.4924138 C10.4296552,26.3234483 10.4462069,28.1544828 10.4441379,29.9855172 C8.67931034,29.9462069 6.91034483,30.0413793 5.14965517,29.9131034 C3.34137931,29.7931034 1.78758621,28.4937931 0.991034483,26.9193103 C0.0496551724,25.0655172 -0.0413793103,22.9241379 0.0455172414,20.8862069 C0.128275862,19.1896552 0.515172414,17.4331034 1.54758621,16.0489655 Z" id="Path"></path>
            <path d="M43.9055172,13.8351724 C46.7917241,13.8641379 49.6862069,13.7358621 52.5682759,13.9241379 C54.84,13.9986207 56.702069,15.837931 57.3558621,17.9255172 C58.0841379,20.277931 58.077931,22.8413793 57.5627586,25.2351724 C57.06,27.597931 55.1131034,29.8551724 52.5724138,29.9317241 C49.6427586,30.0393103 46.7089655,29.9441379 43.7793103,29.9855172 C43.7731034,28.1524138 43.7875862,26.3193103 43.7710345,24.4882759 C45.9393103,24.482069 48.1075862,24.4986207 50.2758621,24.4841379 C51.1634483,24.4572414 52.1586207,24.3206897 52.7958621,23.6317241 C53.4641379,22.9386207 53.4289655,21.8648276 53.2406897,20.9855172 C52.8806897,19.8351724 51.5793103,19.4027586 50.4827586,19.3986207 C48.2875862,19.3758621 46.0903448,19.3903448 43.8951724,19.3924138 C43.9075862,17.5406897 43.8951724,15.6868966 43.9055172,13.8351724 Z" id="Path"></path>
            <path d="M33.1675862,24.1075862 C34.9013793,23.3358621 37.1234483,24.5896552 37.3551724,26.4703448 C37.6924138,28.1668966 36.2834483,29.9151724 34.5662069,29.9751724 C33.1137931,30.1448276 31.6613793,29.1144828 31.3158621,27.7013793 C30.8813793,26.2613793 31.7834483,24.6310345 33.1675862,24.1075862 Z" id="Path"></path>
            <path d="M11.8406897,24.4903448 C13.7151724,24.4862069 15.5875862,24.4903448 17.462069,24.4882759 C17.4393103,26.3193103 17.46,28.1524138 17.4517241,29.9834483 C15.5834483,29.9772414 13.7172414,29.9751724 11.8510345,29.9855172 C11.8510345,28.1524138 11.8655172,26.3213793 11.8406897,24.4903448 Z" id="Path"></path>
            <path d="M18.8586207,24.4862069 C20.7248276,24.4965517 22.5910345,24.4758621 24.4593103,24.4986207 C24.4510345,26.3255172 24.4593103,28.1524138 24.4551724,29.9793103 C22.5910345,29.9834483 20.7268966,29.9731034 18.8648276,29.9875862 C18.8648276,28.1544828 18.8772414,26.3193103 18.8586207,24.4862069 Z" id="Path"></path>
        </g>
    </g>
</svg>
