<?xml version="1.0" encoding="UTF-8"?>
<svg width="69.5744680851px" height="30px" viewBox="0 0 545 235" version="1.1" xmlns="http://www.w3.org/2000/svg" xmlns:xlink="http://www.w3.org/1999/xlink">
    <title>dubaisama</title>
    <defs>
        <linearGradient x1="0%" y1="-6.26899933%" x2="100%" y2="-6.26899933%" id="linearGradient-1">
            <stop stop-color="#1C4692" offset="0%"></stop>
            <stop stop-color="#23AEE5" offset="100%"></stop>
        </linearGradient>
        <linearGradient x1="0%" y1="50%" x2="100%" y2="50%" id="linearGradient-2">
            <stop stop-color="#2099D1" offset="0%"></stop>
            <stop stop-color="#33B3E6" offset="100%"></stop>
        </linearGradient>
        <linearGradient x1="0%" y1="50%" x2="100%" y2="50%" id="linearGradient-3">
            <stop stop-color="#2099D1" offset="0%"></stop>
            <stop stop-color="#33B3E6" offset="100%"></stop>
        </linearGradient>
        <linearGradient x1="0%" y1="50%" x2="100%" y2="50%" id="linearGradient-4">
            <stop stop-color="#2099D1" offset="0%"></stop>
            <stop stop-color="#33B3E6" offset="100%"></stop>
        </linearGradient>
        <linearGradient x1="0%" y1="50%" x2="100%" y2="50%" id="linearGradient-5">
            <stop stop-color="#2099D1" offset="0%"></stop>
            <stop stop-color="#33B3E6" offset="100%"></stop>
        </linearGradient>
        <linearGradient x1="0%" y1="50%" x2="100%" y2="50%" id="linearGradient-6">
            <stop stop-color="#2099D1" offset="0%"></stop>
            <stop stop-color="#33B3E6" offset="100%"></stop>
        </linearGradient>
    </defs>
    <g id="Page-1" stroke="none" stroke-width="1" fill="none" fill-rule="evenodd">
        <g id="dubaisama" fill-rule="nonzero">
            <path d="M22.94,2.92 C23.51,1.69 24.71,1.1 25.94,0.67 C25.54,2.27 25.09,3.86 24.55,5.42 C17.69,24.31 10.99,43.76 10.52,64.06 C10.03,78.55 13.86,94.14 24.72,104.37 C35.97,114.55 50.97,119.89 65.89,121.52 C80.94,123.39 95.77,119.38 110.52,117.07 C112.6,107.99 116.88,99.18 124.22,93.21 C132.4,86.29 143.69,85.15 154,85.44 C184.57,86.61 214.44,93.76 244.62,98.13 C290.94,105.76 338.21,110.8 385.09,105.81 C405.99,103.55 426.59,98.71 446.37,91.62 C458.77,86.86 471.35,81.38 481.04,72.03 C489.55,64.21 495.8,54.35 501.33,44.3 C503.05,41.45 504.52,38.23 507.45,36.39 C507.25,39.46 506.43,42.44 505.08,45.19 C500.72,54.2 495.36,62.68 490.41,71.37 C488.56,74.77 489.48,80.85 493.99,81.51 C498.8,81.97 503.03,78.42 505.27,74.45 C509.36,65.83 512.48,56.72 517.44,48.52 C518.81,46.38 520.08,43.95 522.5,42.82 C522.25,48.27 518.74,52.75 517.8,58.03 C517,61.9 515.79,65.88 516.49,69.86 C517.01,72.68 520.35,74.21 522.96,73.26 C526.09,72.28 528.13,69.45 529.67,66.7 C533.12,60.41 536.38,54 539.84,47.71 C540.86,45.78 542.3,44.12 543.88,42.61 C544.56,46.67 542.45,50.31 540.9,53.89 C535.99,64.73 530.58,75.35 524.68,85.69 C521.82,90.32 518.75,95.28 513.75,97.83 C511.3,99.04 507.83,99.47 505.83,97.24 C503.49,94.54 503.79,90.76 503.71,87.44 C500.05,94.38 495.94,101.91 488.67,105.62 C485.57,107.2 480.67,107.92 478.77,104.25 C476.43,98.01 478.06,91.17 479.84,84.99 C467.67,97.67 452.05,106.6 435.62,112.54 C417.08,119.22 397.63,122.98 378.15,125.63 C354.86,128.56 331.3,128.36 307.91,127.12 C266.57,124.19 225.75,116.81 184.97,109.77 C168.8,107 152.38,104.7 135.94,105.81 C130.28,106.21 124.7,107.57 119.49,109.85 C119.75,111.57 120.03,113.3 120.32,115.03 C134.51,112.62 149.53,113.28 162.84,119.13 C170.27,122.48 177.23,128.73 178.47,137.16 C179.52,145.71 175.2,153.71 170.67,160.62 C166.93,166.38 161.23,171.61 154.06,172.09 C141.98,172.69 130.04,166.82 122.32,157.65 C116.82,151.34 113.39,143.48 111.45,135.39 C95.98,137.78 80.79,142.65 64.99,142.29 C48.02,141.95 30.62,136.69 17.72,125.33 C7.29,116.38 1.15,102.78 1.21,89.05 C1.26,83.06 0.99,77.06 1.48,71.1 C3.49,54.36 8.72,38.23 14.53,22.49 C17,15.84 19.14,8.97 22.94,2.92 M128.61,133.58 C133.45,139.32 138.42,145.39 145.4,148.61 C152.28,151.67 160.19,152.85 167.55,150.94 C165.88,147.91 163.73,145.11 160.87,143.11 C151.62,136.36 140.03,133.04 128.61,133.58 Z" id="Shape" fill="url(#linearGradient-1)"></path>
            <path d="M0.5,191.19 C6.55,191.27 12.63,190.85 18.66,191.38 C24.64,191.94 29.89,196.84 30.51,202.88 C31.22,209.16 31.2,215.59 30.46,221.87 C29.91,228.12 24.22,233.35 17.96,233.43 C12.15,233.57 6.33,233.38 0.53,233.48 C0.53,219.38 0.58,205.28 0.5,191.19 M8.72,198.64 C8.74,207.83 8.7,217.02 8.74,226.21 C12.93,226.04 18.49,227.32 21.22,223.17 C23.2,219.45 22.5,215.03 22.69,210.98 C22.53,207.48 23.02,203.32 20.36,200.57 C17.18,197.72 12.6,198.83 8.72,198.64 Z" id="Shape" fill="url(#linearGradient-2)"></path>
            <path d="M133.93,191.19 C136.69,191.18 139.46,191.17 142.23,191.17 C142.26,200.12 142.25,209.08 142.23,218.03 C142.17,220.39 142.51,222.98 144.36,224.65 C148.16,228.49 156.08,226.34 156.52,220.61 C156.91,210.8 156.59,200.96 156.68,191.14 C159.39,191.13 162.11,191.13 164.83,191.15 C164.85,200.09 164.84,209.03 164.85,217.97 C164.88,221.47 164.37,225.19 162.13,228.01 C156.49,235.87 143.28,236.13 137.25,228.61 C134.71,225.7 133.85,221.74 133.92,217.97 C133.92,209.04 133.93,200.12 133.93,191.19 Z" id="Path" fill="url(#linearGradient-3)"></path>
            <path d="M269.34,191.19 C275.71,191.24 282.1,190.94 288.47,191.29 C294.1,191.46 299.08,196.29 299.14,201.97 C299.73,205.96 297.46,209.59 294.35,211.88 C303.11,216.48 300.76,231.5 291.01,233.21 C283.83,233.84 276.58,233.3 269.37,233.49 C269.35,219.39 269.4,205.29 269.34,191.19 M277.56,198.63 C277.55,201.86 277.56,205.09 277.56,208.31 C280.99,208.19 284.51,208.71 287.89,207.88 C291.88,206.77 291.84,200.27 287.95,199.01 C284.54,198.28 281.01,198.74 277.56,198.63 M277.57,215.89 C277.57,219.33 277.57,222.77 277.56,226.21 C281.08,226.12 284.66,226.52 288.14,225.88 C292.61,224.75 292.53,216.99 287.91,216.15 C284.49,215.63 281.01,215.96 277.57,215.89 Z" id="Shape" fill="url(#linearGradient-4)"></path>
            <path d="M414.02,191.14 C416.22,191.15 418.42,191.18 420.63,191.22 C425.56,205.34 430.81,219.35 435.76,233.46 C432.88,233.51 430.01,233.51 427.14,233.48 C426.34,231.06 425.55,228.65 424.77,226.23 C419.82,226.18 414.87,226.21 409.92,226.2 C409.1,228.63 408.28,231.07 407.44,233.49 C404.58,233.49 401.72,233.49 398.88,233.46 C403.87,219.33 408.97,205.24 414.02,191.14 M412.25,219.11 C415.66,219.11 419.07,219.11 422.49,219.07 C420.9,214 419.11,209.01 417.53,203.94 C415.67,208.96 414.02,214.06 412.25,219.11 Z" id="Shape" fill="url(#linearGradient-5)"></path>
            <path d="M536.49,191.18 C539.16,191.16 541.83,191.14 544.5,191.14 C544.51,205.26 544.5,219.37 544.5,233.48 C541.82,233.49 539.15,233.5 536.49,233.49 C536.48,219.39 536.46,205.28 536.49,191.18 Z" id="Path" fill="url(#linearGradient-6)"></path>
        </g>
    </g>
</svg>
