<?xml version="1.0" encoding="UTF-8"?>
<svg width="64px" height="30px" viewBox="0 0 64 30" version="1.1" xmlns="http://www.w3.org/2000/svg" xmlns:xlink="http://www.w3.org/1999/xlink">
    <title>Emarat TV</title>
    <g id="Page-1" stroke="none" stroke-width="1" fill="none" fill-rule="evenodd">
        <g id="Emarat-TV" fill="#FFFFFF" fill-rule="nonzero">
            <path d="M34.5876106,8.8300885 C34.5876106,13.0964524 34.5876106,16.2460099 34.5876106,18.3238938 C34.5876106,18.6972886 34.5876106,18.8705372 34.5876106,18.8436395 L36.2412593,18.8436395 C36.2452614,18.5725578 36.2452614,18.3109496 36.2412593,17.9889168 C36.232751,17.3043009 36.2153401,16.5094865 36.379646,15.8721239 C36.8376106,14.3349558 38.0867257,13.0579646 39.6292035,12.5986726 C41.8048673,11.8845133 44.3535398,13.0725664 45.3079646,15.1327434 C45.9849558,16.5530973 45.8986726,18.330531 45.039823,19.6566372 C44.1212389,21.1380531 42.3610619,22.0553097 40.6221239,21.9769912 C38.1876106,21.9690265 35.7530973,21.9756637 33.3185841,21.9730088 C32.6747788,21.970354 32.029646,22.0035398 31.3884956,21.930531 C31.3858407,17.5646018 31.3699115,13.1973451 31.3964602,8.8300885 C33.5232195,8.8300885 34.5869363,8.8300885 34.5876106,8.8300885 Z M39.4951327,16.6048673 C39.400885,17.2938053 39.4619469,17.9920354 39.4606195,18.6862832 C40.3420354,18.5946903 41.4132743,18.9623894 42.1128319,18.2495575 C42.8615044,17.580531 42.6544248,16.2424779 41.7623894,15.8004425 C40.9699115,15.2787611 39.8057522,15.7367257 39.4951327,16.6048673 Z" id="Shape"></path>
            <path d="M60.3216927,8.80971143 C61.3821633,8.80971143 62.4489404,8.8052781 63.5058689,8.80971143 L63.5058689,21.7425039 C63.4953673,21.8491396 63.5058689,21.8491396 63.5058689,21.9458489 C62.6059355,21.9484978 60.3216927,21.9623084 60.3216927,21.9379024 C60.3172813,15.9917967 60.3172813,11.615733 60.3216927,8.80971143 Z" id="Path"></path>
            <path d="M20.2420354,9.28672566 L20.2420354,8.83274336 C21.0836757,8.83274336 22.5641031,8.83274336 23.4199115,8.83274336 C23.4199115,9.10030635 23.4199115,9.10030635 23.4199115,9.29070796 C23.4199115,13.0075221 23.4185841,16.7243363 23.4199115,20.4411504 L23.4199115,21.9756637 C22.4641593,21.9730088 21.1977876,21.9610619 20.2420354,21.9756637 L20.240708,20.5752212 C20.2460177,16.8119469 20.240708,13.0486726 20.2420354,9.28672566 Z" id="Path"></path>
            <path d="M55.6871681,8.8097159 C56.6395923,8.8097159 57.8876951,8.82743363 58.8637168,8.82743363 C58.8597345,9.10194954 58.8637168,9.23491621 58.8637168,9.41946903 C58.8530973,13.1376106 58.8584071,16.8570796 58.8597345,20.5752212 C58.8637168,21.1151272 58.8637168,21.551894 58.8637168,21.9756637 C55.3088496,21.9649988 51.1460177,21.9756637 47.5924779,21.9716814 C47.5739875,19.8544889 47.5739875,18.7876748 47.5924779,18.7712389 L50.1119469,18.7712389 C50.149115,17.0867257 50.0893805,15.3982301 50.1119469,13.7150442 C51.1340708,13.6845133 52.1588496,13.7004425 53.1823009,13.7044248 C53.1995575,15.3915929 53.1743363,17.0787611 53.1942478,18.7659292 C54.0185841,18.7884956 54.8442478,18.7858407 55.6685841,18.7712389 C55.6977876,15.5176991 55.659292,12.2641593 55.6871681,9.0119469 C55.6871681,9.0119469 55.6871681,9.17415366 55.6871681,8.8097159 Z" id="Path"></path>
            <circle id="Oval" cx="6.10619469" cy="13.4070796" r="2.52212389"></circle>
            <circle id="Oval" cx="11.9469027" cy="13.2743363" r="2.52212389"></circle>
            <path d="M25.8199115,15.5920354 C26.8247788,15.5880531 27.9876106,15.5960177 28.9938053,15.5920354 L28.9938053,16.4548673 C28.9845133,19.4216814 28.9924779,22.3884956 28.989823,25.3553097 C28.9672566,27.8097345 26.7212389,30.070354 24.2349558,29.9323009 L24.2362832,26.8075221 C25.0606195,26.7185841 25.790708,26.0641593 25.8185841,25.2106195 C25.8212389,22.5597345 25.8172566,19.9088496 25.8199115,17.2566372 C25.8199115,16.746854 25.8185841,16.1881448 25.8199115,15.5920354 Z" id="Path"></path>
            <path d="M0.211061947,18.7938053 C6.05309735,18.7951327 11.9960177,18.7632743 17.8367257,18.7938053 L17.8353982,21.9557522 L0.211061947,21.9557522 L0.211061947,18.7938053 Z" id="Path"></path>
            <path d="M49.8637168,24.6557522 C50.3269912,24.0982301 51.0053097,23.6176991 51.7619469,23.660177 C52.2345133,23.6522124 52.7057522,23.660177 53.179646,23.6641593 C53.1783186,24.2239408 53.1663717,24.7083122 53.1730088,25.1503144 C52.61879,25.1503144 52.0103916,25.0697571 51.4845133,25.3632743 C50.8938053,25.6845133 50.8672566,26.6415929 51.4181416,27.0132743 C52.0569394,27.3018439 52.5795739,27.2548673 53.1783186,27.2548673 C53.1730088,27.7726365 53.1730088,28.2646667 53.1730088,28.7654867 C52.5584071,28.760177 51.8893002,28.8565185 51.3265487,28.7256637 C50.4623894,28.4721239 49.6632743,27.8110619 49.4575221,26.9057522 C49.3526549,26.1424779 49.3473451,25.2823009 49.8637168,24.6557522 Z" id="Path"></path>
            <path d="M2.85294524,7.16814159 L2.85294524,2.76531388 L4.45364353,2.76531388 L4.45364353,1.81796184 L0.119780144,1.81796184 L0.119780144,2.76531388 L1.72773783,2.76531388 L1.72773783,7.16814159 L2.85294524,7.16814159 Z M7.57518667,7.16814159 L9.40092644,1.81796184 L8.23942201,1.81796184 L7.06702848,5.87959762 L5.90552406,1.81796184 L4.71135232,1.81796184 L6.51894358,7.16814159 L7.57518667,7.16814159 Z" id="TV"></path>
        </g>
    </g>
</svg>
