<svg id="logosandtypes_com" xmlns="http://www.w3.org/2000/svg" x="0px" y="0px" width="30" height="30" viewBox="0 0 150 150"><path fill="none" d="M0 0h150v150H0V0z"/><path fill="#006FE8" d="M109.1811 17.8466h-68.38l-40.8 40.8 75 75 75-75-40.82-40.8zm-97.69 40.79l32.67-32.68h61.66l32.71 32.68-63.52 63.52-63.52-63.52z"/><path fill="#006FE8" d="M92.5282 42.2631c-2.78 0-4.22-1.96-4.22-4.74 0-1.13.82-1.24.82-2.57 0-.52-1.74-.61-2.46-.61-4.94 0-8.14 5.96-8.14 16.27v11.63h8.35v2.37h-8.35v36.04h8.35v2.37h-24.31v-2.37h7.94v-36.04h-7.94v-2.37h7.94v-5.04c0-17.62 7.3-25.03 17.2-25.03 4.02 0 8.65 1.85 8.65 6.69-.02 2.07-2.08 3.4-3.83 3.4M100.6768 66.9968c-2.06 0-3.73-1.66-3.73-3.72s1.67-3.73 3.73-3.73 3.73 1.67 3.73 3.73-1.67 3.72-3.73 3.72"/></svg>
