<svg version="1.1" id="Layer_2" xmlns="http://www.w3.org/2000/svg" xmlns:xlink="http://www.w3.org/1999/xlink" x="0px" y="0px"
	 width="70.5780346821" height="30" viewBox="0 0 407 173" style="enable-background:new 0 0 407 173;" xml:space="preserve">
<style type="text/css">
	.st0{fill:#0062FF;}
	.st1{fill:#FFFFFF;}
</style>
<rect y="54.9" class="st0" width="407" height="83"/>
<g>
	<path d="M168,19.7h22v-10c0-2.1-0.1-3.7-0.4-4.7c-0.2-1-0.7-1.9-1.3-2.5c-0.6-0.6-1.2-1-2-1.3c-0.7-0.3-1.7-0.4-2.9-0.5V0h19.8v0.7
		c-1.2,0.1-2.1,0.2-2.9,0.5c-0.7,0.3-1.4,0.7-2,1.3c-0.6,0.7-1.1,1.5-1.3,2.5c-0.2,1-0.4,2.6-0.4,4.7v22.9c0,2.1,0.1,3.7,0.4,4.7
		c0.2,1,0.7,1.9,1.3,2.5c0.6,0.6,1.2,1,2,1.3c0.7,0.3,1.7,0.4,2.9,0.5v0.7h-19.8v-0.7c1.2-0.1,2.2-0.2,2.9-0.5
		c0.7-0.3,1.4-0.7,2-1.3c0.6-0.7,1.1-1.5,1.3-2.5c0.2-1,0.4-2.6,0.4-4.7V21.2h-22v11.4c0,2.1,0.1,3.7,0.4,4.7c0.2,1,0.7,1.9,1.3,2.5
		c0.6,0.6,1.2,1,1.9,1.3c0.7,0.3,1.7,0.4,2.9,0.5v0.7h-19.8v-0.7c1.2-0.1,2.2-0.2,2.9-0.5c0.7-0.3,1.4-0.7,1.9-1.3
		c0.7-0.7,1.1-1.5,1.3-2.5c0.2-1,0.3-2.6,0.3-4.7V9.7c0-2.1-0.1-3.7-0.3-4.7c-0.2-1-0.7-1.9-1.3-2.5c-0.6-0.6-1.2-1-2-1.3
		c-0.7-0.3-1.7-0.4-2.9-0.5V0h19.8v0.7c-1.2,0.1-2.1,0.2-2.9,0.5c-0.7,0.3-1.4,0.7-2,1.3C169,3.2,168.6,4,168.3,5
		c-0.2,1-0.4,2.6-0.4,4.7V19.7z"/>
	<path d="M206.3,41.6c1.2-0.1,2.2-0.2,2.9-0.5c0.7-0.3,1.4-0.7,2-1.3c0.6-0.7,1.1-1.5,1.3-2.5c0.2-1,0.4-2.6,0.4-4.7V9.7
		c0-2.3-0.1-3.9-0.4-5s-0.8-1.9-1.6-2.6c-1-0.8-2.5-1.3-4.5-1.4V0h17.1c3.8,0,6.2,0,7.2,0.1c4.4,0.3,8.1,1.6,11.1,3.7
		c2.9,2,5.1,4.7,6.8,8c1.6,3.3,2.4,6.9,2.4,10.8c0,2.9-0.5,5.5-1.4,8.1c-0.9,2.5-2.2,4.6-3.8,6.3c-2.3,2.4-5.2,3.9-8.6,4.5
		c-2.6,0.5-5.2,0.7-7.8,0.7h-22.9V41.6z M219.6,1v30.8c0,2,0.1,3.6,0.3,4.6c0.2,1.1,0.7,2,1.3,2.7c1.3,1.6,3.5,2.4,6.5,2.4
		c2.5,0,4.7-0.4,6.5-1.3c1.8-0.8,3.4-2.2,4.9-4.1c1.4-1.8,2.5-3.9,3.2-6.2c0.7-2.3,1.1-4.8,1.1-7.5c0-2.9-0.4-5.7-1.3-8.4
		c-0.9-2.6-2.2-5-3.8-6.9c-2.3-2.7-5-4.6-8.2-5.5c-1.7-0.5-3.9-0.7-6.6-0.7H219.6z"/>
</g>
<g>
	<path d="M85.4,159.2l5.5,7.7c0.8-1.4,1.3-2.5,1.6-3.3c0.3-0.8,0.5-1.4,0.5-2c0-1.1-0.8-1.7-2.3-1.9v-0.3h6.4v0.3
		c-0.5,0-0.9,0.1-1.2,0.3c-0.3,0.1-0.6,0.3-0.9,0.6c-0.6,0.5-1.3,1.7-2.1,3.4l-0.5,1.1c-0.3,0.6-0.7,1.4-1.2,2.3
		c0.4,0.6,0.9,1.1,1.5,1.8c0.6,0.6,1.1,1.2,1.5,1.6c0.6,0.6,1.2,1,1.6,1.3c0.5,0.3,0.9,0.4,1.4,0.4c0.5,0,0.9-0.1,1.2-0.4
		c0.3-0.3,0.6-0.7,0.8-1.3l0.3,0.1c-0.6,1.9-1.7,2.8-3.6,2.8c-0.6,0-1.2-0.1-1.9-0.3c-0.7-0.2-1.3-0.6-1.8-1
		c-0.8-0.6-1.7-1.5-2.6-2.5c-0.5,0.7-0.9,1.2-1.2,1.6c-0.6,0.7-1.4,1.3-2.2,1.6c-0.9,0.4-1.8,0.6-2.7,0.6c-0.9,0-1.8-0.2-2.6-0.5
		c-0.8-0.3-1.5-0.8-2-1.4c-1-1-1.5-2.4-1.5-4c0-1.6,0.5-3,1.4-4.3c0.4-0.5,0.8-1,1.3-1.4c0.5-0.4,1.2-1,2.2-1.6l0.3-0.2
		c-0.7-1-1.2-1.7-1.5-2.3c-0.7-1.3-1-2.5-1-3.5c0-0.6,0.2-1.3,0.5-1.9c0.4-0.8,1-1.5,1.7-1.9c0.8-0.4,1.7-0.6,2.7-0.6
		c1.4,0,2.5,0.4,3.4,1.1c0.9,0.7,1.3,1.7,1.3,2.9c0,0.9-0.2,1.6-0.7,2.3c-0.5,0.7-1.2,1.3-2.2,2C86.2,158.7,85.7,159.1,85.4,159.2z
		 M83,160.7c-0.9,0.6-1.6,1.3-2.1,2.4c-0.5,1-0.8,2.1-0.8,3.4c0,0.9,0.1,1.7,0.4,2.5c0.3,0.8,0.6,1.5,1.1,2c0.4,0.5,0.9,0.9,1.5,1.2
		c0.6,0.3,1.2,0.4,1.9,0.4c1,0,1.9-0.3,2.7-1c0.3-0.2,0.6-0.5,0.8-0.8c0.2-0.3,0.5-0.7,0.9-1.3L83,160.7z M85.1,158.9
		c0.5-0.4,0.9-0.8,1.2-1.1c0.3-0.3,0.5-0.7,0.7-1.1c0.4-0.8,0.6-1.7,0.6-2.6c0-1.1-0.3-2-0.8-2.6c-0.5-0.7-1.2-1-2.1-1
		c-0.8,0-1.4,0.2-1.9,0.7c-0.5,0.5-0.7,1.1-0.7,1.9c0,0.5,0.1,0.9,0.3,1.4c0.2,0.5,0.6,1.1,1.1,2C83.9,157.3,84.5,158.1,85.1,158.9z
		"/>
	<path d="M117.4,173v-0.4c1.1,0,2-0.3,2.6-0.9c0.3-0.4,0.6-0.8,0.7-1.3c0.1-0.5,0.2-1.4,0.2-2.5v-12.2c0-1.2-0.1-2-0.2-2.6
		c-0.1-0.6-0.4-1-0.8-1.4c-0.3-0.3-0.7-0.5-1-0.6c-0.4-0.1-0.9-0.2-1.5-0.2v-0.4h10.6v0.4c-0.6,0-1.1,0.1-1.5,0.2
		c-0.4,0.1-0.7,0.3-1,0.6c-0.4,0.4-0.6,0.8-0.8,1.4c-0.1,0.6-0.2,1.4-0.2,2.6v9.5c0,1.5,0,2.6,0.1,3.3c0.1,0.7,0.2,1.3,0.4,1.8
		c0.4,0.8,1,1.4,1.7,1.7c0.8,0.4,1.8,0.6,3,0.6c1.3,0,2.4-0.2,3.3-0.5c0.9-0.3,1.6-0.9,2.2-1.6c0.4-0.5,0.7-1.1,1-1.7
		c0.2-0.6,0.5-1.5,0.7-2.5l0.4,0l-0.2,6.8H117.4z"/>
	<path d="M152.7,150.4v0.4c-0.6,0-1.1,0.1-1.5,0.3c-0.4,0.1-0.7,0.4-1.1,0.7c-0.4,0.4-0.7,1.1-0.8,1.8c-0.1,0.6-0.1,1.3-0.1,2v12.2
		c0,0.9,0,1.6,0.1,2.2c0.1,0.5,0.2,1,0.4,1.3c0.3,0.4,0.7,0.8,1.1,1c0.5,0.2,1.1,0.3,1.8,0.4v0.4h-10.6v-0.4c0.6,0,1.2-0.1,1.5-0.3
		c0.4-0.1,0.7-0.4,1-0.7c0.4-0.4,0.6-0.8,0.7-1.3c0.1-0.5,0.2-1.4,0.2-2.5v-12.2c0-1.1-0.1-2-0.2-2.5c-0.1-0.5-0.4-1-0.7-1.3
		c-0.3-0.3-0.6-0.6-1-0.7c-0.4-0.1-0.9-0.2-1.5-0.3v-0.4H152.7z"/>
	<path d="M165.5,161.2v6.6c0,1.1,0.1,2,0.2,2.5c0.1,0.5,0.4,1,0.7,1.3c0.3,0.3,0.6,0.6,1.1,0.7c0.4,0.1,0.9,0.2,1.5,0.3v0.4h-10.6
		v-0.4c0.5,0,1-0.1,1.5-0.3c0.5-0.2,0.8-0.4,1.1-0.7c0.3-0.3,0.5-0.8,0.7-1.4c0.1-0.6,0.2-1.4,0.2-2.5v-12.2c0-0.7,0-1.4-0.1-2.2
		c-0.1-1-0.6-1.7-1.4-2.2c-0.5-0.3-1.1-0.4-1.9-0.4v-0.4h17.3l0.5,5.4l-0.4,0.1c-0.3-0.8-0.5-1.5-0.8-1.9c-0.5-1-1.2-1.7-2.2-2.2
		c-0.5-0.3-1.2-0.5-1.9-0.6c-0.7-0.1-1.7-0.2-2.9-0.2h-2.6v9.8h0.7c2,0,3.4-0.4,4.3-1.3c0.4-0.4,0.7-0.8,0.9-1.3
		c0.2-0.5,0.3-1.2,0.4-2l0.4,0l-0.1,10h-0.4c-0.1-1.1-0.3-2-0.6-2.6c-0.3-0.6-0.7-1.1-1.3-1.5c-0.4-0.3-1-0.5-1.6-0.6
		C167.3,161.3,166.5,161.2,165.5,161.2z"/>
	<path d="M198.7,150.4l0.3,5.5l-0.4,0c-0.1-0.9-0.4-1.7-0.7-2.3c-0.3-0.6-0.8-1.1-1.4-1.6c-0.5-0.4-1.1-0.7-1.8-0.8
		c-0.7-0.2-1.6-0.2-2.8-0.2H188v9.9h1c1,0,1.8-0.1,2.3-0.2c0.5-0.1,0.9-0.4,1.2-0.7c0.3-0.3,0.5-0.7,0.7-1.1
		c0.1-0.4,0.3-1.1,0.4-1.9l0.4,0l-0.1,8.9h-0.4c-0.1-0.9-0.2-1.5-0.4-2.1c-0.2-0.5-0.5-1-0.8-1.3c-0.3-0.4-0.8-0.6-1.3-0.8
		c-0.5-0.2-1.2-0.2-2-0.2H188v3.8c0,1.5,0,2.6,0.1,3.3c0.1,0.7,0.2,1.3,0.4,1.7c0.4,0.8,0.9,1.4,1.7,1.7c0.8,0.4,1.8,0.6,3,0.6
		c1.3,0,2.4-0.2,3.3-0.5c0.9-0.3,1.6-0.9,2.2-1.6c0.4-0.5,0.7-1,1-1.6c0.2-0.6,0.5-1.4,0.7-2.4l0.4,0l-0.2,6.6h-19.7v-0.4
		c0.6,0,1.1-0.1,1.5-0.3c0.4-0.1,0.7-0.4,1.1-0.7c0.3-0.4,0.6-0.8,0.7-1.3c0.1-0.5,0.2-1.4,0.2-2.5v-12.2c0-1.1-0.1-2-0.2-2.5
		c-0.1-0.5-0.4-1-0.7-1.3c-0.3-0.3-0.6-0.6-1-0.7c-0.4-0.1-0.9-0.2-1.5-0.3v-0.4H198.7z"/>
	<path d="M206.9,172.9l0-6.8l0.4,0c0.5,1.7,1,3.1,1.7,4.1c1.2,1.8,2.7,2.8,4.5,2.8c1.3,0,2.3-0.4,3.1-1.3c0.8-0.9,1.2-1.9,1.2-3.2
		c0-0.6-0.1-1.1-0.3-1.7c-0.2-0.6-0.4-1.1-0.7-1.5c-0.3-0.4-0.8-0.8-1.3-1.2c-0.6-0.4-1.5-0.9-2.7-1.5c-1-0.5-1.9-1-2.4-1.3
		c-0.6-0.4-1-0.7-1.3-1.1c-0.9-1-1.4-2.3-1.4-3.8c0-0.9,0.2-1.8,0.6-2.6c0.4-0.8,0.9-1.6,1.5-2.2c1.2-1.1,2.6-1.6,4.2-1.6
		c0.5,0,1,0.1,1.4,0.2c0.4,0.1,1,0.3,1.8,0.6c0.6,0.2,0.9,0.4,1.1,0.4c0.2,0.1,0.4,0.1,0.5,0.1c0.4,0,0.6-0.3,0.8-0.8h0.4l0.1,6.6
		h-0.4c-0.3-1-0.6-1.9-0.8-2.4c-0.2-0.6-0.5-1.1-0.8-1.5c-0.5-0.9-1.1-1.5-1.8-1.9c-0.6-0.4-1.4-0.6-2.2-0.6c-1.2,0-2.2,0.4-2.9,1.3
		c-0.3,0.3-0.5,0.7-0.7,1.2c-0.2,0.5-0.3,0.9-0.3,1.4c0,1.8,1.2,3.3,3.6,4.5l2.3,1.1c1.8,0.9,3.1,1.8,3.9,2.8c0.9,1.1,1.4,2.5,1.4,4
		c0,1-0.2,2-0.6,2.9c-0.6,1.3-1.4,2.3-2.6,3c-1.1,0.7-2.5,1-4.1,1c-1.4,0-2.8-0.3-4.1-0.8c-0.7-0.3-1.1-0.5-1.2-0.5
		c-0.1,0-0.3-0.1-0.4-0.1c-0.5,0-0.9,0.3-1.1,0.8H206.9z"/>
	<path d="M236.6,150.9c-0.7,0-1.4,0-2.2,0.1c-1.7,0.1-3,0.3-3.8,0.6c-0.8,0.3-1.5,0.9-2.1,1.8c-0.5,0.8-0.9,1.8-1.1,3.1l-0.4,0
		l0.3-6.1h22.4l0.3,6.1l-0.4,0c-0.3-1.5-0.8-2.7-1.4-3.5c-0.6-0.8-1.6-1.4-2.8-1.7c-1-0.3-2.8-0.4-5.2-0.4v16.9c0,1.1,0.1,2,0.2,2.5
		c0.1,0.5,0.4,1,0.7,1.3c0.3,0.3,0.7,0.6,1.1,0.7c0.4,0.1,0.9,0.2,1.5,0.3v0.4h-10.6v-0.4c0.6,0,1.2-0.1,1.5-0.3
		c0.4-0.1,0.7-0.4,1-0.7c0.3-0.4,0.6-0.8,0.7-1.3c0.1-0.5,0.2-1.4,0.2-2.5V150.9z"/>
	<path d="M260.4,173v-0.4c0.6,0,1.1-0.1,1.5-0.3c0.4-0.1,0.8-0.4,1.1-0.7c0.3-0.4,0.6-0.8,0.7-1.3c0.1-0.5,0.2-1.4,0.2-2.5l0-3.2
		c0-0.5-0.1-1-0.3-1.5c-0.2-0.7-0.6-1.5-1.3-2.4l-4.3-6.4l-0.8-1.2c-0.6-0.8-1.1-1.4-1.7-1.7c-0.3-0.2-0.6-0.3-0.8-0.3
		c-0.3-0.1-0.7-0.1-1.2-0.1v-0.4h10.8v0.4c-0.9,0.1-1.5,0.1-1.8,0.2c-0.6,0.3-0.9,0.7-0.9,1.4c0,0.3,0.1,0.5,0.2,0.9
		c0.1,0.3,0.4,0.7,0.7,1.2l4.5,7l3.8-6l0.4-0.7c0.4-0.6,0.6-1.3,0.6-1.9c0-0.7-0.2-1.3-0.7-1.6c-0.5-0.4-1.1-0.6-1.9-0.6v-0.4h7.6
		v0.4c-0.6,0.1-1,0.2-1.3,0.3c-0.3,0.1-0.6,0.3-0.9,0.6c-0.8,0.7-1.6,1.8-2.5,3.2l-3.8,5.8c-0.5,0.7-0.7,1.2-0.8,1.5
		c-0.1,0.3-0.1,0.9-0.1,1.6v4.1c0,1.2,0.1,2,0.2,2.5c0.1,0.5,0.4,1,0.7,1.3c0.6,0.6,1.5,1,2.6,1v0.4H260.4z"/>
	<path d="M281.3,173v-0.4c1.1,0,2-0.3,2.6-0.9c0.3-0.4,0.6-0.8,0.7-1.3c0.1-0.5,0.2-1.4,0.2-2.5v-12.2c0-1.2-0.1-2-0.2-2.6
		c-0.1-0.6-0.4-1-0.8-1.4c-0.3-0.3-0.7-0.5-1-0.6c-0.4-0.1-0.9-0.2-1.5-0.2v-0.4h10.6v0.4c-0.6,0-1.1,0.1-1.5,0.2
		c-0.4,0.1-0.7,0.3-1,0.6c-0.4,0.4-0.6,0.8-0.8,1.4c-0.1,0.6-0.2,1.4-0.2,2.6v9.5c0,1.5,0,2.6,0.1,3.3c0.1,0.7,0.2,1.3,0.4,1.8
		c0.4,0.8,1,1.4,1.7,1.7c0.8,0.4,1.8,0.6,3,0.6c1.3,0,2.4-0.2,3.3-0.5c0.9-0.3,1.6-0.9,2.2-1.6c0.4-0.5,0.7-1.1,1-1.7
		c0.2-0.6,0.5-1.5,0.7-2.5l0.4,0l-0.2,6.8H281.3z"/>
	<path d="M323.9,150.4l0.3,5.5l-0.4,0c-0.1-0.9-0.4-1.7-0.7-2.3c-0.3-0.6-0.8-1.1-1.4-1.6c-0.5-0.4-1.1-0.7-1.8-0.8
		c-0.7-0.2-1.6-0.2-2.8-0.2h-3.8v9.9h1c1,0,1.8-0.1,2.3-0.2c0.5-0.1,0.9-0.4,1.2-0.7c0.3-0.3,0.5-0.7,0.7-1.1
		c0.1-0.4,0.3-1.1,0.4-1.9l0.4,0l-0.1,8.9h-0.4c-0.1-0.9-0.2-1.5-0.4-2.1c-0.2-0.5-0.5-1-0.8-1.3c-0.3-0.4-0.8-0.6-1.3-0.8
		c-0.5-0.2-1.2-0.2-2-0.2h-0.9v3.8c0,1.5,0,2.6,0.1,3.3c0.1,0.7,0.2,1.3,0.4,1.7c0.4,0.8,0.9,1.4,1.7,1.7c0.8,0.4,1.8,0.6,3,0.6
		c1.3,0,2.4-0.2,3.3-0.5c0.9-0.3,1.6-0.9,2.2-1.6c0.4-0.5,0.7-1,1-1.6c0.2-0.6,0.5-1.4,0.7-2.4l0.4,0l-0.2,6.6h-19.7v-0.4
		c0.6,0,1.1-0.1,1.5-0.3c0.4-0.1,0.7-0.4,1.1-0.7c0.3-0.4,0.6-0.8,0.7-1.3c0.1-0.5,0.2-1.4,0.2-2.5v-12.2c0-1.1-0.1-2-0.2-2.5
		c-0.1-0.5-0.4-1-0.7-1.3c-0.3-0.3-0.6-0.6-1-0.7c-0.4-0.1-0.9-0.2-1.5-0.3v-0.4H323.9z"/>
</g>
<g>
	<path class="st1" d="M29.3,95.1v16.8c0,2.9,0.2,5,0.5,6.4c0.3,1.4,0.9,2.5,1.8,3.4c0.8,0.8,1.7,1.4,2.7,1.8c1,0.4,2.3,0.6,3.9,0.7
		v1h-27v-1c1.4,0,2.6-0.2,3.8-0.7c1.2-0.4,2.2-1,2.8-1.8c0.8-0.9,1.4-2.1,1.7-3.6c0.3-1.5,0.5-3.6,0.5-6.3V80.8
		c0-1.8-0.1-3.7-0.3-5.6c-0.3-2.5-1.5-4.3-3.6-5.5c-1.2-0.6-2.8-1-4.9-1.1v-1h44.1l1.2,13.7l-1,0.2c-0.7-2.1-1.4-3.7-1.9-4.8
		c-1.3-2.4-3.2-4.3-5.6-5.7c-1.4-0.8-3-1.3-4.8-1.6c-1.8-0.3-4.3-0.5-7.4-0.5h-6.5v24.9H31c5,0,8.6-1.1,10.9-3.3
		c1-1,1.7-2.1,2.2-3.4c0.5-1.3,0.8-3,1-5.1l1,0l-0.3,25.6h-1c-0.3-2.9-0.8-5.1-1.6-6.7c-0.7-1.6-1.9-2.8-3.4-3.8
		c-1.1-0.7-2.5-1.2-4.2-1.5C34,95.2,31.9,95.1,29.3,95.1z"/>
	<path class="st1" d="M117.1,125.2H89.3v-1c2.5-0.2,4.3-0.6,5.2-1.3c1.7-1.1,2.6-2.6,2.6-4.6c0-1.2-0.4-2.7-1.2-4.6l-0.7-1.8
		l-4.1-10H72.7l-2.2,5.8l-1.1,2.6c-1.3,3.1-1.9,5.5-1.9,7.3c0,1,0.2,2,0.7,2.9c0.5,0.9,1.1,1.6,1.9,2.2c1.1,0.8,2.5,1.2,4.2,1.4v1
		H55.4v-1c1.5-0.1,2.8-0.4,3.9-1.1c1.1-0.6,2.2-1.7,3.3-3.1c0.9-1.2,1.8-2.6,2.6-4.5c0.9-1.8,2-4.5,3.4-8.2l15.5-39.8h2.4l18.4,44.4
		c1.4,3.4,2.5,5.7,3.3,7.2c0.8,1.4,1.7,2.5,2.7,3.3c0.7,0.5,1.4,0.9,2.3,1.2c0.9,0.3,2.2,0.5,3.9,0.7V125.2z M90.6,100.3l-8.9-21.9
		l-8.4,21.9H90.6z"/>
	<path class="st1" d="M120.3,125l0.1-17.4l1,0c1.2,4.4,2.6,7.9,4.2,10.5c3.1,4.7,6.9,7.1,11.6,7.1c3.2,0,5.9-1.1,8-3.3
		c2.1-2.2,3.2-4.9,3.2-8.2c0-1.4-0.2-2.9-0.7-4.4c-0.5-1.5-1.1-2.8-1.9-3.8c-0.8-1.1-2-2.2-3.4-3.2c-1.5-1-3.7-2.3-6.8-3.8
		c-2.7-1.4-4.7-2.5-6.1-3.4c-1.4-0.9-2.6-1.9-3.4-2.8c-2.4-2.6-3.6-5.9-3.6-9.7c0-2.3,0.5-4.6,1.4-6.8c0.9-2.2,2.3-4,3.9-5.6
		c3-2.8,6.5-4.1,10.6-4.1c1.3,0,2.5,0.1,3.7,0.4c1.1,0.3,2.6,0.8,4.5,1.6c1.4,0.6,2.4,0.9,2.9,1.1c0.5,0.2,1,0.2,1.4,0.2
		c1,0,1.6-0.7,2-2.2h1L154,84h-1c-0.8-2.7-1.4-4.7-2-6.1c-0.5-1.4-1.2-2.7-2-3.9c-1.4-2.2-2.9-3.8-4.6-4.9c-1.7-1.1-3.6-1.6-5.7-1.6
		c-3.1,0-5.6,1.1-7.5,3.2c-0.8,0.9-1.4,1.9-1.8,3.1c-0.4,1.2-0.7,2.4-0.7,3.6c0,4.7,3,8.5,9.1,11.4l5.9,2.9c4.6,2.2,7.9,4.6,9.9,7.2
		c2.3,2.9,3.5,6.3,3.5,10.2c0,2.6-0.5,5.1-1.6,7.4c-1.5,3.3-3.7,5.8-6.6,7.6c-2.9,1.8-6.4,2.7-10.3,2.7c-3.6,0-7.1-0.7-10.5-2.2
		c-1.7-0.8-2.8-1.2-3.1-1.3c-0.3-0.1-0.7-0.2-1.1-0.2c-1.4,0-2.3,0.7-2.8,2H120.3z"/>
	<path class="st1" d="M181.1,94.3h30V80.8c0-2.9-0.2-5-0.5-6.4c-0.3-1.4-0.9-2.5-1.8-3.4c-0.8-0.8-1.7-1.4-2.7-1.8
		c-1-0.4-2.3-0.6-3.9-0.7v-1h27v1c-1.6,0.1-2.9,0.3-3.9,0.7c-1,0.4-1.9,1-2.7,1.8c-0.9,0.9-1.5,2-1.8,3.4c-0.3,1.4-0.5,3.5-0.5,6.4
		v31.1c0,2.9,0.2,5,0.5,6.4c0.3,1.4,0.9,2.5,1.8,3.5c0.8,0.8,1.7,1.4,2.7,1.8c1,0.4,2.3,0.6,3.9,0.7v1h-27v-1
		c1.6-0.1,2.9-0.3,3.9-0.7c1-0.4,1.9-1,2.7-1.8c0.9-0.9,1.5-2,1.8-3.4c0.3-1.4,0.5-3.5,0.5-6.4V96.3h-30v15.6c0,2.9,0.2,5,0.5,6.4
		c0.3,1.4,0.9,2.5,1.8,3.4c0.8,0.8,1.6,1.4,2.6,1.8c1,0.4,2.3,0.6,3.9,0.7v1h-27v-1c1.6-0.1,2.9-0.3,3.9-0.7c1-0.4,1.9-1,2.6-1.8
		c0.9-0.9,1.5-2,1.8-3.4c0.3-1.4,0.5-3.5,0.5-6.4V80.8c0-2.9-0.2-5-0.5-6.4c-0.3-1.4-0.9-2.5-1.8-3.4c-0.8-0.8-1.6-1.4-2.7-1.8
		c-1-0.4-2.3-0.6-3.9-0.7v-1h27v1c-1.6,0.1-2.9,0.3-3.9,0.7c-1,0.4-1.9,1-2.7,1.8c-0.9,0.9-1.5,2-1.8,3.4c-0.3,1.4-0.5,3.5-0.5,6.4
		V94.3z"/>
	<path class="st1" d="M260.3,67.5v1c-1.6,0.1-2.9,0.3-3.9,0.7c-1,0.4-1.9,1-2.7,1.8c-1.1,1.1-1.8,2.7-2,4.7
		c-0.2,1.5-0.3,3.2-0.3,5.2v31.1c0,2.3,0.1,4.2,0.3,5.5c0.2,1.4,0.6,2.4,1.1,3.3c0.7,1.1,1.7,2,2.8,2.5c1.2,0.5,2.7,0.9,4.6,1v1h-27
		v-1c1.6-0.1,2.9-0.3,3.9-0.7c1-0.4,1.9-1,2.6-1.8c0.9-0.9,1.5-2,1.8-3.4c0.3-1.4,0.5-3.5,0.5-6.4V80.8c0-2.9-0.2-5-0.5-6.4
		c-0.3-1.4-0.9-2.5-1.8-3.4c-0.8-0.8-1.6-1.4-2.7-1.8c-1-0.4-2.3-0.6-3.9-0.7v-1H260.3z"/>
	<path class="st1" d="M266.4,96.7c0-4.7,1-9.1,3-13.2c2-4,5-7.6,8.9-10.6c2.9-2.2,6-3.9,9.4-5.1c3.3-1.2,6.7-1.8,10.1-1.8
		c4.3,0,8.5,1,12.6,2.9c4.1,1.9,7.6,4.6,10.6,8.1c5,5.6,7.4,12,7.4,19.2c0,3.6-0.6,7.1-1.9,10.4c-1.3,3.4-3.2,6.4-5.7,9.2
		c-3,3.4-6.6,6.1-10.8,8c-4.2,1.9-8.5,2.8-13,2.8c-4.5,0-8.8-0.9-12.8-2.7c-4.1-1.8-7.6-4.4-10.6-7.8c-2.3-2.6-4.1-5.6-5.4-8.9
		C267.1,103.8,266.4,100.3,266.4,96.7z M276.7,97.4c0,8.2,2.2,15.1,6.7,20.7c2,2.5,4.1,4.3,6.4,5.5c2.2,1.1,4.8,1.7,7.7,1.7
		c3,0,5.6-0.6,7.8-1.7c2.2-1.1,4.4-3,6.4-5.5c4.4-5.6,6.7-12.6,6.7-20.8c0-4.5-0.6-8.8-1.8-12.9c-1.2-4-3-7.5-5.2-10.3
		c-1.8-2.3-3.8-4-6-5c-2.2-1.1-4.8-1.6-7.8-1.6c-3,0-5.6,0.5-7.7,1.6c-2.2,1-4.2,2.7-6.1,5.1c-2.2,2.8-3.9,6.2-5.2,10.3
		C277.3,88.4,276.7,92.7,276.7,97.4z M294.3,60.7l8.3-10.4h8.4l-14.7,10.4H294.3z"/>
	<path class="st1" d="M345.2,75.2v36.7c0,2.9,0.2,5,0.5,6.4c0.3,1.4,0.9,2.5,1.8,3.4c0.8,0.8,1.7,1.4,2.7,1.8c1,0.4,2.3,0.6,3.9,0.7
		v1h-19.5v-1c1.6-0.1,2.9-0.3,3.9-0.7c1-0.4,1.9-1,2.7-1.8c0.9-0.9,1.5-2,1.8-3.4c0.3-1.4,0.5-3.5,0.5-6.4V80.7c0-2.8-0.2-5-0.5-6.4
		c-0.3-1.4-0.9-2.5-1.8-3.4c-0.8-0.8-1.6-1.4-2.6-1.8c-1-0.4-2.3-0.6-3.9-0.7v-1h16.3l34.3,43.7V80.8c0-2.9-0.2-5-0.5-6.4
		c-0.3-1.4-0.9-2.5-1.8-3.4c-0.8-0.8-1.7-1.4-2.7-1.8c-1-0.4-2.3-0.6-3.9-0.7v-1h19.5v1c-2.8,0-5,0.8-6.6,2.4
		c-0.9,0.9-1.5,2-1.8,3.4c-0.3,1.4-0.5,3.5-0.5,6.4v44.4H385L345.2,75.2z"/>
</g>
</svg>
