<svg width="66px" height="31px" viewBox="0 0 66 31" version="1.1" xmlns="http://www.w3.org/2000/svg" xmlns:xlink="http://www.w3.org/1999/xlink">
    <title>Love Nature 4K</title>
    <g id="Page-1" stroke="none" stroke-width="1" fill="none" fill-rule="evenodd">
        <g id="SVG-Layer" transform="translate(0.500000, 1.000000)" fill-rule="nonzero">
            <g id="#5da647ff" transform="translate(38.697495, 0.000000)" fill="#5DA647">
                <path d="M10.5109774,0.530805704 C10.7597374,0.323375115 10.9537974,0.0388988764 11.3727533,0.0418621704 C12.8534677,0.030008994 14.341016,0.0388988764 15.8246919,0.0418621704 L15.7299632,0.409637778 C15.238366,0.676334253 14.7043609,0.945666885 14.325298,1.36349136 C13.1762635,2.57844196 11.9413476,3.70745703 10.798236,4.92833423 C8.73412002,6.83669564 6.77069261,8.85173566 4.73915232,10.7956566 C3.16959494,10.7956566 1.60003757,10.7808402 0.0334416339,10.8223263 C3.52792785,7.39675826 7.03425978,3.98008009 10.5109774,0.530805704 Z" id="Path"></path>
                <path d="M18.4209543,10.0815027 C19.3449201,9.23103733 20.206696,8.31537942 21.1395461,7.47676717 C22.424291,7.47676717 23.702622,7.47676717 24.9843211,7.47676717 C23.3737883,9.02014922 17.6012549,14.524526 17.4588397,14.6701933 C17.7592425,13.2431191 18.1263371,11.4855971 18.4209543,10.0815027 Z" id="Path"></path>
            </g>
            <g id="#468434ff" transform="translate(46.528226, 0.380057)" fill="#468434">
                <path d="M6.52995007,0.999634887 C6.90768312,0.578851423 7.40935988,0.313250513 7.89923242,0.0446653223 C7.24410163,3.50941427 6.40533808,6.9353676 5.66462715,10.3822109 L1.61056709,10.3822109 L3.01526193,4.58972361 C4.15436321,3.36020028 5.38494673,2.22318964 6.52995007,0.999634887 Z" id="Path"></path>
                <path d="M10.2355778,13.6992364 L12.1444257,11.8825776 C13.4133196,13.8981406 14.7842817,15.7859767 16.1656458,17.7333119 C15.162066,17.7532117 14.1556024,17.747526 13.1549064,17.7418404 C12.1686298,16.365913 11.2246327,15.1095614 10.2355778,13.6992364 Z" id="Path"></path>
                <path d="M0.675808371,14.0448856 C2.01237483,14.0533408 3.36869451,14.0448856 4.73027978,14.0448856 C4.34837263,15.8755963 4.0640607,17.2064076 3.87734402,18.0373195 C3.09726392,18.4894663 2.77692824,18.8175353 2.31951711,19.4416924 C1.77652583,18.5285167 1.01515761,17.7567757 0.020657277,17.4093384 L0.675808371,14.0448856 Z" id="Path"></path>
            </g>
            <g id="#78cb5cff" transform="translate(38.697495, 3.268489)" fill="#78CB5C">
                <path d="M16.9088989,0.0682669381 C17.8675175,0.0506565317 18.8291225,0.0535915995 19.7907274,0.0535915995 C19.4263926,1.51916875 18.4299469,6.07635057 16.8013903,13.7251371 C15.8308262,13.7662281 14.8572759,13.7574228 13.8837255,13.7456826 C14.0629066,13.0676819 14.2122241,12.3838112 14.364528,11.6999404 C15.2036926,11.6793949 16.0458435,11.68233 16.8850081,11.6793949 C17.1627387,10.038692 16.6879089,8.23949551 15.1827881,7.32081931 C15.8218672,4.91699884 16.3205878,2.48089261 16.9088989,0.0682669381 Z" id="Path"></path>
                <path d="M0.0217175639,7.5636119 C1.57616134,7.52414632 3.13354358,7.53824118 4.6909258,7.53824118 C7.68227507,7.52696527 10.655827,7.55383761 13.6542467,7.53824118 C15.4672747,7.64536201 16.6239999,9.45232152 16.3184004,11.0929618 C11.2965773,11.0957808 6.27769262,11.0901429 1.25586952,11.1070567 C0.806285595,9.93718431 0.474239948,8.73066529 0.0217175639,7.5636119 Z" id="Path"></path>
            </g>
            <g id="love_nature_logo_white" transform="translate(0.000000, 7.601137)" fill="#FFFFFF">
                <path d="M11.3420911,0.028842988 C12.6325925,-0.0889666856 13.9728789,0.151197249 15.0944664,0.803170665 C15.900274,1.2691656 16.5720175,1.96623531 16.9670979,2.80174012 C17.3668013,3.63514742 17.4969538,4.57657607 17.4279658,5.49073717 C17.3358634,6.65869598 16.8714394,7.81232187 16.0528298,8.67264711 C15.5780932,9.17464916 14.9881396,9.5682803 14.3419999,9.82487467 C13.4561805,10.1793524 12.4828815,10.2796829 11.5337639,10.2171075 C10.3631025,10.1454428 9.1814172,9.79131463 8.26074819,9.05753867 C7.37884042,8.36781023 6.79884384,7.3449286 6.59401366,6.26156903 C6.37567035,5.09640687 6.46599478,3.84979175 6.9887385,2.77132634 C7.38879746,1.9365207 8.05627358,1.23280891 8.86741537,0.770659391 C9.61845936,0.336476557 10.4776082,0.104003462 11.3420911,0.028842988 M11.6927206,2.33714351 C11.1742442,2.40076772 10.6938179,2.68532877 10.3855057,3.09888617 C9.97335614,3.64213909 9.82364518,4.33431463 9.81119888,5.00097056 C9.80159749,5.66762649 9.90650184,6.36154994 10.2663771,6.93836286 C10.5273933,7.36345651 10.9569677,7.69066678 11.451974,7.80288313 C11.9914313,7.92838362 12.5927644,7.86196274 13.0568328,7.55048377 C13.5084549,7.25158978 13.7972085,6.76636773 13.9533204,6.26261777 C14.1634847,5.5774339 14.1631291,4.83946292 14.0123514,4.14239322 C13.887533,3.59109989 13.6329177,3.03840821 13.1688493,2.68497919 C12.756344,2.36650853 12.2044405,2.26827554 11.6927206,2.33714351 Z" id="Shape"></path>
                <path d="M30.882672,0.16068821 C31.6218355,-0.00837000568 32.3899089,-0.0338684555 33.1440627,0.0370381927 C33.916062,0.113882836 34.6844923,0.326602781 35.346206,0.730735747 C36.2349154,1.26655249 36.8869926,2.13978707 37.1964348,3.11012534 C37.4466297,3.89149564 37.5251502,4.72246568 37.4651891,5.53736818 C35.132773,5.53422455 32.800357,5.53666958 30.467941,5.53632029 C30.4815036,5.80702302 30.5703746,6.06759623 30.6660268,6.31943709 C30.8605435,6.80425692 31.1614198,7.2747557 31.623977,7.55244433 C32.4316675,8.03551767 33.5355945,8.04390075 34.3125906,7.49481084 C34.6188206,7.29815838 34.8151219,6.97087009 35.1466926,6.80844844 C35.3886785,6.68479842 35.6831304,6.69527724 35.9308269,6.79762032 C36.405876,6.98938266 36.8748576,7.19476741 37.3538327,7.37640022 C36.9248252,8.26430515 36.2538317,9.05440781 35.3836817,9.55599372 C34.8286845,9.88013843 34.2055172,10.087619 33.5666458,10.1784354 C32.9195654,10.2692517 32.2610639,10.2381646 31.6132697,10.1676072 C30.556455,10.04256 29.4917883,9.69850562 28.6801717,9.00236303 C28.2069072,8.59997653 27.8342917,8.08895964 27.5855245,7.52694586 C27.2664457,6.81683148 27.1301055,6.03860483 27.1133307,5.26596689 C27.084064,4.07487491 27.3710207,2.8404705 28.1119688,1.87572093 C28.7768947,0.992007535 29.7955199,0.399255898 30.882672,0.16068821 M31.1896158,2.27007367 C30.8095052,2.59491694 30.5864356,3.0612242 30.4736515,3.53556523 C30.3412374,4.06439609 30.3747871,4.6138353 30.4079798,5.1520971 C30.7316985,4.88209296 31.0282919,4.57611157 31.3955537,4.36059725 C31.8952297,4.0689369 32.4755676,3.95576571 33.0412722,3.85761414 C33.287898,3.81150736 33.5512986,3.80766512 33.7754389,3.68471369 C33.9735248,3.5823706 34.1187877,3.38711535 34.1487683,3.1688067 C34.1973082,2.84675779 34.0499038,2.51981876 33.8164838,2.29662 C33.5273855,2.00915118 33.1237187,1.85196895 32.7175535,1.81634098 C32.1746913,1.76185114 31.6014916,1.91274608 31.1896158,2.27007367 Z" id="Shape"></path>
                <path d="M0.0106724594,0.116457774 C1.05799647,0.116457774 2.10532048,0.11610625 3.15264449,0.116457774 C3.14873126,2.65903421 3.14410652,5.20161063 3.13948179,7.74453859 C3.8716125,7.74453859 4.6037432,7.74348403 5.33587394,7.74489013 C5.83249903,7.74735079 6.35189204,7.88374229 6.72258216,8.22436949 C7.00931556,8.4816854 7.17509443,8.85922268 7.18185364,9.24062672 C7.18647839,9.55242891 7.18327662,9.86458264 7.1903916,10.1763848 C4.793713,10.1746272 2.39667862,10.1756818 0,10.1725181 C0.000355748645,6.8203808 0.00889371613,3.46824352 0.0106724594,0.116457774 Z" id="Path"></path>
                <path d="M16.7972263,0.11665236 C17.9713846,0.115950722 19.1451878,0.117003179 20.3193461,0.116301541 C21.0243383,2.1794676 21.7257789,4.24403694 22.4307711,6.3075538 C23.1492594,4.24403694 23.8663271,2.18016923 24.5841051,0.11665236 C25.681904,0.116301541 26.7797029,0.11665236 27.8775019,0.11665236 C26.4937993,3.46977958 25.1093864,6.82290679 23.7253286,10.1763848 C22.7806036,10.1763848 21.8358785,10.1763848 20.8911534,10.1763848 C19.5262743,6.82325759 18.1621054,3.46977958 16.7972263,0.11665236 Z" id="Path"></path>
                <path d="M11.2384766,11.7980674 C12.6650286,11.3237543 14.1450985,10.9255136 15.6613195,10.9323448 C16.4236831,10.9318237 17.2044767,10.9721386 17.9239551,11.245228 C18.5739666,11.4867666 19.1211955,11.963183 19.4890864,12.5416136 C19.8119657,13.0506325 19.9501906,13.6564071 19.9537348,14.253067 C19.9629498,15.9911633 19.9462919,17.7296101 19.9633042,19.4677064 C19.9725192,20.0082761 19.9920125,20.5488458 20.0387963,21.0873121 C20.0260371,21.097829 20.0001642,21.1188628 19.987405,21.1293798 C18.946465,21.1374427 17.9048162,21.130782 16.8638763,21.1325348 C16.8131938,21.1402472 16.7589671,21.1086965 16.763929,21.0536579 C16.7213983,20.6052866 16.7217527,20.1548118 16.7068669,19.7050382 C16.4251008,19.9854894 16.1440435,20.268044 15.8403031,20.5260591 C15.1895827,21.0988807 14.2659567,21.2100095 13.4288099,21.1539192 C12.7887222,21.1104493 12.1504066,20.9022143 11.6449996,20.5043242 C11.0726067,20.0580562 10.6838048,19.4060071 10.5058845,18.7115399 C10.3758114,18.2368762 10.4318102,17.7317135 10.5622378,17.2630095 C10.724209,16.7028082 11.0676448,16.2011511 11.5166985,15.8263982 C12.0600288,15.3678605 12.7305969,15.0737373 13.4266834,14.9289544 C14.4995213,14.7028406 15.6127636,14.7077485 16.6958798,14.8605944 C16.6653995,14.4767269 16.5913251,14.0693715 16.3294066,13.7689382 C16.0685514,13.4642981 15.6666358,13.3254747 15.2781884,13.2690339 C14.7086308,13.1898064 14.1263141,13.2315236 13.5670348,13.357376 C13.1676003,13.4383563 12.7614317,13.5810359 12.3499467,13.5070669 C12.0582567,13.4506261 11.8689949,13.1968177 11.7414027,12.9507218 C11.5482422,12.5780723 11.4015111,12.1843889 11.2384766,11.7980674 M15.0903443,16.8444361 C14.7125295,16.8829981 14.3315249,17.0214709 14.0582649,17.2893018 C13.6956903,17.6419692 13.6141731,18.2463415 13.8845977,18.6747307 C14.0639357,18.9555324 14.3864605,19.10943 14.7065043,19.1746349 C15.3788445,19.3134583 16.0781208,19.1725315 16.701905,18.9113614 C16.701905,18.0728123 16.7015506,17.2342632 16.7022594,16.3957142 C16.2110294,16.6733608 15.6443072,16.7736221 15.0903443,16.8444361 Z" id="Shape"></path>
                <path d="M52.1154757,11.2221204 C52.9235865,10.9940129 53.7766715,10.9496489 54.6115527,11.0230067 C55.3190066,11.0890286 56.0232478,11.266135 56.6493194,11.6014845 C57.5802175,12.0912345 58.2887421,12.9425332 58.6435396,13.9119028 C58.9480088,14.7460847 59.0408133,15.6469872 58.9779919,16.5272796 C56.6450364,16.5279782 54.3120805,16.5272796 51.9791251,16.5279782 C52.0012553,16.8511014 52.1126202,17.1616491 52.2411184,17.4578744 C52.4499281,17.9235212 52.7740288,18.3650647 53.244475,18.6043506 C53.8298556,18.9110556 54.5415925,18.9910504 55.1780153,18.7982245 C55.552802,18.6864413 55.8943928,18.4754506 56.1645958,18.1984379 C56.3305729,18.0297152 56.5040452,17.8554033 56.7314156,17.7677234 C56.9552166,17.6772489 57.2118558,17.6961123 57.4335153,17.7848402 C57.9121711,17.9776662 58.3851156,18.1841157 58.8673406,18.3685579 C58.4029625,19.3260506 57.6555315,20.1693148 56.6871551,20.6622087 C55.9622111,21.037381 55.1408937,21.2211246 54.3227889,21.2250312 C53.5803549,21.2267137 52.8332807,21.1585959 52.1158329,20.9664685 C51.5254549,20.8085748 50.9557797,20.5619532 50.4621329,20.2052951 C50.0034658,19.8762334 49.6169004,19.4525053 49.331706,18.9707897 C48.9908287,18.3975517 48.7895148,17.7520039 48.6938552,17.0977231 C48.5810624,16.291487 48.5985524,15.4625449 48.7859458,14.6681858 C49.01867,13.6600414 49.577994,12.7140764 50.4110906,12.0695766 C50.9122331,11.6769382 51.4986845,11.3932884 52.1154757,11.2221204 M53.1966451,12.9558075 C52.6715875,13.1681955 52.2896624,13.6317463 52.1019123,14.1473461 C51.8509836,14.7820649 51.8724004,15.4751206 51.9202299,16.1423263 C52.1907902,15.916664 52.4420752,15.6679465 52.731553,15.4642916 C53.2562542,15.0936605 53.9048129,14.9605686 54.5305274,14.8519294 C54.8075125,14.799531 55.1109109,14.799531 55.3518448,14.6367468 C55.5735043,14.4977165 55.6920081,14.2329301 55.6688071,13.9789728 C55.64632,13.6359382 55.42823,13.3327263 55.1498173,13.1357085 C54.5929919,12.7413235 53.821646,12.7008021 53.1966451,12.9558075 Z" id="Shape"></path>
                <path d="M0.000157513624,11.0489973 C0.80040548,11.0486464 1.60100786,11.0489973 2.40125582,11.0486464 C3.83624432,12.8248634 5.26981518,14.6017822 6.7048037,16.3776483 C6.70515808,14.6014313 6.7048037,12.8252143 6.70515808,11.0489973 C7.67233113,11.0489973 8.63950415,11.0486464 9.6066772,11.0489973 C9.6066772,14.4021244 9.60703158,17.7552516 9.6066772,21.1087297 C8.93401525,21.1083788 8.26170772,21.1090805 7.5890458,21.1083788 C6.02718007,19.2574217 4.46460553,17.4071664 2.90203101,15.5569111 C2.90167661,17.4075173 2.90203101,19.2581235 2.90167661,21.1087297 C1.93450358,21.1087297 0.967330543,21.1087297 0.000157513624,21.1083788 C0.000157513624,17.7552516 -0.00019689203,14.4021244 0.000157513624,11.0489973 Z" id="Path"></path>
                <path d="M20.5104554,11.0491741 C23.4677039,11.0488224 26.4253081,11.0491741 29.3825566,11.0491741 C29.8690303,11.0519883 30.3597715,11.0308818 30.8416223,11.1117901 C31.1801625,11.1687777 31.5389725,11.2795868 31.7647845,11.5518607 C31.9991312,11.836095 32.037537,12.2198816 32.0546063,12.5730637 C32.0688307,13.0708254 32.0567399,13.5692907 32.0620741,14.0670524 C31.9422337,13.8257347 31.7085983,13.6572344 31.4518482,13.5801957 C30.9667969,13.4313949 30.4522299,13.4746632 29.9518874,13.4753668 C28.8007795,13.478181 27.6496715,13.4753668 26.498208,13.4764221 C26.4985636,16.0011117 26.5014085,18.5258013 26.504609,21.0506274 C25.4296015,21.0506274 24.354594,21.0508427 23.2795865,21.0501392 C23.2778085,18.5258013 23.2738968,16.0011117 23.2728299,13.4764221 C22.352157,13.4760703 21.4311284,13.4767738 20.5104554,13.4760703 C20.5104554,12.6669877 20.5100998,11.8582568 20.5104554,11.0491741 Z" id="Path"></path>
                <path d="M35.4782999,11.0486464 C36.5376555,11.0489983 37.5970111,11.0486464 38.6563666,11.0489983 C38.6599049,13.0515099 38.6623817,15.0543734 38.6630893,17.0572369 C38.6577819,17.7159439 38.5979853,18.3859109 38.3651677,19.0076712 C38.1355345,19.6188753 37.7031589,20.1509079 37.1511901,20.5034851 C36.5001499,20.9243257 35.730578,21.1217267 34.9670211,21.2149731 C34.1617127,21.3054046 33.3436666,21.3110346 32.5397735,21.2008982 C31.669715,21.0766869 30.7925799,20.7987069 30.1047418,20.2364132 C29.6766121,19.886651 29.3433078,19.4246412 29.1487035,18.9087948 C28.9438381,18.3764103 28.8812109,17.8010973 28.8858106,17.2342292 C28.8836876,16.1585521 28.8805032,15.0825232 28.8794417,14.0068462 C29.4335335,14.0064943 29.9872715,14.0068462 30.5410095,14.0068462 C30.8654681,13.9994569 31.2026644,14.0219767 31.4984631,14.1669486 C31.7231427,14.2721588 31.9067785,14.4653372 31.987097,14.7003887 C32.0783842,14.9488113 32.0490166,15.216587 32.056447,15.475214 C32.0557393,15.9569287 32.0836916,16.4379397 32.0819225,16.9196543 C32.0893528,17.3989059 32.1084594,17.9122892 32.3816132,18.3267961 C32.6158462,18.7011895 33.0365455,18.9323703 33.4713978,18.9826882 C33.8775903,19.0256167 34.3131503,19.0143568 34.6797142,18.8148446 C35.1273044,18.5724038 35.4082423,18.0861147 35.457778,17.5889176 C35.5012986,17.1557614 35.4782999,16.7197902 35.4828997,16.2852266 C35.4832535,14.5395826 35.4772385,12.7942904 35.4782999,11.0486464 Z" id="Path"></path>
                <path d="M39.6650292,11.0492802 C41.3864107,11.0510389 43.1074377,11.0450596 44.8284642,11.0524458 C45.5144631,11.0640527 46.2231631,11.1509283 46.8339643,11.4822519 C47.3152983,11.7386584 47.7079566,12.1512301 47.9420615,12.6408292 C48.2439153,13.2668971 48.3173392,14.0016476 48.1257983,14.6709775 C47.9221981,15.4060797 47.4011372,16.043051 46.7275528,16.4074366 C47.6930588,17.9747167 48.6599837,19.5412933 49.6254896,21.1085734 C48.4620586,21.1089251 47.2989819,21.1085734 46.1355508,21.1085734 C45.3974104,19.8740237 44.6649456,18.6363086 43.9190016,17.4063314 C43.7994661,17.2030352 43.6363022,17.0095873 43.4103552,16.9202495 C43.2145582,16.8390013 42.9900302,16.8527186 42.7960069,16.9311529 C42.7952974,18.3236264 42.7960069,19.7160999 42.7956522,21.1085734 C41.752111,21.1085734 40.7085702,21.1089251 39.6653838,21.1085734 C39.6650292,17.7555929 39.6653838,14.4026124 39.6650292,11.0492802 M42.7956522,16.6849465 C43.048202,16.2526782 43.3195511,15.8179479 43.7015677,15.4855692 C43.9995197,15.2580041 44.3439379,15.0983216 44.6883561,14.9520046 C44.9001148,14.8552806 45.0700181,14.6727361 45.1508909,14.4557227 C45.2785844,14.1229922 45.1980667,13.7156964 44.9391322,13.4663244 C44.7185061,13.2647868 44.4021093,13.2387593 44.1172814,13.2204696 C43.677093,13.208511 43.2361954,13.2176558 42.7956522,13.2148421 C42.7956522,14.371309 42.7956522,15.5281278 42.7956522,16.6849465 Z" id="Shape"></path>
            </g>
        </g>
    </g>
</svg>
