<svg width="65px" height="31px" viewBox="0 0 65 31" version="1.1" xmlns="http://www.w3.org/2000/svg" xmlns:xlink="http://www.w3.org/1999/xlink">
    <title>Love Nature 4K</title>
    <g id="Page-1" stroke="none" stroke-width="1" fill="none" fill-rule="evenodd">
        <g id="lovenature4k" transform="translate(1.000000, 1.000000)" fill-rule="nonzero">
            <g id="#5da647ff" transform="translate(38.312861, 0.000000)" fill="#5DA647">
                <path d="M10.4065034,0.525529751 C10.6527908,0.320160922 10.844922,0.0385122404 11.2597136,0.0414460806 C12.7257105,0.0297107191 14.1984732,0.0385122404 15.6674021,0.0414460806 L15.573615,0.405566176 C15.086904,0.669611817 14.5582066,0.936267413 14.1829114,1.34993891 C13.0452978,2.55281349 11.8226564,3.67060669 10.6909068,4.87934896 C8.64730708,6.76874218 6.70339519,8.76375368 4.69204743,10.688353 C3.1380907,10.688353 1.58413397,10.6736838 0.0331092401,10.7147576 C3.49286195,7.32323805 6.96434263,3.94052001 10.4065034,0.525529751 Z" id="Path"></path>
                <path d="M18.2378589,9.98129745 C19.1526409,9.13928527 20.0058511,8.23272856 20.9294292,7.40245171 C22.2014043,7.40245171 23.4670294,7.40245171 24.735989,7.40245171 C23.1414641,8.93049329 17.4263069,14.3801592 17.2853073,14.5243786 C17.5827242,13.1114889 17.94617,11.3714358 18.2378589,9.98129745 Z" id="Path"></path>
            </g>
            <g id="#468434ff" transform="translate(46.065758, 0.376279)" fill="#468434">
                <path d="M6.46504552,0.989698998 C6.83902408,0.573097919 7.33571441,0.310136954 7.82071787,0.0442213706 C7.17209875,3.47453239 6.34167211,6.86643339 5.60832349,10.2790167 L1.59455883,10.2790167 L2.98529168,4.54410397 C4.11307085,3.32680151 5.33142295,2.20109221 6.46504552,0.989698998 Z" id="Path"></path>
                <path d="M10.1338411,13.5630726 L12.0237159,11.7644705 C13.2799977,13.7599998 14.637333,15.6290717 16.0049671,17.5570513 C15.0113624,17.5767533 14.0149025,17.5711242 13.024153,17.565495 C12.0476795,16.2032437 11.1130652,14.9593796 10.1338411,13.5630726 Z" id="Path"></path>
                <path d="M0.669091162,13.9052862 C1.99237279,13.9136573 3.33521131,13.9052862 4.68326309,13.9052862 C4.3051519,15.7178005 4.0236659,17.0353842 3.83880509,17.8580372 C3.06647861,18.3056899 2.74932692,18.6304981 2.29646223,19.2484514 C1.75886802,18.3443522 1.00506744,17.5802819 0.0204519537,17.236298 L0.669091162,13.9052862 Z" id="Path"></path>
            </g>
            <g id="#78cb5cff" transform="translate(38.312861, 3.236002)" fill="#78CB5C">
                <path d="M16.7408326,0.0675883977 C17.689923,0.0501530302 18.6419701,0.0530589248 19.5940171,0.0530589248 C19.2333036,1.50406895 18.2467621,6.01595458 16.6343925,13.5887159 C15.6734755,13.6293984 14.7096017,13.6206807 13.745728,13.6090571 C13.9231281,12.9377955 14.0709614,12.2607221 14.2217515,11.5836486 C15.0525752,11.5633073 15.8863556,11.5662132 16.7171793,11.5633073 C16.9921494,9.93891226 16.5220391,8.1575989 15.0318785,7.2480539 C15.6646054,4.86812624 16.158369,2.45623374 16.7408326,0.0675883977 Z" id="Path"></path>
                <path d="M0.0215017018,7.48843325 C1.56049506,7.44935994 3.10239767,7.4633147 4.64430026,7.4633147 C7.60591696,7.45215086 10.5499132,7.47875611 13.5185301,7.4633147 C15.3135374,7.5693708 16.4587653,9.35837 16.1562033,10.9827031 C11.1842947,10.9854941 6.21529539,10.9799122 1.24338679,10.9966579 C0.798271505,9.83841349 0.469526232,8.64388669 0.0215017018,7.48843325 Z" id="Path"></path>
            </g>
            <g id="love_nature_logo_white" transform="translate(0.000000, 7.525585)" fill="#FFFFFF">
                <path d="M11.2293562,0.0285563027 C12.5070306,-0.0880823996 13.8339952,0.149694421 14.9444347,0.795187536 C15.742233,1.25655071 16.4072996,1.94669188 16.7984532,2.77389217 C17.1941837,3.59901581 17.3230425,4.53108712 17.2547402,5.43616189 C17.1635533,6.59251176 16.7037454,7.73467116 15.8932725,8.58644518 C15.4232545,9.08345757 14.8391647,9.47317621 14.1994474,9.72722016 C13.3224326,10.0781746 12.3588077,10.1775078 11.4191238,10.1155544 C10.2600982,10.044602 9.09015835,9.69399369 8.17864034,8.9675111 C7.30549831,8.28463824 6.73126661,7.27192356 6.52847235,6.19933205 C6.31229926,5.04575104 6.40172591,3.81152668 6.91927381,2.74378069 C7.31535637,1.91727262 7.9761981,1.22055539 8.77927754,0.762999409 C9.52285651,0.333132143 10.3734658,0.102969718 11.2293562,0.0285563027 M11.5765006,2.31391343 C11.0631776,2.37690525 10.5875265,2.6586379 10.2822788,3.06808474 C9.87422579,3.60593799 9.72600288,4.29123363 9.7136803,4.95126332 C9.70417434,5.61129301 9.80803599,6.2983192 10.1643343,6.86939888 C10.4227561,7.29026731 10.8480608,7.61422526 11.3381469,7.72532623 C11.8722423,7.84957931 12.4675984,7.78381863 12.9270541,7.47543561 C13.3741873,7.17951248 13.6600709,6.6991133 13.8146312,6.20037037 C14.0227065,5.5219969 14.0223545,4.79136099 13.8730753,4.10121983 C13.7494976,3.55540609 13.497413,3.0082079 13.0379573,2.65829179 C12.6295521,2.34298658 12.0831342,2.24572997 11.5765006,2.31391343 Z" id="Shape"></path>
                <path d="M30.5757131,0.159091046 C31.3075298,-0.00828681187 32.0679688,-0.0335318194 32.8146267,0.0366700509 C33.5789527,0.112750896 34.3397452,0.323356506 34.9948818,0.723472586 C35.8747578,1.25396356 36.5203537,2.11851862 36.8267201,3.07921219 C37.0744282,3.85281605 37.1521683,4.67552665 37.0928032,5.48232941 C34.7835702,5.47921702 32.4743373,5.48163776 30.1651043,5.48129193 C30.1785322,5.74930401 30.2665198,6.00728725 30.3612213,6.25662494 C30.5538046,6.73662589 30.8516904,7.20244814 31.3096499,7.47737668 C32.1093124,7.9556485 33.2022669,7.96394826 33.97154,7.42031603 C34.2747262,7.22561821 34.4690764,6.901583 34.7973514,6.74077575 C35.0369321,6.61835475 35.3284573,6.62872942 35.5736918,6.73005525 C36.0440192,6.91991157 36.5083393,7.1232549 36.9825536,7.30308237 C36.5578102,8.18216194 35.8934861,8.96441137 35.031985,9.46101176 C34.4825042,9.78193462 33.8655309,9.9873529 33.2330095,10.0772666 C32.5923608,10.1671803 31.9404045,10.1364022 31.299049,10.0665461 C30.2527386,9.94274183 29.1986541,9.60210715 28.3951047,8.91288388 C27.9265442,8.51449691 27.5576323,8.00855928 27.3113377,7.45213165 C26.9954304,6.74907547 26.8604454,5.97858401 26.8438373,5.21362572 C26.8148614,4.03437262 27.098966,2.81223759 27.8325494,1.85707717 C28.4908663,0.982147459 29.4993668,0.395287487 30.5757131,0.159091046 M30.8796061,2.24751023 C30.5032736,2.56912471 30.2824212,3.03079711 30.1707582,3.50042342 C30.0396602,4.02399795 30.0728763,4.567976 30.1057392,5.10088774 C30.4262403,4.83356731 30.7198856,4.53062723 31.0834971,4.31725501 C31.5782065,4.02849363 32.1527761,3.91644731 32.7128579,3.81927132 C32.9570323,3.77362281 33.2178149,3.76981877 33.4397274,3.64808942 C33.6358443,3.54676357 33.7796634,3.35344905 33.809346,3.13731029 C33.8574035,2.81846239 33.7114642,2.49477298 33.4803642,2.27379271 C33.1941395,1.98918118 32.7944849,1.83356127 32.3923568,1.79828743 C31.8548904,1.74433919 31.287388,1.8937343 30.8796061,2.24751023 Z" id="Shape"></path>
                <path d="M0.0105663803,0.11530024 C1.0474805,0.11530024 2.08439461,0.114952209 3.12130873,0.11530024 C3.11743439,2.63260469 3.11285562,5.14990913 3.10827686,7.66756162 C3.83313054,7.66756162 4.55798421,7.66651753 5.28283792,7.66790966 C5.7745268,7.67034586 6.2887573,7.8053817 6.65576293,8.14262322 C6.93964635,8.39738154 7.10377745,8.77116628 7.11046948,9.14877935 C7.11504826,9.45748238 7.11187832,9.76653344 7.11892258,10.0752365 C4.74606581,10.0734963 2.37285679,10.0745404 0,10.0714081 C0.000352212675,6.7525895 0.00880531688,3.43377085 0.0105663803,0.11530024 Z" id="Path"></path>
                <path d="M16.63027,0.115492892 C17.7927577,0.114798228 18.9548938,0.115840224 20.1173816,0.11514556 C20.8153665,2.15780474 21.5098352,4.20185326 22.2078201,6.24485976 C22.9191669,4.20185326 23.6291073,2.1584994 24.3397509,0.115492892 C25.4266382,0.11514556 26.5135256,0.115492892 27.600413,0.115492892 C26.2304637,3.43529164 24.8598112,6.75509039 23.4895103,10.0752365 C22.5541754,10.0752365 21.6188404,10.0752365 20.6835054,10.0752365 C19.3321925,6.75543771 17.9815829,3.43529164 16.63027,0.115492892 Z" id="Path"></path>
                <path d="M11.1267716,11.6808003 C12.5391443,11.2112016 14.0045031,10.8169193 15.5056535,10.8236826 C16.2604396,10.8231667 17.0334725,10.8630808 17.7457996,11.1334558 C18.3893503,11.3725936 18.9311401,11.8442748 19.2953743,12.416956 C19.6150443,12.9209155 19.7518953,13.520669 19.7554043,14.1113984 C19.7645277,15.8322189 19.7480354,17.5533864 19.7648786,19.2742068 C19.774002,19.8094035 19.7933015,20.3446001 19.8396203,20.8777144 C19.8269879,20.8881268 19.8013722,20.9089515 19.7887398,20.9193639 C18.7581463,20.9273467 17.726851,20.9207522 16.6962575,20.9224876 C16.6460788,20.9301234 16.5923911,20.8988862 16.5973037,20.8443947 C16.5551957,20.40048 16.5555466,19.9544827 16.5408087,19.5091797 C16.2618432,19.7868433 15.9835795,20.0665894 15.6828581,20.32204 C15.0386056,20.889168 14.12416,20.9991922 13.295334,20.9436595 C12.6616085,20.9006216 12.0296375,20.6944563 11.5292539,20.3005211 C10.9625503,19.8586888 10.5776129,19.2131208 10.4014611,18.5255562 C10.2726808,18.0556105 10.328123,17.5554688 10.4572542,17.0914235 C10.6176156,16.5367904 10.9576377,16.0401195 11.4022281,15.6690915 C11.9401579,15.2151114 12.6040609,14.9239116 13.2932286,14.7805678 C14.3554031,14.5567015 15.4575802,14.5615606 16.5299308,14.7128873 C16.4997534,14.3328352 16.4264153,13.9295287 16.1671002,13.6320816 C15.9088377,13.3304694 15.510917,13.1930259 15.1263306,13.1371461 C14.5624341,13.0587061 13.9859054,13.1000086 13.432185,13.2246102 C13.0367207,13.3047855 12.6345892,13.4460469 12.2271942,13.3728131 C11.9384034,13.3169333 11.7510228,13.0656477 11.6246988,12.8219979 C11.4334582,12.4530523 11.2881856,12.063282 11.1267716,11.6808003 M14.9403535,16.6770105 C14.566294,16.7151892 14.1890765,16.8522857 13.9185325,17.1174545 C13.5595617,17.4666165 13.4788547,18.0649816 13.7465915,18.4891128 C13.9241469,18.7671236 14.243466,18.9194915 14.5603287,18.9840483 C15.2259862,19.1214918 15.918312,18.9819658 16.5358961,18.7233916 C16.5358961,17.8931773 16.5355452,17.062963 16.536247,16.2327487 C16.0498996,16.5076357 15.4888103,16.6069004 14.9403535,16.6770105 Z" id="Shape"></path>
                <path d="M51.597473,11.110578 C52.3975516,10.8847377 53.2421573,10.8408147 54.0687403,10.9134433 C54.7691624,10.978809 55.4664037,11.1541551 56.0862525,11.4861714 C57.0078979,11.9710535 57.7093801,12.8138907 58.0606511,13.7736252 C58.362094,14.5995158 58.4539761,15.4914637 58.3917791,16.3630064 C56.0820121,16.3636981 53.7722447,16.3630064 51.4624776,16.3636981 C51.4843879,16.6836096 51.5946459,16.9910706 51.7218669,17.2843516 C51.9286011,17.74537 52.2494804,18.1825248 52.7152507,18.4194323 C53.2948128,18.7230888 53.9994754,18.8022886 54.6295725,18.6113792 C55.0006339,18.5007071 55.3388295,18.2918135 55.6063468,18.0175542 C55.7706741,17.8505085 55.9424222,17.6779292 56.1675327,17.5911208 C56.3891092,17.5015456 56.6431975,17.5202215 56.8626538,17.6080675 C57.3365521,17.7989768 57.8047958,18.0033744 58.2822276,18.1859833 C57.8224652,19.133959 57.0824634,19.9688416 56.1237121,20.4568364 C55.4059738,20.8282796 54.5928198,21.0101968 53.7828466,21.0140646 C53.047792,21.0157304 52.3081434,20.9482896 51.5978267,20.758072 C51.0133168,20.6017476 50.4493038,20.3575773 49.9605636,20.0044642 C49.5064554,19.6786732 49.1237324,19.2591568 48.8413727,18.7822292 C48.5038835,18.2146889 48.3045706,17.5755575 48.2098618,16.92778 C48.0981901,16.1295574 48.1155063,15.3088547 48.301037,14.5223911 C48.531448,13.5242672 49.0852127,12.5877046 49.9100287,11.9496108 C50.4061901,11.5608751 50.9868124,11.2800446 51.597473,11.110578 M52.6678961,12.827033 C52.1480574,13.03731 51.7699284,13.4962533 51.5840444,14.0067283 C51.3356099,14.6351383 51.3568137,15.3213053 51.4041679,15.9818794 C51.6720389,15.7584601 51.9208263,15.5122147 52.2074268,15.310584 C52.7269127,14.9436368 53.369025,14.8118678 53.9885202,14.7043084 C54.2627523,14.6524308 54.5631351,14.6524308 54.8016742,14.4912646 C55.0211305,14.3536162 55.1384564,14.0914617 55.115486,13.8400285 C55.0932225,13.5004035 54.8773001,13.2002055 54.6016547,13.0051459 C54.0503639,12.6146809 53.2866848,12.5745623 52.6678961,12.827033 Z" id="Shape"></path>
                <path d="M0.000155948015,10.9391756 C0.792449835,10.9388282 1.58509461,10.9391756 2.3773885,10.9388282 C3.7981139,12.6973905 5.21743576,14.4566475 6.63816118,16.2148624 C6.63851204,14.4563001 6.63816118,12.6977378 6.63851204,10.9391756 C7.59607186,10.9391756 8.55363164,10.9388282 9.51119146,10.9391756 C9.51119146,14.2589743 9.51154232,17.578773 9.51119146,20.8989191 C8.84521545,20.8985717 8.17959033,20.8992665 7.51361435,20.8985717 C5.96727281,19.0660122 4.4202295,17.2341476 2.87318623,15.4022829 C2.87283534,17.234495 2.87318623,19.0667071 2.87283534,20.8989191 C1.91527554,20.8989191 0.957715744,20.8989191 0.000155948015,20.8985717 C0.000155948015,17.578773 -0.000194935019,14.2589743 0.000155948015,10.9391756 Z" id="Path"></path>
                <path d="M20.3065914,10.9393507 C23.2344463,10.9390024 26.1626533,10.9393507 29.0905082,10.9393507 C29.5721466,10.9421369 30.05801,10.9212402 30.5350715,11.0013443 C30.8702468,11.0577654 31.2254904,11.1674732 31.4490579,11.4370408 C31.6810753,11.7184499 31.7190994,12.0984218 31.735999,12.4480935 C31.750082,12.9409077 31.7381114,13.4344185 31.7433925,13.9272327 C31.6247433,13.6883136 31.3934301,13.5214881 31.139232,13.4452151 C30.6590018,13.2978933 30.1495494,13.3407316 29.6541801,13.3414281 C28.5145136,13.3442143 27.3748471,13.3414281 26.2348286,13.3424729 C26.2351807,15.8420684 26.2379973,18.3416638 26.241166,20.8413943 C25.1768435,20.8413943 24.1125211,20.8416075 23.0481987,20.8409109 C23.0464383,18.3416638 23.0425655,15.8420684 23.0415092,13.3424729 C22.1299873,13.3421247 21.2181133,13.3428212 20.3065914,13.3421247 C20.3065914,12.5410839 20.3062394,11.7403915 20.3065914,10.9393507 Z" id="Path"></path>
                <path d="M35.1256627,10.9388282 C36.1744888,10.9391766 37.2233149,10.9388282 38.272141,10.9391766 C38.2756441,12.9217842 38.2780963,14.9047402 38.2787969,16.8876962 C38.2735422,17.539856 38.21434,18.2031638 37.9838365,18.8187441 C37.7564857,19.4238732 37.3284077,19.9506176 36.7819252,20.2996903 C36.137356,20.716348 35.3754333,20.9117869 34.6194658,21.0041065 C33.8221618,21.0936392 33.0122466,21.0992132 32.2163439,20.9901715 C31.3549333,20.8671948 30.4865165,20.5919778 29.8055152,20.035273 C29.3816409,19.6889873 29.0516495,19.2315696 28.8589794,18.7208505 C28.6561503,18.1937576 28.5941456,17.624163 28.5986996,17.0629293 C28.5965977,15.9979439 28.5934449,14.9326102 28.592394,13.8676249 C29.1409784,13.8672766 29.6892125,13.8676249 30.2374466,13.8676249 C30.5586802,13.860309 30.892525,13.8826051 31.1853836,14.026136 C31.40783,14.1303004 31.5896405,14.3215588 31.6691607,14.5542739 C31.7595405,14.8002274 31.7304649,15.0653415 31.7378214,15.3213978 C31.7371207,15.7983245 31.7647952,16.2745545 31.7630436,16.7514811 C31.7704001,17.2259692 31.7893168,17.7342497 32.0597556,18.1446366 C32.2916604,18.5153087 32.7081782,18.7441916 33.1387083,18.7940094 C33.5408634,18.8365113 33.9720941,18.8253633 34.3350146,18.6278341 C34.7781559,18.387803 35.0563015,17.9063475 35.1053448,17.4140922 C35.1484328,16.9852414 35.1256627,16.5536036 35.1302168,16.1233593 C35.1305671,14.3950661 35.1246118,12.6671213 35.1256627,10.9388282 Z" id="Path"></path>
                <path d="M39.2707779,10.9394557 C40.9750498,10.9411969 42.6789705,10.935277 44.3828909,10.9425898 C45.0620713,10.9540813 45.7637271,11.0400935 46.3684573,11.3681239 C46.845007,11.6219818 47.2337625,12.0304527 47.4655406,12.5151855 C47.764394,13.1350306 47.8370882,13.862478 47.6474511,14.525155 C47.4458745,15.2529507 46.9299927,15.8835908 46.2631035,16.2443546 C47.2190128,17.7960567 48.1763269,19.3470623 49.1322362,20.8987643 C47.9803691,20.8991125 46.8288528,20.8987643 45.6769857,20.8987643 C44.9461821,19.6764855 44.2209976,18.4510727 43.4824679,17.2333209 C43.3641205,17.0320453 43.2025784,16.8405202 42.9788773,16.7520704 C42.7850263,16.6716298 42.5627301,16.6852107 42.3706353,16.7628654 C42.3699328,18.1414984 42.3706353,19.5201314 42.3702841,20.8987643 C41.3371152,20.8987643 40.3039467,20.8991125 39.2711291,20.8987643 C39.2707779,17.5791109 39.2711291,14.2594574 39.2707779,10.9394557 M42.3702841,16.5191061 C42.6203237,16.0911345 42.8889756,15.6607252 43.2671953,15.3316501 C43.5621857,15.1063469 43.9031806,14.9482516 44.2441754,14.8033889 C44.4538293,14.7076263 44.6220438,14.5268962 44.7021128,14.3120398 C44.8285371,13.9826165 44.7488198,13.579369 44.4924589,13.3324756 C44.2740257,13.1329412 43.9607738,13.1071724 43.6787769,13.0890645 C43.2429637,13.0772248 42.8064485,13.0862787 42.3702841,13.0834929 C42.3702841,14.2284651 42.3702841,15.3737857 42.3702841,16.5191061 Z" id="Shape"></path>
            </g>
        </g>
    </g>
</svg>
