
<?xml version="1.0" encoding="UTF-8"?>
<svg width="157px" height="72px" viewBox="0 0 157 72" version="1.1" xmlns="http://www.w3.org/2000/svg" xmlns:xlink="http://www.w3.org/1999/xlink">
    <title>Untitled</title>
    <g id="Page-1" stroke="none" stroke-width="1" fill="none" fill-rule="evenodd">
        <g id="love-nature-4k" fill-rule="nonzero">
            <g id="#5da647ff" transform="translate(95.121585, 0.000000)" fill="#5DA647">
                <path d="M25.836836,1.30476352 C26.4483083,0.794882289 26.9253235,0.0956165968 27.955151,0.102900614 C31.5948674,0.0737645439 35.2513818,0.0956165968 38.8983777,0.102900614 L38.6655269,1.00692292 C37.457141,1.66248451 36.144513,2.32452599 35.2127456,3.35157247 C32.3883256,6.3380197 29.3528021,9.11323041 26.542941,12.1142457 C21.4691762,16.805153 16.6429122,21.758285 11.6492212,26.5366006 C7.79112173,26.5366006 3.93302227,26.5001805 0.0822022514,26.6021567 C8.67193311,18.1818324 17.2907817,9.78336003 25.836836,1.30476352 Z" id="Path"></path>
                <path d="M45.2802013,24.7811523 C47.5513844,22.6906393 49.6696994,20.4398778 51.9627208,18.3785008 C55.120728,18.3785008 58.2629695,18.3785008 61.4134899,18.3785008 C57.4546696,22.1722592 43.2653137,35.7024642 42.9152456,36.0605263 C43.6536601,32.5526621 44.5560084,28.2325303 45.2802013,24.7811523 Z" id="Path"></path>
            </g>
            <g id="#468434ff" transform="translate(114.370157, 0.934211)" fill="#468434">
                <path d="M16.0511475,2.45718372 C16.979646,1.4228638 18.2128082,0.769995195 19.4169547,0.109790989 C17.80659,8.62642524 15.7448411,17.0476967 13.9241135,25.5203173 L3.95890469,25.5203173 L7.41175866,11.2819133 C10.2117621,8.25964513 13.2366363,5.46478066 16.0511475,2.45718372 Z" id="Path"></path>
                <path d="M25.1598814,33.6738353 L29.8519844,29.2083406 C32.9710288,34.1627582 36.3409648,38.8032124 39.73647,43.5899205 C37.2695894,43.6388358 34.7956201,43.62486 32.3358282,43.6108842 C29.9114801,40.228743 27.5910585,37.1405287 25.1598814,33.6738353 Z" id="Path"></path>
                <path d="M1.66119185,34.5234691 C4.94658073,34.5442527 8.28052463,34.5234691 11.6274118,34.5234691 C10.688653,39.0235047 9.9897912,42.294747 9.53082644,44.3371959 C7.61332621,45.4486094 6.8259151,46.2550297 5.70156139,47.7892586 C4.36684473,45.5445986 2.49533984,43.6475964 0.0507772643,42.7935675 L1.66119185,34.5234691 Z" id="Path"></path>
            </g>
            <g id="#78cb5cff" transform="translate(95.121585, 8.034211)" fill="#78CB5C">
                <path d="M41.5634464,0.167805677 C43.9198088,0.124517868 46.2835119,0.131732503 48.6472149,0.131732503 C47.7516504,3.73424015 45.3023059,14.9361631 41.2991815,33.7375015 C38.9134563,33.8385064 36.5203905,33.8168624 34.1273246,33.7880039 C34.5677662,32.1214233 34.9348008,30.4404134 35.3091762,28.7594034 C37.3719108,28.708901 39.4419862,28.7161156 41.5047209,28.708901 C42.1874053,24.6759201 41.0202351,20.253349 37.320526,17.9951683 C38.8914342,12.0863824 40.1173299,6.09823549 41.5634464,0.167805677 Z" id="Path"></path>
                <path d="M0.0533835356,18.5919722 C3.87433256,18.4949626 7.70250455,18.5296089 11.5306765,18.5296089 C18.8836559,18.5018918 26.192888,18.5679462 33.5632471,18.5296089 C38.0198171,18.7929206 40.8631415,23.2345738 40.1119531,27.2674009 C27.7679042,27.2743302 15.4310782,27.2604717 3.08702926,27.3020472 C1.98191546,24.4264059 1.1657203,21.4606842 0.0533835356,18.5919722 Z" id="Path"></path>
            </g>
            <g id="love_nature_logo_white" transform="translate(0.000000, 18.684211)" fill="#FFFFFF">
                <path d="M27.879781,0.0708984066 C31.051938,-0.218687337 34.3464708,0.371655114 37.103424,1.97425871 C39.0841646,3.11971211 40.7353646,4.83316604 41.7065044,6.8869047 C42.6890077,8.93548753 43.0089331,11.2495956 42.8393551,13.4966778 C42.6129598,16.3676154 41.4713679,19.2033215 39.4591592,21.3180708 C38.292218,22.5520326 36.8420642,23.5196099 35.2538004,24.1503397 C33.0763843,25.0216748 30.6839363,25.2682953 28.3509281,25.1144798 C25.4733473,24.9383223 22.568669,24.0678464 20.3055898,22.2641655 C18.1377889,20.568757 16.7121102,18.0544309 16.208621,15.3914451 C15.6719154,12.5273819 15.8939402,9.46310072 17.1788867,6.81214517 C18.1622641,4.76012513 19.8029746,3.03034441 21.796827,1.89434336 C23.6429541,0.827086699 25.7548117,0.255648955 27.879781,0.0708984066 M28.7416567,5.74488852 C27.4671996,5.901282 26.2862726,6.60075617 25.5284164,7.61731384 C24.5153192,8.95267362 24.1473175,10.6540973 24.1167235,12.2927917 C24.0931225,13.9314861 24.3509859,15.6372063 25.2355885,17.0550593 C25.8771876,18.099974 26.9331164,18.9042834 28.149882,19.1801203 C29.4759118,19.4886107 30.9540373,19.3253428 32.0947551,18.5597022 C33.2048789,17.8249965 33.9146589,16.6322813 34.2983946,15.394023 C34.8149955,13.7097854 34.8141214,11.8957928 34.4434974,10.1823389 C34.1366837,8.82721511 33.5108186,7.4686541 32.3701008,6.59989687 C31.3561294,5.81707012 29.9995057,5.57560545 28.7416567,5.74488852 Z" id="Shape"></path>
                <path d="M75.9121154,0.394984667 C77.7290394,-0.0205741536 79.617026,-0.0832514137 81.4707973,0.091042885 C83.3684344,0.279933258 85.2572984,0.802816154 86.8838445,1.7962078 C89.0683643,3.11328885 90.6712229,5.25977036 91.4318569,7.64494062 C92.0468563,9.56561227 92.2398661,11.6082041 92.0924768,13.6113006 C86.3592088,13.6035733 80.6259408,13.6095834 74.8926728,13.6087248 C74.9260109,14.2741341 75.1444629,14.9146442 75.3795839,15.5336895 C75.8577218,16.725416 76.5973002,17.8819402 77.7343033,18.5645214 C79.7196721,19.7519549 82.4332143,19.7725612 84.3431338,18.4228536 C85.095872,17.9394659 85.5783965,17.1349647 86.3934242,16.7357191 C86.9882452,16.4317773 87.7120319,16.4575351 88.3208901,16.7091027 C89.4885993,17.1804701 90.6413941,17.6853225 91.8187538,18.1317907 C90.7642185,20.3143331 89.1148621,22.2564696 86.9759628,23.4894085 C85.6117345,24.2861825 84.0799387,24.7961865 82.5095409,25.0194206 C80.9189648,25.2426546 79.3003145,25.1662399 77.7079838,24.9928042 C75.1102475,24.685428 72.4932103,23.8397143 70.4981909,22.1285393 C69.3348683,21.1394406 68.4189491,19.8833196 67.807459,18.5018441 C67.0231375,16.7563253 66.6880023,14.843381 66.6467684,12.9441742 C66.5748284,10.0163734 67.2801914,6.98210713 69.1015019,4.61067435 C70.7359439,2.43843507 73.2398072,0.981403416 75.9121154,0.394984667 M76.6666082,5.5800254 C75.7322654,6.37851653 75.1839422,7.52473765 74.9067099,8.69070641 C74.5812252,9.99061561 74.663693,11.3411818 74.7452835,12.664273 C75.5410103,12.0005809 76.2700609,11.2484538 77.1728203,10.7187021 C78.4010644,10.0017773 79.8275821,9.72359331 81.2181299,9.48232879 C81.8243561,9.36899457 82.4718162,9.35955005 83.0227714,9.05732545 C83.5096825,8.80575782 83.8667506,8.32580455 83.9404452,7.78918418 C84.0597604,6.99756179 83.6974284,6.19391912 83.1236629,5.64527844 C82.413036,4.93865673 81.4207902,4.55229006 80.4224032,4.46471361 C79.0880037,4.33077317 77.6790323,4.70168517 76.6666082,5.5800254 Z" id="Shape"></path>
                <path d="M0.0262337717,0.286262665 C2.60064123,0.286262665 5.17504869,0.285398589 7.74945615,0.286262665 C7.7398371,6.53612199 7.72846913,12.7859813 7.71710116,19.0367047 C9.5167379,19.0367047 11.3163746,19.0341125 13.1160114,19.0375688 C14.3367562,19.0436173 15.6134664,19.3788787 16.5246528,20.216168 C17.2294668,20.8486714 17.6369647,21.7766887 17.6535794,22.7142108 C17.6649474,23.4806459 17.6570772,24.2479451 17.6745664,25.0143802 C11.7833358,25.0100598 5.89123066,25.0126521 0,25.0048754 C0.000874459056,16.7650498 0.0218614764,8.52522419 0.0262337717,0.286262665 Z" id="Path"></path>
                <path d="M41.2889462,0.286740972 C44.1751226,0.28501629 47.0604261,0.287603314 49.9466026,0.285878631 C51.6795307,5.35730832 53.4037287,10.4321874 55.1366568,15.5044794 C56.9027593,10.4321874 58.6653698,5.359033 60.4297264,0.286740972 C63.1282053,0.285878631 65.8266843,0.286740972 68.5251633,0.286740972 C65.1239099,8.52899994 61.7209106,16.7712589 58.3187842,25.0143802 C55.9965733,25.0143802 53.6743623,25.0143802 51.3521513,25.0143802 C47.9971676,16.7721212 44.6439299,8.52899994 41.2889462,0.286740972 Z" id="Path"></path>
                <path d="M27.625088,29.0006076 C31.1316687,27.8347075 34.7698007,26.8557996 38.496795,26.8728097 C40.3707466,26.8713104 42.2900006,26.9704076 44.058537,27.6416834 C45.6563181,28.2354049 47.0014512,29.4064753 47.9057569,30.8283046 C48.6994203,32.0795144 49.0391884,33.5685576 49.0479004,35.0351961 C49.0705516,39.3075779 49.0296052,43.5808213 49.0714228,47.8532031 C49.094074,49.1819673 49.14199,50.5107314 49.2569884,51.8343253 C49.2256252,51.8601768 49.1620276,51.9118796 49.1306644,51.9377311 C46.5719495,51.9575505 44.0114921,51.9411779 41.4527772,51.9454865 C41.3281956,51.9644442 41.194902,51.8868899 41.2070988,51.7516007 C41.1025548,50.6494675 41.103426,49.542164 41.0668355,48.436584 C40.3742314,49.1259558 39.6833697,49.8204979 38.9367511,50.45472 C37.3372276,51.8627619 35.0668799,52.1359255 33.0091051,51.9980511 C31.4357176,51.8911985 29.8666861,51.3793399 28.6243546,50.4012937 C27.2173663,49.3043308 26.2616597,47.7015413 25.8243172,45.9944844 C25.5045868,44.8277226 25.6422364,43.5859916 25.9628381,42.433879 C26.3609766,41.0568588 27.2051695,39.823745 28.3089801,38.9025719 C29.64453,37.775449 31.2928408,37.0524703 33.0038779,36.6965821 C35.6410008,36.1407761 38.3774406,36.1528401 41.0398283,36.5285478 C40.9649051,35.5849701 40.7828243,34.5836575 40.1390074,33.845168 C39.497804,33.0963379 38.509863,32.7550988 37.5550276,32.6163627 C36.1550089,32.4216152 34.7236271,32.5241593 33.3488732,32.8335149 C32.3670306,33.032571 31.3686352,33.3832889 30.3571718,33.2014671 C29.640174,33.062731 29.1749531,32.4388495 28.8613211,31.8339257 C28.386517,30.917923 28.0258401,29.9502173 27.625088,29.0006076 M37.0932915,41.4049916 C36.1645921,41.4997802 35.228052,41.8401575 34.5563566,42.4985076 C33.6651188,43.3653927 33.4647428,44.8509889 34.1294685,45.9040043 C34.5702958,46.5942379 35.363088,46.9725306 36.1497817,47.1328096 C37.8024485,47.4740486 39.5213264,47.1276393 41.0546387,46.4856618 C41.0546387,44.4244401 41.0537675,42.3632184 41.0555099,40.3019967 C39.8480265,40.9844748 38.4549774,41.2309252 37.0932915,41.4049916 Z" id="Shape"></path>
                <path d="M128.104071,27.5848832 C130.090473,27.0241764 132.187425,26.9151262 134.239631,27.0954454 C135.97861,27.2577327 137.709692,27.6930747 139.248627,28.517391 C141.53685,29.7212363 143.278461,31.8137975 144.150582,34.1965868 C144.898992,36.2470736 145.127113,38.461565 144.972693,40.6253952 C139.238099,40.6271125 133.503504,40.6253952 127.76891,40.6271125 C127.823308,41.4213756 128.097052,42.1847269 128.412911,42.9128729 C128.926182,44.0574704 129.722848,45.1428202 130.879243,45.7310043 C132.318156,46.4849102 134.067663,46.681544 135.632042,46.2075621 C136.553298,45.93279 137.392956,45.4141577 138.057137,44.7332381 C138.465122,44.3185039 138.891531,43.8900312 139.450426,43.6745068 C140.000547,43.4521132 140.631387,43.498481 141.176244,43.7165813 C142.352819,44.1905632 143.515355,44.6980329 144.700703,45.1514069 C143.559224,47.5050016 141.721978,49.5778136 139.34163,50.7893868 C137.559659,51.7115907 135.540794,52.1632473 133.529826,52.1727728 C131.704863,52.1769859 129.868494,52.0095467 128.104949,51.5372821 C126.653752,51.1491665 125.253444,50.5429506 124.04002,49.6662559 C122.912579,48.8573955 121.96237,47.8158375 121.261339,46.6317415 C120.423435,45.2226759 119.928589,43.635867 119.69345,42.0275916 C119.416196,40.0457978 119.459188,38.008191 119.919816,36.0555918 C120.491871,33.5774909 121.866735,31.2522321 123.914554,29.6679992 C125.146403,28.7028622 126.587948,28.005628 128.104071,27.5848832 M130.761673,31.8464267 C129.471039,32.3684937 128.532236,33.5079392 128.070731,34.7753255 C127.453928,36.3355159 127.506572,38.0391029 127.624141,39.6791488 C128.2892,39.1244526 128.906879,38.5130847 129.618439,38.0124843 C130.908197,37.1014431 132.502407,36.7742925 134.040464,36.5072484 C134.721316,36.378449 135.467094,36.378449 136.059329,35.9783121 C136.604186,35.6365643 136.895478,34.9856979 136.838448,34.3614501 C136.783173,33.5182432 136.24709,32.7729239 135.562729,32.2886381 C134.194007,31.3192078 132.297976,31.2196029 130.761673,31.8464267 Z" id="Shape"></path>
                <path d="M0.000387181278,27.1593325 C1.96746166,27.1584699 3.93540731,27.1593325 5.90248179,27.1584699 C9.42980003,31.5245556 12.9536336,35.8923662 16.4809519,40.2575894 C16.481823,35.8915037 16.4809519,31.5254181 16.481823,27.1593325 C18.8592129,27.1593325 21.2366027,27.1584699 23.6139926,27.1593325 C23.6139926,35.4015913 23.6148637,43.6438502 23.6139926,51.8869715 C21.9605349,51.886109 20.3079484,51.887834 18.6544908,51.886109 C14.815298,47.3363062 10.9743629,42.7882285 7.13342787,38.2401507 C7.13255671,42.789091 7.13342787,47.3380313 7.13255671,51.8869715 C4.75516687,51.8869715 2.37777702,51.8869715 0.000387181278,51.886109 C0.000387181278,43.6438502 -0.000483976598,35.4015913 0.000387181278,27.1593325 Z" id="Path"></path>
                <path d="M50.4163649,27.1597672 C57.6855218,27.1589025 64.9555529,27.1597672 72.2247099,27.1597672 C73.4205019,27.1666847 74.6267834,27.1148032 75.8112119,27.3136823 C76.6433713,27.4537624 77.5253554,27.7261403 78.0804196,28.3954116 C78.6564628,29.0940825 78.7508674,30.0374611 78.792825,30.9056115 C78.8277897,32.1291502 78.7980697,33.3544183 78.8111815,34.577957 C78.516604,33.9847786 77.9423092,33.5705912 77.3111967,33.3812238 C76.1189011,33.0154592 74.8540538,33.1218163 73.6241712,33.1235457 C70.7946545,33.1304632 67.9651377,33.1235457 65.1347469,33.1261397 C65.135621,39.3320318 65.1426139,45.5379239 65.150481,51.7440322 C62.5080253,51.7440322 59.8655696,51.7446807 57.2231139,51.7429513 C57.2187434,45.5379239 57.2091281,39.3320318 57.2065057,33.1261397 C54.9434168,33.125275 52.6794538,33.1270044 50.4163649,33.125275 C50.4163649,31.1364842 50.4154908,29.1485581 50.4163649,27.1597672 Z" id="Path"></path>
                <path d="M87.208542,27.1584699 C89.812524,27.1593349 92.416506,27.1584699 95.020488,27.1593349 C95.0291853,32.081671 95.0352735,37.0048721 95.0370129,41.9280732 C95.0239669,43.5472286 94.876982,45.1940618 94.3046974,46.7223992 C93.7402403,48.2247886 92.677426,49.5325679 91.3206418,50.3992312 C89.7203322,51.4336916 87.8286619,51.9189192 85.9517771,52.1481266 C83.9722637,52.3704145 81.9614399,52.3842534 79.9854055,52.1135293 C77.8467309,51.8082078 75.6906616,51.1249103 73.9998997,49.7427467 C72.9475222,48.8830029 72.1282333,47.7473453 71.6498799,46.4793529 C71.1463042,45.1707086 70.9923614,43.7565425 71.0036679,42.3631347 C70.9984495,39.7190332 70.9906219,37.0740668 70.9880127,34.4299653 C72.3500153,34.4291004 73.7111482,34.4299653 75.0722811,34.4299653 C75.8698267,34.4118017 76.6986827,34.4671574 77.4257799,34.82351 C77.9780606,35.0821251 78.4294523,35.5569735 78.6268818,36.1347491 C78.851273,36.7453921 78.7790852,37.4036064 78.7973496,38.0393325 C78.7956101,39.2234264 78.864319,40.4057904 78.8599704,41.5898842 C78.8782348,42.7679235 78.9252004,44.0298614 79.5966346,45.048753 C80.1723982,45.9690422 81.2065113,46.5373034 82.2754137,46.6609889 C83.2738677,46.7665108 84.3445096,46.7388329 85.2455535,46.2484157 C86.3457664,45.6524765 87.0363347,44.4571385 87.1580974,43.2349876 C87.2650746,42.1702545 87.208542,41.098602 87.2198485,40.0304092 C87.2207182,35.7394745 87.2059328,31.4494047 87.208542,27.1584699 Z" id="Path"></path>
                <path d="M97.4998624,27.160028 C101.731158,27.1643509 105.961582,27.1496533 110.192005,27.1678091 C111.878246,27.1963398 113.620288,27.4098873 115.121687,28.2243076 C116.304845,28.8545755 117.270031,29.8687102 117.84548,31.0721847 C118.587461,32.6111104 118.767943,34.4171867 118.29712,36.0624539 C117.796654,37.8693948 116.515844,39.435122 114.860119,40.3308114 C117.233411,44.1833131 119.610191,48.0340856 121.983483,51.8865873 C119.123675,51.8874518 116.264738,51.8865873 113.40493,51.8865873 C111.590521,48.8519641 109.790063,45.8095598 107.956472,42.786176 C107.662644,42.2864574 107.261574,41.8109467 106.706178,41.5913472 C106.224893,41.3916326 105.672985,41.4253507 105.19606,41.6181487 C105.194316,45.0409615 105.19606,48.4637744 105.195188,51.8865873 C102.630079,51.8865873 100.064971,51.8874518 97.5007342,51.8865873 C97.4998624,43.6446891 97.5007342,35.4027908 97.4998624,27.160028 M105.195188,41.0129532 C105.815976,39.9504028 106.482974,38.8818004 107.422002,38.0647865 C108.154392,37.5054129 109.001,37.1129004 109.847608,36.7532414 C110.368128,36.515486 110.785764,36.0667768 110.984556,35.5333401 C111.298437,34.7154616 111.100518,33.7142954 110.464036,33.1013188 C109.921719,32.605923 109.14399,32.5419452 108.44386,32.4969878 C107.361841,32.4675926 106.278079,32.4900713 105.195188,32.4831548 C105.195188,35.3258445 105.195188,38.1693989 105.195188,41.0129532 Z" id="Shape"></path>
            </g>
        </g>
    </g>
</svg>
