<svg width="55px" height="30px" viewBox="0 0 55 30" version="1.1" xmlns="http://www.w3.org/2000/svg" xmlns:xlink="http://www.w3.org/1999/xlink">
    <title>NATIONAL GEOGRAPHIC WILD HD</title>
    <g id="Page-1" stroke="none" stroke-width="1" fill="none" fill-rule="evenodd">
        <g id="SVG-Layer" fill-rule="nonzero">
            <path d="M0.368334806,11.4871111 L0.368334806,0.0606 L8.34178722,0.0606 L8.34178722,11.4871111 L0.368334806,11.4871111 Z M7.18798611,10.3360556 L7.18798611,1.21158889 L1.51648861,1.21158889 L1.51648861,10.3360556 L7.18798611,10.3360556 Z" id="path4315" fill="#FCD800"></path>
            <g id="g4317" transform="translate(0.997812, 1.236009)" fill="#000000">
                <path d="M22.1475158,0.0149397779 C21.1776904,0.0149397779 20.4613572,0.901152808 20.4613572,2.01590753 C20.4613572,3.2198287 21.1080448,4.14795677 22.1475158,4.14795677 L22.1475158,4.12845393 C23.1870256,4.12845393 23.8335675,3.20318502 23.8335675,2.01590753 C23.8335675,0.901152808 23.1173412,0.0149397779 22.1475158,0.0149397779 L22.1475158,0.0149397779 Z M10.4061122,0.101261805 L10.4061122,4.07825933 L10.9634756,4.07825933 L10.9634756,1.22728565 C11.6044394,2.2556354 12.248222,3.16411931 12.8947465,4.07825933 L13.3825194,4.07825933 L13.3825194,0.101261805 L12.8251554,0.101261805 L12.8251554,2.93561091 C12.1897528,1.91278304 11.5460291,1.00980246 10.8994272,0.101261805 L10.4061122,0.101261805 Z M14.9599754,0.101259622 L14.9432439,0.104137332 L13.5664599,4.07825715 L14.1572869,4.07825715 L14.5028948,2.99411561 L15.7012799,2.99411561 L16.0133183,4.07825715 L16.7742314,4.07825715 L15.517233,0.101259622 L14.9599754,0.101259622 Z M19.3716741,0.101261805 L19.3716741,4.07825933 L20.0489296,4.07825933 L20.0489296,0.101261805 L19.3716741,0.101261805 Z M24.2405599,0.101261805 L24.2405599,4.07825933 L24.7979239,4.07825933 L24.7979239,1.22728565 C25.4388872,2.2556354 26.0826698,3.16411931 26.7291942,4.07825933 L27.2169672,4.07825933 L27.2169672,0.101261805 L26.6594968,0.101261805 L26.6594968,2.93561091 C26.0241329,1.91278304 25.3803317,1.00980246 24.733768,0.101261805 L24.2405599,0.101261805 Z M30.817664,0.101261805 L30.817664,4.07825933 L32.8410118,4.07825933 L32.8410118,3.54316895 L31.4949195,3.54316895 L31.4949195,0.101261805 L30.817664,0.101261805 Z M16.3756582,0.104137332 L16.3756582,0.636456953 L17.4207946,0.636456953 L17.4207946,4.07825715 L18.0952793,4.07825715 L18.0952793,0.636456953 L19.1404163,0.636456953 L19.1404163,0.104137332 L16.3756582,0.104137332 Z M28.7860045,0.104137332 L27.4119912,4.08102792 L28.0029247,4.08102792 L28.3484261,2.99688638 L29.5468112,2.99688638 L29.858956,4.08102792 L30.6197628,4.08102792 L29.3516808,0.104137332 L28.7943168,0.104137332 L28.7860045,0.104137332 Z M22.1475158,0.594574649 C22.8303598,0.594574649 23.1062238,1.2941654 23.1062238,2.02709535 C23.1062238,2.76010278 22.8582027,3.5710883 22.1475158,3.5710883 C21.4368677,3.5710883 21.1859301,2.7879452 21.1859301,2.02709535 C21.1859301,1.26624495 21.4647101,0.594574649 22.1475158,0.594574649 Z M15.1411457,0.88721714 C15.2999965,1.50033799 15.4421168,1.98529435 15.5898071,2.50644906 L14.6812937,2.50644906 C14.8401445,1.98529435 14.999016,1.50029925 15.1411457,0.88721714 Z M28.9839057,0.88721714 C29.1427565,1.50033799 29.2847607,1.98529435 29.4325677,2.50644906 L28.5240543,2.50644906 C28.6829438,1.98529435 28.8418154,1.50029925 28.9839057,0.88721714 Z M17.5072236,5.16804711 C16.5374369,5.16804711 15.8211719,6.05425976 15.8211719,7.16901459 C15.8211719,8.36737508 16.4677138,9.29264471 17.5072236,9.29264471 L17.5072236,9.28156138 C18.5467333,9.28156138 19.1932752,8.3562147 19.1932752,7.16901459 C19.1932752,6.05425976 18.4770877,5.16804711 17.5072236,5.16804711 Z M11.8580288,5.17923706 C10.6652261,5.17923706 9.92665205,6.1294775 9.92665205,7.21366765 C9.92665205,8.38414661 10.6651988,9.29264471 11.8357551,9.29264471 C12.224891,9.28195098 12.6086042,9.1988494 12.9672141,9.04742604 L12.9672141,7.40592079 L12.2844171,7.40592079 L12.2844171,8.62657917 C12.1360268,8.69770231 11.9723907,8.73131385 11.8079406,8.72419776 C11.2114628,8.72419776 10.6541005,8.12779846 10.6541005,7.22485755 C10.6541005,6.32191664 11.1474199,5.74779056 11.8748667,5.74779056 C12.1313223,5.7531182 12.3819968,5.82510613 12.6022104,5.95677534 L12.8223847,5.48573375 C12.5394868,5.28803556 12.2031439,5.18114233 11.8580288,5.17923706 L11.8580288,5.17923706 Z M21.3587875,5.17923706 C20.1659489,5.17923706 19.4274103,6.1294775 19.4274103,7.21366765 C19.4274103,8.38414661 20.1659963,9.29264471 21.3365145,9.29264471 C21.7256497,9.28195098 22.109363,9.1988494 22.4679729,9.04742604 L22.4679729,7.40592079 L21.7851759,7.40592079 L21.7851759,8.62657917 C21.6367081,8.69770231 21.4730431,8.73131385 21.3085929,8.72419776 C20.7121927,8.72419776 20.154754,8.12779846 20.154754,7.22485755 C20.154754,6.32191664 20.6481497,5.74779056 21.3755191,5.74779056 C21.6320134,5.7531182 21.8827168,5.82510613 22.1029691,5.95677534 L22.323037,5.48573375 C22.0401391,5.28803556 21.703865,5.18114233 21.3587875,5.17923706 Z M38.088862,5.1847787 C36.9016233,5.1847787 36.1687817,6.1351358 36.1687817,7.21920929 C36.1687817,8.38976605 36.9072232,9.29829295 38.0777784,9.29829295 C38.3968802,9.28977684 38.7073984,9.1933553 38.9752088,9.01961113 L38.7883906,8.52629632 C38.5838484,8.65501011 38.3472334,8.72357557 38.1055936,8.72419776 C37.4478699,8.72419776 36.8904769,8.12769189 36.8904769,7.22475099 C36.8904769,6.32181008 37.3948576,5.74779056 38.088862,5.74779056 C38.3371516,5.75918431 38.5782877,5.83498409 38.7883906,5.96785861 L39.0030239,5.49138201 C38.73498,5.30161662 38.4170241,5.1949669 38.088862,5.1847787 L38.088862,5.1847787 Z M13.5860691,5.24328581 L13.5860691,9.22582502 L15.6093099,9.22582502 L15.6093099,8.69073459 L14.2687597,8.69073459 L14.2687597,7.40592079 L15.3835936,7.40592079 L15.3835936,6.8708304 L14.2687597,6.8708304 L14.2687597,5.78104055 L15.4058666,5.78104055 L15.4032039,5.77837619 L15.4032039,5.24328581 L13.5860691,5.24328581 Z M26.8880909,5.24328591 L25.514184,9.22017678 L26.1077813,9.22017678 L26.4533897,8.13603523 L27.6516684,8.13603523 L27.9638132,9.22017678 L28.7247263,9.22017678 L27.4566443,5.24328591 L26.8992803,5.24328591 L26.8880909,5.24328591 Z M28.9476719,5.24328591 L28.9476719,9.22017678 L29.6304689,9.22017678 L29.6304689,7.72360961 L29.9370722,7.72360961 C30.654292,7.72843144 31.239696,7.15093903 31.244479,6.43368043 C31.2446427,6.42053681 31.2444703,6.40735402 31.2441517,6.39424936 C31.2329911,5.62223876 30.7619835,5.24328591 30.0095327,5.24328591 L28.9476719,5.24328591 Z M31.6175823,5.24328591 L31.6175823,9.22305637 L32.2947314,9.22305637 L32.2947314,7.30841099 L33.71052,7.30841099 L33.71052,9.22305637 L34.393317,9.22305637 L34.393317,9.22017899 L34.393317,5.25437143 L33.71052,5.25437143 L33.71052,6.77044317 L32.2947314,6.77044317 L32.2947314,5.24328591 L31.6175823,5.24328591 Z M35.0455287,5.24328591 L35.0455287,9.22017678 L35.7227841,9.22017678 L35.7227841,5.24328591 L35.0455287,5.24328591 Z M23.1089945,5.24605668 L23.1089945,9.22305637 L23.7917916,9.22305637 L23.7917916,7.72360961 L24.0983948,7.72360961 L24.7393101,9.22305637 L25.502994,9.22305637 L24.7142657,7.57590293 C25.142949,7.33791849 25.407144,6.88456724 25.4027112,6.39424936 C25.4027112,5.62223876 24.9316741,5.24605668 24.170863,5.24605668 L23.1089945,5.24605668 Z M17.5072236,5.74768394 C18.1872678,5.74768394 18.4688087,6.44719699 18.4688087,7.18020443 C18.4687711,7.91313427 18.2179105,8.72419771 17.5072236,8.72419771 C16.7965754,8.72419771 16.5485156,7.94097691 16.5485156,7.18020443 C16.5485156,6.41935436 16.8272181,5.74768394 17.5072236,5.74768394 Z M29.9987765,5.7761383 C30.2911549,5.77975044 30.5391918,6.00426339 30.5657318,6.30174392 C30.5692293,6.34094134 30.5686455,6.38028816 30.5641331,6.41929117 C30.6154631,6.80379935 30.3453458,7.15704797 29.9608376,7.20833909 C29.9418613,7.2108665 29.9227802,7.21265675 29.9036091,7.21366782 L29.9119219,7.20801956 L29.6332397,7.22475115 L29.6332397,5.77837646 L29.9398429,5.77837646 C29.9596775,5.77660968 29.9792846,5.77589762 29.9987765,5.77613824 L29.9987765,5.7761383 Z M24.1350553,5.77826771 C24.4274365,5.77901437 24.6775626,6.00103533 24.707019,6.29833355 C24.7111004,6.33951422 24.7107349,6.38110449 24.705955,6.42216844 C24.7561185,6.80527672 24.4861551,7.15640275 24.1030857,7.20652723 C24.0885809,7.20839387 24.0739452,7.20992439 24.0592855,7.21089673 L23.7806032,7.22752175 L23.7806032,5.7810405 L24.076017,5.7810405 C24.0958319,5.77907947 24.115565,5.77822008 24.135057,5.77826771 L24.1350553,5.77826771 Z M27.0859921,6.03190736 C27.2448429,6.64506723 27.3869632,7.12725243 27.534654,7.6512459 L26.6261401,7.6512459 C26.7849909,7.13009113 26.9438237,6.64506723 27.0859921,6.03190736 Z M10.3571955,13.346162 L6.71610646,21.7683208 L3.45142785,13.7577372 L0.0355248562,13.7577372 L6.3437502,28.6302882 L10.2732213,19.7430557 L14.2257048,28.6302882 L20.5004688,13.7577372 L17.2909921,13.7577372 L14.006809,21.7683208 L10.3571955,13.346162 Z M23.079901,13.7577372 L23.079901,28.0257137 L26.1934643,28.0257137 L26.1934643,13.7577372 L23.079901,13.7577372 Z M30.2040313,13.7577372 L30.2040313,28.0257137 L38.3355725,28.0257137 L39.3534274,25.4562994 L33.3175947,25.4562994 L33.3175947,13.7577372 L30.2040313,13.7577372 Z M41.9327532,13.7580569 L41.9327532,28.0261398 L46.5880719,28.0261398 C50.8081671,28.0261398 53.9346147,24.8793409 53.9346147,20.8930577 C53.9346147,16.6320606 50.4289533,13.7580569 46.7694544,13.7580569 L41.9327532,13.7580569 Z M45.0340609,16.3407948 L46.2555714,16.3407948 C48.9752099,16.3407948 50.8002701,18.297469 50.8002701,20.8921006 C50.8002701,23.8745301 48.4978477,25.4443657 46.4227809,25.4443657 L45.0340609,25.4443657 L45.0340609,16.3407948 Z" id="path4319"></path>
            </g>
        </g>
    </g>
</svg>
