<svg version="1.1" id="圖層_1" xmlns="http://www.w3.org/2000/svg" xmlns:xlink="http://www.w3.org/1999/xlink" x="0px" y="0px"
	 width="85.6164383562px" height="25px" viewBox="0 0 500 146" enable-background="new 0 0 500 146" xml:space="preserve">
<path fill="#0A7DEB" d="M203.954,117.362L203.954,117.362c8.423,0,14.6-1.123,20.215-10.669l28.639-63.454
	c0-2.246-0.562-3.931-2.808-3.931h-16.846c-1.685,0-3.931,1.685-4.492,3.931l-19.654,47.731c-1.123,2.246-2.808,3.931-5.054,3.931
	c-2.246,0-4.492-1.685-5.054-3.931l-19.654-47.731c-1.123-2.246-2.808-3.931-4.492-3.931h-17.408c-2.246,0-2.808,1.685-2.808,3.931
	l28.638,63.454c5.615,9.546,12.354,10.669,20.215,10.669H203.954z"/>
<path fill="#0A7DEB" d="M290.431,113.431c0,2.808-1.685,3.931-3.931,3.931h-14.6c-2.808,0-3.931-1.123-3.931-3.931V43.238
	c0-2.808,1.685-3.931,3.931-3.931h14.6c2.808,0,3.931,1.123,3.931,3.931V113.431z"/>
<path fill="#0A7DEB" d="M353.885,98.269c-13.477,0-19.092-6.177-19.654-14.038c0,0,0-38.185-0.561-39.869
	c0-2.246-0.562-5.054-4.492-5.054h-15.162c-1.685,0-3.931,1.685-3.931,3.931v40.992c0,21.9,19.654,33.131,43.8,33.131
	c24.146,0,43.8-11.231,43.8-33.131V43.238c0-2.246-1.685-3.931-3.931-3.931h-15.162c-3.931,0-4.492,2.808-4.492,5.054
	c0,1.685-0.562,39.869-0.562,39.869c1.123,0,0,0,0,0C372.977,92.092,367.362,98.269,353.885,98.269z"/>
<path fill="#0A7DEB" d="M292.677,13.477c0,7.3-6.177,13.477-13.477,13.477c-7.3,0-13.477-6.177-13.477-13.477S271.9,0,279.2,0
	C286.5,0,292.677,6.177,292.677,13.477z"/>
<path fill="#0A7DEB" d="M134.885,78.615c0,37.623-30.323,67.385-67.385,67.385c-37.623,0-67.385-29.761-67.385-67.385
	c0-37.061,29.762-67.385,67.385-67.385C104.561,11.231,134.885,41.554,134.885,78.615z M67.5,23.023
	c-30.885,0-56.154,24.708-56.154,55.592s25.269,56.154,56.154,56.154s55.592-25.269,55.592-56.154S98.385,23.023,67.5,23.023z"/>
<path fill="#0A7DEB" d="M105.685,78.054L105.685,78.054c0-6.177-1.123-11.792-8.985-15.723L46.723,39.308
	c-2.246,0-3.369,0.562-3.369,2.246v13.477c0,1.123,1.123,2.808,2.808,3.369l38.185,15.723c1.685,1.123,3.369,2.246,3.369,4.492
	c0,1.685-1.685,3.369-3.369,3.931L46.161,98.269c-1.685,0.562-2.808,2.246-2.808,3.369v14.038c0,1.123,1.123,1.685,3.369,1.685
	L96.7,94.339c7.862-3.931,8.985-8.985,8.985-15.723V78.054z"/>
<path fill="#0A7DEB" d="M498.762,39.308h-9.546c-0.562,0-1.685,1.123-2.246,2.246L476.3,66.823
	c-0.562,1.685-1.685,2.246-2.808,2.246c-1.123,0-2.246-0.562-2.808-2.246l-10.669-25.269c0-1.123-1.123-2.246-2.246-2.246h-1.685
	h-7.3h-12.915h-7.862h-13.477c-1.123,0-1.685,0.562-1.685,2.246v7.862c0,1.123,0.562,1.685,1.685,1.685h11.792v28.077
	c0,1.685,0.562,2.246,1.685,2.246h7.862c1.685,0,2.246-0.562,2.246-2.246V51.1h13.477l11.231,24.146
	c2.808,5.615,6.177,6.177,10.669,6.177c4.492,0,7.862-0.562,11.231-6.177l15.161-33.692
	C499.885,40.431,499.885,39.308,498.762,39.308z"/>
</svg>
