<svg
   xmlns:dc="http://purl.org/dc/elements/1.1/"
   xmlns:cc="http://creativecommons.org/ns#"
   xmlns:rdf="http://www.w3.org/1999/02/22-rdf-syntax-ns#"
   xmlns:svg="http://www.w3.org/2000/svg"
   xmlns="http://www.w3.org/2000/svg"
   xmlns:sodipodi="http://sodipodi.sourceforge.net/DTD/sodipodi-0.dtd"
   xmlns:inkscape="http://www.inkscape.org/namespaces/inkscape"
   width="81.48072"
   height="25"
   viewBox="0 0 86.233761 26.458333"
   version="1.1"
   id="svg3870"
   inkscape:version="0.92.1 r15371"
   sodipodi:docname="viutvsix-logo.svg">
  <title
     id="title5490">ViuTVsix Logo</title>
  <defs
     id="defs3864" />
  <sodipodi:namedview
     id="base"
     pagecolor="#ffffff"
     bordercolor="#666666"
     borderopacity="1.0"
     inkscape:pageopacity="0.0"
     inkscape:pageshadow="2"
     inkscape:zoom="2.8"
     inkscape:cx="177.6162"
     inkscape:cy="59.978882"
     inkscape:document-units="mm"
     inkscape:current-layer="layer1"
     showgrid="false"
     inkscape:pagecheckerboard="true"
     fit-margin-top="0"
     fit-margin-left="0"
     fit-margin-right="0"
     fit-margin-bottom="0"
     inkscape:window-width="1366"
     inkscape:window-height="706"
     inkscape:window-x="-8"
     inkscape:window-y="-8"
     inkscape:window-maximized="1" />
  <metadata
     id="metadata3867">
    <rdf:RDF>
      <cc:Work
         rdf:about="">
        <dc:format>image/svg+xml</dc:format>
        <dc:type
           rdf:resource="http://purl.org/dc/dcmitype/StillImage" />
        <dc:title>ViuTVsix Logo</dc:title>
      </cc:Work>
    </rdf:RDF>
  </metadata>
  <g
     inkscape:label="Layer 1"
     inkscape:groupmode="layer"
     id="layer1"
     transform="translate(-62.716456,-145.44367)"
     style="display:inline">
    <g
       style="display:inline;opacity:1;fill:#0a7deb;fill-opacity:1"
       id="g154"
       transform="matrix(0,0.26627685,0.26627685,0,80.959081,160.31257)">
      <path
         d="m 0,0 h -0.003 c -4.72,0 -8.816,-2.663 -10.873,-6.574 L -25.22,-38.188 c -0.11,-0.203 -0.171,-0.44 -0.171,-0.695 0,-0.817 0.668,-1.494 1.494,-1.494 h 8.411 c 1.121,0 2.088,0.668 2.531,1.617 l 10.675,25.708 c 0.378,0.888 1.257,1.512 2.28,1.512 1.025,0 1.904,-0.624 2.276,-1.512 L 12.955,-38.76 c 0.445,-0.949 1.406,-1.617 2.531,-1.617 h 8.411 c 0.826,0 1.494,0.677 1.494,1.494 0,0.255 -0.061,0.492 -0.17,0.695 L 10.877,-6.574 C 8.821,-2.663 4.725,0 0,0"
         style="display:inline;fill:#0a7deb;fill-opacity:1;fill-rule:nonzero;stroke:none"
         id="path156"
         inkscape:connector-curvature="0" />
    </g>
    <g
       style="opacity:1;fill:#0a7deb;fill-opacity:1"
       id="g158"
       transform="matrix(0,0.26627685,0.26627685,0,74.305623,150.71169)">
      <path
         d="m 0,0 c 0,-20.101 16.141,-36.404 36.057,-36.404 19.912,0 36.057,16.303 36.057,36.404 0,20.109 -16.145,36.404 -36.057,36.404 C 16.141,36.404 0,20.109 0,0 M 36.057,43.523 C 60.095,43.523 79.58,24.038 79.58,0 c 0,-24.038 -19.485,-43.523 -43.523,-43.523 -24.038,0 -43.523,19.485 -43.523,43.523 0,24.038 19.485,43.523 43.523,43.523"
         style="fill:#0a7deb;fill-opacity:1;fill-rule:nonzero;stroke:none"
         id="path160"
         inkscape:connector-curvature="0" />
    </g>
    <g
       style="opacity:1;fill:#0a7deb;fill-opacity:1"
       id="g162"
       transform="matrix(0,0.26627685,0.26627685,0,110.16379,167.06695)">
      <path
         d="m 0,0 c 0,-1.027 -0.838,-1.871 -1.875,-1.871 h -46.974 c -1.037,0 -1.881,0.844 -1.881,1.871 v 10.705 c 0,1.037 0.844,1.881 1.881,1.881 H -1.875 C -0.838,12.586 0,11.742 0,10.705"
         style="fill:#0a7deb;fill-opacity:1;fill-rule:nonzero;stroke:none"
         id="path164"
         inkscape:connector-curvature="0" />
    </g>
    <g
       style="display:inline;opacity:1;fill:#0a7deb;fill-opacity:1"
       id="g166"
       transform="matrix(0,0.26627685,0.26627685,0,98.247105,167.06695)">
      <path
         d="m 0,0 v 0.009 c 0,5.932 -3.349,11.074 -8.262,13.658 l -39.713,18.025 c -0.263,0.141 -0.562,0.221 -0.879,0.221 -1.032,0 -1.876,-0.844 -1.876,-1.881 V 19.459 c 0,-1.406 0.835,-2.619 2.035,-3.173 l 32.3,-13.421 c 1.116,-0.466 1.898,-1.573 1.898,-2.856 V 0 c 0,-1.283 -0.782,-2.391 -1.898,-2.856 l -32.3,-13.421 c -1.2,-0.554 -2.035,-1.767 -2.035,-3.182 v -10.564 c 0,-1.038 0.844,-1.881 1.876,-1.881 0.317,0 0.616,0.079 0.879,0.211 l 39.713,18.035 C -3.349,-11.083 0,-5.933 0,0"
         style="fill:#0a7deb;fill-opacity:1;fill-rule:nonzero;stroke:none"
         id="path168"
         inkscape:connector-curvature="0" />
    </g>
    <g
       style="display:inline;opacity:1;fill:#0a7deb;fill-opacity:1"
       id="g170"
       transform="matrix(0,0.26627685,0.26627685,0,113.89886,148.32346)">
      <path
         d="m 0,0 c 4.786,0 8.665,-3.885 8.665,-8.674 0,-4.781 -3.879,-8.666 -8.665,-8.666 -4.787,0 -8.666,3.885 -8.666,8.666 C -8.666,-3.885 -4.787,0 0,0"
         style="fill:#0a7deb;fill-opacity:1;fill-rule:nonzero;stroke:none"
         id="path172"
         inkscape:connector-curvature="0" />
    </g>
    <g
       style="opacity:1;fill:#0a7deb;fill-opacity:1"
       id="g174"
       transform="matrix(0,0.26627685,0.26627685,0,124.12416,167.06695)">
      <path
         d="m 0,0 c 0,15.346 -9.659,26.902 -21.568,26.902 h -27.281 c -1.037,0 -1.881,-0.843 -1.881,-1.871 V 14.316 c 0,-1.037 0.844,-1.88 1.881,-1.88 l 24.737,-0.008 c 5.326,0 9.645,-5.565 9.645,-12.428 0,-6.865 -4.319,-12.438 -9.645,-12.438 l -24.737,-0.007 c -1.037,0 -1.881,-0.836 -1.881,-1.881 v -10.705 c 0,-1.037 0.844,-1.881 1.881,-1.881 h 27.281 C -9.659,-26.912 0,-15.355 0,0"
         style="fill:#0a7deb;fill-opacity:1;fill-rule:nonzero;stroke:none"
         id="path176"
         inkscape:connector-curvature="0" />
    </g>
    <g
       style="opacity:1;fill:#0a7deb;fill-opacity:1"
       id="g178"
       transform="matrix(0,0.26627685,0.26627685,0,141.50804,156.40096)">
      <path
         d="M 0,0 C 0,0.756 0.448,1.406 1.094,1.713 L 18.493,8.93 c 0.597,0.254 1.019,0.851 1.019,1.547 0,0.693 -0.422,1.283 -1.019,1.537 L 1.094,19.238 C 0.448,19.537 0,20.197 0,20.953 v 4.754 c -10.296,-4.35 -17.525,-14.545 -17.525,-26.42 0,-1.213 0.079,-2.416 0.224,-3.586 l -0.224,0.115 C -23.194,-1.029 -41.15,13.771 -41.15,13.771 V -4.492 c 0,0 13.047,-11.672 21.735,-16.383 7.695,-4.174 14.304,-6.346 19.415,-7.461"
         style="fill:#0a7deb;fill-opacity:1;fill-rule:nonzero;stroke:none"
         id="path180"
         inkscape:connector-curvature="0" />
    </g>
    <g
       style="display:inline;opacity:1;fill:#0a7deb;fill-opacity:1"
       id="g182"
       transform="matrix(0,0.26627685,0.26627685,0,148.64586,157.22696)">
      <path
         d="m 0,0 19.767,-8.975 c 2.646,-1.388 4.451,-4.166 4.451,-7.355 0,-3.199 -1.805,-5.969 -4.451,-7.358 L 4.179,-30.779 v -9.071 h 19.025 c 0.557,0 1.014,-0.449 1.014,-1.011 v -5.246 c 0,-0.563 -0.457,-1.012 -1.014,-1.012 H 4.179 v -9.018 l -0.009,-0.07 c 2.707,-0.166 4.184,0.018 4.184,0.018 v 0.009 c 15.685,0.166 28.35,12.928 28.35,28.66 0,15.831 -12.832,28.663 -28.667,28.663 C 5.247,1.143 2.553,0.746 0,0"
         style="fill:#0a7deb;fill-opacity:1;fill-rule:nonzero;stroke:none"
         id="path184"
         inkscape:connector-curvature="0" />
    </g>
  </g>
</svg>
