<?xml version="1.0" encoding="UTF-8"?>
<svg width="71px" height="30px" viewBox="0 0 71 30" version="1.1" xmlns="http://www.w3.org/2000/svg" xmlns:xlink="http://www.w3.org/1999/xlink">
    <title>Logo-WF</title>
    <g id="Page-1" stroke="none" stroke-width="1" fill="none" fill-rule="evenodd">
        <g id="Logo-WF" fill="#000000" fill-rule="nonzero">
            <g id="Group" transform="translate(39.104821, 0.000000)">
                <g transform="translate(4.079544, 6.766917)" id="Path">
                    <path d="M15.335007,0.206842105 L13.5336615,0.206842105 L13.2483201,0.206842105 L13.2483201,0.703984962 L13.5336615,0.703984962 L14.0238868,0.703984962 L13.9731191,0.950977444 L11.628741,12.1398496 L9.34510275,0.703984962 L10.5057331,0.703984962 L10.5057331,0.206842105 L5.80723129,0.206842105 L5.80723129,0.703984962 L6.87425876,0.703984962 L7.52925226,3.99518797 L5.82581588,12.1398496 L3.41117894,0.703984962 L4.47820642,0.703984962 L4.47820642,0.206842105 L0.0417020082,0.206842105 L0.0417020082,0.703984962 L0.865316671,0.703984962 L4.19739778,16.3069173 L5.39542396,16.3069173 L7.77266507,5.29714286 L10.0939258,16.3069173 L11.2733673,16.3069173 L13.3940504,6.08932331 L13.3938238,6.08932331 L13.412635,5.99932331 L13.9731191,3.29842105 L13.9731191,3.31511278 L14.4928077,0.826691729 L14.5220444,0.698345865 L16.8956593,0.698345865 L16.8956593,0.703984962 L19.5487229,0.703984962 C19.9231344,0.703984962 20.3349418,0.987969925 20.5033363,1.41428571 C20.896559,2.31406015 21.3645734,4.08969925 21.5329679,5.3918797 L22.1131698,5.3918797 L22.1131698,0.206842105 L15.335007,0.206842105 Z"></path>
                    <path d="M19.3374932,4.39781955 C19.2812861,5.34473684 18.9818929,6.5287218 18.7572913,6.97849624 C18.5888968,7.3337594 18.2892769,7.54669173 17.8960542,7.54669173 L16.7354239,7.54669173 L16.7354239,1.58390977 L15.185877,1.58390977 L14.3393715,5.63729323 L14.3393715,15.81 L13.3285511,15.81 L13.3285511,16.3071429 L18.1766362,16.3071429 L18.1766362,15.81 L16.7351972,15.81 L16.7351972,8.13857143 L17.8958276,8.13857143 C18.2888237,8.13857143 18.6446506,8.37518797 18.7570647,8.73045113 C18.962855,9.32233083 19.2624749,10.4350376 19.3372665,11.1927068 L19.8802992,11.1927068 L19.8802992,4.39781955 L19.3374932,4.39781955 Z"></path>
                </g>
                <path d="M29.1256798,29.9185714 L1.18850723,29.9185714 C0.638675322,29.9185714 0.191285299,29.4735338 0.191285299,28.9263158 L0.191285299,1.12172932 C0.191285299,0.574511278 0.638675322,0.129473684 1.18850723,0.129473684 L29.1256798,0.129473684 C29.6755117,0.129473684 30.1229017,0.574511278 30.1229017,1.12172932 L30.1229017,28.9263158 C30.1229017,29.4735338 29.6755117,29.9185714 29.1256798,29.9185714 Z M1.18850723,0.64556391 C0.924696704,0.64556391 0.710067347,0.858947368 0.710067347,1.12150376 L0.710067347,28.9263158 C0.710067347,29.1888722 0.924696704,29.4022556 1.18850723,29.4022556 L29.1256798,29.4022556 C29.3894903,29.4022556 29.6041197,29.1888722 29.6041197,28.9263158 L29.6041197,1.12172932 C29.6041197,0.859172932 29.3894903,0.64556391 29.1256798,0.64556391 L1.18850723,0.64556391 L1.18850723,0.64556391 Z" id="Shape"></path>
            </g>
            <g id="Group">
                <polygon id="Path" points="4.61138502 17.0309091 2.20391952 17.0309091 2.20391952 20.2513636 0.734115042 20.2513636 0.734115042 12.5006818 5.04344231 12.5006818 5.04344231 13.7145455 2.20391952 13.7145455 2.20391952 15.8222727 4.61138502 15.8222727"></polygon>
                <path d="M8.04850085,18.5959091 L6.15181208,18.5959091 L5.77778227,20.2513636 L4.2974069,20.2513636 L6.34681139,12.5006818 L7.86924543,12.5006818 L9.90807903,20.2513636 L8.43332648,20.2513636 L8.04850085,18.5959091 Z M6.42553083,17.3872727 L7.77410736,17.3872727 L7.105217,14.4702273 L7.0892482,14.4702273 L6.42553083,17.3872727 Z" id="Shape"></path>
                <path d="M13.6292596,18.2286364 C13.6292596,17.9197727 13.5599865,17.68 13.4212154,17.5097727 C13.2822193,17.3395455 13.0323413,17.1675 12.6706817,16.9931818 C11.8940581,16.7056818 11.3194062,16.3893182 10.9453764,16.0431818 C10.5708967,15.6970455 10.3839943,15.1961364 10.3839943,14.5390909 C10.3839943,13.8897727 10.6028344,13.3688636 11.0398397,12.9768182 C11.4772949,12.5847727 12.0487981,12.3886364 12.754799,12.3886364 C13.4608,12.3886364 14.0298291,12.6097727 14.4614366,13.0513636 C14.8937188,13.4934091 15.109635,14.0675 15.109635,14.7736364 L13.6398305,14.7736364 C13.6398305,14.4081818 13.5626854,14.1177273 13.4079455,13.9034091 C13.2536554,13.6886364 13.0269434,13.5811364 12.7282593,13.5811364 C12.4473434,13.5811364 12.2312023,13.6715909 12.0805108,13.8525 C11.9291445,14.0334091 11.8537988,14.2643182 11.8537988,14.5445455 C11.8537988,14.8034091 11.9388158,15.0138636 12.1095245,15.1754545 C12.2797834,15.3368182 12.5809415,15.5204545 13.0127739,15.7261364 C13.7187749,15.9784091 14.2432713,16.2902273 14.5853635,16.6629545 C14.9281304,17.0359091 15.0990641,17.5543182 15.0990641,18.2177273 C15.0990641,18.9027273 14.8916946,19.4315909 14.4771805,19.8040909 C14.0626664,20.1765909 13.4972358,20.3629545 12.7811138,20.3629545 C12.0679157,20.3629545 11.4595268,20.15 10.9552725,19.7238636 C10.4512432,19.2981818 10.199341,18.6663636 10.199341,17.8290909 L11.6745434,17.8290909 C11.6745434,18.3225 11.7622593,18.67 11.9379161,18.8722727 C12.113348,19.0745455 12.3947138,19.1756818 12.7811138,19.1756818 C13.0761993,19.1756818 13.2909909,19.0922727 13.4263883,18.9256818 C13.561336,18.7588636 13.6292596,18.5268182 13.6292596,18.2286364" id="Path"></path>
                <polygon id="Path" points="21.0225898 20.2515909 19.5527853 20.2515909 19.5527853 17.0415909 17.3556132 17.0415909 17.3556132 20.2515909 15.8862585 20.2515909 15.8862585 12.5002273 17.3556132 12.5002273 17.3556132 15.8331818 19.5527853 15.8331818 19.5527853 12.5002273 21.0225898 12.5002273"></polygon>
                <rect id="Rectangle" x="22.083278" y="12.5004545" width="1.46980447" height="7.75136364"></rect>
                <path d="M29.6662096,17.4672727 C29.6662096,18.4040909 29.4376983,19.1209091 28.9813505,19.6179545 C28.5250026,20.1147727 27.8995204,20.3629545 27.1058035,20.3629545 C26.308488,20.3629545 25.6843552,20.1147727 25.2334053,19.6179545 C24.7817806,19.1211364 24.5559682,18.4040909 24.5559682,17.4672727 L24.5559682,15.2954545 C24.5559682,14.3622727 24.7817806,13.6443182 25.2334053,13.1422727 C25.6845801,12.64 26.3055641,12.3886364 27.0956824,12.3886364 C27.8925481,12.3886364 28.5205043,12.64 28.9786515,13.1422727 C29.4367987,13.6445455 29.6662096,14.3625 29.6662096,15.2954545 L29.6662096,17.4672727 L29.6662096,17.4672727 Z M28.1964051,15.2847727 C28.1964051,14.7063636 28.1059902,14.2820455 27.9251604,14.0125 C27.7443306,13.7429545 27.4679129,13.6079545 27.0956824,13.6079545 C26.7230021,13.6079545 26.4517574,13.7420455 26.2814984,14.01 C26.1107897,14.2777273 26.0257727,14.7029545 26.0257727,15.285 L26.0257727,17.4677273 C26.0257727,18.0531818 26.1130388,18.4802273 26.2868963,18.7479545 C26.4607539,19.0161364 26.733573,19.15 27.1058035,19.15 C27.4744354,19.15 27.7488289,19.015 27.9278594,18.7454545 C28.1068899,18.4759091 28.1964051,18.0497727 28.1964051,17.4677273 L28.1964051,15.2847727 Z" id="Shape"></path>
                <polygon id="Path" points="35.7267071 20.2515909 34.2620757 20.2515909 32.0862702 15.3593182 32.0703014 15.3593182 32.0703014 20.2515909 30.6009468 20.2515909 30.6009468 12.5002273 32.0703014 12.5002273 34.2461069 17.3875 34.2620757 17.3875 34.2620757 12.5002273 35.7267071 12.5002273"></polygon>
                <polygon id="Path" points="10.5121945 29.7440909 9.11436212 29.7440909 9.11436212 26.6911364 7.02492317 26.6911364 7.02492317 29.7440909 5.62686585 29.7440909 5.62686585 22.3715909 7.02492317 22.3715909 7.02492317 25.5413636 9.11436212 25.5413636 9.11436212 22.3715909 10.5121945 22.3715909"></polygon>
                <path d="M5.05581251,27.3934091 C5.05221391,28.2 4.85384091,28.8015909 4.45956895,29.1986364 C4.06529699,29.5947727 3.49424366,29.7931818 2.7457342,29.7931818 C2.0140932,29.7931818 1.45226128,29.5663636 1.05978863,29.1122727 C0.666866146,28.6581818 0.470967187,27.9893182 0.470967187,27.1047727 L0.470967187,24.9025 C0.470967187,24.0281818 0.672039138,23.3606818 1.07463287,22.8997727 C1.47722659,22.4390909 2.03433534,22.2086364 2.74550929,22.2086364 C3.50706368,22.2086364 4.07766719,22.4086364 4.45664509,22.8084091 C4.83584789,23.2086364 5.03691984,23.8222727 5.06076059,24.6488636 L3.66225344,24.6488636 C3.67912189,24.1831818 3.61996985,23.8525 3.48457241,23.6568182 C3.34917497,23.4606818 3.10312048,23.3631818 2.74550929,23.3631818 C2.44165224,23.3631818 2.21853884,23.4852273 2.07661893,23.73 C1.93469902,23.975 1.86362661,24.3622727 1.86362661,24.8922727 L1.86362661,27.1047727 C1.86362661,27.6515909 1.93065059,28.045 2.06424873,28.2843182 C2.19784687,28.5240909 2.4250087,28.6438636 2.74550929,28.6438636 C3.07927973,28.6438636 3.31926158,28.5502273 3.46478009,28.3631818 C3.60984878,28.1754545 3.67417381,27.8525 3.65753027,27.3934091 L5.05581251,27.3934091 Z" id="Path"></path>
                <path d="M14.4079074,28.1125 L12.6038826,28.1125 L12.2480707,29.6868182 L10.8403422,29.6868182 L12.7896605,22.3147727 L14.2374235,22.3147727 L16.1763959,29.6868182 L14.7736154,29.6868182 L14.4079074,28.1125 Z M12.8645564,26.9627273 L14.1474585,26.9627273 L13.5111804,24.1881818 L13.4961113,24.1881818 L12.8645564,26.9627273 Z" id="Shape"></path>
                <polygon id="Path" points="21.3703048 29.6870455 19.9771956 29.6870455 17.9079987 25.0336364 17.8931545 25.0336364 17.8931545 29.6870455 16.4950972 29.6870455 16.4950972 22.3145455 17.8931545 22.3145455 19.9621264 26.9629545 19.9771956 26.9629545 19.9771956 22.3145455 21.3703048 22.3145455"></polygon>
                <polygon id="Path" points="26.9182263 29.6870455 25.525117 29.6870455 23.4559202 25.0336364 23.4408511 25.0336364 23.4408511 29.6870455 22.0427938 29.6870455 22.0427938 22.3145455 23.4408511 22.3145455 25.5100479 26.9629545 25.525117 26.9629545 25.525117 22.3145455 26.9182263 22.3145455"></polygon>
                <polygon id="Path" points="31.450442 26.4513636 29.1453118 26.4513636 29.1453118 28.5375 31.8615824 28.5375 31.8615824 29.6872727 27.7474794 29.6872727 27.7474794 22.3147727 31.8514614 22.3147727 31.8514614 23.4693182 29.1453118 23.4693182 29.1453118 25.3022727 31.450442 25.3022727"></polygon>
                <polygon id="Path" points="33.9298796 28.5377273 36.4453032 28.5377273 36.4453032 29.6870455 32.5318223 29.6870455 32.5318223 22.315 33.9298796 22.315"></polygon>
                <polygon id="Path" points="6.40798764 6.81727273 5.09877084 0.175681818 3.87187207 0.175681818 2.57435073 6.83636364 1.61397351 0.175681818 0.08006892 0.175681818 1.76219098 10.6531818 3.15822409 10.6531818 4.485209 3.93454545 5.81264373 10.6531818 7.20845193 10.6531818 8.89057399 0.175681818 7.3566694 0.175681818"></polygon>
                <path d="M12.6664083,0.0279545455 C11.6828651,0.0279545455 10.8992693,0.382727273 10.3365377,1.08181818 C9.78010371,1.77340909 9.49783827,2.76045455 9.49783827,4.01590909 L9.49783827,6.82636364 C9.49783827,8.08704545 9.78010371,9.07318182 10.3369875,9.75772727 C10.8997191,10.4497727 11.6855641,10.8004545 12.6729308,10.8004545 C13.6726677,10.8004545 14.4726822,10.4502273 15.0507078,9.75909091 C15.6235605,9.07454545 15.9141477,8.0875 15.9141477,6.82636364 L15.9141477,4.01590909 C15.9141477,2.76 15.6226608,1.7725 15.0475591,1.08 C14.467959,0.381818182 13.6665951,0.0279545455 12.6664083,0.0279545455 M11.0731268,3.99477273 C11.0731268,3.11863636 11.2125727,2.45568182 11.4876409,2.02340909 C11.755287,1.60318182 12.1407874,1.39863636 12.6664083,1.39863636 C13.2154202,1.39863636 13.6202631,1.60409091 13.9029783,2.02613636 C14.1926659,2.45795455 14.3390841,3.12022727 14.3390841,3.995 L14.3390841,6.82659091 C14.3390841,7.71568182 14.1935656,8.38545455 13.906352,8.81681818 C13.6254361,9.23886364 13.2219427,9.44431818 12.6729308,9.44431818 C12.1428116,9.44431818 11.755287,9.23977273 11.487416,8.81909091 C11.2121228,8.38727273 11.0729019,7.71704545 11.0729019,6.82659091 L11.0729019,3.99477273 L11.0731268,3.99477273 Z" id="Shape"></path>
                <path d="M22.8675486,9.69954545 C22.8142443,9.44909091 22.7872548,9.16568182 22.7872548,8.85727273 L22.7872548,7.96522727 C22.7872548,7.32181818 22.68357,6.78340909 22.4797991,6.36454545 C22.3043672,6.005 22.0250257,5.72636364 21.648072,5.53477273 C22.0038839,5.31386364 22.2870489,5.02954545 22.4912697,4.68772727 C22.7359747,4.27909091 22.8599016,3.78090909 22.8599016,3.20818182 C22.8599016,2.21977273 22.621719,1.46090909 22.1516515,0.952727273 C21.6793348,0.441590909 20.9764827,0.182727273 20.0626624,0.182727273 L17.0065487,0.182727273 L17.0065487,10.6531818 L18.5818372,10.6531818 L18.5818372,6.24727273 L20.0892021,6.24727273 C20.4508617,6.24727273 20.7194075,6.38909091 20.911258,6.68090909 C21.1109805,6.98431818 21.2119663,7.42113636 21.2119663,7.97954545 L21.2119663,8.84363636 C21.2119663,9.19886364 21.2322084,9.53613636 21.2729176,9.84681818 C21.3161008,10.1784091 21.4202354,10.4363636 21.5823975,10.6136364 L21.6186084,10.6531818 L23.1581358,10.6531818 L23.1581358,10.3081818 L23.1282224,10.2734091 C23.005645,10.1309091 22.9179291,9.93795455 22.8675486,9.69954545 M18.5820621,1.51818182 L20.0233027,1.51818182 C20.4661558,1.51818182 20.7783346,1.65636364 20.9762578,1.94022727 C21.1813781,2.23386364 21.2855127,2.6725 21.2855127,3.24272727 C21.2855127,3.79340909 21.1757553,4.21590909 20.9596142,4.49931818 C20.7479714,4.77659091 20.4137511,4.91159091 19.9369362,4.91159091 L18.582287,4.91159091 L18.582287,1.51818182 L18.5820621,1.51818182 Z" id="Shape"></path>
                <polygon id="Path" points="25.5743729 0.175454545 23.9990844 0.175454545 23.9990844 10.6531818 29.1174226 10.6531818 29.1174226 9.32477273 25.5743729 9.32477273"></polygon>
                <path d="M34.9343397,1.25795455 C34.3165045,0.539545455 33.4053832,0.175454545 32.2261659,0.175454545 L29.8058804,0.175454545 L29.8058804,10.6529545 L32.1665641,10.6529545 C33.3761445,10.6529545 34.305034,10.2938636 34.9266927,9.58568182 C35.5445279,8.88159091 35.8580563,7.7875 35.8580563,6.33477273 L35.8580563,4.50772727 C35.8582811,3.06454545 35.5472268,1.97090909 34.9343397,1.25795455 M31.3811689,1.51818182 L32.1863564,1.51818182 C32.9440873,1.51818182 33.4877012,1.74636364 33.8016794,2.19681818 C34.1253287,2.66068182 34.289515,3.43340909 34.289515,4.49363636 L34.289515,6.335 C34.289515,7.39068182 34.1233045,8.16431818 33.7951569,8.63522727 C33.4766805,9.0925 32.9130493,9.32454545 32.120232,9.32454545 L31.3811689,9.32454545 L31.3811689,1.51818182 Z" id="Shape"></path>
            </g>
        </g>
    </g>
</svg>
