<svg version="1.1" id="Слой_1" xmlns="http://www.w3.org/2000/svg" xmlns:xlink="http://www.w3.org/1999/xlink" x="0px" y="0px"
	 width="71px" height="30px" viewBox="0 0 356.79 179.012" enable-background="new 0 0 356.79 179.012"
	 xml:space="preserve">
<g>
	<g>
		<g>
			<path d="M284.662,54.917h-7.948h-1.259v2.204h1.259h2.163l-0.224,1.095l-10.344,49.604l-10.076-50.699h5.121v-2.204h-20.731
				v2.204h4.708l2.89,14.591l-7.516,36.108l-10.654-50.699h4.708v-2.204h-19.575v2.204h3.634l14.702,69.173h5.286l10.489-48.81
				l10.242,48.81h5.204l9.357-45.298l-0.001,0l0.083-0.399l2.473-11.974v0.074l2.293-11.032l0.129-0.569h10.473v0.025h11.706
				c1.652,0,3.469,1.259,4.212,3.149c1.735,3.989,3.8,11.861,4.543,17.634h2.56V54.917H284.662z"/>
			<path d="M302.322,73.497c-0.248,4.198-1.569,9.447-2.56,11.441c-0.743,1.575-2.065,2.519-3.8,2.519h-5.121V61.022h-6.837
				l-3.735,17.97v45.099h-4.46v2.204h21.391v-2.204h-6.36V90.081h5.121c1.734,0,3.304,1.049,3.8,2.624
				c0.908,2.624,2.23,7.557,2.56,10.916h2.396V73.497H302.322z"/>
		</g>
		<path d="M327.51,156.639H204.244c-2.426,0-4.4-1.973-4.4-4.399V28.973c0-2.426,1.974-4.399,4.4-4.399H327.51
			c2.426,0,4.4,1.973,4.4,4.399V152.24C331.91,154.666,329.936,156.639,327.51,156.639z M204.244,26.862
			c-1.164,0-2.111,0.946-2.111,2.11V152.24c0,1.164,0.947,2.11,2.111,2.11H327.51c1.164,0,2.111-0.946,2.111-2.11V28.973
			c0-1.164-0.947-2.11-2.111-2.11H204.244z"/>
	</g>
	<g>
		<polygon points="45.503,99.936 34.799,99.936 34.799,114.106 28.264,114.106 28.264,80.003 47.424,80.003 47.424,85.344 
			34.799,85.344 34.799,94.618 45.503,94.618 		"/>
		<path d="M60.785,106.822h-8.433l-1.663,7.284h-6.582l9.112-34.103h6.769l9.065,34.103h-6.557L60.785,106.822z M53.569,101.504
			h5.996l-2.974-12.835H56.52L53.569,101.504z"/>
		<path d="M85.598,105.206c0-1.359-0.308-2.414-0.925-3.163c-0.618-0.749-1.729-1.506-3.337-2.273
			c-3.453-1.265-6.008-2.657-7.671-4.18c-1.665-1.523-2.496-3.727-2.496-6.618c0-2.857,0.973-5.149,2.916-6.874
			c1.945-1.725,4.486-2.588,7.625-2.588c3.139,0,5.669,0.973,7.588,2.916c1.922,1.945,2.882,4.471,2.882,7.578h-6.535
			c0-1.608-0.343-2.886-1.031-3.829c-0.686-0.945-1.694-1.418-3.022-1.418c-1.249,0-2.21,0.398-2.88,1.194
			c-0.673,0.796-1.008,1.812-1.008,3.045c0,1.139,0.378,2.065,1.137,2.776c0.757,0.71,2.096,1.518,4.016,2.423
			c3.139,1.11,5.471,2.482,6.992,4.122c1.524,1.641,2.284,3.922,2.284,6.841c0,3.014-0.922,5.341-2.765,6.98
			s-4.357,2.459-7.541,2.459c-3.171,0-5.876-0.937-8.118-2.812c-2.241-1.873-3.361-4.653-3.361-8.337h6.559
			c0,2.171,0.39,3.7,1.171,4.59c0.78,0.89,2.031,1.335,3.749,1.335c1.312,0,2.267-0.367,2.869-1.1
			C85.296,107.539,85.598,106.518,85.598,105.206"/>
		<polygon points="118.47,114.107 111.935,114.107 111.935,99.983 102.166,99.983 102.166,114.107 95.633,114.107 95.633,80.001 
			102.166,80.001 102.166,94.666 111.935,94.666 111.935,80.001 118.47,80.001 		"/>
		<rect x="123.186" y="80.002" width="6.535" height="34.106"/>
		<path d="M156.901,101.856c0,4.122-1.016,7.276-3.045,9.463c-2.029,2.186-4.81,3.278-8.339,3.278c-3.545,0-6.32-1.092-8.325-3.278
			c-2.008-2.186-3.012-5.341-3.012-9.463V92.3c0-4.106,1.004-7.265,3.012-9.474c2.006-2.21,4.767-3.316,8.28-3.316
			c3.543,0,6.335,1.106,8.372,3.316c2.037,2.21,3.057,5.369,3.057,9.474V101.856z M150.366,92.253c0-2.545-0.402-4.412-1.206-5.598
			s-2.033-1.78-3.688-1.78c-1.657,0-2.863,0.59-3.62,1.769c-0.759,1.178-1.137,3.049-1.137,5.61v9.604
			c0,2.576,0.388,4.455,1.161,5.633c0.773,1.18,1.986,1.769,3.641,1.769c1.639,0,2.859-0.594,3.655-1.78
			c0.796-1.186,1.194-3.061,1.194-5.622V92.253z"/>
		<polygon points="183.847,114.107 177.335,114.107 167.661,92.581 167.59,92.581 167.59,114.107 161.057,114.107 161.057,80.001 
			167.59,80.001 177.264,101.505 177.335,101.505 177.335,80.001 183.847,80.001 		"/>
		<polygon points="71.739,155.874 65.524,155.874 65.524,142.441 56.234,142.441 56.234,155.874 50.018,155.874 50.018,123.435 
			56.234,123.435 56.234,137.382 65.524,137.382 65.524,123.435 71.739,123.435 		"/>
		<path d="M47.479,145.531c-0.016,3.549-0.898,6.196-2.651,7.943c-1.753,1.743-4.292,2.616-7.62,2.616
			c-3.253,0-5.751-0.998-7.496-2.996c-1.747-1.998-2.618-4.941-2.618-8.833v-9.69c0-3.847,0.894-6.784,2.684-8.812
			c1.79-2.027,4.267-3.041,7.429-3.041c3.386,0,5.923,0.88,7.608,2.639c1.686,1.761,2.58,4.461,2.686,8.098h-6.218
			c0.075-2.049-0.188-3.504-0.79-4.365c-0.602-0.863-1.696-1.292-3.286-1.292c-1.351,0-2.343,0.537-2.974,1.614
			c-0.631,1.078-0.947,2.782-0.947,5.114v9.735c0,2.406,0.298,4.137,0.892,5.19c0.594,1.055,1.604,1.582,3.029,1.582
			c1.484,0,2.551-0.412,3.198-1.235c0.645-0.826,0.931-2.247,0.857-4.267H47.479z"/>
		<path d="M89.06,148.695h-8.021l-1.582,6.927h-6.259l8.667-32.437h6.437l8.621,32.437h-6.237L89.06,148.695z M82.198,143.636h5.704
			l-2.829-12.208h-0.067L82.198,143.636z"/>
		<polygon points="120.016,155.623 113.822,155.623 104.622,135.148 104.556,135.148 104.556,155.623 98.34,155.623 98.34,123.184 
			104.556,123.184 113.755,143.637 113.822,143.637 113.822,123.184 120.016,123.184 		"/>
		<polygon points="144.683,155.623 138.489,155.623 129.289,135.148 129.222,135.148 129.222,155.623 123.006,155.623 
			123.006,123.184 129.222,123.184 138.422,143.637 138.489,143.637 138.489,123.184 144.683,123.184 		"/>
		<polygon points="164.834,141.386 154.585,141.386 154.585,150.565 166.662,150.565 166.662,155.624 148.37,155.624 
			148.37,123.185 166.617,123.185 166.617,128.265 154.585,128.265 154.585,136.33 164.834,136.33 		"/>
		<polygon points="175.858,150.566 187.042,150.566 187.042,155.623 169.642,155.623 169.642,123.186 175.858,123.186 		"/>
		<polygon points="53.491,54.996 47.67,25.773 42.215,25.773 36.446,55.08 32.176,25.773 25.356,25.773 32.835,71.874 
			39.042,71.874 44.942,42.312 50.844,71.874 57.05,71.874 64.529,25.773 57.709,25.773 		"/>
		<path d="M81.317,25.123c-4.373,0-7.857,1.561-10.359,4.637c-2.474,3.043-3.729,7.386-3.729,12.91v12.366
			c0,5.547,1.255,9.886,3.731,12.898c2.502,3.045,5.996,4.588,10.386,4.588c4.445,0,8.002-1.541,10.572-4.582
			c2.547-3.012,3.839-7.355,3.839-12.904V42.67c0-5.526-1.296-9.871-3.853-12.918C89.327,26.68,85.764,25.123,81.317,25.123
			 M74.233,42.577c0-3.855,0.62-6.772,1.843-8.674c1.19-1.849,2.904-2.749,5.241-2.749c2.441,0,4.241,0.904,5.498,2.761
			c1.288,1.9,1.939,4.814,1.939,8.663v12.459c0,3.912-0.647,6.859-1.924,8.757c-1.249,1.857-3.043,2.761-5.484,2.761
			c-2.357,0-4.08-0.9-5.271-2.751c-1.224-1.9-1.843-4.849-1.843-8.767V42.577z"/>
		<path d="M126.673,67.678c-0.237-1.102-0.357-2.349-0.357-3.706v-3.925c0-2.831-0.461-5.2-1.367-7.043
			c-0.78-1.582-2.022-2.808-3.698-3.651c1.582-0.972,2.841-2.223,3.749-3.727c1.088-1.798,1.639-3.99,1.639-6.51
			c0-4.349-1.059-7.688-3.149-9.924c-2.1-2.249-5.225-3.388-9.288-3.388h-13.588v46.07h7.004V52.488h6.702
			c1.608,0,2.802,0.624,3.655,1.908c0.888,1.335,1.337,3.257,1.337,5.714v3.802c0,1.563,0.09,3.047,0.271,4.414
			c0.192,1.459,0.655,2.594,1.376,3.374l0.161,0.174h6.845v-1.518l-0.133-0.153C127.287,69.576,126.897,68.727,126.673,67.678
			 M107.619,31.68h6.408c1.969,0,3.357,0.608,4.237,1.857c0.912,1.292,1.375,3.222,1.375,5.731c0,2.423-0.488,4.282-1.449,5.529
			c-0.941,1.22-2.427,1.814-4.547,1.814h-6.023V31.68z"/>
		<polygon points="138.708,25.772 131.704,25.772 131.704,71.874 154.461,71.874 154.461,66.029 138.708,66.029 		"/>
		<path d="M180.324,30.535c-2.747-3.161-6.798-4.763-12.041-4.763h-10.761v46.101h10.496c5.378,0,9.508-1.58,12.272-4.696
			c2.747-3.098,4.141-7.912,4.141-14.304v-8.039C184.432,38.484,183.049,33.672,180.324,30.535 M164.526,31.68h3.58
			c3.369,0,5.786,1.004,7.182,2.986c1.439,2.041,2.169,5.441,2.169,10.106v8.102c0,4.645-0.739,8.049-2.198,10.121
			c-1.416,2.012-3.922,3.033-7.447,3.033h-3.286V31.68z"/>
	</g>
</g>
</svg>
