<svg width="69px" height="31px" viewBox="0 0 69 31" version="1.1" xmlns="http://www.w3.org/2000/svg" xmlns:xlink="http://www.w3.org/1999/xlink">
    <title>WORLD FASHION CHANNEL</title>
    <g id="Page-1" stroke="none" stroke-width="1" fill="none" fill-rule="evenodd">
        <g id="Logo-WF" transform="translate(1.000000, 1.000000)" fill="#000000" fill-rule="nonzero">
            <g id="Group" transform="translate(37.939850, 0.000000)">
                <g transform="translate(3.924812, 6.541353)" id="Path">
                    <path d="M14.7533684,0.199947368 L13.0203459,0.199947368 L12.7458271,0.199947368 L12.7458271,0.680518797 L13.0203459,0.680518797 L13.4919774,0.680518797 L13.4431353,0.919278195 L11.1876767,11.735188 L8.99065414,0.680518797 L10.1072632,0.680518797 L10.1072632,0.199947368 L5.58696992,0.199947368 L5.58696992,0.680518797 L6.61352632,0.680518797 L7.24367669,3.86201504 L5.60484962,11.735188 L3.28179699,0.680518797 L4.30835338,0.680518797 L4.30835338,0.199947368 L0.0401203008,0.199947368 L0.0401203008,0.680518797 L0.832496241,0.680518797 L4.03819549,15.7633534 L5.19078195,15.7633534 L7.47785714,5.12057143 L9.71107519,15.7633534 L10.845782,15.7633534 L12.8860301,5.88634586 L12.885812,5.88634586 L12.9039098,5.79934586 L13.4431353,3.18847368 L13.4431353,3.20460902 L13.9431128,0.799135338 L13.9712406,0.675067669 L16.2548271,0.675067669 L16.2548271,0.680518797 L18.8072632,0.680518797 C19.1674737,0.680518797 19.5636617,0.955037594 19.7256692,1.36714286 C20.1039774,2.23692481 20.5542406,3.95337594 20.7162481,5.21215038 L21.2744436,5.21215038 L21.2744436,0.199947368 L14.7533684,0.199947368 Z"></path>
                    <path d="M18.6040451,4.25122556 C18.5499699,5.16657895 18.2619323,6.31109774 18.0458496,6.7458797 C17.8838421,7.08930075 17.5955865,7.29513534 17.2172782,7.29513534 L16.1006692,7.29513534 L16.1006692,1.53111278 L14.6098947,1.53111278 L13.7954962,5.44938346 L13.7954962,15.283 L12.823015,15.283 L12.823015,15.7635714 L17.487218,15.7635714 L17.487218,15.283 L16.1004511,15.283 L16.1004511,7.86728571 L17.2170602,7.86728571 C17.5951504,7.86728571 17.9374812,8.09601504 18.0456316,8.43943609 C18.2436165,9.01158647 18.5318722,10.087203 18.6038271,10.8196165 L19.1262632,10.8196165 L19.1262632,4.25122556 L18.6040451,4.25122556 Z"></path>
                </g>
                <path d="M28.0209774,28.9212857 L1.14342857,28.9212857 C0.614451128,28.9212857 0.184030075,28.4910827 0.184030075,27.9621053 L0.184030075,1.08433835 C0.184030075,0.555360902 0.614451128,0.125157895 1.14342857,0.125157895 L28.0209774,0.125157895 C28.5499549,0.125157895 28.9803759,0.555360902 28.9803759,1.08433835 L28.9803759,27.9621053 C28.9803759,28.4910827 28.5499549,28.9212857 28.0209774,28.9212857 Z M1.14342857,0.624045113 C0.88962406,0.624045113 0.683135338,0.830315789 0.683135338,1.0841203 L0.683135338,27.9621053 C0.683135338,28.2159098 0.88962406,28.4221805 1.14342857,28.4221805 L28.0209774,28.4221805 C28.274782,28.4221805 28.4812707,28.2159098 28.4812707,27.9621053 L28.4812707,1.08433835 C28.4812707,0.830533835 28.274782,0.624045113 28.0209774,0.624045113 L1.14342857,0.624045113 L1.14342857,0.624045113 Z" id="Shape"></path>
            </g>
            <g id="Group" transform="translate(0.000000, 0.218045)">
                <polygon id="Path" points="4.47057895 16.3394286 2.13662406 16.3394286 2.13662406 19.4291278 0.711699248 19.4291278 0.711699248 11.9931353 4.88944361 11.9931353 4.88944361 13.1577143 2.13662406 13.1577143 2.13662406 15.1798647 4.47057895 15.1798647"></polygon>
                <path d="M7.80274436,17.8408872 L5.96396992,17.8408872 L5.6013609,19.4291278 L4.16618797,19.4291278 L6.15301504,11.9931353 L7.62896241,11.9931353 L9.60554135,19.4291278 L8.17581955,19.4291278 L7.80274436,17.8408872 Z M6.22933083,16.6813233 L7.53672932,16.6813233 L6.88826316,13.8827143 L6.87278195,13.8827143 L6.22933083,16.6813233 Z" id="Shape"></path>
                <path d="M13.2130977,17.4885263 C13.2130977,17.192203 13.1459398,16.9621654 13.011406,16.7988496 C12.8766541,16.6355338 12.634406,16.4704737 12.2837895,16.3032331 C11.5308797,16.027406 10.9737744,15.7238872 10.6111654,15.3918045 C10.2481203,15.0597218 10.0669248,14.5791504 10.0669248,13.948782 C10.0669248,13.3258271 10.2790827,12.8260677 10.7027444,12.4499398 C11.1268421,12.073812 11.6808947,11.8856391 12.3653383,11.8856391 C13.049782,11.8856391 13.6014361,12.097797 14.0198647,12.5214586 C14.4389474,12.9455564 14.6482707,13.4963383 14.6482707,14.1738045 L13.2233459,14.1738045 C13.2233459,13.823188 13.1485564,13.5445263 12.9985414,13.3389098 C12.8489624,13.1328571 12.6291729,13.0297218 12.339609,13.0297218 C12.0672707,13.0297218 11.8577293,13.1165038 11.7116391,13.2900677 C11.5648947,13.4636316 11.4918496,13.6851654 11.4918496,13.954015 C11.4918496,14.2023684 11.5742707,14.4042782 11.7397669,14.5593083 C11.9048271,14.7141203 12.1967895,14.8903008 12.6154361,15.0876316 C13.2998797,15.3296617 13.8083609,15.6288195 14.1400075,15.9864135 C14.4723083,16.3442256 14.6380226,16.8415865 14.6380226,17.4780602 C14.6380226,18.1352481 14.436985,18.6426391 14.0351278,19.000015 C13.6332707,19.357391 13.0851053,19.536188 12.3908496,19.536188 C11.6994286,19.536188 11.1096165,19.3318797 10.6207594,18.9230451 C10.1321203,18.5146466 9.88790977,17.9084812 9.88790977,17.105203 L11.3180677,17.105203 C11.3180677,17.5785789 11.4031053,17.9119699 11.5733985,18.1060301 C11.7434737,18.3000902 12.0162481,18.3971203 12.3908496,18.3971203 C12.6769248,18.3971203 12.8851579,18.3170977 13.0164211,18.1572707 C13.1472481,17.9972256 13.2130977,17.7746015 13.2130977,17.4885263" id="Path"></path>
                <polygon id="Path" points="20.3806767 19.4293459 18.9557519 19.4293459 18.9557519 16.3496767 16.8256692 16.3496767 16.8256692 19.4293459 15.4011805 19.4293459 15.4011805 11.9926992 16.8256692 11.9926992 16.8256692 15.1903308 18.9557519 15.1903308 18.9557519 11.9926992 20.3806767 11.9926992"></polygon>
                <rect id="Rectangle" x="21.4089774" y="11.9929173" width="1.42492481" height="7.43664662"></rect>
                <path d="M28.7603684,16.7580752 C28.7603684,17.6568571 28.5388346,18.3445714 28.0964211,18.8214361 C27.6540075,19.2980827 27.0476241,19.536188 26.2781429,19.536188 C25.5051729,19.536188 24.9000977,19.2980827 24.4629173,18.8214361 C24.0250827,18.3447895 23.8061654,17.6568571 23.8061654,16.7580752 L23.8061654,14.6744361 C23.8061654,13.7791429 24.0250827,13.0903383 24.4629173,12.6086767 C24.9003158,12.126797 25.5023383,11.8856391 26.2683308,11.8856391 C27.0408647,11.8856391 27.6496466,12.126797 28.0938045,12.6086767 C28.5379624,13.0905564 28.7603684,13.7793609 28.7603684,14.6744361 L28.7603684,16.7580752 L28.7603684,16.7580752 Z M27.3354436,14.664188 C27.3354436,14.1092632 27.2477895,13.7021729 27.0724812,13.4435714 C26.8971729,13.1849699 26.6291955,13.0554511 26.2683308,13.0554511 C25.9070301,13.0554511 25.6440677,13.1840977 25.4790075,13.4411729 C25.3135113,13.6980301 25.2310902,14.1059925 25.2310902,14.664406 L25.2310902,16.7585113 C25.2310902,17.3201955 25.3156917,17.7299023 25.4842406,17.9867594 C25.6527895,18.2440526 25.9172782,18.3724812 26.2781429,18.3724812 C26.6355188,18.3724812 26.9015338,18.2429624 27.0750977,17.9843609 C27.2486617,17.7257594 27.3354436,17.3169248 27.3354436,16.7585113 L27.3354436,14.664188 Z" id="Shape"></path>
                <polygon id="Path" points="34.635812 19.4293459 33.2159023 19.4293459 31.1065338 14.7357068 31.0910526 14.7357068 31.0910526 19.4293459 29.6665639 19.4293459 29.6665639 11.9926992 31.0910526 11.9926992 33.2004211 16.6815414 33.2159023 16.6815414 33.2159023 11.9926992 34.635812 11.9926992"></polygon>
                <polygon id="Path" points="10.1912105 28.5364361 8.83606015 28.5364361 8.83606015 25.6074361 6.81042105 25.6074361 6.81042105 28.5364361 5.45505263 28.5364361 5.45505263 21.4632707 6.81042105 21.4632707 6.81042105 24.5043459 8.83606015 24.5043459 8.83606015 21.4632707 10.1912105 21.4632707"></polygon>
                <path d="M4.90143609,26.2811955 C4.89794737,27.0550376 4.70563158,27.632203 4.3233985,28.0131278 C3.94116541,28.3931805 3.38754887,28.5835338 2.66189474,28.5835338 C1.95259398,28.5835338 1.40791729,28.3659248 1.02742857,27.9302707 C0.646503759,27.4946165 0.456586466,26.8529098 0.456586466,26.0042782 L0.456586466,23.8914211 C0.456586466,23.0526015 0.651518797,22.412203 1.04181955,21.9700075 C1.4321203,21.5280301 1.97221805,21.3069323 2.66167669,21.3069323 C3.39997744,21.3069323 3.95315789,21.498812 4.32056391,21.8823534 C4.68818797,22.2663308 4.8831203,22.8550526 4.90623308,23.6480827 L3.55042857,23.6480827 C3.56678195,23.2013083 3.50943609,22.8840526 3.37817293,22.6963158 C3.24690977,22.5081429 3.00836842,22.4146015 2.66167669,22.4146015 C2.36709774,22.4146015 2.15079699,22.5316917 2.01321053,22.7665263 C1.87562406,23.0015789 1.8067218,23.3731278 1.8067218,23.881609 L1.8067218,26.0042782 C1.8067218,26.5288947 1.87169925,26.9063308 2.00121805,27.1359323 C2.13073684,27.3659699 2.35096241,27.4808797 2.66167669,27.4808797 C2.98525564,27.4808797 3.21790977,27.3910451 3.35898496,27.211594 C3.49962406,27.0314887 3.56198496,26.7216466 3.54584962,26.2811955 L4.90143609,26.2811955 Z" id="Path"></path>
                <path d="M13.9679699,26.9710902 L12.2190301,26.9710902 L11.8740827,28.4814887 L10.5093383,28.4814887 L12.3991353,21.4087594 L13.8026917,21.4087594 L15.6824586,28.4814887 L14.3225113,28.4814887 L13.9679699,26.9710902 Z M12.4717444,25.868 L13.7154737,25.868 L13.0986241,23.2061053 L13.084015,23.2061053 L12.4717444,25.868 Z" id="Shape"></path>
                <polygon id="Path" points="20.7177744 28.4817068 19.367203 28.4817068 17.361188 24.0172331 17.346797 24.0172331 17.346797 28.4817068 15.9914286 28.4817068 15.9914286 21.4085414 17.346797 21.4085414 19.352594 25.868218 19.367203 25.868218 19.367203 21.4085414 20.7177744 21.4085414"></polygon>
                <polygon id="Path" points="26.0962932 28.4817068 24.7457218 28.4817068 22.7397068 24.0172331 22.7250977 24.0172331 22.7250977 28.4817068 21.3697293 28.4817068 21.3697293 21.4085414 22.7250977 21.4085414 24.7311128 25.868218 24.7457218 25.868218 24.7457218 21.4085414 26.0962932 21.4085414"></polygon>
                <polygon id="Path" points="30.4901203 25.3773985 28.2553759 25.3773985 28.2553759 27.3788346 30.8887068 27.3788346 30.8887068 28.4819248 26.9002256 28.4819248 26.9002256 21.4087594 30.8788947 21.4087594 30.8788947 22.5164286 28.2553759 22.5164286 28.2553759 24.2749624 30.4901203 24.2749624"></polygon>
                <polygon id="Path" points="32.8938496 27.3790526 35.3324662 27.3790526 35.3324662 28.4817068 31.5384812 28.4817068 31.5384812 21.4089774 32.8938496 21.4089774"></polygon>
                <polygon id="Path" points="6.21232331 6.5404812 4.94308271 0.168548872 3.75364662 0.168548872 2.49574436 6.55879699 1.56469173 0.168548872 0.0776240602 0.168548872 1.70838346 10.2206466 3.06178947 10.2206466 4.34825564 3.77479699 5.63515789 10.2206466 6.98834586 10.2206466 8.61910526 0.168548872 7.13203759 0.168548872"></polygon>
                <path d="M12.2796466,0.0268195489 C11.3261353,0.0268195489 10.5664662,0.36718797 10.0209173,1.03789474 C9.48147368,1.70140602 9.20782707,2.64837594 9.20782707,3.85285714 L9.20782707,6.54920301 C9.20782707,7.75869925 9.48147368,8.70479699 10.0213534,9.36154887 C10.5669023,10.0254962 11.3287519,10.3619398 12.2859699,10.3619398 C13.2551805,10.3619398 14.0307669,10.0259323 14.5911429,9.36285714 C15.1465038,8.70610526 15.428218,7.75913534 15.428218,6.54920301 L15.428218,3.85285714 C15.428218,2.64793985 15.1456316,1.70053383 14.5880902,1.03615038 C14.026188,0.366315789 13.2492932,0.0268195489 12.2796466,0.0268195489 M10.735015,3.83257895 C10.735015,2.99201504 10.870203,2.35597744 11.1368722,1.94125564 C11.3963459,1.53809023 11.7700752,1.34184962 12.2796466,1.34184962 C12.8118947,1.34184962 13.2043759,1.53896241 13.4784586,1.94387218 C13.7593008,2.35815789 13.9012481,2.99354135 13.9012481,3.83279699 L13.9012481,6.54942105 C13.9012481,7.40241353 13.7601729,8.04499248 13.4817293,8.45884211 C13.209391,8.86375188 12.818218,9.06086466 12.2859699,9.06086466 C11.7720376,9.06086466 11.3963459,8.86462406 11.1366541,8.46102256 C10.8697669,8.04673684 10.734797,7.4037218 10.734797,6.54942105 L10.734797,3.83257895 L10.735015,3.83257895 Z" id="Shape"></path>
                <path d="M22.1693008,9.30572932 C22.1176241,9.06544361 22.0914586,8.79354135 22.0914586,8.49765414 L22.0914586,7.64182707 C22.0914586,7.02454135 21.9909398,6.50799248 21.793391,6.10613534 C21.6233158,5.76118797 21.3525038,5.49386466 20.9870602,5.31005263 C21.3320075,5.09811278 21.6065263,4.82533835 21.8045113,4.4973985 C22.0417444,4.10535338 22.1618872,3.6273985 22.1618872,3.07792481 C22.1618872,2.12964662 21.9309774,1.40159398 21.4752632,0.914045113 C21.0173684,0.423661654 20.3359774,0.175308271 19.4500602,0.175308271 L16.4872632,0.175308271 L16.4872632,10.2206466 L18.0144511,10.2206466 L18.0144511,5.99362406 L19.4757895,5.99362406 C19.826406,5.99362406 20.0867519,6.12968421 20.2727444,6.40965414 C20.4663684,6.70074436 20.5642707,7.11982707 20.5642707,7.65556391 L20.5642707,8.48457143 C20.5642707,8.82537594 20.5838947,9.14895489 20.6233609,9.44702256 C20.6652256,9.76515038 20.7661805,10.0126316 20.923391,10.1827068 L20.9584962,10.2206466 L22.451015,10.2206466 L22.451015,9.88965414 L22.422015,9.85629323 C22.3031805,9.71957895 22.2181429,9.53445865 22.1693008,9.30572932 M18.0146692,1.45654135 L19.4119023,1.45654135 C19.8412331,1.45654135 20.1438797,1.58911278 20.3357594,1.86145113 C20.5346165,2.14316541 20.6355714,2.56399248 20.6355714,3.11106767 C20.6355714,3.63939098 20.5291654,4.04473684 20.3196241,4.3166391 C20.1144436,4.58265414 19.7904286,4.71217293 19.3281729,4.71217293 L18.0148872,4.71217293 L18.0148872,1.45654135 L18.0146692,1.45654135 Z" id="Shape"></path>
                <polygon id="Path" points="24.7934737 0.168330827 23.2662857 0.168330827 23.2662857 10.2206466 28.2283383 10.2206466 28.2283383 8.94617293 24.7934737 8.94617293"></polygon>
                <path d="M33.8676391,1.2068797 C33.2686692,0.517639098 32.3853684,0.168330827 31.2421579,0.168330827 L28.8957744,0.168330827 L28.8957744,10.2204286 L31.1843759,10.2204286 C32.3570226,10.2204286 33.2575489,9.87591729 33.8602256,9.19648872 C34.4591955,8.52098496 34.7631505,7.47131579 34.7631505,6.07757143 L34.7631505,4.32470677 C34.7633684,2.9401203 34.461812,1.89088722 33.8676391,1.2068797 M30.4229624,1.45654135 L31.2035639,1.45654135 C31.9381579,1.45654135 32.4651729,1.67545865 32.7695639,2.10762406 C33.0833308,2.55265414 33.2425038,3.29400752 33.2425038,4.31118797 L33.2425038,6.07778947 C33.2425038,7.09060902 33.0813684,7.83283459 32.7632406,8.28462406 C32.4544887,8.72333083 31.9080677,8.94595489 31.1394586,8.94595489 L30.4229624,8.94595489 L30.4229624,1.45654135 Z" id="Shape"></path>
            </g>
        </g>
    </g>
</svg>
